G04 #@! TF.GenerationSoftware,KiCad,Pcbnew,(5.1.5)-3*
G04 #@! TF.CreationDate,2021-10-20T23:00:28+02:00*
G04 #@! TF.ProjectId,WFP_v2_0,5746505f-7632-45f3-902e-6b696361645f,v 0.2*
G04 #@! TF.SameCoordinates,Original*
G04 #@! TF.FileFunction,Legend,Top*
G04 #@! TF.FilePolarity,Positive*
%FSLAX46Y46*%
G04 Gerber Fmt 4.6, Leading zero omitted, Abs format (unit mm)*
G04 Created by KiCad (PCBNEW (5.1.5)-3) date 2021-10-20 23:00:28*
%MOMM*%
%LPD*%
G04 APERTURE LIST*
%ADD10C,0.150000*%
%ADD11C,0.120000*%
%ADD12C,0.010000*%
G04 APERTURE END LIST*
D10*
X81478380Y-46013619D02*
X81002190Y-46346952D01*
X81478380Y-46585047D02*
X80478380Y-46585047D01*
X80478380Y-46204095D01*
X80526000Y-46108857D01*
X80573619Y-46061238D01*
X80668857Y-46013619D01*
X80811714Y-46013619D01*
X80906952Y-46061238D01*
X80954571Y-46108857D01*
X81002190Y-46204095D01*
X81002190Y-46585047D01*
X81430761Y-45632666D02*
X81478380Y-45489809D01*
X81478380Y-45251714D01*
X81430761Y-45156476D01*
X81383142Y-45108857D01*
X81287904Y-45061238D01*
X81192666Y-45061238D01*
X81097428Y-45108857D01*
X81049809Y-45156476D01*
X81002190Y-45251714D01*
X80954571Y-45442190D01*
X80906952Y-45537428D01*
X80859333Y-45585047D01*
X80764095Y-45632666D01*
X80668857Y-45632666D01*
X80573619Y-45585047D01*
X80526000Y-45537428D01*
X80478380Y-45442190D01*
X80478380Y-45204095D01*
X80526000Y-45061238D01*
X80478380Y-44775523D02*
X80478380Y-44204095D01*
X81478380Y-44489809D02*
X80478380Y-44489809D01*
X76668380Y-46751714D02*
X76668380Y-46180285D01*
X77668380Y-46466000D02*
X76668380Y-46466000D01*
X77573142Y-45275523D02*
X77620761Y-45323142D01*
X77668380Y-45466000D01*
X77668380Y-45561238D01*
X77620761Y-45704095D01*
X77525523Y-45799333D01*
X77430285Y-45846952D01*
X77239809Y-45894571D01*
X77096952Y-45894571D01*
X76906476Y-45846952D01*
X76811238Y-45799333D01*
X76716000Y-45704095D01*
X76668380Y-45561238D01*
X76668380Y-45466000D01*
X76716000Y-45323142D01*
X76763619Y-45275523D01*
X77668380Y-44846952D02*
X76668380Y-44846952D01*
X77668380Y-44275523D02*
X77096952Y-44704095D01*
X76668380Y-44275523D02*
X77239809Y-44846952D01*
X75144380Y-46799333D02*
X75144380Y-46227904D01*
X76144380Y-46513619D02*
X75144380Y-46513619D01*
X76144380Y-45894571D02*
X75144380Y-45894571D01*
X75858666Y-45561238D01*
X75144380Y-45227904D01*
X76144380Y-45227904D01*
X76096761Y-44799333D02*
X76144380Y-44656476D01*
X76144380Y-44418380D01*
X76096761Y-44323142D01*
X76049142Y-44275523D01*
X75953904Y-44227904D01*
X75858666Y-44227904D01*
X75763428Y-44275523D01*
X75715809Y-44323142D01*
X75668190Y-44418380D01*
X75620571Y-44608857D01*
X75572952Y-44704095D01*
X75525333Y-44751714D01*
X75430095Y-44799333D01*
X75334857Y-44799333D01*
X75239619Y-44751714D01*
X75192000Y-44704095D01*
X75144380Y-44608857D01*
X75144380Y-44370761D01*
X75192000Y-44227904D01*
X51903333Y-56332380D02*
X51570000Y-55856190D01*
X51331904Y-56332380D02*
X51331904Y-55332380D01*
X51712857Y-55332380D01*
X51808095Y-55380000D01*
X51855714Y-55427619D01*
X51903333Y-55522857D01*
X51903333Y-55665714D01*
X51855714Y-55760952D01*
X51808095Y-55808571D01*
X51712857Y-55856190D01*
X51331904Y-55856190D01*
X52236666Y-55332380D02*
X52903333Y-56332380D01*
X52903333Y-55332380D02*
X52236666Y-56332380D01*
X51308095Y-65492380D02*
X51879523Y-65492380D01*
X51593809Y-66492380D02*
X51593809Y-65492380D01*
X52117619Y-65492380D02*
X52784285Y-66492380D01*
X52784285Y-65492380D02*
X52117619Y-66492380D01*
X50800095Y-63000000D02*
X50704857Y-62952380D01*
X50562000Y-62952380D01*
X50419142Y-63000000D01*
X50323904Y-63095238D01*
X50276285Y-63190476D01*
X50228666Y-63380952D01*
X50228666Y-63523809D01*
X50276285Y-63714285D01*
X50323904Y-63809523D01*
X50419142Y-63904761D01*
X50562000Y-63952380D01*
X50657238Y-63952380D01*
X50800095Y-63904761D01*
X50847714Y-63857142D01*
X50847714Y-63523809D01*
X50657238Y-63523809D01*
X51276285Y-63952380D02*
X51276285Y-62952380D01*
X51847714Y-63952380D01*
X51847714Y-62952380D01*
X52323904Y-63952380D02*
X52323904Y-62952380D01*
X52562000Y-62952380D01*
X52704857Y-63000000D01*
X52800095Y-63095238D01*
X52847714Y-63190476D01*
X52895333Y-63380952D01*
X52895333Y-63523809D01*
X52847714Y-63714285D01*
X52800095Y-63809523D01*
X52704857Y-63904761D01*
X52562000Y-63952380D01*
X52323904Y-63952380D01*
X50800095Y-57920000D02*
X50704857Y-57872380D01*
X50562000Y-57872380D01*
X50419142Y-57920000D01*
X50323904Y-58015238D01*
X50276285Y-58110476D01*
X50228666Y-58300952D01*
X50228666Y-58443809D01*
X50276285Y-58634285D01*
X50323904Y-58729523D01*
X50419142Y-58824761D01*
X50562000Y-58872380D01*
X50657238Y-58872380D01*
X50800095Y-58824761D01*
X50847714Y-58777142D01*
X50847714Y-58443809D01*
X50657238Y-58443809D01*
X51276285Y-58872380D02*
X51276285Y-57872380D01*
X51847714Y-58872380D01*
X51847714Y-57872380D01*
X52323904Y-58872380D02*
X52323904Y-57872380D01*
X52562000Y-57872380D01*
X52704857Y-57920000D01*
X52800095Y-58015238D01*
X52847714Y-58110476D01*
X52895333Y-58300952D01*
X52895333Y-58443809D01*
X52847714Y-58634285D01*
X52800095Y-58729523D01*
X52704857Y-58824761D01*
X52562000Y-58872380D01*
X52323904Y-58872380D01*
X48800000Y-61031428D02*
X49561904Y-61031428D01*
X49180952Y-61412380D02*
X49180952Y-60650476D01*
X49942857Y-60412380D02*
X50561904Y-60412380D01*
X50228571Y-60793333D01*
X50371428Y-60793333D01*
X50466666Y-60840952D01*
X50514285Y-60888571D01*
X50561904Y-60983809D01*
X50561904Y-61221904D01*
X50514285Y-61317142D01*
X50466666Y-61364761D01*
X50371428Y-61412380D01*
X50085714Y-61412380D01*
X49990476Y-61364761D01*
X49942857Y-61317142D01*
X50990476Y-61317142D02*
X51038095Y-61364761D01*
X50990476Y-61412380D01*
X50942857Y-61364761D01*
X50990476Y-61317142D01*
X50990476Y-61412380D01*
X51371428Y-60412380D02*
X51990476Y-60412380D01*
X51657142Y-60793333D01*
X51800000Y-60793333D01*
X51895238Y-60840952D01*
X51942857Y-60888571D01*
X51990476Y-60983809D01*
X51990476Y-61221904D01*
X51942857Y-61317142D01*
X51895238Y-61364761D01*
X51800000Y-61412380D01*
X51514285Y-61412380D01*
X51419047Y-61364761D01*
X51371428Y-61317142D01*
X52276190Y-60412380D02*
X52609523Y-61412380D01*
X52942857Y-60412380D01*
X119597105Y-41348685D02*
X119683420Y-41388934D01*
X119749610Y-41472341D01*
X119772643Y-41535623D01*
X119775551Y-41642063D01*
X119738210Y-41834818D01*
X119637586Y-42050605D01*
X119513930Y-42203111D01*
X119430523Y-42269301D01*
X119367241Y-42292334D01*
X119260801Y-42295242D01*
X119174486Y-42254993D01*
X119108296Y-42171586D01*
X119085263Y-42108304D01*
X119082355Y-42001864D01*
X119119696Y-41809109D01*
X119220320Y-41593322D01*
X119343976Y-41440816D01*
X119427383Y-41374626D01*
X119490665Y-41351593D01*
X119597105Y-41348685D01*
X120235975Y-42119471D02*
X120169785Y-42036065D01*
X120146752Y-41972782D01*
X120143844Y-41866343D01*
X120163969Y-41823185D01*
X120247375Y-41756995D01*
X120310658Y-41733962D01*
X120417097Y-41731054D01*
X120589727Y-41811553D01*
X120655918Y-41894959D01*
X120678951Y-41958242D01*
X120681859Y-42064681D01*
X120661734Y-42107839D01*
X120578327Y-42174029D01*
X120515045Y-42197062D01*
X120408605Y-42199970D01*
X120235975Y-42119471D01*
X120129535Y-42122380D01*
X120066253Y-42145412D01*
X119982846Y-42211603D01*
X119902348Y-42384233D01*
X119905256Y-42490673D01*
X119928289Y-42553955D01*
X119994479Y-42637362D01*
X120167109Y-42717860D01*
X120273549Y-42714952D01*
X120336831Y-42691919D01*
X120420238Y-42625729D01*
X120500737Y-42453099D01*
X120497828Y-42346659D01*
X120474796Y-42283377D01*
X120408605Y-42199970D01*
X121818262Y-42331886D02*
X120498061Y-43134895D01*
X122272870Y-42596415D02*
X122359185Y-42636664D01*
X122425376Y-42720071D01*
X122448409Y-42783353D01*
X122451317Y-42889793D01*
X122413976Y-43082548D01*
X122313352Y-43298335D01*
X122189696Y-43450841D01*
X122106289Y-43517031D01*
X122043007Y-43540064D01*
X121936567Y-43542972D01*
X121850252Y-43502723D01*
X121784062Y-43419316D01*
X121761029Y-43356034D01*
X121758121Y-43249594D01*
X121795462Y-43056839D01*
X121896085Y-42841052D01*
X122019742Y-42688546D01*
X122103148Y-42622356D01*
X122166431Y-42599323D01*
X122272870Y-42596415D01*
X122911741Y-43367202D02*
X122845551Y-43283795D01*
X122822518Y-43220513D01*
X122819610Y-43114073D01*
X122839734Y-43070915D01*
X122923141Y-43004725D01*
X122986423Y-42981692D01*
X123092863Y-42978784D01*
X123265493Y-43059283D01*
X123331684Y-43142690D01*
X123354716Y-43205972D01*
X123357625Y-43312411D01*
X123337500Y-43355569D01*
X123254093Y-43421759D01*
X123190811Y-43444792D01*
X123084371Y-43447700D01*
X122911741Y-43367202D01*
X122805301Y-43370110D01*
X122742019Y-43393143D01*
X122658612Y-43459333D01*
X122578114Y-43631963D01*
X122581022Y-43738403D01*
X122604055Y-43801685D01*
X122670245Y-43885092D01*
X122842875Y-43965590D01*
X122949315Y-43962682D01*
X123012597Y-43939649D01*
X123096004Y-43873459D01*
X123176502Y-43700829D01*
X123173594Y-43594389D01*
X123150561Y-43531107D01*
X123084371Y-43447700D01*
X124494028Y-43579616D02*
X123173827Y-44382625D01*
X124692599Y-43829837D02*
X124755881Y-43806804D01*
X124862321Y-43803896D01*
X125078109Y-43904519D01*
X125144299Y-43987926D01*
X125167332Y-44051208D01*
X125170240Y-44157648D01*
X125129991Y-44243963D01*
X125026459Y-44353311D01*
X124267073Y-44629705D01*
X124828121Y-44891326D01*
X125811787Y-44246639D02*
X125898102Y-44286888D01*
X125964292Y-44370295D01*
X125987325Y-44433577D01*
X125990233Y-44540017D01*
X125952892Y-44732772D01*
X125852268Y-44948559D01*
X125728612Y-45101065D01*
X125645205Y-45167255D01*
X125581923Y-45190288D01*
X125475483Y-45193196D01*
X125389168Y-45152947D01*
X125322978Y-45069540D01*
X125299945Y-45006257D01*
X125297037Y-44899818D01*
X125334378Y-44707063D01*
X125435002Y-44491275D01*
X125558658Y-44338770D01*
X125642065Y-44272580D01*
X125705347Y-44249547D01*
X125811787Y-44246639D01*
X126418900Y-44634824D02*
X126482182Y-44611791D01*
X126588622Y-44608883D01*
X126804409Y-44709506D01*
X126870600Y-44792913D01*
X126893633Y-44856195D01*
X126896541Y-44962635D01*
X126856291Y-45048950D01*
X126752760Y-45158298D01*
X125993373Y-45434692D01*
X126554421Y-45696313D01*
X127538087Y-45051626D02*
X127624402Y-45091875D01*
X127690592Y-45175282D01*
X127713625Y-45238564D01*
X127716533Y-45345004D01*
X127679192Y-45537759D01*
X127578569Y-45753546D01*
X127454913Y-45906052D01*
X127371506Y-45972242D01*
X127308224Y-45995275D01*
X127201784Y-45998183D01*
X127115469Y-45957934D01*
X127049278Y-45874527D01*
X127026246Y-45811245D01*
X127023337Y-45704805D01*
X127060679Y-45512050D01*
X127161302Y-45296263D01*
X127284958Y-45143757D01*
X127368365Y-45077567D01*
X127431647Y-45054534D01*
X127538087Y-45051626D01*
X117619600Y-42772551D02*
X117921703Y-42913424D01*
X117829804Y-43448531D02*
X117398228Y-43247284D01*
X117820847Y-42340976D01*
X118252422Y-42542223D01*
X118499967Y-43025447D02*
X118218221Y-43629653D01*
X118459717Y-43111762D02*
X118523000Y-43088730D01*
X118629439Y-43085821D01*
X118758912Y-43146196D01*
X118825102Y-43229602D01*
X118828010Y-43336042D01*
X118606639Y-43810775D01*
X119038214Y-44012022D02*
X119319959Y-43407816D01*
X119239461Y-43580446D02*
X119322868Y-43514256D01*
X119386150Y-43491223D01*
X119492590Y-43488315D01*
X119578905Y-43528564D01*
X119599262Y-44273642D02*
X119881007Y-43669437D01*
X120021880Y-43367335D02*
X119958598Y-43390367D01*
X119981631Y-43453650D01*
X120044913Y-43430617D01*
X120021880Y-43367335D01*
X119981631Y-43453650D01*
X120439379Y-44612854D02*
X120332939Y-44615762D01*
X120160309Y-44535263D01*
X120094119Y-44451856D01*
X120071086Y-44388574D01*
X120068178Y-44282134D01*
X120188926Y-44023189D01*
X120272333Y-43956999D01*
X120335615Y-43933966D01*
X120442055Y-43931058D01*
X120614685Y-44011557D01*
X120680875Y-44094964D01*
X120937145Y-44897507D02*
X120870954Y-44814101D01*
X120847921Y-44750818D01*
X120845013Y-44644379D01*
X120965761Y-44385434D01*
X121049168Y-44319243D01*
X121112450Y-44296210D01*
X121218890Y-44293302D01*
X121348363Y-44353676D01*
X121414553Y-44437083D01*
X121437586Y-44500365D01*
X121440494Y-44606805D01*
X121319746Y-44865750D01*
X121236339Y-44931940D01*
X121173057Y-44954973D01*
X121066617Y-44957881D01*
X120937145Y-44897507D01*
X122318185Y-45541497D02*
X122740803Y-44635189D01*
X122741036Y-45423425D01*
X123345008Y-44916935D01*
X122922390Y-45823243D01*
X124024128Y-45601406D02*
X123742383Y-46205612D01*
X123635711Y-45420284D02*
X123414339Y-45895017D01*
X123417248Y-46001457D01*
X123483438Y-46084863D01*
X123612910Y-46145238D01*
X123719350Y-46142329D01*
X123782632Y-46119297D01*
X124455704Y-45802653D02*
X124173958Y-46406858D01*
X124415454Y-45888968D02*
X124478736Y-45865935D01*
X124585176Y-45863027D01*
X124714649Y-45923401D01*
X124780839Y-46006808D01*
X124783747Y-46113248D01*
X124562376Y-46587980D01*
X125382368Y-46970349D02*
X125603740Y-46495617D01*
X125600832Y-46389177D01*
X125534641Y-46305770D01*
X125362011Y-46225271D01*
X125255572Y-46228180D01*
X125402493Y-46927192D02*
X125296053Y-46930100D01*
X125080266Y-46829477D01*
X125014076Y-46746070D01*
X125011167Y-46639630D01*
X125051417Y-46553315D01*
X125134824Y-46487125D01*
X125241263Y-46484217D01*
X125457051Y-46584840D01*
X125563491Y-46581932D01*
X125813944Y-47171596D02*
X126095689Y-46567391D01*
X126015190Y-46740021D02*
X126098597Y-46673831D01*
X126161879Y-46650798D01*
X126268319Y-46647890D01*
X126354634Y-46688139D01*
X126504464Y-47493591D02*
X126438273Y-47410184D01*
X126415241Y-47346902D01*
X126412332Y-47240462D01*
X126533081Y-46981517D01*
X126616487Y-46915327D01*
X126679770Y-46892294D01*
X126786209Y-46889386D01*
X126915682Y-46949760D01*
X126981872Y-47033167D01*
X127004905Y-47096449D01*
X127007813Y-47202889D01*
X126887065Y-47461834D01*
X126803658Y-47528024D01*
X126740376Y-47551057D01*
X126633936Y-47553965D01*
X126504464Y-47493591D01*
X127476730Y-47211381D02*
X127194984Y-47815586D01*
X127436480Y-47297696D02*
X127499762Y-47274663D01*
X127606202Y-47271755D01*
X127735675Y-47332129D01*
X127801865Y-47415536D01*
X127804773Y-47521975D01*
X127583402Y-47996708D01*
X116389849Y-43494264D02*
X116562479Y-43574763D01*
X116628669Y-43658170D01*
X116674735Y-43784734D01*
X116637394Y-43977489D01*
X116496521Y-44279592D01*
X116372865Y-44432097D01*
X116246300Y-44478163D01*
X116139861Y-44481071D01*
X115967231Y-44400572D01*
X115901040Y-44317165D01*
X115854975Y-44190601D01*
X115892316Y-43997846D01*
X116033189Y-43695744D01*
X116156845Y-43543238D01*
X116283409Y-43497173D01*
X116389849Y-43494264D01*
X116744066Y-44762816D02*
X117166684Y-43856509D01*
X116965437Y-44288084D02*
X117483328Y-44529580D01*
X117261956Y-45004313D02*
X117684574Y-44098005D01*
X117693531Y-45205559D02*
X118116150Y-44299252D01*
X118211421Y-45447056D02*
X118064500Y-44748043D01*
X118634040Y-44540748D02*
X117874653Y-44817142D01*
X118576806Y-45564895D02*
X118686154Y-45668427D01*
X118901942Y-45769050D01*
X119008381Y-45766142D01*
X119071664Y-45743109D01*
X119155070Y-45676919D01*
X119195320Y-45590604D01*
X119192412Y-45484164D01*
X119169379Y-45420882D01*
X119103188Y-45337475D01*
X118950683Y-45213819D01*
X118884493Y-45130412D01*
X118861460Y-45067130D01*
X118858552Y-44960690D01*
X118898801Y-44874375D01*
X118982208Y-44808185D01*
X119045490Y-44785152D01*
X119151930Y-44782244D01*
X119367717Y-44882867D01*
X119477065Y-44986399D01*
X119206952Y-46016363D02*
X119897473Y-46338358D01*
X120489813Y-45406109D02*
X120282982Y-46413040D01*
X120757482Y-45846176D01*
X120628242Y-46574038D01*
X121266648Y-45768353D01*
X121712764Y-46501798D02*
X121410661Y-46360926D01*
X121189290Y-46835658D02*
X121611908Y-45929351D01*
X122043483Y-46130597D01*
X121966125Y-47197903D02*
X122388743Y-46291595D01*
X122734003Y-46452592D01*
X122800194Y-46535999D01*
X122823227Y-46599281D01*
X122826135Y-46705721D01*
X122765761Y-46835194D01*
X122682354Y-46901384D01*
X122619072Y-46924417D01*
X122512632Y-46927325D01*
X122167372Y-46766327D01*
X123723951Y-47597256D02*
X124414471Y-47919250D01*
X125570999Y-48143298D02*
X125505041Y-48848126D01*
X126002574Y-48344544D01*
X126405300Y-48269630D02*
X126468582Y-48246597D01*
X126575022Y-48243689D01*
X126790810Y-48344312D01*
X126857000Y-48427719D01*
X126880033Y-48491001D01*
X126882941Y-48597441D01*
X126842692Y-48683756D01*
X126739160Y-48793104D01*
X125979774Y-49069498D01*
X126540822Y-49331119D01*
X126969489Y-49425926D02*
X126992521Y-49489208D01*
X126929239Y-49512241D01*
X126906206Y-49448959D01*
X126969489Y-49425926D01*
X126929239Y-49512241D01*
X127956063Y-48887678D02*
X128042378Y-48927928D01*
X128108568Y-49011335D01*
X128131601Y-49074617D01*
X128134509Y-49181057D01*
X128097168Y-49373811D01*
X127996544Y-49589599D01*
X127872888Y-49742104D01*
X127789481Y-49808295D01*
X127726199Y-49831327D01*
X127619759Y-49834236D01*
X127533444Y-49793986D01*
X127467254Y-49710579D01*
X127444221Y-49647297D01*
X127441313Y-49540857D01*
X127478654Y-49348103D01*
X127579278Y-49132315D01*
X127702934Y-48979810D01*
X127786341Y-48913619D01*
X127849623Y-48890587D01*
X127956063Y-48887678D01*
D11*
X97457106Y-65826797D02*
X87665403Y-75790905D01*
X87665403Y-75790905D02*
X77701295Y-65999203D01*
X77701295Y-65999203D02*
X87492997Y-56035094D01*
X87492997Y-56035094D02*
X97457106Y-65826797D01*
X62258453Y-69582972D02*
X75165050Y-74929059D01*
X56912366Y-82489569D02*
X62258453Y-69582972D01*
X69818963Y-87835656D02*
X56912366Y-82489569D01*
X75165050Y-74929059D02*
X69818963Y-87835656D01*
X67032231Y-100331846D02*
X57153949Y-110210128D01*
X57153949Y-110210128D02*
X47275667Y-100331846D01*
X47275667Y-100331846D02*
X57153949Y-90453565D01*
X57153949Y-90453565D02*
X67032231Y-100331846D01*
X94564200Y-83616800D02*
X94564200Y-97586800D01*
X80594200Y-83616800D02*
X94564200Y-83616800D01*
X80594200Y-97586800D02*
X80594200Y-83616800D01*
X94564200Y-97586800D02*
X80594200Y-97586800D01*
X142875000Y-90805000D02*
X128905000Y-90805000D01*
X128905000Y-90805000D02*
X128905000Y-76835000D01*
X128905000Y-76835000D02*
X142875000Y-76835000D01*
X142875000Y-76835000D02*
X142875000Y-90805000D01*
X73685000Y-60827800D02*
X76545000Y-60827800D01*
X76545000Y-60827800D02*
X76545000Y-58907800D01*
X76545000Y-58907800D02*
X73685000Y-58907800D01*
X53280000Y-67370000D02*
X55940000Y-67370000D01*
X53280000Y-57150000D02*
X53280000Y-67370000D01*
X55940000Y-57150000D02*
X55940000Y-67370000D01*
X53280000Y-57150000D02*
X55940000Y-57150000D01*
X53280000Y-55880000D02*
X53280000Y-54550000D01*
X53280000Y-54550000D02*
X54610000Y-54550000D01*
X75251000Y-51879200D02*
X75251000Y-48349200D01*
X81721000Y-51879200D02*
X81721000Y-48349200D01*
X75316000Y-53204200D02*
X75316000Y-51879200D01*
X75251000Y-51879200D02*
X75316000Y-51879200D01*
X75251000Y-48349200D02*
X75316000Y-48349200D01*
X81656000Y-51879200D02*
X81721000Y-51879200D01*
X81656000Y-48349200D02*
X81721000Y-48349200D01*
X84310067Y-47623000D02*
X83967533Y-47623000D01*
X84310067Y-48643000D02*
X83967533Y-48643000D01*
X68213201Y-50236600D02*
X68213201Y-52836600D01*
X61913201Y-54986600D02*
X61913201Y-54736600D01*
X68213201Y-54986600D02*
X61913201Y-54986600D01*
X68213201Y-54736600D02*
X68213201Y-54986600D01*
X61913201Y-52836600D02*
X61913201Y-50236600D01*
X68213201Y-48086600D02*
X68213201Y-48336600D01*
X61913201Y-48086600D02*
X68213201Y-48086600D01*
X61913201Y-48336600D02*
X61913201Y-48086600D01*
X61975600Y-57582200D02*
X61975600Y-57332200D01*
X61975600Y-57332200D02*
X68275600Y-57332200D01*
X68275600Y-57332200D02*
X68275600Y-57582200D01*
X61975600Y-62082200D02*
X61975600Y-59482200D01*
X68275600Y-63982200D02*
X68275600Y-64232200D01*
X68275600Y-64232200D02*
X61975600Y-64232200D01*
X61975600Y-64232200D02*
X61975600Y-63982200D01*
X68275600Y-59482200D02*
X68275600Y-62082200D01*
X127986435Y-100323949D02*
X118108154Y-110202231D01*
X118108154Y-90445667D02*
X127986435Y-100323949D01*
X108229872Y-100323949D02*
X118108154Y-90445667D01*
X118108154Y-110202231D02*
X108229872Y-100323949D01*
X129678124Y-113839866D02*
X135136638Y-100980413D01*
X135136638Y-100980413D02*
X147996091Y-106438927D01*
X147996091Y-106438927D02*
X142537577Y-119298380D01*
X142537577Y-119298380D02*
X129678124Y-113839866D01*
X122555000Y-137795000D02*
X122555000Y-123825000D01*
X122555000Y-123825000D02*
X136525000Y-123825000D01*
X136525000Y-123825000D02*
X136525000Y-137795000D01*
X136525000Y-137795000D02*
X122555000Y-137795000D01*
D10*
X80630000Y-137410000D02*
X80630000Y-124210000D01*
X94630000Y-137410000D02*
X80630000Y-137410000D01*
X94630000Y-124210000D02*
X94630000Y-137410000D01*
X80630000Y-124210000D02*
X94630000Y-124210000D01*
D11*
X118341666Y-82522877D02*
X105435069Y-87868964D01*
X112995579Y-69616280D02*
X118341666Y-82522877D01*
X100088982Y-74962367D02*
X112995579Y-69616280D01*
X105435069Y-87868964D02*
X100088982Y-74962367D01*
D10*
X100375672Y-53088880D02*
X99224661Y-52552155D01*
X99224661Y-52552155D02*
X102445012Y-45646089D01*
X102445012Y-45646089D02*
X103596023Y-46182815D01*
X105742924Y-41578771D02*
X137971229Y-56607076D01*
X137971229Y-56607076D02*
X130457076Y-72721229D01*
X130457076Y-72721229D02*
X98228771Y-57692924D01*
X98228771Y-57692924D02*
X105742924Y-41578771D01*
D11*
X73659600Y-57449600D02*
X76519600Y-57449600D01*
X76519600Y-57449600D02*
X76519600Y-55529600D01*
X76519600Y-55529600D02*
X73659600Y-55529600D01*
D12*
G36*
X47621241Y-122373184D02*
G01*
X47647753Y-122386282D01*
X47680447Y-122409106D01*
X47704275Y-122433996D01*
X47720594Y-122465249D01*
X47730760Y-122507166D01*
X47736128Y-122564044D01*
X47738056Y-122640184D01*
X47738169Y-122672917D01*
X47737839Y-122744656D01*
X47736473Y-122795927D01*
X47733500Y-122831404D01*
X47728351Y-122855763D01*
X47720457Y-122873680D01*
X47712243Y-122885902D01*
X47659813Y-122937905D01*
X47598070Y-122969184D01*
X47531464Y-122978592D01*
X47464442Y-122964980D01*
X47443208Y-122955354D01*
X47392376Y-122928859D01*
X47392376Y-123344052D01*
X47429475Y-123324868D01*
X47478357Y-123310025D01*
X47538439Y-123306222D01*
X47598436Y-123313243D01*
X47643744Y-123329013D01*
X47681325Y-123359047D01*
X47713436Y-123402024D01*
X47715850Y-123406436D01*
X47726033Y-123427221D01*
X47733470Y-123448170D01*
X47738589Y-123473548D01*
X47741819Y-123507618D01*
X47743587Y-123554641D01*
X47744323Y-123618882D01*
X47744456Y-123691176D01*
X47744456Y-123921822D01*
X47606139Y-123921822D01*
X47606139Y-123496533D01*
X47567451Y-123463979D01*
X47527262Y-123437940D01*
X47489203Y-123433205D01*
X47450934Y-123445389D01*
X47430538Y-123457320D01*
X47415358Y-123474313D01*
X47404562Y-123499995D01*
X47397317Y-123537991D01*
X47392792Y-123591926D01*
X47390156Y-123665425D01*
X47389228Y-123714347D01*
X47386089Y-123915535D01*
X47320074Y-123919336D01*
X47254060Y-123923136D01*
X47254060Y-122674650D01*
X47392376Y-122674650D01*
X47395903Y-122744254D01*
X47407785Y-122792569D01*
X47429980Y-122822631D01*
X47464441Y-122837471D01*
X47499258Y-122840436D01*
X47538671Y-122837028D01*
X47564829Y-122823617D01*
X47581186Y-122805896D01*
X47594063Y-122786835D01*
X47601728Y-122765601D01*
X47605139Y-122735849D01*
X47605251Y-122691236D01*
X47604103Y-122653880D01*
X47601468Y-122597604D01*
X47597544Y-122560658D01*
X47590937Y-122537223D01*
X47580251Y-122521480D01*
X47570167Y-122512380D01*
X47528030Y-122492537D01*
X47478160Y-122489332D01*
X47449524Y-122496168D01*
X47421172Y-122520464D01*
X47402391Y-122567728D01*
X47393288Y-122637624D01*
X47392376Y-122674650D01*
X47254060Y-122674650D01*
X47254060Y-122362614D01*
X47323218Y-122362614D01*
X47364740Y-122364256D01*
X47386162Y-122370087D01*
X47392374Y-122381461D01*
X47392376Y-122381798D01*
X47395258Y-122392938D01*
X47407970Y-122391673D01*
X47433243Y-122379433D01*
X47492131Y-122360707D01*
X47558385Y-122358739D01*
X47621241Y-122373184D01*
G37*
X47621241Y-122373184D02*
X47647753Y-122386282D01*
X47680447Y-122409106D01*
X47704275Y-122433996D01*
X47720594Y-122465249D01*
X47730760Y-122507166D01*
X47736128Y-122564044D01*
X47738056Y-122640184D01*
X47738169Y-122672917D01*
X47737839Y-122744656D01*
X47736473Y-122795927D01*
X47733500Y-122831404D01*
X47728351Y-122855763D01*
X47720457Y-122873680D01*
X47712243Y-122885902D01*
X47659813Y-122937905D01*
X47598070Y-122969184D01*
X47531464Y-122978592D01*
X47464442Y-122964980D01*
X47443208Y-122955354D01*
X47392376Y-122928859D01*
X47392376Y-123344052D01*
X47429475Y-123324868D01*
X47478357Y-123310025D01*
X47538439Y-123306222D01*
X47598436Y-123313243D01*
X47643744Y-123329013D01*
X47681325Y-123359047D01*
X47713436Y-123402024D01*
X47715850Y-123406436D01*
X47726033Y-123427221D01*
X47733470Y-123448170D01*
X47738589Y-123473548D01*
X47741819Y-123507618D01*
X47743587Y-123554641D01*
X47744323Y-123618882D01*
X47744456Y-123691176D01*
X47744456Y-123921822D01*
X47606139Y-123921822D01*
X47606139Y-123496533D01*
X47567451Y-123463979D01*
X47527262Y-123437940D01*
X47489203Y-123433205D01*
X47450934Y-123445389D01*
X47430538Y-123457320D01*
X47415358Y-123474313D01*
X47404562Y-123499995D01*
X47397317Y-123537991D01*
X47392792Y-123591926D01*
X47390156Y-123665425D01*
X47389228Y-123714347D01*
X47386089Y-123915535D01*
X47320074Y-123919336D01*
X47254060Y-123923136D01*
X47254060Y-122674650D01*
X47392376Y-122674650D01*
X47395903Y-122744254D01*
X47407785Y-122792569D01*
X47429980Y-122822631D01*
X47464441Y-122837471D01*
X47499258Y-122840436D01*
X47538671Y-122837028D01*
X47564829Y-122823617D01*
X47581186Y-122805896D01*
X47594063Y-122786835D01*
X47601728Y-122765601D01*
X47605139Y-122735849D01*
X47605251Y-122691236D01*
X47604103Y-122653880D01*
X47601468Y-122597604D01*
X47597544Y-122560658D01*
X47590937Y-122537223D01*
X47580251Y-122521480D01*
X47570167Y-122512380D01*
X47528030Y-122492537D01*
X47478160Y-122489332D01*
X47449524Y-122496168D01*
X47421172Y-122520464D01*
X47402391Y-122567728D01*
X47393288Y-122637624D01*
X47392376Y-122674650D01*
X47254060Y-122674650D01*
X47254060Y-122362614D01*
X47323218Y-122362614D01*
X47364740Y-122364256D01*
X47386162Y-122370087D01*
X47392374Y-122381461D01*
X47392376Y-122381798D01*
X47395258Y-122392938D01*
X47407970Y-122391673D01*
X47433243Y-122379433D01*
X47492131Y-122360707D01*
X47558385Y-122358739D01*
X47621241Y-122373184D01*
G36*
X48145790Y-123310555D02*
G01*
X48204945Y-123326339D01*
X48249977Y-123354948D01*
X48281754Y-123392419D01*
X48291634Y-123408411D01*
X48298927Y-123425163D01*
X48304026Y-123446592D01*
X48307321Y-123476616D01*
X48309203Y-123519154D01*
X48310063Y-123578122D01*
X48310293Y-123657440D01*
X48310297Y-123678484D01*
X48310297Y-123921822D01*
X48249941Y-123921822D01*
X48211443Y-123919126D01*
X48182977Y-123912295D01*
X48175845Y-123908083D01*
X48156348Y-123900813D01*
X48136434Y-123908083D01*
X48103647Y-123917160D01*
X48056022Y-123920813D01*
X48003236Y-123919228D01*
X47954964Y-123912589D01*
X47926782Y-123904072D01*
X47872247Y-123869063D01*
X47838165Y-123820479D01*
X47822843Y-123755882D01*
X47822701Y-123754223D01*
X47824045Y-123725566D01*
X47945644Y-123725566D01*
X47956274Y-123758161D01*
X47973590Y-123776505D01*
X48008348Y-123790379D01*
X48054227Y-123795917D01*
X48101012Y-123793191D01*
X48138486Y-123782274D01*
X48148985Y-123775269D01*
X48167332Y-123742904D01*
X48171980Y-123706111D01*
X48171980Y-123657763D01*
X48102418Y-123657763D01*
X48036333Y-123662850D01*
X47986236Y-123677263D01*
X47955071Y-123699729D01*
X47945644Y-123725566D01*
X47824045Y-123725566D01*
X47826013Y-123683647D01*
X47849290Y-123627845D01*
X47893052Y-123585647D01*
X47899101Y-123581808D01*
X47925093Y-123569309D01*
X47957265Y-123561740D01*
X48002240Y-123558061D01*
X48055669Y-123557216D01*
X48171980Y-123557169D01*
X48171980Y-123508411D01*
X48167047Y-123470581D01*
X48154457Y-123445236D01*
X48152983Y-123443887D01*
X48124966Y-123432800D01*
X48082674Y-123428503D01*
X48035936Y-123430615D01*
X47994582Y-123438756D01*
X47970043Y-123450965D01*
X47956747Y-123460746D01*
X47942706Y-123462613D01*
X47923329Y-123454600D01*
X47894024Y-123434739D01*
X47850197Y-123401063D01*
X47846175Y-123397909D01*
X47848236Y-123386236D01*
X47865432Y-123366822D01*
X47891567Y-123345248D01*
X47920448Y-123327096D01*
X47929522Y-123322809D01*
X47962620Y-123314256D01*
X48011120Y-123308155D01*
X48065305Y-123305708D01*
X48067839Y-123305703D01*
X48145790Y-123310555D01*
G37*
X48145790Y-123310555D02*
X48204945Y-123326339D01*
X48249977Y-123354948D01*
X48281754Y-123392419D01*
X48291634Y-123408411D01*
X48298927Y-123425163D01*
X48304026Y-123446592D01*
X48307321Y-123476616D01*
X48309203Y-123519154D01*
X48310063Y-123578122D01*
X48310293Y-123657440D01*
X48310297Y-123678484D01*
X48310297Y-123921822D01*
X48249941Y-123921822D01*
X48211443Y-123919126D01*
X48182977Y-123912295D01*
X48175845Y-123908083D01*
X48156348Y-123900813D01*
X48136434Y-123908083D01*
X48103647Y-123917160D01*
X48056022Y-123920813D01*
X48003236Y-123919228D01*
X47954964Y-123912589D01*
X47926782Y-123904072D01*
X47872247Y-123869063D01*
X47838165Y-123820479D01*
X47822843Y-123755882D01*
X47822701Y-123754223D01*
X47824045Y-123725566D01*
X47945644Y-123725566D01*
X47956274Y-123758161D01*
X47973590Y-123776505D01*
X48008348Y-123790379D01*
X48054227Y-123795917D01*
X48101012Y-123793191D01*
X48138486Y-123782274D01*
X48148985Y-123775269D01*
X48167332Y-123742904D01*
X48171980Y-123706111D01*
X48171980Y-123657763D01*
X48102418Y-123657763D01*
X48036333Y-123662850D01*
X47986236Y-123677263D01*
X47955071Y-123699729D01*
X47945644Y-123725566D01*
X47824045Y-123725566D01*
X47826013Y-123683647D01*
X47849290Y-123627845D01*
X47893052Y-123585647D01*
X47899101Y-123581808D01*
X47925093Y-123569309D01*
X47957265Y-123561740D01*
X48002240Y-123558061D01*
X48055669Y-123557216D01*
X48171980Y-123557169D01*
X48171980Y-123508411D01*
X48167047Y-123470581D01*
X48154457Y-123445236D01*
X48152983Y-123443887D01*
X48124966Y-123432800D01*
X48082674Y-123428503D01*
X48035936Y-123430615D01*
X47994582Y-123438756D01*
X47970043Y-123450965D01*
X47956747Y-123460746D01*
X47942706Y-123462613D01*
X47923329Y-123454600D01*
X47894024Y-123434739D01*
X47850197Y-123401063D01*
X47846175Y-123397909D01*
X47848236Y-123386236D01*
X47865432Y-123366822D01*
X47891567Y-123345248D01*
X47920448Y-123327096D01*
X47929522Y-123322809D01*
X47962620Y-123314256D01*
X48011120Y-123308155D01*
X48065305Y-123305708D01*
X48067839Y-123305703D01*
X48145790Y-123310555D01*
G36*
X48536644Y-123307020D02*
G01*
X48555461Y-123312660D01*
X48561527Y-123325053D01*
X48561782Y-123330647D01*
X48562871Y-123346230D01*
X48570368Y-123348676D01*
X48590619Y-123337993D01*
X48602649Y-123330694D01*
X48640600Y-123315063D01*
X48685928Y-123307334D01*
X48733456Y-123306740D01*
X48778005Y-123312513D01*
X48814398Y-123323884D01*
X48837457Y-123340088D01*
X48842004Y-123360355D01*
X48839709Y-123365843D01*
X48822980Y-123388626D01*
X48797037Y-123416647D01*
X48792345Y-123421177D01*
X48767617Y-123442005D01*
X48746282Y-123448735D01*
X48716445Y-123444038D01*
X48704492Y-123440917D01*
X48667295Y-123433421D01*
X48641141Y-123436792D01*
X48619054Y-123448681D01*
X48598822Y-123464635D01*
X48583921Y-123484700D01*
X48573566Y-123512702D01*
X48566971Y-123552467D01*
X48563351Y-123607823D01*
X48561922Y-123682594D01*
X48561782Y-123727740D01*
X48561782Y-123921822D01*
X48436040Y-123921822D01*
X48436040Y-123305683D01*
X48498911Y-123305683D01*
X48536644Y-123307020D01*
G37*
X48536644Y-123307020D02*
X48555461Y-123312660D01*
X48561527Y-123325053D01*
X48561782Y-123330647D01*
X48562871Y-123346230D01*
X48570368Y-123348676D01*
X48590619Y-123337993D01*
X48602649Y-123330694D01*
X48640600Y-123315063D01*
X48685928Y-123307334D01*
X48733456Y-123306740D01*
X48778005Y-123312513D01*
X48814398Y-123323884D01*
X48837457Y-123340088D01*
X48842004Y-123360355D01*
X48839709Y-123365843D01*
X48822980Y-123388626D01*
X48797037Y-123416647D01*
X48792345Y-123421177D01*
X48767617Y-123442005D01*
X48746282Y-123448735D01*
X48716445Y-123444038D01*
X48704492Y-123440917D01*
X48667295Y-123433421D01*
X48641141Y-123436792D01*
X48619054Y-123448681D01*
X48598822Y-123464635D01*
X48583921Y-123484700D01*
X48573566Y-123512702D01*
X48566971Y-123552467D01*
X48563351Y-123607823D01*
X48561922Y-123682594D01*
X48561782Y-123727740D01*
X48561782Y-123921822D01*
X48436040Y-123921822D01*
X48436040Y-123305683D01*
X48498911Y-123305683D01*
X48536644Y-123307020D01*
G36*
X49328812Y-123921822D02*
G01*
X49259654Y-123921822D01*
X49219512Y-123920645D01*
X49198606Y-123915772D01*
X49191078Y-123905186D01*
X49190495Y-123898029D01*
X49189226Y-123883676D01*
X49181221Y-123880923D01*
X49160185Y-123889771D01*
X49143827Y-123898029D01*
X49081023Y-123917597D01*
X49012752Y-123918729D01*
X48957248Y-123904135D01*
X48905562Y-123868877D01*
X48866162Y-123816835D01*
X48844587Y-123755450D01*
X48844038Y-123752018D01*
X48840833Y-123714571D01*
X48839239Y-123660813D01*
X48839367Y-123620155D01*
X48976721Y-123620155D01*
X48979903Y-123674194D01*
X48987141Y-123718735D01*
X48996940Y-123743888D01*
X49034011Y-123778260D01*
X49078026Y-123790582D01*
X49123416Y-123780618D01*
X49162203Y-123750895D01*
X49176892Y-123730905D01*
X49185481Y-123707050D01*
X49189504Y-123672230D01*
X49190495Y-123619930D01*
X49188722Y-123568139D01*
X49184037Y-123522634D01*
X49177397Y-123492181D01*
X49176290Y-123489452D01*
X49149509Y-123457000D01*
X49110421Y-123439183D01*
X49066685Y-123436306D01*
X49025962Y-123448674D01*
X48995913Y-123476593D01*
X48992796Y-123482148D01*
X48983039Y-123516022D01*
X48977723Y-123564728D01*
X48976721Y-123620155D01*
X48839367Y-123620155D01*
X48839432Y-123599540D01*
X48840336Y-123566563D01*
X48846486Y-123484981D01*
X48859267Y-123423730D01*
X48880529Y-123378449D01*
X48912122Y-123344779D01*
X48942793Y-123325014D01*
X48985646Y-123311120D01*
X49038944Y-123306354D01*
X49093520Y-123310236D01*
X49140208Y-123322282D01*
X49164876Y-123336693D01*
X49190495Y-123359878D01*
X49190495Y-123066773D01*
X49328812Y-123066773D01*
X49328812Y-123921822D01*
G37*
X49328812Y-123921822D02*
X49259654Y-123921822D01*
X49219512Y-123920645D01*
X49198606Y-123915772D01*
X49191078Y-123905186D01*
X49190495Y-123898029D01*
X49189226Y-123883676D01*
X49181221Y-123880923D01*
X49160185Y-123889771D01*
X49143827Y-123898029D01*
X49081023Y-123917597D01*
X49012752Y-123918729D01*
X48957248Y-123904135D01*
X48905562Y-123868877D01*
X48866162Y-123816835D01*
X48844587Y-123755450D01*
X48844038Y-123752018D01*
X48840833Y-123714571D01*
X48839239Y-123660813D01*
X48839367Y-123620155D01*
X48976721Y-123620155D01*
X48979903Y-123674194D01*
X48987141Y-123718735D01*
X48996940Y-123743888D01*
X49034011Y-123778260D01*
X49078026Y-123790582D01*
X49123416Y-123780618D01*
X49162203Y-123750895D01*
X49176892Y-123730905D01*
X49185481Y-123707050D01*
X49189504Y-123672230D01*
X49190495Y-123619930D01*
X49188722Y-123568139D01*
X49184037Y-123522634D01*
X49177397Y-123492181D01*
X49176290Y-123489452D01*
X49149509Y-123457000D01*
X49110421Y-123439183D01*
X49066685Y-123436306D01*
X49025962Y-123448674D01*
X48995913Y-123476593D01*
X48992796Y-123482148D01*
X48983039Y-123516022D01*
X48977723Y-123564728D01*
X48976721Y-123620155D01*
X48839367Y-123620155D01*
X48839432Y-123599540D01*
X48840336Y-123566563D01*
X48846486Y-123484981D01*
X48859267Y-123423730D01*
X48880529Y-123378449D01*
X48912122Y-123344779D01*
X48942793Y-123325014D01*
X48985646Y-123311120D01*
X49038944Y-123306354D01*
X49093520Y-123310236D01*
X49140208Y-123322282D01*
X49164876Y-123336693D01*
X49190495Y-123359878D01*
X49190495Y-123066773D01*
X49328812Y-123066773D01*
X49328812Y-123921822D01*
G36*
X49811524Y-123308237D02*
G01*
X49861255Y-123311971D01*
X49991291Y-123701773D01*
X50011678Y-123632614D01*
X50023946Y-123589874D01*
X50040085Y-123532115D01*
X50057512Y-123468625D01*
X50066726Y-123434570D01*
X50101388Y-123305683D01*
X50244391Y-123305683D01*
X50201646Y-123440857D01*
X50180596Y-123507342D01*
X50155167Y-123587539D01*
X50128610Y-123671193D01*
X50104902Y-123745782D01*
X50050902Y-123915535D01*
X49992598Y-123919328D01*
X49934295Y-123923122D01*
X49902679Y-123818734D01*
X49883182Y-123753889D01*
X49861904Y-123682400D01*
X49843308Y-123619263D01*
X49842574Y-123616750D01*
X49828684Y-123573969D01*
X49816429Y-123544779D01*
X49807846Y-123533741D01*
X49806082Y-123535018D01*
X49799891Y-123552130D01*
X49788128Y-123588787D01*
X49772225Y-123640378D01*
X49753614Y-123702294D01*
X49743543Y-123736352D01*
X49689007Y-123921822D01*
X49573264Y-123921822D01*
X49480737Y-123629471D01*
X49454744Y-123547462D01*
X49431066Y-123472987D01*
X49410820Y-123409544D01*
X49395126Y-123360632D01*
X49385102Y-123329749D01*
X49382055Y-123320726D01*
X49384467Y-123311487D01*
X49403408Y-123307441D01*
X49442823Y-123307846D01*
X49448993Y-123308152D01*
X49522086Y-123311971D01*
X49569957Y-123488010D01*
X49587553Y-123552211D01*
X49603277Y-123608649D01*
X49615746Y-123652422D01*
X49623574Y-123678630D01*
X49625020Y-123682903D01*
X49631014Y-123677990D01*
X49643101Y-123652532D01*
X49659893Y-123609997D01*
X49680003Y-123553850D01*
X49697003Y-123503130D01*
X49761794Y-123304504D01*
X49811524Y-123308237D01*
G37*
X49811524Y-123308237D02*
X49861255Y-123311971D01*
X49991291Y-123701773D01*
X50011678Y-123632614D01*
X50023946Y-123589874D01*
X50040085Y-123532115D01*
X50057512Y-123468625D01*
X50066726Y-123434570D01*
X50101388Y-123305683D01*
X50244391Y-123305683D01*
X50201646Y-123440857D01*
X50180596Y-123507342D01*
X50155167Y-123587539D01*
X50128610Y-123671193D01*
X50104902Y-123745782D01*
X50050902Y-123915535D01*
X49992598Y-123919328D01*
X49934295Y-123923122D01*
X49902679Y-123818734D01*
X49883182Y-123753889D01*
X49861904Y-123682400D01*
X49843308Y-123619263D01*
X49842574Y-123616750D01*
X49828684Y-123573969D01*
X49816429Y-123544779D01*
X49807846Y-123533741D01*
X49806082Y-123535018D01*
X49799891Y-123552130D01*
X49788128Y-123588787D01*
X49772225Y-123640378D01*
X49753614Y-123702294D01*
X49743543Y-123736352D01*
X49689007Y-123921822D01*
X49573264Y-123921822D01*
X49480737Y-123629471D01*
X49454744Y-123547462D01*
X49431066Y-123472987D01*
X49410820Y-123409544D01*
X49395126Y-123360632D01*
X49385102Y-123329749D01*
X49382055Y-123320726D01*
X49384467Y-123311487D01*
X49403408Y-123307441D01*
X49442823Y-123307846D01*
X49448993Y-123308152D01*
X49522086Y-123311971D01*
X49569957Y-123488010D01*
X49587553Y-123552211D01*
X49603277Y-123608649D01*
X49615746Y-123652422D01*
X49623574Y-123678630D01*
X49625020Y-123682903D01*
X49631014Y-123677990D01*
X49643101Y-123652532D01*
X49659893Y-123609997D01*
X49680003Y-123553850D01*
X49697003Y-123503130D01*
X49761794Y-123304504D01*
X49811524Y-123308237D01*
G36*
X50568411Y-123309417D02*
G01*
X50621411Y-123322290D01*
X50636731Y-123329110D01*
X50666428Y-123346974D01*
X50689220Y-123367093D01*
X50706083Y-123392962D01*
X50717998Y-123428073D01*
X50725942Y-123475920D01*
X50730894Y-123539996D01*
X50733831Y-123623794D01*
X50734947Y-123679768D01*
X50739052Y-123921822D01*
X50668932Y-123921822D01*
X50626393Y-123920038D01*
X50604476Y-123913942D01*
X50598812Y-123903706D01*
X50595821Y-123892637D01*
X50582451Y-123894754D01*
X50564233Y-123903629D01*
X50518624Y-123917233D01*
X50460007Y-123920899D01*
X50398354Y-123914903D01*
X50343638Y-123899521D01*
X50338730Y-123897386D01*
X50288723Y-123862255D01*
X50255756Y-123813419D01*
X50240587Y-123756333D01*
X50241746Y-123735824D01*
X50365508Y-123735824D01*
X50376413Y-123763425D01*
X50408745Y-123783204D01*
X50460910Y-123793819D01*
X50488787Y-123795228D01*
X50535247Y-123791620D01*
X50566129Y-123777597D01*
X50573664Y-123770931D01*
X50594076Y-123734666D01*
X50598812Y-123701773D01*
X50598812Y-123657763D01*
X50537513Y-123657763D01*
X50466256Y-123661395D01*
X50416276Y-123672818D01*
X50384696Y-123692824D01*
X50377626Y-123701743D01*
X50365508Y-123735824D01*
X50241746Y-123735824D01*
X50243971Y-123696456D01*
X50266663Y-123639244D01*
X50297624Y-123600580D01*
X50316376Y-123583864D01*
X50334733Y-123572878D01*
X50358619Y-123566180D01*
X50393957Y-123562326D01*
X50446669Y-123559873D01*
X50467577Y-123559168D01*
X50598812Y-123554879D01*
X50598620Y-123515158D01*
X50593537Y-123473405D01*
X50575162Y-123448158D01*
X50538039Y-123432030D01*
X50537043Y-123431742D01*
X50484410Y-123425400D01*
X50432906Y-123433684D01*
X50394630Y-123453827D01*
X50379272Y-123463773D01*
X50362730Y-123462397D01*
X50337275Y-123447987D01*
X50322328Y-123437817D01*
X50293091Y-123416088D01*
X50274980Y-123399800D01*
X50272074Y-123395137D01*
X50284040Y-123371005D01*
X50319396Y-123342185D01*
X50334753Y-123332461D01*
X50378901Y-123315714D01*
X50438398Y-123306227D01*
X50504487Y-123304095D01*
X50568411Y-123309417D01*
G37*
X50568411Y-123309417D02*
X50621411Y-123322290D01*
X50636731Y-123329110D01*
X50666428Y-123346974D01*
X50689220Y-123367093D01*
X50706083Y-123392962D01*
X50717998Y-123428073D01*
X50725942Y-123475920D01*
X50730894Y-123539996D01*
X50733831Y-123623794D01*
X50734947Y-123679768D01*
X50739052Y-123921822D01*
X50668932Y-123921822D01*
X50626393Y-123920038D01*
X50604476Y-123913942D01*
X50598812Y-123903706D01*
X50595821Y-123892637D01*
X50582451Y-123894754D01*
X50564233Y-123903629D01*
X50518624Y-123917233D01*
X50460007Y-123920899D01*
X50398354Y-123914903D01*
X50343638Y-123899521D01*
X50338730Y-123897386D01*
X50288723Y-123862255D01*
X50255756Y-123813419D01*
X50240587Y-123756333D01*
X50241746Y-123735824D01*
X50365508Y-123735824D01*
X50376413Y-123763425D01*
X50408745Y-123783204D01*
X50460910Y-123793819D01*
X50488787Y-123795228D01*
X50535247Y-123791620D01*
X50566129Y-123777597D01*
X50573664Y-123770931D01*
X50594076Y-123734666D01*
X50598812Y-123701773D01*
X50598812Y-123657763D01*
X50537513Y-123657763D01*
X50466256Y-123661395D01*
X50416276Y-123672818D01*
X50384696Y-123692824D01*
X50377626Y-123701743D01*
X50365508Y-123735824D01*
X50241746Y-123735824D01*
X50243971Y-123696456D01*
X50266663Y-123639244D01*
X50297624Y-123600580D01*
X50316376Y-123583864D01*
X50334733Y-123572878D01*
X50358619Y-123566180D01*
X50393957Y-123562326D01*
X50446669Y-123559873D01*
X50467577Y-123559168D01*
X50598812Y-123554879D01*
X50598620Y-123515158D01*
X50593537Y-123473405D01*
X50575162Y-123448158D01*
X50538039Y-123432030D01*
X50537043Y-123431742D01*
X50484410Y-123425400D01*
X50432906Y-123433684D01*
X50394630Y-123453827D01*
X50379272Y-123463773D01*
X50362730Y-123462397D01*
X50337275Y-123447987D01*
X50322328Y-123437817D01*
X50293091Y-123416088D01*
X50274980Y-123399800D01*
X50272074Y-123395137D01*
X50284040Y-123371005D01*
X50319396Y-123342185D01*
X50334753Y-123332461D01*
X50378901Y-123315714D01*
X50438398Y-123306227D01*
X50504487Y-123304095D01*
X50568411Y-123309417D01*
G36*
X51165255Y-123305486D02*
G01*
X51213595Y-123315015D01*
X51241114Y-123329125D01*
X51270064Y-123352568D01*
X51228876Y-123404571D01*
X51203482Y-123436064D01*
X51186238Y-123451428D01*
X51169102Y-123453776D01*
X51144027Y-123446217D01*
X51132257Y-123441941D01*
X51084270Y-123435631D01*
X51040324Y-123449156D01*
X51008060Y-123479710D01*
X51002819Y-123489452D01*
X50997112Y-123515258D01*
X50992706Y-123562817D01*
X50989811Y-123628758D01*
X50988631Y-123709710D01*
X50988614Y-123721226D01*
X50988614Y-123921822D01*
X50850297Y-123921822D01*
X50850297Y-123305683D01*
X50919456Y-123305683D01*
X50959333Y-123306725D01*
X50980107Y-123311358D01*
X50987789Y-123321849D01*
X50988614Y-123331745D01*
X50988614Y-123357806D01*
X51021745Y-123331745D01*
X51059735Y-123313965D01*
X51110770Y-123305174D01*
X51165255Y-123305486D01*
G37*
X51165255Y-123305486D02*
X51213595Y-123315015D01*
X51241114Y-123329125D01*
X51270064Y-123352568D01*
X51228876Y-123404571D01*
X51203482Y-123436064D01*
X51186238Y-123451428D01*
X51169102Y-123453776D01*
X51144027Y-123446217D01*
X51132257Y-123441941D01*
X51084270Y-123435631D01*
X51040324Y-123449156D01*
X51008060Y-123479710D01*
X51002819Y-123489452D01*
X50997112Y-123515258D01*
X50992706Y-123562817D01*
X50989811Y-123628758D01*
X50988631Y-123709710D01*
X50988614Y-123721226D01*
X50988614Y-123921822D01*
X50850297Y-123921822D01*
X50850297Y-123305683D01*
X50919456Y-123305683D01*
X50959333Y-123306725D01*
X50980107Y-123311358D01*
X50987789Y-123321849D01*
X50988614Y-123331745D01*
X50988614Y-123357806D01*
X51021745Y-123331745D01*
X51059735Y-123313965D01*
X51110770Y-123305174D01*
X51165255Y-123305486D01*
G36*
X51562581Y-123308970D02*
G01*
X51622685Y-123324597D01*
X51673021Y-123356848D01*
X51697393Y-123380940D01*
X51737345Y-123437895D01*
X51760242Y-123503965D01*
X51768108Y-123585182D01*
X51768148Y-123591748D01*
X51768218Y-123657763D01*
X51388264Y-123657763D01*
X51396363Y-123692342D01*
X51410987Y-123723659D01*
X51436581Y-123756291D01*
X51441935Y-123761500D01*
X51487943Y-123789694D01*
X51540410Y-123794475D01*
X51600803Y-123775926D01*
X51611040Y-123770931D01*
X51642439Y-123755745D01*
X51663470Y-123747094D01*
X51667139Y-123746293D01*
X51679948Y-123754063D01*
X51704378Y-123773072D01*
X51716779Y-123783460D01*
X51742476Y-123807321D01*
X51750915Y-123823077D01*
X51745058Y-123837571D01*
X51741928Y-123841534D01*
X51720725Y-123858879D01*
X51685738Y-123879959D01*
X51661337Y-123892265D01*
X51592072Y-123913946D01*
X51515388Y-123920971D01*
X51442765Y-123912647D01*
X51422426Y-123906686D01*
X51359476Y-123872952D01*
X51312815Y-123821045D01*
X51282173Y-123750459D01*
X51267282Y-123660692D01*
X51265647Y-123613753D01*
X51270421Y-123545413D01*
X51390990Y-123545413D01*
X51402652Y-123550465D01*
X51433998Y-123554429D01*
X51479571Y-123556768D01*
X51510446Y-123557169D01*
X51565981Y-123556783D01*
X51601033Y-123554975D01*
X51620262Y-123550773D01*
X51628330Y-123543203D01*
X51629901Y-123532218D01*
X51619121Y-123498381D01*
X51591980Y-123464940D01*
X51556277Y-123439272D01*
X51520560Y-123428772D01*
X51472048Y-123438086D01*
X51430053Y-123465013D01*
X51400936Y-123503827D01*
X51390990Y-123545413D01*
X51270421Y-123545413D01*
X51272599Y-123514236D01*
X51294055Y-123434949D01*
X51330470Y-123375263D01*
X51382297Y-123334549D01*
X51449990Y-123312179D01*
X51486662Y-123307871D01*
X51562581Y-123308970D01*
G37*
X51562581Y-123308970D02*
X51622685Y-123324597D01*
X51673021Y-123356848D01*
X51697393Y-123380940D01*
X51737345Y-123437895D01*
X51760242Y-123503965D01*
X51768108Y-123585182D01*
X51768148Y-123591748D01*
X51768218Y-123657763D01*
X51388264Y-123657763D01*
X51396363Y-123692342D01*
X51410987Y-123723659D01*
X51436581Y-123756291D01*
X51441935Y-123761500D01*
X51487943Y-123789694D01*
X51540410Y-123794475D01*
X51600803Y-123775926D01*
X51611040Y-123770931D01*
X51642439Y-123755745D01*
X51663470Y-123747094D01*
X51667139Y-123746293D01*
X51679948Y-123754063D01*
X51704378Y-123773072D01*
X51716779Y-123783460D01*
X51742476Y-123807321D01*
X51750915Y-123823077D01*
X51745058Y-123837571D01*
X51741928Y-123841534D01*
X51720725Y-123858879D01*
X51685738Y-123879959D01*
X51661337Y-123892265D01*
X51592072Y-123913946D01*
X51515388Y-123920971D01*
X51442765Y-123912647D01*
X51422426Y-123906686D01*
X51359476Y-123872952D01*
X51312815Y-123821045D01*
X51282173Y-123750459D01*
X51267282Y-123660692D01*
X51265647Y-123613753D01*
X51270421Y-123545413D01*
X51390990Y-123545413D01*
X51402652Y-123550465D01*
X51433998Y-123554429D01*
X51479571Y-123556768D01*
X51510446Y-123557169D01*
X51565981Y-123556783D01*
X51601033Y-123554975D01*
X51620262Y-123550773D01*
X51628330Y-123543203D01*
X51629901Y-123532218D01*
X51619121Y-123498381D01*
X51591980Y-123464940D01*
X51556277Y-123439272D01*
X51520560Y-123428772D01*
X51472048Y-123438086D01*
X51430053Y-123465013D01*
X51400936Y-123503827D01*
X51390990Y-123545413D01*
X51270421Y-123545413D01*
X51272599Y-123514236D01*
X51294055Y-123434949D01*
X51330470Y-123375263D01*
X51382297Y-123334549D01*
X51449990Y-123312179D01*
X51486662Y-123307871D01*
X51562581Y-123308970D01*
G36*
X46991739Y-122369148D02*
G01*
X47057521Y-122398231D01*
X47107460Y-122446793D01*
X47141626Y-122514908D01*
X47160093Y-122602651D01*
X47161417Y-122616351D01*
X47162454Y-122712939D01*
X47149007Y-122797602D01*
X47121892Y-122866221D01*
X47107373Y-122888294D01*
X47056799Y-122935011D01*
X46992391Y-122965268D01*
X46920334Y-122977824D01*
X46846815Y-122971439D01*
X46790928Y-122951772D01*
X46742868Y-122918629D01*
X46703588Y-122875175D01*
X46702908Y-122874158D01*
X46686956Y-122847338D01*
X46676590Y-122820368D01*
X46670312Y-122786332D01*
X46666627Y-122738310D01*
X46665003Y-122698931D01*
X46664328Y-122663219D01*
X46790045Y-122663219D01*
X46791274Y-122698770D01*
X46795734Y-122746094D01*
X46803603Y-122776465D01*
X46817793Y-122798072D01*
X46831083Y-122810694D01*
X46878198Y-122837122D01*
X46927495Y-122840653D01*
X46973407Y-122821639D01*
X46996362Y-122800331D01*
X47012904Y-122778859D01*
X47022579Y-122758313D01*
X47026826Y-122731574D01*
X47027080Y-122691523D01*
X47025772Y-122654638D01*
X47022957Y-122601947D01*
X47018495Y-122567772D01*
X47010452Y-122545480D01*
X46996897Y-122528442D01*
X46986155Y-122518703D01*
X46941223Y-122493123D01*
X46892751Y-122491847D01*
X46852106Y-122506999D01*
X46817433Y-122538642D01*
X46796776Y-122590620D01*
X46790045Y-122663219D01*
X46664328Y-122663219D01*
X46663521Y-122620621D01*
X46666052Y-122562056D01*
X46673638Y-122518007D01*
X46687319Y-122483248D01*
X46708135Y-122452551D01*
X46715853Y-122443436D01*
X46764111Y-122398021D01*
X46815872Y-122371493D01*
X46879172Y-122360379D01*
X46910039Y-122359471D01*
X46991739Y-122369148D01*
G37*
X46991739Y-122369148D02*
X47057521Y-122398231D01*
X47107460Y-122446793D01*
X47141626Y-122514908D01*
X47160093Y-122602651D01*
X47161417Y-122616351D01*
X47162454Y-122712939D01*
X47149007Y-122797602D01*
X47121892Y-122866221D01*
X47107373Y-122888294D01*
X47056799Y-122935011D01*
X46992391Y-122965268D01*
X46920334Y-122977824D01*
X46846815Y-122971439D01*
X46790928Y-122951772D01*
X46742868Y-122918629D01*
X46703588Y-122875175D01*
X46702908Y-122874158D01*
X46686956Y-122847338D01*
X46676590Y-122820368D01*
X46670312Y-122786332D01*
X46666627Y-122738310D01*
X46665003Y-122698931D01*
X46664328Y-122663219D01*
X46790045Y-122663219D01*
X46791274Y-122698770D01*
X46795734Y-122746094D01*
X46803603Y-122776465D01*
X46817793Y-122798072D01*
X46831083Y-122810694D01*
X46878198Y-122837122D01*
X46927495Y-122840653D01*
X46973407Y-122821639D01*
X46996362Y-122800331D01*
X47012904Y-122778859D01*
X47022579Y-122758313D01*
X47026826Y-122731574D01*
X47027080Y-122691523D01*
X47025772Y-122654638D01*
X47022957Y-122601947D01*
X47018495Y-122567772D01*
X47010452Y-122545480D01*
X46996897Y-122528442D01*
X46986155Y-122518703D01*
X46941223Y-122493123D01*
X46892751Y-122491847D01*
X46852106Y-122506999D01*
X46817433Y-122538642D01*
X46796776Y-122590620D01*
X46790045Y-122663219D01*
X46664328Y-122663219D01*
X46663521Y-122620621D01*
X46666052Y-122562056D01*
X46673638Y-122518007D01*
X46687319Y-122483248D01*
X46708135Y-122452551D01*
X46715853Y-122443436D01*
X46764111Y-122398021D01*
X46815872Y-122371493D01*
X46879172Y-122360379D01*
X46910039Y-122359471D01*
X46991739Y-122369148D01*
G36*
X48173301Y-122376614D02*
G01*
X48185832Y-122382514D01*
X48229201Y-122414283D01*
X48270210Y-122460646D01*
X48300832Y-122511696D01*
X48309541Y-122535166D01*
X48317488Y-122577091D01*
X48322226Y-122627757D01*
X48322801Y-122648679D01*
X48322871Y-122714693D01*
X47942917Y-122714693D01*
X47951017Y-122749273D01*
X47970896Y-122790170D01*
X48005653Y-122825514D01*
X48047002Y-122848282D01*
X48073351Y-122853010D01*
X48109084Y-122847273D01*
X48151718Y-122832882D01*
X48166201Y-122826262D01*
X48219760Y-122799513D01*
X48265467Y-122834376D01*
X48291842Y-122857955D01*
X48305876Y-122877417D01*
X48306586Y-122883129D01*
X48294049Y-122896973D01*
X48266572Y-122918012D01*
X48241634Y-122934425D01*
X48174336Y-122963930D01*
X48098890Y-122977284D01*
X48024112Y-122973812D01*
X47964505Y-122955663D01*
X47903059Y-122916784D01*
X47859392Y-122865595D01*
X47832074Y-122799367D01*
X47819678Y-122715371D01*
X47818579Y-122676936D01*
X47822978Y-122588861D01*
X47823518Y-122586299D01*
X47949418Y-122586299D01*
X47952885Y-122594558D01*
X47967137Y-122599113D01*
X47996530Y-122601065D01*
X48045425Y-122601517D01*
X48064252Y-122601525D01*
X48121533Y-122600843D01*
X48157859Y-122598364D01*
X48177396Y-122593443D01*
X48184310Y-122585434D01*
X48184555Y-122582862D01*
X48176664Y-122562423D01*
X48156915Y-122533789D01*
X48148425Y-122523763D01*
X48116906Y-122495408D01*
X48084051Y-122484259D01*
X48066349Y-122483327D01*
X48018461Y-122494981D01*
X47978301Y-122526285D01*
X47952827Y-122571752D01*
X47952375Y-122573233D01*
X47949418Y-122586299D01*
X47823518Y-122586299D01*
X47837608Y-122519510D01*
X47863962Y-122464025D01*
X47896193Y-122424639D01*
X47955783Y-122381931D01*
X48025832Y-122359109D01*
X48100339Y-122357046D01*
X48173301Y-122376614D01*
G37*
X48173301Y-122376614D02*
X48185832Y-122382514D01*
X48229201Y-122414283D01*
X48270210Y-122460646D01*
X48300832Y-122511696D01*
X48309541Y-122535166D01*
X48317488Y-122577091D01*
X48322226Y-122627757D01*
X48322801Y-122648679D01*
X48322871Y-122714693D01*
X47942917Y-122714693D01*
X47951017Y-122749273D01*
X47970896Y-122790170D01*
X48005653Y-122825514D01*
X48047002Y-122848282D01*
X48073351Y-122853010D01*
X48109084Y-122847273D01*
X48151718Y-122832882D01*
X48166201Y-122826262D01*
X48219760Y-122799513D01*
X48265467Y-122834376D01*
X48291842Y-122857955D01*
X48305876Y-122877417D01*
X48306586Y-122883129D01*
X48294049Y-122896973D01*
X48266572Y-122918012D01*
X48241634Y-122934425D01*
X48174336Y-122963930D01*
X48098890Y-122977284D01*
X48024112Y-122973812D01*
X47964505Y-122955663D01*
X47903059Y-122916784D01*
X47859392Y-122865595D01*
X47832074Y-122799367D01*
X47819678Y-122715371D01*
X47818579Y-122676936D01*
X47822978Y-122588861D01*
X47823518Y-122586299D01*
X47949418Y-122586299D01*
X47952885Y-122594558D01*
X47967137Y-122599113D01*
X47996530Y-122601065D01*
X48045425Y-122601517D01*
X48064252Y-122601525D01*
X48121533Y-122600843D01*
X48157859Y-122598364D01*
X48177396Y-122593443D01*
X48184310Y-122585434D01*
X48184555Y-122582862D01*
X48176664Y-122562423D01*
X48156915Y-122533789D01*
X48148425Y-122523763D01*
X48116906Y-122495408D01*
X48084051Y-122484259D01*
X48066349Y-122483327D01*
X48018461Y-122494981D01*
X47978301Y-122526285D01*
X47952827Y-122571752D01*
X47952375Y-122573233D01*
X47949418Y-122586299D01*
X47823518Y-122586299D01*
X47837608Y-122519510D01*
X47863962Y-122464025D01*
X47896193Y-122424639D01*
X47955783Y-122381931D01*
X48025832Y-122359109D01*
X48100339Y-122357046D01*
X48173301Y-122376614D01*
G36*
X49544017Y-122360452D02*
G01*
X49591634Y-122369482D01*
X49641034Y-122388370D01*
X49646312Y-122390777D01*
X49683774Y-122410476D01*
X49709717Y-122428781D01*
X49718103Y-122440508D01*
X49710117Y-122459632D01*
X49690720Y-122487850D01*
X49682110Y-122498384D01*
X49646628Y-122539847D01*
X49600885Y-122512858D01*
X49557350Y-122494878D01*
X49507050Y-122485267D01*
X49458812Y-122484660D01*
X49421467Y-122493691D01*
X49412505Y-122499327D01*
X49395437Y-122525171D01*
X49393363Y-122554941D01*
X49406134Y-122578197D01*
X49413688Y-122582708D01*
X49436325Y-122588309D01*
X49476115Y-122594892D01*
X49525166Y-122601183D01*
X49534215Y-122602170D01*
X49612996Y-122615798D01*
X49670136Y-122638946D01*
X49708030Y-122673752D01*
X49729079Y-122722354D01*
X49735635Y-122781718D01*
X49726577Y-122849198D01*
X49697164Y-122902188D01*
X49647278Y-122940783D01*
X49576800Y-122965081D01*
X49498565Y-122974667D01*
X49434766Y-122974552D01*
X49383016Y-122965845D01*
X49347673Y-122953825D01*
X49303017Y-122932880D01*
X49261747Y-122908574D01*
X49247079Y-122897876D01*
X49209357Y-122867084D01*
X49254852Y-122821049D01*
X49300347Y-122775013D01*
X49352072Y-122809243D01*
X49403952Y-122834952D01*
X49459351Y-122848399D01*
X49512605Y-122849818D01*
X49558049Y-122839443D01*
X49590016Y-122817507D01*
X49600338Y-122798998D01*
X49598789Y-122769314D01*
X49573140Y-122746615D01*
X49523460Y-122730940D01*
X49469031Y-122723695D01*
X49385264Y-122709873D01*
X49323033Y-122683796D01*
X49281507Y-122644699D01*
X49259853Y-122591820D01*
X49256853Y-122529126D01*
X49271671Y-122463642D01*
X49305454Y-122414144D01*
X49358505Y-122380408D01*
X49431126Y-122362207D01*
X49484928Y-122358639D01*
X49544017Y-122360452D01*
G37*
X49544017Y-122360452D02*
X49591634Y-122369482D01*
X49641034Y-122388370D01*
X49646312Y-122390777D01*
X49683774Y-122410476D01*
X49709717Y-122428781D01*
X49718103Y-122440508D01*
X49710117Y-122459632D01*
X49690720Y-122487850D01*
X49682110Y-122498384D01*
X49646628Y-122539847D01*
X49600885Y-122512858D01*
X49557350Y-122494878D01*
X49507050Y-122485267D01*
X49458812Y-122484660D01*
X49421467Y-122493691D01*
X49412505Y-122499327D01*
X49395437Y-122525171D01*
X49393363Y-122554941D01*
X49406134Y-122578197D01*
X49413688Y-122582708D01*
X49436325Y-122588309D01*
X49476115Y-122594892D01*
X49525166Y-122601183D01*
X49534215Y-122602170D01*
X49612996Y-122615798D01*
X49670136Y-122638946D01*
X49708030Y-122673752D01*
X49729079Y-122722354D01*
X49735635Y-122781718D01*
X49726577Y-122849198D01*
X49697164Y-122902188D01*
X49647278Y-122940783D01*
X49576800Y-122965081D01*
X49498565Y-122974667D01*
X49434766Y-122974552D01*
X49383016Y-122965845D01*
X49347673Y-122953825D01*
X49303017Y-122932880D01*
X49261747Y-122908574D01*
X49247079Y-122897876D01*
X49209357Y-122867084D01*
X49254852Y-122821049D01*
X49300347Y-122775013D01*
X49352072Y-122809243D01*
X49403952Y-122834952D01*
X49459351Y-122848399D01*
X49512605Y-122849818D01*
X49558049Y-122839443D01*
X49590016Y-122817507D01*
X49600338Y-122798998D01*
X49598789Y-122769314D01*
X49573140Y-122746615D01*
X49523460Y-122730940D01*
X49469031Y-122723695D01*
X49385264Y-122709873D01*
X49323033Y-122683796D01*
X49281507Y-122644699D01*
X49259853Y-122591820D01*
X49256853Y-122529126D01*
X49271671Y-122463642D01*
X49305454Y-122414144D01*
X49358505Y-122380408D01*
X49431126Y-122362207D01*
X49484928Y-122358639D01*
X49544017Y-122360452D01*
G36*
X50140762Y-122370055D02*
G01*
X50204363Y-122404692D01*
X50254123Y-122459372D01*
X50277568Y-122503842D01*
X50287634Y-122543121D01*
X50294156Y-122599116D01*
X50296951Y-122663621D01*
X50295836Y-122728429D01*
X50290626Y-122785334D01*
X50284541Y-122815727D01*
X50264014Y-122857306D01*
X50228463Y-122901468D01*
X50185619Y-122940087D01*
X50143211Y-122965034D01*
X50142177Y-122965430D01*
X50089553Y-122976331D01*
X50027188Y-122976601D01*
X49967924Y-122966676D01*
X49945040Y-122958722D01*
X49886102Y-122925300D01*
X49843890Y-122881511D01*
X49816156Y-122823538D01*
X49800651Y-122747565D01*
X49797143Y-122707771D01*
X49797590Y-122657766D01*
X49932376Y-122657766D01*
X49936917Y-122730732D01*
X49949986Y-122786334D01*
X49970756Y-122821861D01*
X49985552Y-122832020D01*
X50023464Y-122839104D01*
X50068527Y-122837007D01*
X50107487Y-122826812D01*
X50117704Y-122821204D01*
X50144659Y-122788538D01*
X50162451Y-122738545D01*
X50170024Y-122677705D01*
X50166325Y-122612497D01*
X50158057Y-122573253D01*
X50134320Y-122527805D01*
X50096849Y-122499396D01*
X50051720Y-122489573D01*
X50005011Y-122499887D01*
X49969132Y-122525112D01*
X49950277Y-122545925D01*
X49939272Y-122566439D01*
X49934026Y-122594203D01*
X49932449Y-122636762D01*
X49932376Y-122657766D01*
X49797590Y-122657766D01*
X49798094Y-122601580D01*
X49815388Y-122514501D01*
X49849029Y-122446530D01*
X49899018Y-122397664D01*
X49965356Y-122367899D01*
X49979601Y-122364448D01*
X50065210Y-122356345D01*
X50140762Y-122370055D01*
G37*
X50140762Y-122370055D02*
X50204363Y-122404692D01*
X50254123Y-122459372D01*
X50277568Y-122503842D01*
X50287634Y-122543121D01*
X50294156Y-122599116D01*
X50296951Y-122663621D01*
X50295836Y-122728429D01*
X50290626Y-122785334D01*
X50284541Y-122815727D01*
X50264014Y-122857306D01*
X50228463Y-122901468D01*
X50185619Y-122940087D01*
X50143211Y-122965034D01*
X50142177Y-122965430D01*
X50089553Y-122976331D01*
X50027188Y-122976601D01*
X49967924Y-122966676D01*
X49945040Y-122958722D01*
X49886102Y-122925300D01*
X49843890Y-122881511D01*
X49816156Y-122823538D01*
X49800651Y-122747565D01*
X49797143Y-122707771D01*
X49797590Y-122657766D01*
X49932376Y-122657766D01*
X49936917Y-122730732D01*
X49949986Y-122786334D01*
X49970756Y-122821861D01*
X49985552Y-122832020D01*
X50023464Y-122839104D01*
X50068527Y-122837007D01*
X50107487Y-122826812D01*
X50117704Y-122821204D01*
X50144659Y-122788538D01*
X50162451Y-122738545D01*
X50170024Y-122677705D01*
X50166325Y-122612497D01*
X50158057Y-122573253D01*
X50134320Y-122527805D01*
X50096849Y-122499396D01*
X50051720Y-122489573D01*
X50005011Y-122499887D01*
X49969132Y-122525112D01*
X49950277Y-122545925D01*
X49939272Y-122566439D01*
X49934026Y-122594203D01*
X49932449Y-122636762D01*
X49932376Y-122657766D01*
X49797590Y-122657766D01*
X49798094Y-122601580D01*
X49815388Y-122514501D01*
X49849029Y-122446530D01*
X49899018Y-122397664D01*
X49965356Y-122367899D01*
X49979601Y-122364448D01*
X50065210Y-122356345D01*
X50140762Y-122370055D01*
G36*
X50523367Y-122558342D02*
G01*
X50524555Y-122650563D01*
X50528897Y-122720610D01*
X50537558Y-122771381D01*
X50551704Y-122805772D01*
X50572500Y-122826679D01*
X50601110Y-122837000D01*
X50636535Y-122839636D01*
X50673636Y-122836682D01*
X50701818Y-122825889D01*
X50722243Y-122804360D01*
X50736079Y-122769199D01*
X50744491Y-122717510D01*
X50748643Y-122646394D01*
X50749703Y-122558342D01*
X50749703Y-122362614D01*
X50888020Y-122362614D01*
X50888020Y-122966179D01*
X50818862Y-122966179D01*
X50777170Y-122964489D01*
X50755701Y-122958556D01*
X50749703Y-122947293D01*
X50746091Y-122937261D01*
X50731714Y-122939383D01*
X50702736Y-122953580D01*
X50636319Y-122975480D01*
X50565875Y-122973928D01*
X50498377Y-122950147D01*
X50466233Y-122931362D01*
X50441715Y-122911022D01*
X50423804Y-122885573D01*
X50411479Y-122851458D01*
X50403723Y-122805121D01*
X50399516Y-122743007D01*
X50397840Y-122661561D01*
X50397624Y-122598578D01*
X50397624Y-122362614D01*
X50523367Y-122362614D01*
X50523367Y-122558342D01*
G37*
X50523367Y-122558342D02*
X50524555Y-122650563D01*
X50528897Y-122720610D01*
X50537558Y-122771381D01*
X50551704Y-122805772D01*
X50572500Y-122826679D01*
X50601110Y-122837000D01*
X50636535Y-122839636D01*
X50673636Y-122836682D01*
X50701818Y-122825889D01*
X50722243Y-122804360D01*
X50736079Y-122769199D01*
X50744491Y-122717510D01*
X50748643Y-122646394D01*
X50749703Y-122558342D01*
X50749703Y-122362614D01*
X50888020Y-122362614D01*
X50888020Y-122966179D01*
X50818862Y-122966179D01*
X50777170Y-122964489D01*
X50755701Y-122958556D01*
X50749703Y-122947293D01*
X50746091Y-122937261D01*
X50731714Y-122939383D01*
X50702736Y-122953580D01*
X50636319Y-122975480D01*
X50565875Y-122973928D01*
X50498377Y-122950147D01*
X50466233Y-122931362D01*
X50441715Y-122911022D01*
X50423804Y-122885573D01*
X50411479Y-122851458D01*
X50403723Y-122805121D01*
X50399516Y-122743007D01*
X50397840Y-122661561D01*
X50397624Y-122598578D01*
X50397624Y-122362614D01*
X50523367Y-122362614D01*
X50523367Y-122558342D01*
G36*
X51747226Y-122367880D02*
G01*
X51820080Y-122398830D01*
X51843027Y-122413895D01*
X51872354Y-122437048D01*
X51890764Y-122455253D01*
X51893961Y-122461183D01*
X51884935Y-122474340D01*
X51861837Y-122496667D01*
X51843344Y-122512250D01*
X51792728Y-122552926D01*
X51752760Y-122519295D01*
X51721874Y-122497584D01*
X51691759Y-122490090D01*
X51657292Y-122491920D01*
X51602561Y-122505528D01*
X51564886Y-122533772D01*
X51541991Y-122579433D01*
X51531597Y-122645289D01*
X51531595Y-122645331D01*
X51532494Y-122718939D01*
X51546463Y-122772946D01*
X51574328Y-122809716D01*
X51593325Y-122822168D01*
X51643776Y-122837673D01*
X51697663Y-122837683D01*
X51744546Y-122822638D01*
X51755644Y-122815287D01*
X51783476Y-122796511D01*
X51805236Y-122793434D01*
X51828704Y-122807409D01*
X51854649Y-122832510D01*
X51895716Y-122874880D01*
X51850121Y-122912464D01*
X51779674Y-122954882D01*
X51700233Y-122975785D01*
X51617215Y-122974272D01*
X51562694Y-122960411D01*
X51498970Y-122926135D01*
X51448005Y-122872212D01*
X51424851Y-122834149D01*
X51406099Y-122779536D01*
X51396715Y-122710369D01*
X51396643Y-122635407D01*
X51405824Y-122563409D01*
X51424199Y-122503137D01*
X51427093Y-122496958D01*
X51469952Y-122436351D01*
X51527979Y-122392224D01*
X51596591Y-122365493D01*
X51671201Y-122357073D01*
X51747226Y-122367880D01*
G37*
X51747226Y-122367880D02*
X51820080Y-122398830D01*
X51843027Y-122413895D01*
X51872354Y-122437048D01*
X51890764Y-122455253D01*
X51893961Y-122461183D01*
X51884935Y-122474340D01*
X51861837Y-122496667D01*
X51843344Y-122512250D01*
X51792728Y-122552926D01*
X51752760Y-122519295D01*
X51721874Y-122497584D01*
X51691759Y-122490090D01*
X51657292Y-122491920D01*
X51602561Y-122505528D01*
X51564886Y-122533772D01*
X51541991Y-122579433D01*
X51531597Y-122645289D01*
X51531595Y-122645331D01*
X51532494Y-122718939D01*
X51546463Y-122772946D01*
X51574328Y-122809716D01*
X51593325Y-122822168D01*
X51643776Y-122837673D01*
X51697663Y-122837683D01*
X51744546Y-122822638D01*
X51755644Y-122815287D01*
X51783476Y-122796511D01*
X51805236Y-122793434D01*
X51828704Y-122807409D01*
X51854649Y-122832510D01*
X51895716Y-122874880D01*
X51850121Y-122912464D01*
X51779674Y-122954882D01*
X51700233Y-122975785D01*
X51617215Y-122974272D01*
X51562694Y-122960411D01*
X51498970Y-122926135D01*
X51448005Y-122872212D01*
X51424851Y-122834149D01*
X51406099Y-122779536D01*
X51396715Y-122710369D01*
X51396643Y-122635407D01*
X51405824Y-122563409D01*
X51424199Y-122503137D01*
X51427093Y-122496958D01*
X51469952Y-122436351D01*
X51527979Y-122392224D01*
X51596591Y-122365493D01*
X51671201Y-122357073D01*
X51747226Y-122367880D01*
G36*
X52207898Y-122360457D02*
G01*
X52240096Y-122368279D01*
X52301825Y-122396921D01*
X52354610Y-122440667D01*
X52391141Y-122493117D01*
X52396160Y-122504893D01*
X52403045Y-122535740D01*
X52407864Y-122581371D01*
X52409505Y-122627492D01*
X52409505Y-122714693D01*
X52227178Y-122714693D01*
X52151979Y-122714978D01*
X52099003Y-122716704D01*
X52065325Y-122721181D01*
X52048020Y-122729720D01*
X52044163Y-122743630D01*
X52050829Y-122764222D01*
X52062770Y-122788315D01*
X52096080Y-122828525D01*
X52142368Y-122848558D01*
X52198944Y-122847905D01*
X52263031Y-122826101D01*
X52318417Y-122799193D01*
X52364375Y-122835532D01*
X52410333Y-122871872D01*
X52367096Y-122911819D01*
X52309374Y-122949563D01*
X52238386Y-122972320D01*
X52162029Y-122978688D01*
X52088199Y-122967268D01*
X52076287Y-122963393D01*
X52011399Y-122929506D01*
X51963130Y-122878986D01*
X51930465Y-122810325D01*
X51912385Y-122722014D01*
X51912175Y-122720121D01*
X51910556Y-122623878D01*
X51917100Y-122589542D01*
X52044852Y-122589542D01*
X52056584Y-122594822D01*
X52088438Y-122598867D01*
X52135397Y-122601176D01*
X52165154Y-122601525D01*
X52220648Y-122601306D01*
X52255346Y-122599916D01*
X52273601Y-122596251D01*
X52279766Y-122589210D01*
X52278195Y-122577690D01*
X52276878Y-122573233D01*
X52254382Y-122531355D01*
X52219003Y-122497604D01*
X52187780Y-122482773D01*
X52146301Y-122483668D01*
X52104269Y-122502164D01*
X52069012Y-122532786D01*
X52047854Y-122570062D01*
X52044852Y-122589542D01*
X51917100Y-122589542D01*
X51926690Y-122539229D01*
X51958698Y-122468191D01*
X52004701Y-122412779D01*
X52062821Y-122375009D01*
X52131180Y-122356896D01*
X52207898Y-122360457D01*
G37*
X52207898Y-122360457D02*
X52240096Y-122368279D01*
X52301825Y-122396921D01*
X52354610Y-122440667D01*
X52391141Y-122493117D01*
X52396160Y-122504893D01*
X52403045Y-122535740D01*
X52407864Y-122581371D01*
X52409505Y-122627492D01*
X52409505Y-122714693D01*
X52227178Y-122714693D01*
X52151979Y-122714978D01*
X52099003Y-122716704D01*
X52065325Y-122721181D01*
X52048020Y-122729720D01*
X52044163Y-122743630D01*
X52050829Y-122764222D01*
X52062770Y-122788315D01*
X52096080Y-122828525D01*
X52142368Y-122848558D01*
X52198944Y-122847905D01*
X52263031Y-122826101D01*
X52318417Y-122799193D01*
X52364375Y-122835532D01*
X52410333Y-122871872D01*
X52367096Y-122911819D01*
X52309374Y-122949563D01*
X52238386Y-122972320D01*
X52162029Y-122978688D01*
X52088199Y-122967268D01*
X52076287Y-122963393D01*
X52011399Y-122929506D01*
X51963130Y-122878986D01*
X51930465Y-122810325D01*
X51912385Y-122722014D01*
X51912175Y-122720121D01*
X51910556Y-122623878D01*
X51917100Y-122589542D01*
X52044852Y-122589542D01*
X52056584Y-122594822D01*
X52088438Y-122598867D01*
X52135397Y-122601176D01*
X52165154Y-122601525D01*
X52220648Y-122601306D01*
X52255346Y-122599916D01*
X52273601Y-122596251D01*
X52279766Y-122589210D01*
X52278195Y-122577690D01*
X52276878Y-122573233D01*
X52254382Y-122531355D01*
X52219003Y-122497604D01*
X52187780Y-122482773D01*
X52146301Y-122483668D01*
X52104269Y-122502164D01*
X52069012Y-122532786D01*
X52047854Y-122570062D01*
X52044852Y-122589542D01*
X51917100Y-122589542D01*
X51926690Y-122539229D01*
X51958698Y-122468191D01*
X52004701Y-122412779D01*
X52062821Y-122375009D01*
X52131180Y-122356896D01*
X52207898Y-122360457D01*
G36*
X48775988Y-122373002D02*
G01*
X48807283Y-122387950D01*
X48837591Y-122409541D01*
X48860682Y-122434391D01*
X48877500Y-122466087D01*
X48888994Y-122508214D01*
X48896109Y-122564358D01*
X48899793Y-122638106D01*
X48900992Y-122733044D01*
X48901011Y-122742985D01*
X48901287Y-122966179D01*
X48762970Y-122966179D01*
X48762970Y-122760418D01*
X48762872Y-122684189D01*
X48762191Y-122628939D01*
X48760349Y-122590501D01*
X48756767Y-122564706D01*
X48750868Y-122547384D01*
X48742073Y-122534368D01*
X48729820Y-122521507D01*
X48686953Y-122493873D01*
X48640157Y-122488745D01*
X48595576Y-122506217D01*
X48580072Y-122519221D01*
X48568690Y-122531447D01*
X48560519Y-122544540D01*
X48555026Y-122562615D01*
X48551680Y-122589787D01*
X48549949Y-122630170D01*
X48549303Y-122687879D01*
X48549208Y-122758132D01*
X48549208Y-122966179D01*
X48410891Y-122966179D01*
X48410891Y-122362614D01*
X48480050Y-122362614D01*
X48521572Y-122364256D01*
X48542994Y-122370087D01*
X48549205Y-122381461D01*
X48549208Y-122381798D01*
X48552090Y-122392938D01*
X48564801Y-122391674D01*
X48590074Y-122379434D01*
X48647395Y-122361424D01*
X48712963Y-122359421D01*
X48775988Y-122373002D01*
G37*
X48775988Y-122373002D02*
X48807283Y-122387950D01*
X48837591Y-122409541D01*
X48860682Y-122434391D01*
X48877500Y-122466087D01*
X48888994Y-122508214D01*
X48896109Y-122564358D01*
X48899793Y-122638106D01*
X48900992Y-122733044D01*
X48901011Y-122742985D01*
X48901287Y-122966179D01*
X48762970Y-122966179D01*
X48762970Y-122760418D01*
X48762872Y-122684189D01*
X48762191Y-122628939D01*
X48760349Y-122590501D01*
X48756767Y-122564706D01*
X48750868Y-122547384D01*
X48742073Y-122534368D01*
X48729820Y-122521507D01*
X48686953Y-122493873D01*
X48640157Y-122488745D01*
X48595576Y-122506217D01*
X48580072Y-122519221D01*
X48568690Y-122531447D01*
X48560519Y-122544540D01*
X48555026Y-122562615D01*
X48551680Y-122589787D01*
X48549949Y-122630170D01*
X48549303Y-122687879D01*
X48549208Y-122758132D01*
X48549208Y-122966179D01*
X48410891Y-122966179D01*
X48410891Y-122362614D01*
X48480050Y-122362614D01*
X48521572Y-122364256D01*
X48542994Y-122370087D01*
X48549205Y-122381461D01*
X48549208Y-122381798D01*
X48552090Y-122392938D01*
X48564801Y-122391674D01*
X48590074Y-122379434D01*
X48647395Y-122361424D01*
X48712963Y-122359421D01*
X48775988Y-122373002D01*
G36*
X51329460Y-122362030D02*
G01*
X51372711Y-122375245D01*
X51400558Y-122391941D01*
X51409629Y-122405145D01*
X51407132Y-122420797D01*
X51390931Y-122445385D01*
X51377232Y-122462800D01*
X51348992Y-122494283D01*
X51327775Y-122507529D01*
X51309688Y-122506664D01*
X51256035Y-122493010D01*
X51216630Y-122493630D01*
X51184632Y-122509104D01*
X51173890Y-122518161D01*
X51139505Y-122550027D01*
X51139505Y-122966179D01*
X51001188Y-122966179D01*
X51001188Y-122362614D01*
X51070347Y-122362614D01*
X51111869Y-122364256D01*
X51133291Y-122370087D01*
X51139502Y-122381461D01*
X51139505Y-122381798D01*
X51142439Y-122393713D01*
X51155704Y-122392159D01*
X51174084Y-122383563D01*
X51212046Y-122367568D01*
X51242872Y-122357945D01*
X51282536Y-122355478D01*
X51329460Y-122362030D01*
G37*
X51329460Y-122362030D02*
X51372711Y-122375245D01*
X51400558Y-122391941D01*
X51409629Y-122405145D01*
X51407132Y-122420797D01*
X51390931Y-122445385D01*
X51377232Y-122462800D01*
X51348992Y-122494283D01*
X51327775Y-122507529D01*
X51309688Y-122506664D01*
X51256035Y-122493010D01*
X51216630Y-122493630D01*
X51184632Y-122509104D01*
X51173890Y-122518161D01*
X51139505Y-122550027D01*
X51139505Y-122966179D01*
X51001188Y-122966179D01*
X51001188Y-122362614D01*
X51070347Y-122362614D01*
X51111869Y-122364256D01*
X51133291Y-122370087D01*
X51139502Y-122381461D01*
X51139505Y-122381798D01*
X51142439Y-122393713D01*
X51155704Y-122392159D01*
X51174084Y-122383563D01*
X51212046Y-122367568D01*
X51242872Y-122357945D01*
X51282536Y-122355478D01*
X51329460Y-122362030D01*
G36*
X49906964Y-118194018D02*
G01*
X49963812Y-118495570D01*
X50383338Y-118668512D01*
X50634984Y-118497395D01*
X50705458Y-118449750D01*
X50769163Y-118407210D01*
X50823126Y-118371715D01*
X50864373Y-118345210D01*
X50889934Y-118329636D01*
X50896895Y-118326278D01*
X50909435Y-118334914D01*
X50936231Y-118358792D01*
X50974280Y-118394859D01*
X51020579Y-118440067D01*
X51072123Y-118491364D01*
X51125909Y-118545701D01*
X51178935Y-118600028D01*
X51228195Y-118651295D01*
X51270687Y-118696451D01*
X51303407Y-118732446D01*
X51323351Y-118756230D01*
X51328119Y-118764190D01*
X51321257Y-118778865D01*
X51302020Y-118811014D01*
X51272430Y-118857492D01*
X51234510Y-118915156D01*
X51190282Y-118980860D01*
X51164654Y-119018336D01*
X51117941Y-119086768D01*
X51076432Y-119148520D01*
X51042140Y-119200519D01*
X51017080Y-119239692D01*
X51003264Y-119262965D01*
X51001188Y-119267855D01*
X51005895Y-119281755D01*
X51018723Y-119314150D01*
X51037738Y-119360485D01*
X51061003Y-119416206D01*
X51086584Y-119476758D01*
X51112545Y-119537586D01*
X51136950Y-119594136D01*
X51157863Y-119641852D01*
X51173349Y-119676181D01*
X51181472Y-119692568D01*
X51181952Y-119693212D01*
X51194707Y-119696341D01*
X51228677Y-119703321D01*
X51280340Y-119713467D01*
X51346176Y-119726092D01*
X51422664Y-119740509D01*
X51467290Y-119748823D01*
X51549021Y-119764384D01*
X51622843Y-119779192D01*
X51685021Y-119792436D01*
X51731822Y-119803305D01*
X51759509Y-119810989D01*
X51765074Y-119813427D01*
X51770526Y-119829930D01*
X51774924Y-119867200D01*
X51778272Y-119920880D01*
X51780574Y-119986612D01*
X51781832Y-120060037D01*
X51782048Y-120136796D01*
X51781227Y-120212532D01*
X51779371Y-120282886D01*
X51776482Y-120343500D01*
X51772565Y-120390016D01*
X51767622Y-120418075D01*
X51764657Y-120423916D01*
X51746934Y-120430917D01*
X51709381Y-120440927D01*
X51656964Y-120452769D01*
X51594652Y-120465267D01*
X51572900Y-120469310D01*
X51468024Y-120488520D01*
X51385180Y-120503991D01*
X51321630Y-120516337D01*
X51274637Y-120526173D01*
X51241463Y-120534114D01*
X51219371Y-120540776D01*
X51205624Y-120546773D01*
X51197484Y-120552719D01*
X51196345Y-120553894D01*
X51184977Y-120572826D01*
X51167635Y-120609669D01*
X51146050Y-120659913D01*
X51121954Y-120719046D01*
X51097079Y-120782556D01*
X51073157Y-120845932D01*
X51051919Y-120904662D01*
X51035097Y-120954235D01*
X51024422Y-120990139D01*
X51021627Y-121007862D01*
X51021860Y-121008483D01*
X51031331Y-121022970D01*
X51052818Y-121054844D01*
X51084063Y-121100789D01*
X51122807Y-121157485D01*
X51166793Y-121221617D01*
X51179319Y-121239842D01*
X51223984Y-121305914D01*
X51263288Y-121366200D01*
X51295088Y-121417235D01*
X51317245Y-121455560D01*
X51327617Y-121477711D01*
X51328119Y-121480432D01*
X51319405Y-121494736D01*
X51295325Y-121523072D01*
X51258976Y-121562396D01*
X51213453Y-121609661D01*
X51161852Y-121661823D01*
X51107267Y-121715835D01*
X51052794Y-121768653D01*
X51001529Y-121817231D01*
X50956567Y-121858523D01*
X50921004Y-121889485D01*
X50897935Y-121907070D01*
X50891554Y-121909941D01*
X50876699Y-121903178D01*
X50846286Y-121884939D01*
X50805268Y-121858297D01*
X50773709Y-121836852D01*
X50716525Y-121797503D01*
X50648806Y-121751171D01*
X50580880Y-121704913D01*
X50544361Y-121680155D01*
X50420752Y-121596547D01*
X50316991Y-121652650D01*
X50269720Y-121677228D01*
X50229523Y-121696331D01*
X50202326Y-121707227D01*
X50195402Y-121708743D01*
X50187077Y-121697549D01*
X50170654Y-121665917D01*
X50147357Y-121616765D01*
X50118414Y-121553010D01*
X50085050Y-121477571D01*
X50048491Y-121393364D01*
X50009964Y-121303308D01*
X49970694Y-121210321D01*
X49931908Y-121117320D01*
X49894830Y-121027223D01*
X49860689Y-120942948D01*
X49830708Y-120867413D01*
X49806116Y-120803534D01*
X49788136Y-120754231D01*
X49777997Y-120722421D01*
X49776366Y-120711496D01*
X49789291Y-120697561D01*
X49817589Y-120674940D01*
X49855346Y-120648333D01*
X49858515Y-120646228D01*
X49956100Y-120568114D01*
X50034786Y-120476982D01*
X50093891Y-120375745D01*
X50132732Y-120267318D01*
X50150628Y-120154614D01*
X50146897Y-120040548D01*
X50120857Y-119928034D01*
X50071825Y-119819985D01*
X50057400Y-119796345D01*
X49982369Y-119700887D01*
X49893730Y-119624232D01*
X49794549Y-119566780D01*
X49687895Y-119528929D01*
X49576836Y-119511078D01*
X49464439Y-119513625D01*
X49353773Y-119536970D01*
X49247906Y-119581510D01*
X49149905Y-119647645D01*
X49119590Y-119674487D01*
X49042438Y-119758512D01*
X48986218Y-119846966D01*
X48947653Y-119946115D01*
X48926174Y-120044303D01*
X48920872Y-120154697D01*
X48938552Y-120265640D01*
X48977419Y-120373381D01*
X49035677Y-120474169D01*
X49111531Y-120564256D01*
X49203183Y-120639892D01*
X49215228Y-120647864D01*
X49253389Y-120673974D01*
X49282399Y-120696595D01*
X49296268Y-120711039D01*
X49296469Y-120711496D01*
X49293492Y-120727121D01*
X49281689Y-120762582D01*
X49262286Y-120814962D01*
X49236512Y-120881345D01*
X49205591Y-120958814D01*
X49170751Y-121044450D01*
X49133217Y-121135337D01*
X49094217Y-121228559D01*
X49054977Y-121321197D01*
X49016724Y-121410335D01*
X48980683Y-121493055D01*
X48948083Y-121566441D01*
X48920148Y-121627575D01*
X48898105Y-121673541D01*
X48883182Y-121701421D01*
X48877172Y-121708743D01*
X48858809Y-121703041D01*
X48824448Y-121687749D01*
X48780016Y-121665599D01*
X48755583Y-121652650D01*
X48651822Y-121596547D01*
X48528213Y-121680155D01*
X48465114Y-121722987D01*
X48396030Y-121770122D01*
X48331293Y-121814503D01*
X48298866Y-121836852D01*
X48253259Y-121867477D01*
X48214640Y-121891747D01*
X48188048Y-121906587D01*
X48179410Y-121909724D01*
X48166839Y-121901261D01*
X48139016Y-121877636D01*
X48098639Y-121841302D01*
X48048405Y-121794711D01*
X47991012Y-121740317D01*
X47954714Y-121705392D01*
X47891210Y-121642996D01*
X47836327Y-121587188D01*
X47792286Y-121540354D01*
X47761305Y-121504882D01*
X47745602Y-121483161D01*
X47744095Y-121478752D01*
X47751086Y-121461985D01*
X47770406Y-121428082D01*
X47799909Y-121380476D01*
X47837455Y-121322599D01*
X47880900Y-121257884D01*
X47893255Y-121239842D01*
X47938273Y-121174267D01*
X47978660Y-121115228D01*
X48012160Y-121066042D01*
X48036514Y-121030028D01*
X48049464Y-121010502D01*
X48050715Y-121008483D01*
X48048844Y-120992922D01*
X48038913Y-120958709D01*
X48022653Y-120910355D01*
X48001795Y-120852371D01*
X47978073Y-120789270D01*
X47953216Y-120725563D01*
X47928958Y-120665761D01*
X47907029Y-120614376D01*
X47889162Y-120575919D01*
X47877087Y-120554902D01*
X47876229Y-120553894D01*
X47868846Y-120547888D01*
X47856375Y-120541948D01*
X47836080Y-120535460D01*
X47805222Y-120527809D01*
X47761066Y-120518380D01*
X47700874Y-120506559D01*
X47621907Y-120491729D01*
X47521430Y-120473277D01*
X47499675Y-120469310D01*
X47435198Y-120456853D01*
X47378989Y-120444666D01*
X47336013Y-120433926D01*
X47311240Y-120425809D01*
X47307918Y-120423916D01*
X47302444Y-120407138D01*
X47297994Y-120369645D01*
X47294572Y-120315794D01*
X47292181Y-120249944D01*
X47290823Y-120176453D01*
X47290501Y-120099680D01*
X47291219Y-120023983D01*
X47292979Y-119953720D01*
X47295784Y-119893250D01*
X47299638Y-119846930D01*
X47304543Y-119819119D01*
X47307500Y-119813427D01*
X47323963Y-119807686D01*
X47361449Y-119798345D01*
X47416225Y-119786215D01*
X47484555Y-119772107D01*
X47562706Y-119756830D01*
X47605284Y-119748823D01*
X47686071Y-119733721D01*
X47758113Y-119720040D01*
X47817889Y-119708467D01*
X47861879Y-119699687D01*
X47886561Y-119694387D01*
X47890623Y-119693212D01*
X47897489Y-119679965D01*
X47912002Y-119648057D01*
X47932229Y-119602047D01*
X47956234Y-119546492D01*
X47982082Y-119485953D01*
X48007840Y-119424986D01*
X48031573Y-119368151D01*
X48051346Y-119320006D01*
X48065224Y-119285110D01*
X48071274Y-119268021D01*
X48071386Y-119267274D01*
X48064528Y-119253793D01*
X48045302Y-119222770D01*
X48015728Y-119177289D01*
X47977827Y-119120432D01*
X47933620Y-119055283D01*
X47907921Y-119017862D01*
X47861093Y-118949247D01*
X47819501Y-118886952D01*
X47785175Y-118834129D01*
X47760143Y-118793927D01*
X47746435Y-118769500D01*
X47744456Y-118764024D01*
X47752966Y-118751278D01*
X47776493Y-118724063D01*
X47812032Y-118685428D01*
X47856577Y-118638423D01*
X47907123Y-118586095D01*
X47960664Y-118531495D01*
X48014195Y-118477670D01*
X48064711Y-118427670D01*
X48109206Y-118384543D01*
X48144675Y-118351339D01*
X48168113Y-118331106D01*
X48175954Y-118326278D01*
X48188720Y-118333067D01*
X48219256Y-118352142D01*
X48264590Y-118381561D01*
X48321756Y-118419381D01*
X48387784Y-118463661D01*
X48437590Y-118497395D01*
X48689236Y-118668512D01*
X48898999Y-118582041D01*
X49108763Y-118495570D01*
X49165611Y-118194018D01*
X49222460Y-117892466D01*
X49850115Y-117892466D01*
X49906964Y-118194018D01*
G37*
X49906964Y-118194018D02*
X49963812Y-118495570D01*
X50383338Y-118668512D01*
X50634984Y-118497395D01*
X50705458Y-118449750D01*
X50769163Y-118407210D01*
X50823126Y-118371715D01*
X50864373Y-118345210D01*
X50889934Y-118329636D01*
X50896895Y-118326278D01*
X50909435Y-118334914D01*
X50936231Y-118358792D01*
X50974280Y-118394859D01*
X51020579Y-118440067D01*
X51072123Y-118491364D01*
X51125909Y-118545701D01*
X51178935Y-118600028D01*
X51228195Y-118651295D01*
X51270687Y-118696451D01*
X51303407Y-118732446D01*
X51323351Y-118756230D01*
X51328119Y-118764190D01*
X51321257Y-118778865D01*
X51302020Y-118811014D01*
X51272430Y-118857492D01*
X51234510Y-118915156D01*
X51190282Y-118980860D01*
X51164654Y-119018336D01*
X51117941Y-119086768D01*
X51076432Y-119148520D01*
X51042140Y-119200519D01*
X51017080Y-119239692D01*
X51003264Y-119262965D01*
X51001188Y-119267855D01*
X51005895Y-119281755D01*
X51018723Y-119314150D01*
X51037738Y-119360485D01*
X51061003Y-119416206D01*
X51086584Y-119476758D01*
X51112545Y-119537586D01*
X51136950Y-119594136D01*
X51157863Y-119641852D01*
X51173349Y-119676181D01*
X51181472Y-119692568D01*
X51181952Y-119693212D01*
X51194707Y-119696341D01*
X51228677Y-119703321D01*
X51280340Y-119713467D01*
X51346176Y-119726092D01*
X51422664Y-119740509D01*
X51467290Y-119748823D01*
X51549021Y-119764384D01*
X51622843Y-119779192D01*
X51685021Y-119792436D01*
X51731822Y-119803305D01*
X51759509Y-119810989D01*
X51765074Y-119813427D01*
X51770526Y-119829930D01*
X51774924Y-119867200D01*
X51778272Y-119920880D01*
X51780574Y-119986612D01*
X51781832Y-120060037D01*
X51782048Y-120136796D01*
X51781227Y-120212532D01*
X51779371Y-120282886D01*
X51776482Y-120343500D01*
X51772565Y-120390016D01*
X51767622Y-120418075D01*
X51764657Y-120423916D01*
X51746934Y-120430917D01*
X51709381Y-120440927D01*
X51656964Y-120452769D01*
X51594652Y-120465267D01*
X51572900Y-120469310D01*
X51468024Y-120488520D01*
X51385180Y-120503991D01*
X51321630Y-120516337D01*
X51274637Y-120526173D01*
X51241463Y-120534114D01*
X51219371Y-120540776D01*
X51205624Y-120546773D01*
X51197484Y-120552719D01*
X51196345Y-120553894D01*
X51184977Y-120572826D01*
X51167635Y-120609669D01*
X51146050Y-120659913D01*
X51121954Y-120719046D01*
X51097079Y-120782556D01*
X51073157Y-120845932D01*
X51051919Y-120904662D01*
X51035097Y-120954235D01*
X51024422Y-120990139D01*
X51021627Y-121007862D01*
X51021860Y-121008483D01*
X51031331Y-121022970D01*
X51052818Y-121054844D01*
X51084063Y-121100789D01*
X51122807Y-121157485D01*
X51166793Y-121221617D01*
X51179319Y-121239842D01*
X51223984Y-121305914D01*
X51263288Y-121366200D01*
X51295088Y-121417235D01*
X51317245Y-121455560D01*
X51327617Y-121477711D01*
X51328119Y-121480432D01*
X51319405Y-121494736D01*
X51295325Y-121523072D01*
X51258976Y-121562396D01*
X51213453Y-121609661D01*
X51161852Y-121661823D01*
X51107267Y-121715835D01*
X51052794Y-121768653D01*
X51001529Y-121817231D01*
X50956567Y-121858523D01*
X50921004Y-121889485D01*
X50897935Y-121907070D01*
X50891554Y-121909941D01*
X50876699Y-121903178D01*
X50846286Y-121884939D01*
X50805268Y-121858297D01*
X50773709Y-121836852D01*
X50716525Y-121797503D01*
X50648806Y-121751171D01*
X50580880Y-121704913D01*
X50544361Y-121680155D01*
X50420752Y-121596547D01*
X50316991Y-121652650D01*
X50269720Y-121677228D01*
X50229523Y-121696331D01*
X50202326Y-121707227D01*
X50195402Y-121708743D01*
X50187077Y-121697549D01*
X50170654Y-121665917D01*
X50147357Y-121616765D01*
X50118414Y-121553010D01*
X50085050Y-121477571D01*
X50048491Y-121393364D01*
X50009964Y-121303308D01*
X49970694Y-121210321D01*
X49931908Y-121117320D01*
X49894830Y-121027223D01*
X49860689Y-120942948D01*
X49830708Y-120867413D01*
X49806116Y-120803534D01*
X49788136Y-120754231D01*
X49777997Y-120722421D01*
X49776366Y-120711496D01*
X49789291Y-120697561D01*
X49817589Y-120674940D01*
X49855346Y-120648333D01*
X49858515Y-120646228D01*
X49956100Y-120568114D01*
X50034786Y-120476982D01*
X50093891Y-120375745D01*
X50132732Y-120267318D01*
X50150628Y-120154614D01*
X50146897Y-120040548D01*
X50120857Y-119928034D01*
X50071825Y-119819985D01*
X50057400Y-119796345D01*
X49982369Y-119700887D01*
X49893730Y-119624232D01*
X49794549Y-119566780D01*
X49687895Y-119528929D01*
X49576836Y-119511078D01*
X49464439Y-119513625D01*
X49353773Y-119536970D01*
X49247906Y-119581510D01*
X49149905Y-119647645D01*
X49119590Y-119674487D01*
X49042438Y-119758512D01*
X48986218Y-119846966D01*
X48947653Y-119946115D01*
X48926174Y-120044303D01*
X48920872Y-120154697D01*
X48938552Y-120265640D01*
X48977419Y-120373381D01*
X49035677Y-120474169D01*
X49111531Y-120564256D01*
X49203183Y-120639892D01*
X49215228Y-120647864D01*
X49253389Y-120673974D01*
X49282399Y-120696595D01*
X49296268Y-120711039D01*
X49296469Y-120711496D01*
X49293492Y-120727121D01*
X49281689Y-120762582D01*
X49262286Y-120814962D01*
X49236512Y-120881345D01*
X49205591Y-120958814D01*
X49170751Y-121044450D01*
X49133217Y-121135337D01*
X49094217Y-121228559D01*
X49054977Y-121321197D01*
X49016724Y-121410335D01*
X48980683Y-121493055D01*
X48948083Y-121566441D01*
X48920148Y-121627575D01*
X48898105Y-121673541D01*
X48883182Y-121701421D01*
X48877172Y-121708743D01*
X48858809Y-121703041D01*
X48824448Y-121687749D01*
X48780016Y-121665599D01*
X48755583Y-121652650D01*
X48651822Y-121596547D01*
X48528213Y-121680155D01*
X48465114Y-121722987D01*
X48396030Y-121770122D01*
X48331293Y-121814503D01*
X48298866Y-121836852D01*
X48253259Y-121867477D01*
X48214640Y-121891747D01*
X48188048Y-121906587D01*
X48179410Y-121909724D01*
X48166839Y-121901261D01*
X48139016Y-121877636D01*
X48098639Y-121841302D01*
X48048405Y-121794711D01*
X47991012Y-121740317D01*
X47954714Y-121705392D01*
X47891210Y-121642996D01*
X47836327Y-121587188D01*
X47792286Y-121540354D01*
X47761305Y-121504882D01*
X47745602Y-121483161D01*
X47744095Y-121478752D01*
X47751086Y-121461985D01*
X47770406Y-121428082D01*
X47799909Y-121380476D01*
X47837455Y-121322599D01*
X47880900Y-121257884D01*
X47893255Y-121239842D01*
X47938273Y-121174267D01*
X47978660Y-121115228D01*
X48012160Y-121066042D01*
X48036514Y-121030028D01*
X48049464Y-121010502D01*
X48050715Y-121008483D01*
X48048844Y-120992922D01*
X48038913Y-120958709D01*
X48022653Y-120910355D01*
X48001795Y-120852371D01*
X47978073Y-120789270D01*
X47953216Y-120725563D01*
X47928958Y-120665761D01*
X47907029Y-120614376D01*
X47889162Y-120575919D01*
X47877087Y-120554902D01*
X47876229Y-120553894D01*
X47868846Y-120547888D01*
X47856375Y-120541948D01*
X47836080Y-120535460D01*
X47805222Y-120527809D01*
X47761066Y-120518380D01*
X47700874Y-120506559D01*
X47621907Y-120491729D01*
X47521430Y-120473277D01*
X47499675Y-120469310D01*
X47435198Y-120456853D01*
X47378989Y-120444666D01*
X47336013Y-120433926D01*
X47311240Y-120425809D01*
X47307918Y-120423916D01*
X47302444Y-120407138D01*
X47297994Y-120369645D01*
X47294572Y-120315794D01*
X47292181Y-120249944D01*
X47290823Y-120176453D01*
X47290501Y-120099680D01*
X47291219Y-120023983D01*
X47292979Y-119953720D01*
X47295784Y-119893250D01*
X47299638Y-119846930D01*
X47304543Y-119819119D01*
X47307500Y-119813427D01*
X47323963Y-119807686D01*
X47361449Y-119798345D01*
X47416225Y-119786215D01*
X47484555Y-119772107D01*
X47562706Y-119756830D01*
X47605284Y-119748823D01*
X47686071Y-119733721D01*
X47758113Y-119720040D01*
X47817889Y-119708467D01*
X47861879Y-119699687D01*
X47886561Y-119694387D01*
X47890623Y-119693212D01*
X47897489Y-119679965D01*
X47912002Y-119648057D01*
X47932229Y-119602047D01*
X47956234Y-119546492D01*
X47982082Y-119485953D01*
X48007840Y-119424986D01*
X48031573Y-119368151D01*
X48051346Y-119320006D01*
X48065224Y-119285110D01*
X48071274Y-119268021D01*
X48071386Y-119267274D01*
X48064528Y-119253793D01*
X48045302Y-119222770D01*
X48015728Y-119177289D01*
X47977827Y-119120432D01*
X47933620Y-119055283D01*
X47907921Y-119017862D01*
X47861093Y-118949247D01*
X47819501Y-118886952D01*
X47785175Y-118834129D01*
X47760143Y-118793927D01*
X47746435Y-118769500D01*
X47744456Y-118764024D01*
X47752966Y-118751278D01*
X47776493Y-118724063D01*
X47812032Y-118685428D01*
X47856577Y-118638423D01*
X47907123Y-118586095D01*
X47960664Y-118531495D01*
X48014195Y-118477670D01*
X48064711Y-118427670D01*
X48109206Y-118384543D01*
X48144675Y-118351339D01*
X48168113Y-118331106D01*
X48175954Y-118326278D01*
X48188720Y-118333067D01*
X48219256Y-118352142D01*
X48264590Y-118381561D01*
X48321756Y-118419381D01*
X48387784Y-118463661D01*
X48437590Y-118497395D01*
X48689236Y-118668512D01*
X48898999Y-118582041D01*
X49108763Y-118495570D01*
X49165611Y-118194018D01*
X49222460Y-117892466D01*
X49850115Y-117892466D01*
X49906964Y-118194018D01*
G36*
X127501409Y-146029715D02*
G01*
X127859007Y-146038548D01*
X128187958Y-146056280D01*
X128478049Y-146083017D01*
X128501517Y-146085822D01*
X129002042Y-146161082D01*
X129459926Y-146259374D01*
X129874752Y-146380466D01*
X130246101Y-146524131D01*
X130573554Y-146690140D01*
X130856694Y-146878264D01*
X131095102Y-147088273D01*
X131288359Y-147319939D01*
X131436047Y-147573033D01*
X131499538Y-147726400D01*
X131523520Y-147799458D01*
X131540003Y-147869031D01*
X131550299Y-147947166D01*
X131555716Y-148045908D01*
X131557567Y-148177303D01*
X131557561Y-148259800D01*
X131556476Y-148408279D01*
X131552907Y-148519503D01*
X131545015Y-148607013D01*
X131530961Y-148684348D01*
X131508902Y-148765050D01*
X131477001Y-148862659D01*
X131474716Y-148869400D01*
X131445850Y-148949350D01*
X131412328Y-149034525D01*
X131377584Y-149117449D01*
X131345053Y-149190651D01*
X131318169Y-149246655D01*
X131300367Y-149277990D01*
X131295083Y-149277181D01*
X131305452Y-149237700D01*
X131374336Y-148956584D01*
X131396948Y-148694783D01*
X131372492Y-148448967D01*
X131300173Y-148215808D01*
X131179193Y-147991979D01*
X131008756Y-147774151D01*
X130937204Y-147698644D01*
X130752845Y-147525080D01*
X130571101Y-147383103D01*
X130373742Y-147259832D01*
X130164968Y-147152936D01*
X129862305Y-147024125D01*
X129543996Y-146918145D01*
X129203954Y-146833795D01*
X128836092Y-146769872D01*
X128434325Y-146725175D01*
X127992568Y-146698502D01*
X127838200Y-146693483D01*
X127084165Y-146696178D01*
X126310826Y-146742667D01*
X125522694Y-146831871D01*
X124724283Y-146962714D01*
X123920106Y-147134120D01*
X123114677Y-147345010D01*
X122312509Y-147594309D01*
X121518114Y-147880938D01*
X120736006Y-148203822D01*
X119970698Y-148561882D01*
X119935906Y-148579214D01*
X119335743Y-148893729D01*
X118783050Y-149214347D01*
X118274648Y-149543257D01*
X117807360Y-149882646D01*
X117378008Y-150234701D01*
X116983411Y-150601610D01*
X116952620Y-150632301D01*
X116636935Y-150969412D01*
X116370997Y-151298415D01*
X116154495Y-151619860D01*
X115987117Y-151934292D01*
X115868552Y-152242260D01*
X115798488Y-152544310D01*
X115781623Y-152692273D01*
X115785207Y-152970446D01*
X115837232Y-153236352D01*
X115936425Y-153488177D01*
X116081513Y-153724106D01*
X116271226Y-153942324D01*
X116504289Y-154141018D01*
X116779431Y-154318374D01*
X117000970Y-154430965D01*
X117281919Y-154547649D01*
X117582222Y-154647431D01*
X117910631Y-154732728D01*
X118275900Y-154805958D01*
X118480239Y-154839598D01*
X118646751Y-154860178D01*
X118854109Y-154877743D01*
X119092436Y-154892058D01*
X119351854Y-154902893D01*
X119622486Y-154910014D01*
X119894454Y-154913191D01*
X120157882Y-154912189D01*
X120402890Y-154906778D01*
X120619603Y-154896724D01*
X120692595Y-154891629D01*
X121516104Y-154805081D01*
X122354953Y-154672826D01*
X123204371Y-154495809D01*
X124059585Y-154274972D01*
X124548323Y-154129693D01*
X124683089Y-154088281D01*
X124799846Y-154053483D01*
X124890476Y-154027631D01*
X124946862Y-154013056D01*
X124961787Y-154010921D01*
X124943036Y-154022817D01*
X124882523Y-154048425D01*
X124786704Y-154085466D01*
X124662035Y-154131663D01*
X124514972Y-154184738D01*
X124351971Y-154242413D01*
X124179490Y-154302411D01*
X124003982Y-154362454D01*
X123831906Y-154420264D01*
X123669717Y-154473564D01*
X123523870Y-154520076D01*
X123480128Y-154533639D01*
X122627281Y-154777575D01*
X121789034Y-154979864D01*
X120954469Y-155142784D01*
X120112671Y-155268616D01*
X119761000Y-155310224D01*
X119648876Y-155319799D01*
X119496202Y-155328906D01*
X119311436Y-155337365D01*
X119103032Y-155344996D01*
X118879449Y-155351619D01*
X118649141Y-155357054D01*
X118420567Y-155361120D01*
X118202182Y-155363638D01*
X118002442Y-155364428D01*
X117829805Y-155363308D01*
X117692726Y-155360100D01*
X117614700Y-155355937D01*
X117097081Y-155301832D01*
X116616361Y-155223811D01*
X116173726Y-155122377D01*
X115770367Y-154998033D01*
X115407471Y-154851282D01*
X115086228Y-154682627D01*
X114807827Y-154492571D01*
X114573456Y-154281617D01*
X114384304Y-154050268D01*
X114329952Y-153966140D01*
X114277067Y-153868223D01*
X114221368Y-153748726D01*
X114177552Y-153640398D01*
X114151239Y-153564737D01*
X114132745Y-153497974D01*
X114120728Y-153428548D01*
X114113842Y-153344900D01*
X114110744Y-153235467D01*
X114110090Y-153088689D01*
X114110123Y-153060400D01*
X114110754Y-152909572D01*
X114113328Y-152796623D01*
X114119699Y-152708630D01*
X114131722Y-152632670D01*
X114151248Y-152555824D01*
X114180131Y-152465167D01*
X114206659Y-152387300D01*
X114353749Y-152029751D01*
X114549968Y-151668987D01*
X114793845Y-151306321D01*
X115083913Y-150943063D01*
X115418701Y-150580527D01*
X115796740Y-150220023D01*
X116216560Y-149862864D01*
X116676693Y-149510361D01*
X117175668Y-149163826D01*
X117712017Y-148824570D01*
X118284269Y-148493907D01*
X118890957Y-148173147D01*
X118973600Y-148131584D01*
X119810573Y-147737073D01*
X120670128Y-147378435D01*
X121546282Y-147057479D01*
X122433051Y-146776015D01*
X123324454Y-146535850D01*
X124214507Y-146338794D01*
X125097228Y-146186657D01*
X125641100Y-146115352D01*
X125988766Y-146081269D01*
X126358841Y-146055559D01*
X126741115Y-146038326D01*
X127125374Y-146029677D01*
X127501409Y-146029715D01*
G37*
X127501409Y-146029715D02*
X127859007Y-146038548D01*
X128187958Y-146056280D01*
X128478049Y-146083017D01*
X128501517Y-146085822D01*
X129002042Y-146161082D01*
X129459926Y-146259374D01*
X129874752Y-146380466D01*
X130246101Y-146524131D01*
X130573554Y-146690140D01*
X130856694Y-146878264D01*
X131095102Y-147088273D01*
X131288359Y-147319939D01*
X131436047Y-147573033D01*
X131499538Y-147726400D01*
X131523520Y-147799458D01*
X131540003Y-147869031D01*
X131550299Y-147947166D01*
X131555716Y-148045908D01*
X131557567Y-148177303D01*
X131557561Y-148259800D01*
X131556476Y-148408279D01*
X131552907Y-148519503D01*
X131545015Y-148607013D01*
X131530961Y-148684348D01*
X131508902Y-148765050D01*
X131477001Y-148862659D01*
X131474716Y-148869400D01*
X131445850Y-148949350D01*
X131412328Y-149034525D01*
X131377584Y-149117449D01*
X131345053Y-149190651D01*
X131318169Y-149246655D01*
X131300367Y-149277990D01*
X131295083Y-149277181D01*
X131305452Y-149237700D01*
X131374336Y-148956584D01*
X131396948Y-148694783D01*
X131372492Y-148448967D01*
X131300173Y-148215808D01*
X131179193Y-147991979D01*
X131008756Y-147774151D01*
X130937204Y-147698644D01*
X130752845Y-147525080D01*
X130571101Y-147383103D01*
X130373742Y-147259832D01*
X130164968Y-147152936D01*
X129862305Y-147024125D01*
X129543996Y-146918145D01*
X129203954Y-146833795D01*
X128836092Y-146769872D01*
X128434325Y-146725175D01*
X127992568Y-146698502D01*
X127838200Y-146693483D01*
X127084165Y-146696178D01*
X126310826Y-146742667D01*
X125522694Y-146831871D01*
X124724283Y-146962714D01*
X123920106Y-147134120D01*
X123114677Y-147345010D01*
X122312509Y-147594309D01*
X121518114Y-147880938D01*
X120736006Y-148203822D01*
X119970698Y-148561882D01*
X119935906Y-148579214D01*
X119335743Y-148893729D01*
X118783050Y-149214347D01*
X118274648Y-149543257D01*
X117807360Y-149882646D01*
X117378008Y-150234701D01*
X116983411Y-150601610D01*
X116952620Y-150632301D01*
X116636935Y-150969412D01*
X116370997Y-151298415D01*
X116154495Y-151619860D01*
X115987117Y-151934292D01*
X115868552Y-152242260D01*
X115798488Y-152544310D01*
X115781623Y-152692273D01*
X115785207Y-152970446D01*
X115837232Y-153236352D01*
X115936425Y-153488177D01*
X116081513Y-153724106D01*
X116271226Y-153942324D01*
X116504289Y-154141018D01*
X116779431Y-154318374D01*
X117000970Y-154430965D01*
X117281919Y-154547649D01*
X117582222Y-154647431D01*
X117910631Y-154732728D01*
X118275900Y-154805958D01*
X118480239Y-154839598D01*
X118646751Y-154860178D01*
X118854109Y-154877743D01*
X119092436Y-154892058D01*
X119351854Y-154902893D01*
X119622486Y-154910014D01*
X119894454Y-154913191D01*
X120157882Y-154912189D01*
X120402890Y-154906778D01*
X120619603Y-154896724D01*
X120692595Y-154891629D01*
X121516104Y-154805081D01*
X122354953Y-154672826D01*
X123204371Y-154495809D01*
X124059585Y-154274972D01*
X124548323Y-154129693D01*
X124683089Y-154088281D01*
X124799846Y-154053483D01*
X124890476Y-154027631D01*
X124946862Y-154013056D01*
X124961787Y-154010921D01*
X124943036Y-154022817D01*
X124882523Y-154048425D01*
X124786704Y-154085466D01*
X124662035Y-154131663D01*
X124514972Y-154184738D01*
X124351971Y-154242413D01*
X124179490Y-154302411D01*
X124003982Y-154362454D01*
X123831906Y-154420264D01*
X123669717Y-154473564D01*
X123523870Y-154520076D01*
X123480128Y-154533639D01*
X122627281Y-154777575D01*
X121789034Y-154979864D01*
X120954469Y-155142784D01*
X120112671Y-155268616D01*
X119761000Y-155310224D01*
X119648876Y-155319799D01*
X119496202Y-155328906D01*
X119311436Y-155337365D01*
X119103032Y-155344996D01*
X118879449Y-155351619D01*
X118649141Y-155357054D01*
X118420567Y-155361120D01*
X118202182Y-155363638D01*
X118002442Y-155364428D01*
X117829805Y-155363308D01*
X117692726Y-155360100D01*
X117614700Y-155355937D01*
X117097081Y-155301832D01*
X116616361Y-155223811D01*
X116173726Y-155122377D01*
X115770367Y-154998033D01*
X115407471Y-154851282D01*
X115086228Y-154682627D01*
X114807827Y-154492571D01*
X114573456Y-154281617D01*
X114384304Y-154050268D01*
X114329952Y-153966140D01*
X114277067Y-153868223D01*
X114221368Y-153748726D01*
X114177552Y-153640398D01*
X114151239Y-153564737D01*
X114132745Y-153497974D01*
X114120728Y-153428548D01*
X114113842Y-153344900D01*
X114110744Y-153235467D01*
X114110090Y-153088689D01*
X114110123Y-153060400D01*
X114110754Y-152909572D01*
X114113328Y-152796623D01*
X114119699Y-152708630D01*
X114131722Y-152632670D01*
X114151248Y-152555824D01*
X114180131Y-152465167D01*
X114206659Y-152387300D01*
X114353749Y-152029751D01*
X114549968Y-151668987D01*
X114793845Y-151306321D01*
X115083913Y-150943063D01*
X115418701Y-150580527D01*
X115796740Y-150220023D01*
X116216560Y-149862864D01*
X116676693Y-149510361D01*
X117175668Y-149163826D01*
X117712017Y-148824570D01*
X118284269Y-148493907D01*
X118890957Y-148173147D01*
X118973600Y-148131584D01*
X119810573Y-147737073D01*
X120670128Y-147378435D01*
X121546282Y-147057479D01*
X122433051Y-146776015D01*
X123324454Y-146535850D01*
X124214507Y-146338794D01*
X125097228Y-146186657D01*
X125641100Y-146115352D01*
X125988766Y-146081269D01*
X126358841Y-146055559D01*
X126741115Y-146038326D01*
X127125374Y-146029677D01*
X127501409Y-146029715D01*
G36*
X126720600Y-155168600D02*
G01*
X127025400Y-155168600D01*
X127025400Y-155371800D01*
X126441200Y-155371800D01*
X126441200Y-153873200D01*
X126720600Y-153873200D01*
X126720600Y-155168600D01*
G37*
X126720600Y-155168600D02*
X127025400Y-155168600D01*
X127025400Y-155371800D01*
X126441200Y-155371800D01*
X126441200Y-153873200D01*
X126720600Y-153873200D01*
X126720600Y-155168600D01*
G36*
X127282017Y-153878089D02*
G01*
X127386234Y-153885900D01*
X127698500Y-154647900D01*
X127705511Y-154260550D01*
X127712523Y-153873200D01*
X127965200Y-153873200D01*
X127965200Y-155374720D01*
X127858467Y-155366910D01*
X127751735Y-155359100D01*
X127592953Y-154965400D01*
X127434170Y-154571700D01*
X127431800Y-155371800D01*
X127177800Y-155371800D01*
X127177800Y-153870279D01*
X127282017Y-153878089D01*
G37*
X127282017Y-153878089D02*
X127386234Y-153885900D01*
X127698500Y-154647900D01*
X127705511Y-154260550D01*
X127712523Y-153873200D01*
X127965200Y-153873200D01*
X127965200Y-155374720D01*
X127858467Y-155366910D01*
X127751735Y-155359100D01*
X127592953Y-154965400D01*
X127434170Y-154571700D01*
X127431800Y-155371800D01*
X127177800Y-155371800D01*
X127177800Y-153870279D01*
X127282017Y-153878089D01*
G36*
X128473200Y-155168600D02*
G01*
X128778000Y-155168600D01*
X128778000Y-155371800D01*
X128193800Y-155371800D01*
X128193800Y-153873200D01*
X128473200Y-153873200D01*
X128473200Y-155168600D01*
G37*
X128473200Y-155168600D02*
X128778000Y-155168600D01*
X128778000Y-155371800D01*
X128193800Y-155371800D01*
X128193800Y-153873200D01*
X128473200Y-153873200D01*
X128473200Y-155168600D01*
G36*
X125035733Y-153983266D02*
G01*
X125032246Y-153998366D01*
X125018800Y-154000200D01*
X124997892Y-153990906D01*
X125001866Y-153983266D01*
X125032010Y-153980226D01*
X125035733Y-153983266D01*
G37*
X125035733Y-153983266D02*
X125032246Y-153998366D01*
X125018800Y-154000200D01*
X124997892Y-153990906D01*
X125001866Y-153983266D01*
X125032010Y-153980226D01*
X125035733Y-153983266D01*
G36*
X125095000Y-153962100D02*
G01*
X125082300Y-153974800D01*
X125069600Y-153962100D01*
X125082300Y-153949400D01*
X125095000Y-153962100D01*
G37*
X125095000Y-153962100D02*
X125082300Y-153974800D01*
X125069600Y-153962100D01*
X125082300Y-153949400D01*
X125095000Y-153962100D01*
G36*
X125162733Y-153932466D02*
G01*
X125159246Y-153947566D01*
X125145800Y-153949400D01*
X125124892Y-153940106D01*
X125128866Y-153932466D01*
X125159010Y-153929426D01*
X125162733Y-153932466D01*
G37*
X125162733Y-153932466D02*
X125159246Y-153947566D01*
X125145800Y-153949400D01*
X125124892Y-153940106D01*
X125128866Y-153932466D01*
X125159010Y-153929426D01*
X125162733Y-153932466D01*
G36*
X121589800Y-153085800D02*
G01*
X120954800Y-153085800D01*
X120954800Y-149402800D01*
X121589800Y-149402800D01*
X121589800Y-153085800D01*
G37*
X121589800Y-153085800D02*
X120954800Y-153085800D01*
X120954800Y-149402800D01*
X121589800Y-149402800D01*
X121589800Y-153085800D01*
G36*
X124041743Y-150754241D02*
G01*
X124879100Y-152105683D01*
X124891800Y-150760591D01*
X124904500Y-149415500D01*
X125514100Y-149415500D01*
X125527134Y-153085800D01*
X124824072Y-153085800D01*
X123151900Y-150382680D01*
X123138754Y-153085800D01*
X122529600Y-153085800D01*
X122529600Y-149402800D01*
X123204387Y-149402800D01*
X124041743Y-150754241D01*
G37*
X124041743Y-150754241D02*
X124879100Y-152105683D01*
X124891800Y-150760591D01*
X124904500Y-149415500D01*
X125514100Y-149415500D01*
X125527134Y-153085800D01*
X124824072Y-153085800D01*
X123151900Y-150382680D01*
X123138754Y-153085800D01*
X122529600Y-153085800D01*
X122529600Y-149402800D01*
X123204387Y-149402800D01*
X124041743Y-150754241D01*
G36*
X128981200Y-149961600D02*
G01*
X127101600Y-149961600D01*
X127101600Y-150926800D01*
X128752600Y-150926800D01*
X128752600Y-151460200D01*
X127101600Y-151460200D01*
X127101600Y-153085800D01*
X126441200Y-153085800D01*
X126441200Y-149402800D01*
X128981200Y-149402800D01*
X128981200Y-149961600D01*
G37*
X128981200Y-149961600D02*
X127101600Y-149961600D01*
X127101600Y-150926800D01*
X128752600Y-150926800D01*
X128752600Y-151460200D01*
X127101600Y-151460200D01*
X127101600Y-153085800D01*
X126441200Y-153085800D01*
X126441200Y-149402800D01*
X128981200Y-149402800D01*
X128981200Y-149961600D01*
G36*
X132613400Y-153085800D02*
G01*
X131932039Y-153085800D01*
X131097969Y-151738711D01*
X130263900Y-150391622D01*
X130250754Y-153085800D01*
X129641600Y-153085800D01*
X129641600Y-149402800D01*
X130314700Y-149403600D01*
X131152900Y-150758156D01*
X131991100Y-152112711D01*
X131997670Y-150757755D01*
X132004241Y-149402800D01*
X132613400Y-149402800D01*
X132613400Y-153085800D01*
G37*
X132613400Y-153085800D02*
X131932039Y-153085800D01*
X131097969Y-151738711D01*
X130263900Y-150391622D01*
X130250754Y-153085800D01*
X129641600Y-153085800D01*
X129641600Y-149402800D01*
X130314700Y-149403600D01*
X131152900Y-150758156D01*
X131991100Y-152112711D01*
X131997670Y-150757755D01*
X132004241Y-149402800D01*
X132613400Y-149402800D01*
X132613400Y-153085800D01*
G36*
X107552159Y-158587281D02*
G01*
X107419158Y-158813629D01*
X107245971Y-159109202D01*
X107087913Y-159379510D01*
X106938841Y-159621559D01*
X106815318Y-159798292D01*
X106741943Y-159874807D01*
X106738247Y-159875604D01*
X106668186Y-159812115D01*
X106571471Y-159653028D01*
X106548574Y-159606908D01*
X106486365Y-159463939D01*
X106468533Y-159346627D01*
X106504236Y-159210619D01*
X106602634Y-159011563D01*
X106712493Y-158813158D01*
X107005269Y-158289625D01*
X107727555Y-158289625D01*
X107552159Y-158587281D01*
G37*
X107552159Y-158587281D02*
X107419158Y-158813629D01*
X107245971Y-159109202D01*
X107087913Y-159379510D01*
X106938841Y-159621559D01*
X106815318Y-159798292D01*
X106741943Y-159874807D01*
X106738247Y-159875604D01*
X106668186Y-159812115D01*
X106571471Y-159653028D01*
X106548574Y-159606908D01*
X106486365Y-159463939D01*
X106468533Y-159346627D01*
X106504236Y-159210619D01*
X106602634Y-159011563D01*
X106712493Y-158813158D01*
X107005269Y-158289625D01*
X107727555Y-158289625D01*
X107552159Y-158587281D01*
G36*
X113664222Y-159302228D02*
G01*
X112296232Y-161702750D01*
X111108688Y-161702750D01*
X110697537Y-161698533D01*
X110351667Y-161686913D01*
X110097738Y-161669434D01*
X109962410Y-161647641D01*
X109947604Y-161635475D01*
X109994626Y-161550127D01*
X110111064Y-161349709D01*
X110284538Y-161055208D01*
X110502668Y-160687610D01*
X110753074Y-160267902D01*
X110841173Y-160120717D01*
X111708284Y-158673233D01*
X111890534Y-158975209D01*
X111999777Y-159178717D01*
X112023544Y-159313086D01*
X111971793Y-159436041D01*
X111970393Y-159438249D01*
X111815813Y-159686625D01*
X111637994Y-159980300D01*
X111455478Y-160287576D01*
X111286805Y-160576758D01*
X111150516Y-160816146D01*
X111065152Y-160974045D01*
X111045625Y-161019242D01*
X111117591Y-161045163D01*
X111303960Y-161062403D01*
X111502031Y-161066848D01*
X111958437Y-161065946D01*
X112458714Y-160188260D01*
X112958990Y-159310575D01*
X112470108Y-158440784D01*
X111981226Y-157570994D01*
X110861234Y-157592965D01*
X109741243Y-157614937D01*
X108984527Y-158943659D01*
X108227812Y-160272380D01*
X107883854Y-160273190D01*
X107682271Y-160260213D01*
X107573206Y-160226509D01*
X107566354Y-160207537D01*
X107611707Y-160122333D01*
X107724502Y-159919555D01*
X107893346Y-159619416D01*
X108106843Y-159242132D01*
X108353599Y-158807918D01*
X108505625Y-158541183D01*
X109418437Y-156941292D01*
X110859245Y-156940771D01*
X112300054Y-156940250D01*
X113664222Y-159302228D01*
G37*
X113664222Y-159302228D02*
X112296232Y-161702750D01*
X111108688Y-161702750D01*
X110697537Y-161698533D01*
X110351667Y-161686913D01*
X110097738Y-161669434D01*
X109962410Y-161647641D01*
X109947604Y-161635475D01*
X109994626Y-161550127D01*
X110111064Y-161349709D01*
X110284538Y-161055208D01*
X110502668Y-160687610D01*
X110753074Y-160267902D01*
X110841173Y-160120717D01*
X111708284Y-158673233D01*
X111890534Y-158975209D01*
X111999777Y-159178717D01*
X112023544Y-159313086D01*
X111971793Y-159436041D01*
X111970393Y-159438249D01*
X111815813Y-159686625D01*
X111637994Y-159980300D01*
X111455478Y-160287576D01*
X111286805Y-160576758D01*
X111150516Y-160816146D01*
X111065152Y-160974045D01*
X111045625Y-161019242D01*
X111117591Y-161045163D01*
X111303960Y-161062403D01*
X111502031Y-161066848D01*
X111958437Y-161065946D01*
X112458714Y-160188260D01*
X112958990Y-159310575D01*
X112470108Y-158440784D01*
X111981226Y-157570994D01*
X110861234Y-157592965D01*
X109741243Y-157614937D01*
X108984527Y-158943659D01*
X108227812Y-160272380D01*
X107883854Y-160273190D01*
X107682271Y-160260213D01*
X107573206Y-160226509D01*
X107566354Y-160207537D01*
X107611707Y-160122333D01*
X107724502Y-159919555D01*
X107893346Y-159619416D01*
X108106843Y-159242132D01*
X108353599Y-158807918D01*
X108505625Y-158541183D01*
X109418437Y-156941292D01*
X110859245Y-156940771D01*
X112300054Y-156940250D01*
X113664222Y-159302228D01*
G36*
X107743568Y-156943446D02*
G01*
X108091744Y-156952249D01*
X108349363Y-156965476D01*
X108488787Y-156981944D01*
X108505625Y-156990412D01*
X108467503Y-157084054D01*
X108372730Y-157254632D01*
X108340401Y-157307912D01*
X108175177Y-157575250D01*
X107328369Y-157577735D01*
X106481562Y-157580221D01*
X105985894Y-158446745D01*
X105490225Y-159313270D01*
X106491823Y-161028062D01*
X107597942Y-161047584D01*
X108704062Y-161067105D01*
X109486574Y-159678365D01*
X110269087Y-158289625D01*
X110981930Y-158289625D01*
X110831801Y-158547593D01*
X110747324Y-158693794D01*
X110598411Y-158952582D01*
X110399521Y-159298788D01*
X110165110Y-159707242D01*
X109909638Y-160152773D01*
X109851617Y-160254011D01*
X109021562Y-161702459D01*
X107592812Y-161701396D01*
X106164062Y-161700332D01*
X104791566Y-159304638D01*
X105475446Y-158122444D01*
X106159327Y-156940250D01*
X107332476Y-156940250D01*
X107743568Y-156943446D01*
G37*
X107743568Y-156943446D02*
X108091744Y-156952249D01*
X108349363Y-156965476D01*
X108488787Y-156981944D01*
X108505625Y-156990412D01*
X108467503Y-157084054D01*
X108372730Y-157254632D01*
X108340401Y-157307912D01*
X108175177Y-157575250D01*
X107328369Y-157577735D01*
X106481562Y-157580221D01*
X105985894Y-158446745D01*
X105490225Y-159313270D01*
X106491823Y-161028062D01*
X107597942Y-161047584D01*
X108704062Y-161067105D01*
X109486574Y-159678365D01*
X110269087Y-158289625D01*
X110981930Y-158289625D01*
X110831801Y-158547593D01*
X110747324Y-158693794D01*
X110598411Y-158952582D01*
X110399521Y-159298788D01*
X110165110Y-159707242D01*
X109909638Y-160152773D01*
X109851617Y-160254011D01*
X109021562Y-161702459D01*
X107592812Y-161701396D01*
X106164062Y-161700332D01*
X104791566Y-159304638D01*
X105475446Y-158122444D01*
X106159327Y-156940250D01*
X107332476Y-156940250D01*
X107743568Y-156943446D01*
G36*
X114017603Y-157500327D02*
G01*
X114290440Y-157980698D01*
X114533256Y-158418489D01*
X114735694Y-158794179D01*
X114887398Y-159088247D01*
X114978011Y-159281172D01*
X114999346Y-159350755D01*
X114954376Y-159444179D01*
X114840895Y-159655199D01*
X114669933Y-159964027D01*
X114452519Y-160350872D01*
X114199683Y-160795945D01*
X113984762Y-161171164D01*
X112994837Y-162893375D01*
X105513790Y-162893375D01*
X104509395Y-161146613D01*
X104235677Y-160666738D01*
X103990474Y-160229474D01*
X103784434Y-159854415D01*
X103628204Y-159561151D01*
X103532430Y-159369275D01*
X103507908Y-159304900D01*
X104157678Y-159304900D01*
X105002120Y-160780387D01*
X105846562Y-162255873D01*
X112672812Y-162253049D01*
X113466562Y-160857693D01*
X113709528Y-160427423D01*
X113925044Y-160039766D01*
X114100763Y-159717424D01*
X114224338Y-159483097D01*
X114283420Y-159359487D01*
X114286299Y-159350555D01*
X114256086Y-159250794D01*
X114156780Y-159036429D01*
X113999830Y-158729659D01*
X113796688Y-158352680D01*
X113558804Y-157927689D01*
X113492549Y-157811844D01*
X112672812Y-156384915D01*
X109253773Y-156384770D01*
X105834733Y-156384624D01*
X104996206Y-157844762D01*
X104157678Y-159304900D01*
X103507908Y-159304900D01*
X103506477Y-159301144D01*
X103545107Y-159207622D01*
X103652934Y-158996834D01*
X103819133Y-158688620D01*
X104032876Y-158302821D01*
X104283340Y-157859276D01*
X104491529Y-157495875D01*
X105475103Y-155789312D01*
X109243152Y-155768704D01*
X113011201Y-155748097D01*
X114017603Y-157500327D01*
G37*
X114017603Y-157500327D02*
X114290440Y-157980698D01*
X114533256Y-158418489D01*
X114735694Y-158794179D01*
X114887398Y-159088247D01*
X114978011Y-159281172D01*
X114999346Y-159350755D01*
X114954376Y-159444179D01*
X114840895Y-159655199D01*
X114669933Y-159964027D01*
X114452519Y-160350872D01*
X114199683Y-160795945D01*
X113984762Y-161171164D01*
X112994837Y-162893375D01*
X105513790Y-162893375D01*
X104509395Y-161146613D01*
X104235677Y-160666738D01*
X103990474Y-160229474D01*
X103784434Y-159854415D01*
X103628204Y-159561151D01*
X103532430Y-159369275D01*
X103507908Y-159304900D01*
X104157678Y-159304900D01*
X105002120Y-160780387D01*
X105846562Y-162255873D01*
X112672812Y-162253049D01*
X113466562Y-160857693D01*
X113709528Y-160427423D01*
X113925044Y-160039766D01*
X114100763Y-159717424D01*
X114224338Y-159483097D01*
X114283420Y-159359487D01*
X114286299Y-159350555D01*
X114256086Y-159250794D01*
X114156780Y-159036429D01*
X113999830Y-158729659D01*
X113796688Y-158352680D01*
X113558804Y-157927689D01*
X113492549Y-157811844D01*
X112672812Y-156384915D01*
X109253773Y-156384770D01*
X105834733Y-156384624D01*
X104996206Y-157844762D01*
X104157678Y-159304900D01*
X103507908Y-159304900D01*
X103506477Y-159301144D01*
X103545107Y-159207622D01*
X103652934Y-158996834D01*
X103819133Y-158688620D01*
X104032876Y-158302821D01*
X104283340Y-157859276D01*
X104491529Y-157495875D01*
X105475103Y-155789312D01*
X109243152Y-155768704D01*
X113011201Y-155748097D01*
X114017603Y-157500327D01*
D10*
X92215718Y-73006304D02*
X92349812Y-72937787D01*
X92516695Y-72767966D01*
X92549484Y-72666660D01*
X92548897Y-72599320D01*
X92514345Y-72498602D01*
X92446416Y-72431849D01*
X92345111Y-72399060D01*
X92277770Y-72399647D01*
X92177052Y-72434199D01*
X92009582Y-72536680D01*
X91908864Y-72571232D01*
X91841523Y-72571820D01*
X91740218Y-72539031D01*
X91672289Y-72472277D01*
X91637737Y-72371560D01*
X91637150Y-72304219D01*
X91669938Y-72202914D01*
X91836822Y-72033092D01*
X91970916Y-71964576D01*
X92170588Y-71693449D02*
X93050722Y-72224537D01*
X92674763Y-71588030D01*
X93317735Y-71952822D01*
X92771367Y-71082092D01*
X94118774Y-71137679D02*
X93718254Y-71545251D01*
X93918514Y-71341465D02*
X93205264Y-70640556D01*
X93240403Y-70808614D01*
X93241579Y-70943296D01*
X93208790Y-71044601D01*
X93839420Y-69995234D02*
X93906173Y-69927305D01*
X94006890Y-69892753D01*
X94074231Y-69892165D01*
X94175537Y-69924954D01*
X94344770Y-70024497D01*
X94514592Y-70191380D01*
X94617073Y-70358851D01*
X94651625Y-70459568D01*
X94652212Y-70526909D01*
X94619423Y-70628214D01*
X94552670Y-70696143D01*
X94451952Y-70730695D01*
X94384611Y-70731283D01*
X94283306Y-70698494D01*
X94114072Y-70598951D01*
X93944251Y-70432068D01*
X93841770Y-70264597D01*
X93807218Y-70163880D01*
X93806631Y-70096539D01*
X93839420Y-69995234D01*
X73177041Y-83109298D02*
X73275704Y-82995538D01*
X73366820Y-82775566D01*
X73359271Y-82669355D01*
X73333500Y-82607138D01*
X73263735Y-82526697D01*
X73175746Y-82490251D01*
X73069535Y-82497800D01*
X73007317Y-82523571D01*
X72926877Y-82593336D01*
X72809991Y-82751090D01*
X72729550Y-82820856D01*
X72667333Y-82846627D01*
X72561121Y-82854175D01*
X72473133Y-82817729D01*
X72403367Y-82737289D01*
X72377596Y-82675072D01*
X72370048Y-82568860D01*
X72461163Y-82348889D01*
X72559826Y-82235129D01*
X72643393Y-81908946D02*
X73658388Y-82071658D01*
X73071366Y-81622336D01*
X73804172Y-81719704D01*
X72971408Y-81117049D01*
X74059294Y-81103784D02*
X74132186Y-80927807D01*
X74124638Y-80821596D01*
X74098867Y-80759379D01*
X74003330Y-80616721D01*
X73845576Y-80499835D01*
X73493622Y-80354050D01*
X73387411Y-80361599D01*
X73325193Y-80387370D01*
X73244753Y-80457135D01*
X73171861Y-80633112D01*
X73179409Y-80739324D01*
X73205180Y-80801541D01*
X73274946Y-80881982D01*
X73494917Y-80973097D01*
X73601129Y-80965549D01*
X73663346Y-80939777D01*
X73743786Y-80870012D01*
X73816678Y-80694035D01*
X73809130Y-80587823D01*
X73783359Y-80525606D01*
X73713593Y-80445166D01*
X62065108Y-107128623D02*
X62199795Y-107061280D01*
X62368154Y-106892921D01*
X62401826Y-106791906D01*
X62401826Y-106724562D01*
X62368154Y-106623547D01*
X62300811Y-106556204D01*
X62199795Y-106522532D01*
X62132452Y-106522532D01*
X62031437Y-106556204D01*
X61863078Y-106657219D01*
X61762063Y-106690891D01*
X61694719Y-106690891D01*
X61593704Y-106657219D01*
X61526360Y-106589875D01*
X61492689Y-106488860D01*
X61492689Y-106421517D01*
X61526360Y-106320501D01*
X61694719Y-106152143D01*
X61829406Y-106084799D01*
X62031437Y-105815425D02*
X62906902Y-106354173D01*
X62536513Y-105714410D01*
X63176276Y-106084799D01*
X62637528Y-105209334D01*
X62839559Y-105007303D02*
X63277291Y-104569570D01*
X63310963Y-105074647D01*
X63411978Y-104973631D01*
X63512994Y-104939960D01*
X63580337Y-104939960D01*
X63681352Y-104973631D01*
X63849711Y-105141990D01*
X63883383Y-105243005D01*
X63883383Y-105310349D01*
X63849711Y-105411364D01*
X63647681Y-105613395D01*
X63546665Y-105647066D01*
X63479322Y-105647066D01*
X86245866Y-98880561D02*
X86388723Y-98928180D01*
X86626819Y-98928180D01*
X86722057Y-98880561D01*
X86769676Y-98832942D01*
X86817295Y-98737704D01*
X86817295Y-98642466D01*
X86769676Y-98547228D01*
X86722057Y-98499609D01*
X86626819Y-98451990D01*
X86436342Y-98404371D01*
X86341104Y-98356752D01*
X86293485Y-98309133D01*
X86245866Y-98213895D01*
X86245866Y-98118657D01*
X86293485Y-98023419D01*
X86341104Y-97975800D01*
X86436342Y-97928180D01*
X86674438Y-97928180D01*
X86817295Y-97975800D01*
X87150628Y-97928180D02*
X87388723Y-98928180D01*
X87579200Y-98213895D01*
X87769676Y-98928180D01*
X88007771Y-97928180D01*
X88817295Y-98261514D02*
X88817295Y-98928180D01*
X88579200Y-97880561D02*
X88341104Y-98594847D01*
X88960152Y-98594847D01*
X134080476Y-92098761D02*
X134223333Y-92146380D01*
X134461428Y-92146380D01*
X134556666Y-92098761D01*
X134604285Y-92051142D01*
X134651904Y-91955904D01*
X134651904Y-91860666D01*
X134604285Y-91765428D01*
X134556666Y-91717809D01*
X134461428Y-91670190D01*
X134270952Y-91622571D01*
X134175714Y-91574952D01*
X134128095Y-91527333D01*
X134080476Y-91432095D01*
X134080476Y-91336857D01*
X134128095Y-91241619D01*
X134175714Y-91194000D01*
X134270952Y-91146380D01*
X134509047Y-91146380D01*
X134651904Y-91194000D01*
X134985238Y-91146380D02*
X135223333Y-92146380D01*
X135413809Y-91432095D01*
X135604285Y-92146380D01*
X135842380Y-91146380D01*
X136747142Y-92146380D02*
X136175714Y-92146380D01*
X136461428Y-92146380D02*
X136461428Y-91146380D01*
X136366190Y-91289238D01*
X136270952Y-91384476D01*
X136175714Y-91432095D01*
X137128095Y-91241619D02*
X137175714Y-91194000D01*
X137270952Y-91146380D01*
X137509047Y-91146380D01*
X137604285Y-91194000D01*
X137651904Y-91241619D01*
X137699523Y-91336857D01*
X137699523Y-91432095D01*
X137651904Y-91574952D01*
X137080476Y-92146380D01*
X137699523Y-92146380D01*
X73946904Y-61970180D02*
X73946904Y-60970180D01*
X74185000Y-60970180D01*
X74327857Y-61017800D01*
X74423095Y-61113038D01*
X74470714Y-61208276D01*
X74518333Y-61398752D01*
X74518333Y-61541609D01*
X74470714Y-61732085D01*
X74423095Y-61827323D01*
X74327857Y-61922561D01*
X74185000Y-61970180D01*
X73946904Y-61970180D01*
X74899285Y-61065419D02*
X74946904Y-61017800D01*
X75042142Y-60970180D01*
X75280238Y-60970180D01*
X75375476Y-61017800D01*
X75423095Y-61065419D01*
X75470714Y-61160657D01*
X75470714Y-61255895D01*
X75423095Y-61398752D01*
X74851666Y-61970180D01*
X75470714Y-61970180D01*
X54276666Y-53002380D02*
X54276666Y-53716666D01*
X54229047Y-53859523D01*
X54133809Y-53954761D01*
X53990952Y-54002380D01*
X53895714Y-54002380D01*
X55276666Y-54002380D02*
X54705238Y-54002380D01*
X54990952Y-54002380D02*
X54990952Y-53002380D01*
X54895714Y-53145238D01*
X54800476Y-53240476D01*
X54705238Y-53288095D01*
X73703380Y-50447533D02*
X74417666Y-50447533D01*
X74560523Y-50495152D01*
X74655761Y-50590390D01*
X74703380Y-50733247D01*
X74703380Y-50828485D01*
X73798619Y-50018961D02*
X73751000Y-49971342D01*
X73703380Y-49876104D01*
X73703380Y-49638009D01*
X73751000Y-49542771D01*
X73798619Y-49495152D01*
X73893857Y-49447533D01*
X73989095Y-49447533D01*
X74131952Y-49495152D01*
X74703380Y-50066580D01*
X74703380Y-49447533D01*
X83972133Y-50015380D02*
X83638800Y-49539190D01*
X83400704Y-50015380D02*
X83400704Y-49015380D01*
X83781657Y-49015380D01*
X83876895Y-49063000D01*
X83924514Y-49110619D01*
X83972133Y-49205857D01*
X83972133Y-49348714D01*
X83924514Y-49443952D01*
X83876895Y-49491571D01*
X83781657Y-49539190D01*
X83400704Y-49539190D01*
X84305466Y-49015380D02*
X84924514Y-49015380D01*
X84591180Y-49396333D01*
X84734038Y-49396333D01*
X84829276Y-49443952D01*
X84876895Y-49491571D01*
X84924514Y-49586809D01*
X84924514Y-49824904D01*
X84876895Y-49920142D01*
X84829276Y-49967761D01*
X84734038Y-50015380D01*
X84448323Y-50015380D01*
X84353085Y-49967761D01*
X84305466Y-49920142D01*
X63729867Y-47441361D02*
X63872724Y-47488980D01*
X64110820Y-47488980D01*
X64206058Y-47441361D01*
X64253677Y-47393742D01*
X64301296Y-47298504D01*
X64301296Y-47203266D01*
X64253677Y-47108028D01*
X64206058Y-47060409D01*
X64110820Y-47012790D01*
X63920343Y-46965171D01*
X63825105Y-46917552D01*
X63777486Y-46869933D01*
X63729867Y-46774695D01*
X63729867Y-46679457D01*
X63777486Y-46584219D01*
X63825105Y-46536600D01*
X63920343Y-46488980D01*
X64158439Y-46488980D01*
X64301296Y-46536600D01*
X64634629Y-46488980D02*
X64872724Y-47488980D01*
X65063201Y-46774695D01*
X65253677Y-47488980D01*
X65491772Y-46488980D01*
X66396534Y-47488980D02*
X65825105Y-47488980D01*
X66110820Y-47488980D02*
X66110820Y-46488980D01*
X66015581Y-46631838D01*
X65920343Y-46727076D01*
X65825105Y-46774695D01*
X63792266Y-56686961D02*
X63935123Y-56734580D01*
X64173219Y-56734580D01*
X64268457Y-56686961D01*
X64316076Y-56639342D01*
X64363695Y-56544104D01*
X64363695Y-56448866D01*
X64316076Y-56353628D01*
X64268457Y-56306009D01*
X64173219Y-56258390D01*
X63982742Y-56210771D01*
X63887504Y-56163152D01*
X63839885Y-56115533D01*
X63792266Y-56020295D01*
X63792266Y-55925057D01*
X63839885Y-55829819D01*
X63887504Y-55782200D01*
X63982742Y-55734580D01*
X64220838Y-55734580D01*
X64363695Y-55782200D01*
X64697028Y-55734580D02*
X64935123Y-56734580D01*
X65125600Y-56020295D01*
X65316076Y-56734580D01*
X65554171Y-55734580D01*
X65887504Y-55829819D02*
X65935123Y-55782200D01*
X66030361Y-55734580D01*
X66268457Y-55734580D01*
X66363695Y-55782200D01*
X66411314Y-55829819D01*
X66458933Y-55925057D01*
X66458933Y-56020295D01*
X66411314Y-56163152D01*
X65839885Y-56734580D01*
X66458933Y-56734580D01*
X111311376Y-105235108D02*
X111378719Y-105369795D01*
X111547078Y-105538154D01*
X111648093Y-105571826D01*
X111715437Y-105571826D01*
X111816452Y-105538154D01*
X111883795Y-105470811D01*
X111917467Y-105369795D01*
X111917467Y-105302452D01*
X111883795Y-105201437D01*
X111782780Y-105033078D01*
X111749108Y-104932063D01*
X111749108Y-104864719D01*
X111782780Y-104763704D01*
X111850124Y-104696360D01*
X111951139Y-104662689D01*
X112018482Y-104662689D01*
X112119498Y-104696360D01*
X112287856Y-104864719D01*
X112355200Y-104999406D01*
X112624574Y-105201437D02*
X112085826Y-106076902D01*
X112725589Y-105706513D01*
X112355200Y-106346276D01*
X113230665Y-105807528D01*
X113836757Y-106413620D02*
X113500039Y-106076902D01*
X113129650Y-106379948D01*
X113196994Y-106379948D01*
X113298009Y-106413620D01*
X113466368Y-106581978D01*
X113500039Y-106682994D01*
X113500039Y-106750337D01*
X113466368Y-106851352D01*
X113298009Y-107019711D01*
X113196994Y-107053383D01*
X113129650Y-107053383D01*
X113028635Y-107019711D01*
X112860276Y-106851352D01*
X112826604Y-106750337D01*
X112826604Y-106682994D01*
X131440662Y-108448272D02*
X131540314Y-108335378D01*
X131633345Y-108116210D01*
X131626724Y-108009937D01*
X131601497Y-107947497D01*
X131532436Y-107866451D01*
X131444769Y-107829238D01*
X131338496Y-107835859D01*
X131276056Y-107861087D01*
X131195010Y-107930148D01*
X131076751Y-108086876D01*
X130995705Y-108155937D01*
X130933265Y-108181164D01*
X130826992Y-108187785D01*
X130739325Y-108150572D01*
X130670264Y-108069526D01*
X130645037Y-108007087D01*
X130638416Y-107900813D01*
X130731447Y-107681645D01*
X130831099Y-107568751D01*
X130917509Y-107243310D02*
X131931045Y-107414873D01*
X131347967Y-106960445D01*
X132079895Y-107064205D01*
X131252422Y-106454306D01*
X131568728Y-105709135D02*
X131494303Y-105884469D01*
X131500924Y-105990743D01*
X131526151Y-106053182D01*
X131620439Y-106196668D01*
X131777167Y-106314927D01*
X132127836Y-106463777D01*
X132234109Y-106457156D01*
X132296549Y-106431928D01*
X132377595Y-106362868D01*
X132452020Y-106187533D01*
X132445399Y-106081260D01*
X132420172Y-106018820D01*
X132351111Y-105937774D01*
X132131943Y-105844743D01*
X132025670Y-105851364D01*
X131963230Y-105876591D01*
X131882184Y-105945652D01*
X131807759Y-106120986D01*
X131814380Y-106227260D01*
X131839607Y-106289700D01*
X131908668Y-106370746D01*
X122070761Y-132143333D02*
X122118380Y-132000476D01*
X122118380Y-131762380D01*
X122070761Y-131667142D01*
X122023142Y-131619523D01*
X121927904Y-131571904D01*
X121832666Y-131571904D01*
X121737428Y-131619523D01*
X121689809Y-131667142D01*
X121642190Y-131762380D01*
X121594571Y-131952857D01*
X121546952Y-132048095D01*
X121499333Y-132095714D01*
X121404095Y-132143333D01*
X121308857Y-132143333D01*
X121213619Y-132095714D01*
X121166000Y-132048095D01*
X121118380Y-131952857D01*
X121118380Y-131714761D01*
X121166000Y-131571904D01*
X121118380Y-131238571D02*
X122118380Y-131000476D01*
X121404095Y-130810000D01*
X122118380Y-130619523D01*
X121118380Y-130381428D01*
X121118380Y-130095714D02*
X121118380Y-129429047D01*
X122118380Y-129857619D01*
X86346666Y-131274761D02*
X86489523Y-131322380D01*
X86727619Y-131322380D01*
X86822857Y-131274761D01*
X86870476Y-131227142D01*
X86918095Y-131131904D01*
X86918095Y-131036666D01*
X86870476Y-130941428D01*
X86822857Y-130893809D01*
X86727619Y-130846190D01*
X86537142Y-130798571D01*
X86441904Y-130750952D01*
X86394285Y-130703333D01*
X86346666Y-130608095D01*
X86346666Y-130512857D01*
X86394285Y-130417619D01*
X86441904Y-130370000D01*
X86537142Y-130322380D01*
X86775238Y-130322380D01*
X86918095Y-130370000D01*
X87251428Y-130322380D02*
X87489523Y-131322380D01*
X87680000Y-130608095D01*
X87870476Y-131322380D01*
X88108571Y-130322380D01*
X88632380Y-130750952D02*
X88537142Y-130703333D01*
X88489523Y-130655714D01*
X88441904Y-130560476D01*
X88441904Y-130512857D01*
X88489523Y-130417619D01*
X88537142Y-130370000D01*
X88632380Y-130322380D01*
X88822857Y-130322380D01*
X88918095Y-130370000D01*
X88965714Y-130417619D01*
X89013333Y-130512857D01*
X89013333Y-130560476D01*
X88965714Y-130655714D01*
X88918095Y-130703333D01*
X88822857Y-130750952D01*
X88632380Y-130750952D01*
X88537142Y-130798571D01*
X88489523Y-130846190D01*
X88441904Y-130941428D01*
X88441904Y-131131904D01*
X88489523Y-131227142D01*
X88537142Y-131274761D01*
X88632380Y-131322380D01*
X88822857Y-131322380D01*
X88918095Y-131274761D01*
X88965714Y-131227142D01*
X89013333Y-131131904D01*
X89013333Y-130941428D01*
X88965714Y-130846190D01*
X88918095Y-130798571D01*
X88822857Y-130750952D01*
X100874270Y-80238985D02*
X100884945Y-80389191D01*
X100976060Y-80609162D01*
X101056501Y-80678928D01*
X101118718Y-80704699D01*
X101224930Y-80712247D01*
X101312918Y-80675801D01*
X101382684Y-80595361D01*
X101408455Y-80533144D01*
X101416003Y-80426932D01*
X101387105Y-80232732D01*
X101394653Y-80126520D01*
X101420425Y-80064303D01*
X101490190Y-79983863D01*
X101578179Y-79947417D01*
X101684390Y-79954965D01*
X101746608Y-79980736D01*
X101827048Y-80050502D01*
X101918163Y-80270473D01*
X101928838Y-80420679D01*
X102100393Y-80710416D02*
X101267629Y-81313071D01*
X102000435Y-81215702D01*
X101413413Y-81665025D01*
X102428408Y-81502312D01*
X101850765Y-82720887D02*
X101632089Y-82192956D01*
X101741427Y-82456921D02*
X102665307Y-82074238D01*
X102496878Y-82040918D01*
X102372443Y-81989376D01*
X102292003Y-81919610D01*
X102215226Y-83600772D02*
X101996550Y-83072841D01*
X102105888Y-83336807D02*
X103029767Y-82954123D01*
X102861338Y-82920804D01*
X102736904Y-82869261D01*
X102656463Y-82799496D01*
X117904913Y-56331693D02*
X117562794Y-57065371D01*
X117565702Y-57171811D01*
X117588735Y-57235093D01*
X117654925Y-57318500D01*
X117827555Y-57398998D01*
X117933995Y-57396090D01*
X117997277Y-57373057D01*
X118080684Y-57306867D01*
X118422803Y-56573189D01*
X118770972Y-56840627D02*
X118834254Y-56817594D01*
X118940693Y-56814686D01*
X119156481Y-56915309D01*
X119222671Y-56998716D01*
X119245704Y-57061998D01*
X119248612Y-57168438D01*
X119208363Y-57254753D01*
X119104831Y-57364101D01*
X118345445Y-57640495D01*
X118906493Y-57902115D01*
X73921504Y-58591980D02*
X73921504Y-57591980D01*
X74159600Y-57591980D01*
X74302457Y-57639600D01*
X74397695Y-57734838D01*
X74445314Y-57830076D01*
X74492933Y-58020552D01*
X74492933Y-58163409D01*
X74445314Y-58353885D01*
X74397695Y-58449123D01*
X74302457Y-58544361D01*
X74159600Y-58591980D01*
X73921504Y-58591980D01*
X74826266Y-57591980D02*
X75445314Y-57591980D01*
X75111980Y-57972933D01*
X75254838Y-57972933D01*
X75350076Y-58020552D01*
X75397695Y-58068171D01*
X75445314Y-58163409D01*
X75445314Y-58401504D01*
X75397695Y-58496742D01*
X75350076Y-58544361D01*
X75254838Y-58591980D01*
X74969123Y-58591980D01*
X74873885Y-58544361D01*
X74826266Y-58496742D01*
M02*
