M48
; DRILL file {KiCad (5.1.5)-3} date 20/10/2021 19:23:11
; FORMAT={-:-/ absolute / metric / decimal}
; #@! TF.CreationDate,2021-10-20T19:23:11+02:00
; #@! TF.GenerationSoftware,Kicad,Pcbnew,(5.1.5)-3
; #@! TF.FileFunction,Plated,1,4,PTH
FMAT,2
METRIC
T1C0.400
T2C0.500
T3C0.550
T4C0.850
T5C1.000
T6C1.100
T7C1.500
T8C3.200
%
G90
G05
T1
X60.858Y-43.307
X61.214Y-48.006
X61.214Y-57.15
X61.214Y-60.706
X62.662Y-43.332
X62.865Y-101.829
X63.5Y-49.276
X64.831Y-53.787
X65.278Y-59.944
X65.532Y-58.42
X66.04Y-63.754
X66.548Y-49.022
X66.802Y-42.977
X66.802Y-43.866
X66.878Y-59.868
X68.072Y-56.642
X68.834Y-48.006
X69.85Y-40.691
X69.85Y-41.58
X69.85Y-42.977
X69.85Y-43.866
X71.933Y-77.851
X72.365Y-50.419
X73.076Y-47.396
X73.685Y-51.968
X75.692Y-105.156
X75.692Y-108.966
X76.454Y-58.42
X76.962Y-56.388
X77.114Y-65.557
X77.546Y-102.591
X78.105Y-61.57
X78.232Y-56.896
X78.74Y-73.914
X78.74Y-75.438
X78.994Y-80.01
X79.502Y-73.152
X79.502Y-74.676
X79.502Y-111.506
X79.756Y-54.356
X80.01Y-56.293
X80.01Y-57.404
X80.01Y-106.426
X80.01Y-107.696
X80.01Y-110.236
X80.962Y-46.038
X81.026Y-54.61
X81.178Y-114.452
X81.788Y-140.716
X81.935Y-44.811
X82.296Y-51.816
X82.296Y-65.532
X83.007Y-60.376
X84.176Y-113.182
X84.328Y-103.886
X84.328Y-107.696
X85.598Y-60.35
X86.36Y-49.276
X86.614Y-57.912
X89.408Y-55.335
X89.408Y-83.058
X90.551Y-95.707
X90.678Y-53.848
X91.948Y-52.324
X91.948Y-54.61
X91.948Y-76.2
X92.964Y-76.962
X93.269Y-140.691
X93.345Y-121.641
X93.472Y-67.259
X94.488Y-82.042
X94.488Y-83.312
X94.488Y-87.122
X98.298Y-89.662
X98.806Y-78.74
X98.806Y-84.582
X98.806Y-85.852
X98.806Y-88.392
X98.933Y-76.073
X99.568Y-74.168
X100.0Y-92.608
X102.616Y-129.54
X102.997Y-91.338
X103.086Y-82.042
X103.124Y-85.852
X103.632Y-128.27
X103.632Y-132.08
X105.486Y-125.73
X105.613Y-83.414
X107.442Y-130.81
X108.458Y-129.54
X108.712Y-50.038
X109.118Y-137.516
X110.49Y-70.104
X111.76Y-69.088
X112.166Y-136.246
X112.268Y-127.0
X112.268Y-130.81
X113.03Y-71.12
X116.586Y-105.994
X124.409Y-133.858
X125.222Y-72.898
X133.071Y-110.922
X139.014Y-88.9
T2
X46.74Y-130.59
X47.443Y-128.893
X47.443Y-132.287
X49.14Y-128.19
X49.14Y-132.99
X50.837Y-128.893
X50.837Y-132.287
X51.54Y-130.59
X140.72Y-145.576
X141.423Y-143.879
X141.423Y-147.273
X143.12Y-143.176
X143.12Y-147.976
X144.817Y-143.879
X144.817Y-147.273
X145.52Y-145.576
X51.82Y-46.77
X52.523Y-45.073
X52.523Y-48.467
X54.22Y-44.37
X54.22Y-49.17
X55.917Y-45.073
X55.917Y-48.467
X56.62Y-46.77
X97.286Y-106.968
X97.989Y-105.271
X97.989Y-108.665
X99.686Y-104.568
X99.686Y-109.368
X101.383Y-105.271
X101.383Y-108.665
X102.086Y-106.968
X132.084Y-48.802
X132.787Y-47.105
X132.787Y-50.499
X134.484Y-46.402
X134.484Y-51.202
X136.181Y-47.105
X136.181Y-50.499
X136.884Y-48.802
X98.559Y-166.912
X99.262Y-165.215
X99.262Y-168.609
X100.959Y-164.512
X100.959Y-169.312
X102.656Y-165.215
X102.656Y-168.609
X103.359Y-166.912
T5
X85.13Y-123.81
X90.13Y-123.81
X54.61Y-55.88
X54.61Y-58.42
X54.61Y-60.96
X54.61Y-63.5
X54.61Y-66.04
T6
X99.917Y-57.079
X102.219Y-58.152
X104.521Y-59.226
X106.357Y-43.267
X106.823Y-60.299
X107.586Y-46.642
X108.659Y-44.34
X109.125Y-61.372
X110.961Y-45.413
X111.427Y-62.446
X112.19Y-48.789
X113.263Y-46.487
X113.729Y-63.519
X114.492Y-49.862
X115.565Y-47.56
X116.031Y-64.593
X116.794Y-50.936
X117.867Y-48.634
X118.333Y-65.666
X120.169Y-49.707
X120.635Y-66.74
X122.471Y-50.781
X122.937Y-67.813
X124.773Y-51.854
X125.239Y-68.887
X127.075Y-52.928
X127.541Y-69.96
X129.377Y-54.001
X129.843Y-71.033
X130.916Y-68.731
X131.679Y-55.074
X131.99Y-66.429
X133.063Y-64.127
X133.981Y-56.148
X134.137Y-61.825
X135.21Y-59.523
X136.283Y-57.221
X85.13Y-138.31
X87.63Y-138.31
X90.13Y-138.31
T7
X89.422Y-71.285
X92.061Y-64.976
X124.46Y-128.27
X127.0Y-134.62
X103.55Y-78.34
X108.327Y-83.235
X69.76Y-83.0
X69.843Y-76.161
X133.35Y-88.9
X139.7Y-86.36
X85.039Y-95.682
X91.389Y-93.142
X135.01Y-112.654
X135.153Y-105.816
X112.72Y-102.12
X119.006Y-104.814
X58.95Y-105.72
X61.644Y-99.434
T8
X100.959Y-166.912
X49.14Y-130.59
X143.12Y-145.576
X54.22Y-46.77
X99.686Y-106.968
X134.484Y-48.802
T3
G00X75.373Y-38.873
M15
G01X75.373Y-39.523
M16
G05
G00X83.123Y-38.873
M15
G01X83.123Y-39.523
M16
G05
T4
G00X75.523Y-42.723
M15
G01X75.523Y-43.273
M16
G05
G00X82.973Y-42.723
M15
G01X82.973Y-43.273
M16
G05
T0
M30
