G04 #@! TF.GenerationSoftware,KiCad,Pcbnew,(5.1.5)-3*
G04 #@! TF.CreationDate,2021-10-20T23:00:28+02:00*
G04 #@! TF.ProjectId,WFP_v2_0,5746505f-7632-45f3-902e-6b696361645f,v 0.2*
G04 #@! TF.SameCoordinates,Original*
G04 #@! TF.FileFunction,Paste,Top*
G04 #@! TF.FilePolarity,Positive*
%FSLAX46Y46*%
G04 Gerber Fmt 4.6, Leading zero omitted, Abs format (unit mm)*
G04 Created by KiCad (PCBNEW (5.1.5)-3) date 2021-10-20 23:00:28*
%MOMM*%
%LPD*%
G04 APERTURE LIST*
%ADD10C,0.100000*%
%ADD11R,0.740000X2.400000*%
%ADD12R,1.550000X1.300000*%
G04 APERTURE END LIST*
D10*
G36*
X76059505Y-59169004D02*
G01*
X76083773Y-59172604D01*
X76107572Y-59178565D01*
X76130671Y-59186830D01*
X76152850Y-59197320D01*
X76173893Y-59209932D01*
X76193599Y-59224547D01*
X76211777Y-59241023D01*
X76228253Y-59259201D01*
X76242868Y-59278907D01*
X76255480Y-59299950D01*
X76265970Y-59322129D01*
X76274235Y-59345228D01*
X76280196Y-59369027D01*
X76283796Y-59393295D01*
X76285000Y-59417799D01*
X76285000Y-60317801D01*
X76283796Y-60342305D01*
X76280196Y-60366573D01*
X76274235Y-60390372D01*
X76265970Y-60413471D01*
X76255480Y-60435650D01*
X76242868Y-60456693D01*
X76228253Y-60476399D01*
X76211777Y-60494577D01*
X76193599Y-60511053D01*
X76173893Y-60525668D01*
X76152850Y-60538280D01*
X76130671Y-60548770D01*
X76107572Y-60557035D01*
X76083773Y-60562996D01*
X76059505Y-60566596D01*
X76035001Y-60567800D01*
X75384999Y-60567800D01*
X75360495Y-60566596D01*
X75336227Y-60562996D01*
X75312428Y-60557035D01*
X75289329Y-60548770D01*
X75267150Y-60538280D01*
X75246107Y-60525668D01*
X75226401Y-60511053D01*
X75208223Y-60494577D01*
X75191747Y-60476399D01*
X75177132Y-60456693D01*
X75164520Y-60435650D01*
X75154030Y-60413471D01*
X75145765Y-60390372D01*
X75139804Y-60366573D01*
X75136204Y-60342305D01*
X75135000Y-60317801D01*
X75135000Y-59417799D01*
X75136204Y-59393295D01*
X75139804Y-59369027D01*
X75145765Y-59345228D01*
X75154030Y-59322129D01*
X75164520Y-59299950D01*
X75177132Y-59278907D01*
X75191747Y-59259201D01*
X75208223Y-59241023D01*
X75226401Y-59224547D01*
X75246107Y-59209932D01*
X75267150Y-59197320D01*
X75289329Y-59186830D01*
X75312428Y-59178565D01*
X75336227Y-59172604D01*
X75360495Y-59169004D01*
X75384999Y-59167800D01*
X76035001Y-59167800D01*
X76059505Y-59169004D01*
G37*
G36*
X74009505Y-59169004D02*
G01*
X74033773Y-59172604D01*
X74057572Y-59178565D01*
X74080671Y-59186830D01*
X74102850Y-59197320D01*
X74123893Y-59209932D01*
X74143599Y-59224547D01*
X74161777Y-59241023D01*
X74178253Y-59259201D01*
X74192868Y-59278907D01*
X74205480Y-59299950D01*
X74215970Y-59322129D01*
X74224235Y-59345228D01*
X74230196Y-59369027D01*
X74233796Y-59393295D01*
X74235000Y-59417799D01*
X74235000Y-60317801D01*
X74233796Y-60342305D01*
X74230196Y-60366573D01*
X74224235Y-60390372D01*
X74215970Y-60413471D01*
X74205480Y-60435650D01*
X74192868Y-60456693D01*
X74178253Y-60476399D01*
X74161777Y-60494577D01*
X74143599Y-60511053D01*
X74123893Y-60525668D01*
X74102850Y-60538280D01*
X74080671Y-60548770D01*
X74057572Y-60557035D01*
X74033773Y-60562996D01*
X74009505Y-60566596D01*
X73985001Y-60567800D01*
X73334999Y-60567800D01*
X73310495Y-60566596D01*
X73286227Y-60562996D01*
X73262428Y-60557035D01*
X73239329Y-60548770D01*
X73217150Y-60538280D01*
X73196107Y-60525668D01*
X73176401Y-60511053D01*
X73158223Y-60494577D01*
X73141747Y-60476399D01*
X73127132Y-60456693D01*
X73114520Y-60435650D01*
X73104030Y-60413471D01*
X73095765Y-60390372D01*
X73089804Y-60366573D01*
X73086204Y-60342305D01*
X73085000Y-60317801D01*
X73085000Y-59417799D01*
X73086204Y-59393295D01*
X73089804Y-59369027D01*
X73095765Y-59345228D01*
X73104030Y-59322129D01*
X73114520Y-59299950D01*
X73127132Y-59278907D01*
X73141747Y-59259201D01*
X73158223Y-59241023D01*
X73176401Y-59224547D01*
X73196107Y-59209932D01*
X73217150Y-59197320D01*
X73239329Y-59186830D01*
X73262428Y-59178565D01*
X73286227Y-59172604D01*
X73310495Y-59169004D01*
X73334999Y-59167800D01*
X73985001Y-59167800D01*
X74009505Y-59169004D01*
G37*
D11*
X75946000Y-52064200D03*
X75946000Y-48164200D03*
X77216000Y-52064200D03*
X77216000Y-48164200D03*
X78486000Y-52064200D03*
X78486000Y-48164200D03*
X79756000Y-52064200D03*
X79756000Y-48164200D03*
X81026000Y-52064200D03*
X81026000Y-48164200D03*
D10*
G36*
X83574579Y-47659144D02*
G01*
X83597634Y-47662563D01*
X83620243Y-47668227D01*
X83642187Y-47676079D01*
X83663257Y-47686044D01*
X83683248Y-47698026D01*
X83701968Y-47711910D01*
X83719238Y-47727562D01*
X83734890Y-47744832D01*
X83748774Y-47763552D01*
X83760756Y-47783543D01*
X83770721Y-47804613D01*
X83778573Y-47826557D01*
X83784237Y-47849166D01*
X83787656Y-47872221D01*
X83788800Y-47895500D01*
X83788800Y-48370500D01*
X83787656Y-48393779D01*
X83784237Y-48416834D01*
X83778573Y-48439443D01*
X83770721Y-48461387D01*
X83760756Y-48482457D01*
X83748774Y-48502448D01*
X83734890Y-48521168D01*
X83719238Y-48538438D01*
X83701968Y-48554090D01*
X83683248Y-48567974D01*
X83663257Y-48579956D01*
X83642187Y-48589921D01*
X83620243Y-48597773D01*
X83597634Y-48603437D01*
X83574579Y-48606856D01*
X83551300Y-48608000D01*
X82976300Y-48608000D01*
X82953021Y-48606856D01*
X82929966Y-48603437D01*
X82907357Y-48597773D01*
X82885413Y-48589921D01*
X82864343Y-48579956D01*
X82844352Y-48567974D01*
X82825632Y-48554090D01*
X82808362Y-48538438D01*
X82792710Y-48521168D01*
X82778826Y-48502448D01*
X82766844Y-48482457D01*
X82756879Y-48461387D01*
X82749027Y-48439443D01*
X82743363Y-48416834D01*
X82739944Y-48393779D01*
X82738800Y-48370500D01*
X82738800Y-47895500D01*
X82739944Y-47872221D01*
X82743363Y-47849166D01*
X82749027Y-47826557D01*
X82756879Y-47804613D01*
X82766844Y-47783543D01*
X82778826Y-47763552D01*
X82792710Y-47744832D01*
X82808362Y-47727562D01*
X82825632Y-47711910D01*
X82844352Y-47698026D01*
X82864343Y-47686044D01*
X82885413Y-47676079D01*
X82907357Y-47668227D01*
X82929966Y-47662563D01*
X82953021Y-47659144D01*
X82976300Y-47658000D01*
X83551300Y-47658000D01*
X83574579Y-47659144D01*
G37*
G36*
X85324579Y-47659144D02*
G01*
X85347634Y-47662563D01*
X85370243Y-47668227D01*
X85392187Y-47676079D01*
X85413257Y-47686044D01*
X85433248Y-47698026D01*
X85451968Y-47711910D01*
X85469238Y-47727562D01*
X85484890Y-47744832D01*
X85498774Y-47763552D01*
X85510756Y-47783543D01*
X85520721Y-47804613D01*
X85528573Y-47826557D01*
X85534237Y-47849166D01*
X85537656Y-47872221D01*
X85538800Y-47895500D01*
X85538800Y-48370500D01*
X85537656Y-48393779D01*
X85534237Y-48416834D01*
X85528573Y-48439443D01*
X85520721Y-48461387D01*
X85510756Y-48482457D01*
X85498774Y-48502448D01*
X85484890Y-48521168D01*
X85469238Y-48538438D01*
X85451968Y-48554090D01*
X85433248Y-48567974D01*
X85413257Y-48579956D01*
X85392187Y-48589921D01*
X85370243Y-48597773D01*
X85347634Y-48603437D01*
X85324579Y-48606856D01*
X85301300Y-48608000D01*
X84726300Y-48608000D01*
X84703021Y-48606856D01*
X84679966Y-48603437D01*
X84657357Y-48597773D01*
X84635413Y-48589921D01*
X84614343Y-48579956D01*
X84594352Y-48567974D01*
X84575632Y-48554090D01*
X84558362Y-48538438D01*
X84542710Y-48521168D01*
X84528826Y-48502448D01*
X84516844Y-48482457D01*
X84506879Y-48461387D01*
X84499027Y-48439443D01*
X84493363Y-48416834D01*
X84489944Y-48393779D01*
X84488800Y-48370500D01*
X84488800Y-47895500D01*
X84489944Y-47872221D01*
X84493363Y-47849166D01*
X84499027Y-47826557D01*
X84506879Y-47804613D01*
X84516844Y-47783543D01*
X84528826Y-47763552D01*
X84542710Y-47744832D01*
X84558362Y-47727562D01*
X84575632Y-47711910D01*
X84594352Y-47698026D01*
X84614343Y-47686044D01*
X84635413Y-47676079D01*
X84657357Y-47668227D01*
X84679966Y-47662563D01*
X84703021Y-47659144D01*
X84726300Y-47658000D01*
X85301300Y-47658000D01*
X85324579Y-47659144D01*
G37*
D12*
X61088201Y-49286600D03*
X69038201Y-49286600D03*
X61088201Y-53786600D03*
X69038201Y-53786600D03*
X69100600Y-63032200D03*
X61150600Y-63032200D03*
X69100600Y-58532200D03*
X61150600Y-58532200D03*
D10*
G36*
X76034105Y-55790804D02*
G01*
X76058373Y-55794404D01*
X76082172Y-55800365D01*
X76105271Y-55808630D01*
X76127450Y-55819120D01*
X76148493Y-55831732D01*
X76168199Y-55846347D01*
X76186377Y-55862823D01*
X76202853Y-55881001D01*
X76217468Y-55900707D01*
X76230080Y-55921750D01*
X76240570Y-55943929D01*
X76248835Y-55967028D01*
X76254796Y-55990827D01*
X76258396Y-56015095D01*
X76259600Y-56039599D01*
X76259600Y-56939601D01*
X76258396Y-56964105D01*
X76254796Y-56988373D01*
X76248835Y-57012172D01*
X76240570Y-57035271D01*
X76230080Y-57057450D01*
X76217468Y-57078493D01*
X76202853Y-57098199D01*
X76186377Y-57116377D01*
X76168199Y-57132853D01*
X76148493Y-57147468D01*
X76127450Y-57160080D01*
X76105271Y-57170570D01*
X76082172Y-57178835D01*
X76058373Y-57184796D01*
X76034105Y-57188396D01*
X76009601Y-57189600D01*
X75359599Y-57189600D01*
X75335095Y-57188396D01*
X75310827Y-57184796D01*
X75287028Y-57178835D01*
X75263929Y-57170570D01*
X75241750Y-57160080D01*
X75220707Y-57147468D01*
X75201001Y-57132853D01*
X75182823Y-57116377D01*
X75166347Y-57098199D01*
X75151732Y-57078493D01*
X75139120Y-57057450D01*
X75128630Y-57035271D01*
X75120365Y-57012172D01*
X75114404Y-56988373D01*
X75110804Y-56964105D01*
X75109600Y-56939601D01*
X75109600Y-56039599D01*
X75110804Y-56015095D01*
X75114404Y-55990827D01*
X75120365Y-55967028D01*
X75128630Y-55943929D01*
X75139120Y-55921750D01*
X75151732Y-55900707D01*
X75166347Y-55881001D01*
X75182823Y-55862823D01*
X75201001Y-55846347D01*
X75220707Y-55831732D01*
X75241750Y-55819120D01*
X75263929Y-55808630D01*
X75287028Y-55800365D01*
X75310827Y-55794404D01*
X75335095Y-55790804D01*
X75359599Y-55789600D01*
X76009601Y-55789600D01*
X76034105Y-55790804D01*
G37*
G36*
X73984105Y-55790804D02*
G01*
X74008373Y-55794404D01*
X74032172Y-55800365D01*
X74055271Y-55808630D01*
X74077450Y-55819120D01*
X74098493Y-55831732D01*
X74118199Y-55846347D01*
X74136377Y-55862823D01*
X74152853Y-55881001D01*
X74167468Y-55900707D01*
X74180080Y-55921750D01*
X74190570Y-55943929D01*
X74198835Y-55967028D01*
X74204796Y-55990827D01*
X74208396Y-56015095D01*
X74209600Y-56039599D01*
X74209600Y-56939601D01*
X74208396Y-56964105D01*
X74204796Y-56988373D01*
X74198835Y-57012172D01*
X74190570Y-57035271D01*
X74180080Y-57057450D01*
X74167468Y-57078493D01*
X74152853Y-57098199D01*
X74136377Y-57116377D01*
X74118199Y-57132853D01*
X74098493Y-57147468D01*
X74077450Y-57160080D01*
X74055271Y-57170570D01*
X74032172Y-57178835D01*
X74008373Y-57184796D01*
X73984105Y-57188396D01*
X73959601Y-57189600D01*
X73309599Y-57189600D01*
X73285095Y-57188396D01*
X73260827Y-57184796D01*
X73237028Y-57178835D01*
X73213929Y-57170570D01*
X73191750Y-57160080D01*
X73170707Y-57147468D01*
X73151001Y-57132853D01*
X73132823Y-57116377D01*
X73116347Y-57098199D01*
X73101732Y-57078493D01*
X73089120Y-57057450D01*
X73078630Y-57035271D01*
X73070365Y-57012172D01*
X73064404Y-56988373D01*
X73060804Y-56964105D01*
X73059600Y-56939601D01*
X73059600Y-56039599D01*
X73060804Y-56015095D01*
X73064404Y-55990827D01*
X73070365Y-55967028D01*
X73078630Y-55943929D01*
X73089120Y-55921750D01*
X73101732Y-55900707D01*
X73116347Y-55881001D01*
X73132823Y-55862823D01*
X73151001Y-55846347D01*
X73170707Y-55831732D01*
X73191750Y-55819120D01*
X73213929Y-55808630D01*
X73237028Y-55800365D01*
X73260827Y-55794404D01*
X73285095Y-55790804D01*
X73309599Y-55789600D01*
X73959601Y-55789600D01*
X73984105Y-55790804D01*
G37*
M02*
