G04 #@! TF.GenerationSoftware,KiCad,Pcbnew,(5.1.5)-3*
G04 #@! TF.CreationDate,2021-10-20T23:00:28+02:00*
G04 #@! TF.ProjectId,WFP_v2_0,5746505f-7632-45f3-902e-6b696361645f,v 0.2*
G04 #@! TF.SameCoordinates,Original*
G04 #@! TF.FileFunction,Soldermask,Top*
G04 #@! TF.FilePolarity,Negative*
%FSLAX46Y46*%
G04 Gerber Fmt 4.6, Leading zero omitted, Abs format (unit mm)*
G04 Created by KiCad (PCBNEW (5.1.5)-3) date 2021-10-20 23:00:28*
%MOMM*%
%LPD*%
G04 APERTURE LIST*
%ADD10C,0.100000*%
G04 APERTURE END LIST*
D10*
G36*
X101593239Y-163723467D02*
G01*
X101907282Y-163785934D01*
X102498926Y-164031001D01*
X103031392Y-164386784D01*
X103484216Y-164839608D01*
X103839999Y-165372074D01*
X104085066Y-165963718D01*
X104085066Y-165963719D01*
X104210000Y-166591803D01*
X104210000Y-167232197D01*
X104147533Y-167546239D01*
X104085066Y-167860282D01*
X103839999Y-168451926D01*
X103484216Y-168984392D01*
X103031392Y-169437216D01*
X102498926Y-169792999D01*
X101907282Y-170038066D01*
X101593239Y-170100533D01*
X101279197Y-170163000D01*
X100638803Y-170163000D01*
X100324761Y-170100533D01*
X100010718Y-170038066D01*
X99419074Y-169792999D01*
X98886608Y-169437216D01*
X98433784Y-168984392D01*
X98078001Y-168451926D01*
X97832934Y-167860282D01*
X97770467Y-167546239D01*
X97708000Y-167232197D01*
X97708000Y-166591803D01*
X97832934Y-165963719D01*
X97832934Y-165963718D01*
X98078001Y-165372074D01*
X98433784Y-164839608D01*
X98886608Y-164386784D01*
X99419074Y-164031001D01*
X100010718Y-163785934D01*
X100324761Y-163723467D01*
X100638803Y-163661000D01*
X101279197Y-163661000D01*
X101593239Y-163723467D01*
G37*
G36*
X143754239Y-142387467D02*
G01*
X144068282Y-142449934D01*
X144659926Y-142695001D01*
X145192392Y-143050784D01*
X145645216Y-143503608D01*
X146000999Y-144036074D01*
X146246066Y-144627718D01*
X146246066Y-144627719D01*
X146371000Y-145255803D01*
X146371000Y-145896197D01*
X146308533Y-146210239D01*
X146246066Y-146524282D01*
X146000999Y-147115926D01*
X145645216Y-147648392D01*
X145192392Y-148101216D01*
X144659926Y-148456999D01*
X144068282Y-148702066D01*
X143754239Y-148764533D01*
X143440197Y-148827000D01*
X142799803Y-148827000D01*
X142485761Y-148764533D01*
X142171718Y-148702066D01*
X141580074Y-148456999D01*
X141047608Y-148101216D01*
X140594784Y-147648392D01*
X140239001Y-147115926D01*
X139993934Y-146524282D01*
X139931467Y-146210239D01*
X139869000Y-145896197D01*
X139869000Y-145255803D01*
X139993934Y-144627719D01*
X139993934Y-144627718D01*
X140239001Y-144036074D01*
X140594784Y-143503608D01*
X141047608Y-143050784D01*
X141580074Y-142695001D01*
X142171718Y-142449934D01*
X142485761Y-142387467D01*
X142799803Y-142325000D01*
X143440197Y-142325000D01*
X143754239Y-142387467D01*
G37*
G36*
X87907395Y-137395546D02*
G01*
X88080466Y-137467234D01*
X88080467Y-137467235D01*
X88236227Y-137571310D01*
X88368690Y-137703773D01*
X88368691Y-137703775D01*
X88472766Y-137859534D01*
X88544454Y-138032605D01*
X88581000Y-138216333D01*
X88581000Y-138403667D01*
X88544454Y-138587395D01*
X88472766Y-138760466D01*
X88472765Y-138760467D01*
X88368690Y-138916227D01*
X88236227Y-139048690D01*
X88157818Y-139101081D01*
X88080466Y-139152766D01*
X87907395Y-139224454D01*
X87723667Y-139261000D01*
X87536333Y-139261000D01*
X87352605Y-139224454D01*
X87179534Y-139152766D01*
X87102182Y-139101081D01*
X87023773Y-139048690D01*
X86891310Y-138916227D01*
X86787235Y-138760467D01*
X86787234Y-138760466D01*
X86715546Y-138587395D01*
X86679000Y-138403667D01*
X86679000Y-138216333D01*
X86715546Y-138032605D01*
X86787234Y-137859534D01*
X86891309Y-137703775D01*
X86891310Y-137703773D01*
X87023773Y-137571310D01*
X87179533Y-137467235D01*
X87179534Y-137467234D01*
X87352605Y-137395546D01*
X87536333Y-137359000D01*
X87723667Y-137359000D01*
X87907395Y-137395546D01*
G37*
G36*
X90407395Y-137395546D02*
G01*
X90580466Y-137467234D01*
X90580467Y-137467235D01*
X90736227Y-137571310D01*
X90868690Y-137703773D01*
X90868691Y-137703775D01*
X90972766Y-137859534D01*
X91044454Y-138032605D01*
X91081000Y-138216333D01*
X91081000Y-138403667D01*
X91044454Y-138587395D01*
X90972766Y-138760466D01*
X90972765Y-138760467D01*
X90868690Y-138916227D01*
X90736227Y-139048690D01*
X90657818Y-139101081D01*
X90580466Y-139152766D01*
X90407395Y-139224454D01*
X90223667Y-139261000D01*
X90036333Y-139261000D01*
X89852605Y-139224454D01*
X89679534Y-139152766D01*
X89602182Y-139101081D01*
X89523773Y-139048690D01*
X89391310Y-138916227D01*
X89287235Y-138760467D01*
X89287234Y-138760466D01*
X89215546Y-138587395D01*
X89179000Y-138403667D01*
X89179000Y-138216333D01*
X89215546Y-138032605D01*
X89287234Y-137859534D01*
X89391309Y-137703775D01*
X89391310Y-137703773D01*
X89523773Y-137571310D01*
X89679533Y-137467235D01*
X89679534Y-137467234D01*
X89852605Y-137395546D01*
X90036333Y-137359000D01*
X90223667Y-137359000D01*
X90407395Y-137395546D01*
G37*
G36*
X85407395Y-137395546D02*
G01*
X85580466Y-137467234D01*
X85580467Y-137467235D01*
X85736227Y-137571310D01*
X85868690Y-137703773D01*
X85868691Y-137703775D01*
X85972766Y-137859534D01*
X86044454Y-138032605D01*
X86081000Y-138216333D01*
X86081000Y-138403667D01*
X86044454Y-138587395D01*
X85972766Y-138760466D01*
X85972765Y-138760467D01*
X85868690Y-138916227D01*
X85736227Y-139048690D01*
X85657818Y-139101081D01*
X85580466Y-139152766D01*
X85407395Y-139224454D01*
X85223667Y-139261000D01*
X85036333Y-139261000D01*
X84852605Y-139224454D01*
X84679534Y-139152766D01*
X84602182Y-139101081D01*
X84523773Y-139048690D01*
X84391310Y-138916227D01*
X84287235Y-138760467D01*
X84287234Y-138760466D01*
X84215546Y-138587395D01*
X84179000Y-138403667D01*
X84179000Y-138216333D01*
X84215546Y-138032605D01*
X84287234Y-137859534D01*
X84391309Y-137703775D01*
X84391310Y-137703773D01*
X84523773Y-137571310D01*
X84679533Y-137467235D01*
X84679534Y-137467234D01*
X84852605Y-137395546D01*
X85036333Y-137359000D01*
X85223667Y-137359000D01*
X85407395Y-137395546D01*
G37*
G36*
X129653512Y-134993927D02*
G01*
X129802812Y-135023624D01*
X129966784Y-135091544D01*
X130114354Y-135190147D01*
X130239853Y-135315646D01*
X130338456Y-135463216D01*
X130406376Y-135627188D01*
X130441000Y-135801259D01*
X130441000Y-135978741D01*
X130406376Y-136152812D01*
X130338456Y-136316784D01*
X130239853Y-136464354D01*
X130114354Y-136589853D01*
X129966784Y-136688456D01*
X129802812Y-136756376D01*
X129653512Y-136786073D01*
X129628742Y-136791000D01*
X129451258Y-136791000D01*
X129426488Y-136786073D01*
X129277188Y-136756376D01*
X129113216Y-136688456D01*
X128965646Y-136589853D01*
X128840147Y-136464354D01*
X128741544Y-136316784D01*
X128673624Y-136152812D01*
X128639000Y-135978741D01*
X128639000Y-135801259D01*
X128673624Y-135627188D01*
X128741544Y-135463216D01*
X128840147Y-135315646D01*
X128965646Y-135190147D01*
X129113216Y-135091544D01*
X129277188Y-135023624D01*
X129426488Y-134993927D01*
X129451258Y-134989000D01*
X129628742Y-134989000D01*
X129653512Y-134993927D01*
G37*
G36*
X127224549Y-133491116D02*
G01*
X127335734Y-133513232D01*
X127545203Y-133599997D01*
X127733720Y-133725960D01*
X127894040Y-133886280D01*
X128020003Y-134074797D01*
X128106768Y-134284266D01*
X128151000Y-134506636D01*
X128151000Y-134733364D01*
X128106768Y-134955734D01*
X128020003Y-135165203D01*
X127894040Y-135353720D01*
X127733720Y-135514040D01*
X127545203Y-135640003D01*
X127335734Y-135726768D01*
X127224549Y-135748884D01*
X127113365Y-135771000D01*
X126886635Y-135771000D01*
X126775451Y-135748884D01*
X126664266Y-135726768D01*
X126454797Y-135640003D01*
X126266280Y-135514040D01*
X126105960Y-135353720D01*
X125979997Y-135165203D01*
X125893232Y-134955734D01*
X125849000Y-134733364D01*
X125849000Y-134506636D01*
X125893232Y-134284266D01*
X125979997Y-134074797D01*
X126105960Y-133886280D01*
X126266280Y-133725960D01*
X126454797Y-133599997D01*
X126664266Y-133513232D01*
X126775451Y-133491116D01*
X126886635Y-133469000D01*
X127113365Y-133469000D01*
X127224549Y-133491116D01*
G37*
G36*
X49646007Y-127375960D02*
G01*
X50088282Y-127463934D01*
X50679926Y-127709001D01*
X51212392Y-128064784D01*
X51665216Y-128517608D01*
X52020999Y-129050074D01*
X52230130Y-129554961D01*
X52266066Y-129641719D01*
X52391000Y-130269803D01*
X52391000Y-130910197D01*
X52328533Y-131224239D01*
X52266066Y-131538282D01*
X52020999Y-132129926D01*
X51773265Y-132500685D01*
X51665217Y-132662391D01*
X51212391Y-133115217D01*
X51202910Y-133121552D01*
X50679926Y-133470999D01*
X50088282Y-133716066D01*
X50038541Y-133725960D01*
X49460197Y-133841000D01*
X48819803Y-133841000D01*
X48241459Y-133725960D01*
X48191718Y-133716066D01*
X47600074Y-133470999D01*
X47077090Y-133121552D01*
X47067609Y-133115217D01*
X46614783Y-132662391D01*
X46506735Y-132500685D01*
X46259001Y-132129926D01*
X46013934Y-131538282D01*
X45951467Y-131224239D01*
X45889000Y-130910197D01*
X45889000Y-130269803D01*
X46013934Y-129641719D01*
X46049870Y-129554961D01*
X46259001Y-129050074D01*
X46614784Y-128517608D01*
X47067608Y-128064784D01*
X47600074Y-127709001D01*
X48191718Y-127463934D01*
X48633993Y-127375960D01*
X48819803Y-127339000D01*
X49460197Y-127339000D01*
X49646007Y-127375960D01*
G37*
G36*
X93485039Y-128527825D02*
G01*
X93730279Y-128602218D01*
X93956293Y-128723025D01*
X94096170Y-128837819D01*
X94154396Y-128885604D01*
X94316976Y-129083707D01*
X94427243Y-129290003D01*
X94437782Y-129309720D01*
X94512175Y-129554960D01*
X94531000Y-129746095D01*
X94531000Y-131873905D01*
X94512175Y-132065040D01*
X94437782Y-132310280D01*
X94316975Y-132536294D01*
X94314754Y-132539000D01*
X94154397Y-132734397D01*
X94007899Y-132854624D01*
X93956294Y-132896975D01*
X93730280Y-133017782D01*
X93485040Y-133092175D01*
X93230000Y-133117294D01*
X92974961Y-133092175D01*
X92729721Y-133017782D01*
X92503707Y-132896975D01*
X92452102Y-132854624D01*
X92305604Y-132734397D01*
X92145247Y-132539000D01*
X92143026Y-132536294D01*
X92022219Y-132310280D01*
X91947826Y-132065040D01*
X91929001Y-131873905D01*
X91929000Y-129746096D01*
X91947825Y-129554961D01*
X92022218Y-129309721D01*
X92143025Y-129083707D01*
X92305604Y-128885604D01*
X92456956Y-128761392D01*
X92503707Y-128723024D01*
X92729718Y-128602219D01*
X92729720Y-128602218D01*
X92974960Y-128527825D01*
X93230000Y-128502706D01*
X93485039Y-128527825D01*
G37*
G36*
X82285039Y-128527825D02*
G01*
X82530279Y-128602218D01*
X82756293Y-128723025D01*
X82896170Y-128837819D01*
X82954396Y-128885604D01*
X83116976Y-129083707D01*
X83227243Y-129290003D01*
X83237782Y-129309720D01*
X83312175Y-129554960D01*
X83331000Y-129746095D01*
X83331000Y-131873905D01*
X83312175Y-132065040D01*
X83237782Y-132310280D01*
X83116975Y-132536294D01*
X83114754Y-132539000D01*
X82954397Y-132734397D01*
X82807899Y-132854624D01*
X82756294Y-132896975D01*
X82530280Y-133017782D01*
X82285040Y-133092175D01*
X82030000Y-133117294D01*
X81774961Y-133092175D01*
X81529721Y-133017782D01*
X81303707Y-132896975D01*
X81252102Y-132854624D01*
X81105604Y-132734397D01*
X80945247Y-132539000D01*
X80943026Y-132536294D01*
X80822219Y-132310280D01*
X80747826Y-132065040D01*
X80729001Y-131873905D01*
X80729000Y-129746096D01*
X80747825Y-129554961D01*
X80822218Y-129309721D01*
X80943025Y-129083707D01*
X81105604Y-128885604D01*
X81256956Y-128761392D01*
X81303707Y-128723024D01*
X81529718Y-128602219D01*
X81529720Y-128602218D01*
X81774960Y-128527825D01*
X82030000Y-128502706D01*
X82285039Y-128527825D01*
G37*
G36*
X130138254Y-128837818D02*
G01*
X130378579Y-128937364D01*
X130511513Y-128992427D01*
X130847436Y-129216884D01*
X131133116Y-129502564D01*
X131295839Y-129746095D01*
X131357574Y-129838489D01*
X131512182Y-130211746D01*
X131591000Y-130607993D01*
X131591000Y-131012007D01*
X131512182Y-131408254D01*
X131357574Y-131781511D01*
X131357573Y-131781513D01*
X131133116Y-132117436D01*
X130847436Y-132403116D01*
X130511513Y-132627573D01*
X130511512Y-132627574D01*
X130511511Y-132627574D01*
X130138254Y-132782182D01*
X129742007Y-132861000D01*
X129337993Y-132861000D01*
X128941746Y-132782182D01*
X128568489Y-132627574D01*
X128568488Y-132627574D01*
X128568487Y-132627573D01*
X128232564Y-132403116D01*
X127946884Y-132117436D01*
X127722427Y-131781513D01*
X127722426Y-131781511D01*
X127567818Y-131408254D01*
X127489000Y-131012007D01*
X127489000Y-130607993D01*
X127567818Y-130211746D01*
X127722426Y-129838489D01*
X127784162Y-129746095D01*
X127946884Y-129502564D01*
X128232564Y-129216884D01*
X128568487Y-128992427D01*
X128701421Y-128937364D01*
X128941746Y-128837818D01*
X129337993Y-128759000D01*
X129742007Y-128759000D01*
X130138254Y-128837818D01*
G37*
G36*
X124684549Y-127141116D02*
G01*
X124795734Y-127163232D01*
X125005203Y-127249997D01*
X125193720Y-127375960D01*
X125354040Y-127536280D01*
X125480003Y-127724797D01*
X125566768Y-127934266D01*
X125611000Y-128156636D01*
X125611000Y-128383364D01*
X125566768Y-128605734D01*
X125480003Y-128815203D01*
X125354040Y-129003720D01*
X125193720Y-129164040D01*
X125005203Y-129290003D01*
X125005202Y-129290004D01*
X125005201Y-129290004D01*
X124957602Y-129309720D01*
X124795734Y-129376768D01*
X124684549Y-129398884D01*
X124573365Y-129421000D01*
X124346635Y-129421000D01*
X124235451Y-129398884D01*
X124124266Y-129376768D01*
X123962398Y-129309720D01*
X123914799Y-129290004D01*
X123914798Y-129290004D01*
X123914797Y-129290003D01*
X123726280Y-129164040D01*
X123565960Y-129003720D01*
X123439997Y-128815203D01*
X123353232Y-128605734D01*
X123309000Y-128383364D01*
X123309000Y-128156636D01*
X123353232Y-127934266D01*
X123439997Y-127724797D01*
X123565960Y-127536280D01*
X123726280Y-127375960D01*
X123914797Y-127249997D01*
X124124266Y-127163232D01*
X124235451Y-127141116D01*
X124346635Y-127119000D01*
X124573365Y-127119000D01*
X124684549Y-127141116D01*
G37*
G36*
X129653512Y-124833927D02*
G01*
X129802812Y-124863624D01*
X129966784Y-124931544D01*
X130114354Y-125030147D01*
X130239853Y-125155646D01*
X130338456Y-125303216D01*
X130406376Y-125467188D01*
X130441000Y-125641259D01*
X130441000Y-125818741D01*
X130406376Y-125992812D01*
X130338456Y-126156784D01*
X130239853Y-126304354D01*
X130114354Y-126429853D01*
X129966784Y-126528456D01*
X129802812Y-126596376D01*
X129653512Y-126626073D01*
X129628742Y-126631000D01*
X129451258Y-126631000D01*
X129426488Y-126626073D01*
X129277188Y-126596376D01*
X129113216Y-126528456D01*
X128965646Y-126429853D01*
X128840147Y-126304354D01*
X128741544Y-126156784D01*
X128673624Y-125992812D01*
X128639000Y-125818741D01*
X128639000Y-125641259D01*
X128673624Y-125467188D01*
X128741544Y-125303216D01*
X128840147Y-125155646D01*
X128965646Y-125030147D01*
X129113216Y-124931544D01*
X129277188Y-124863624D01*
X129426488Y-124833927D01*
X129451258Y-124829000D01*
X129628742Y-124829000D01*
X129653512Y-124833927D01*
G37*
G36*
X90243512Y-122913927D02*
G01*
X90392812Y-122943624D01*
X90556784Y-123011544D01*
X90704354Y-123110147D01*
X90829853Y-123235646D01*
X90928456Y-123383216D01*
X90996376Y-123547188D01*
X91031000Y-123721259D01*
X91031000Y-123898741D01*
X90996376Y-124072812D01*
X90928456Y-124236784D01*
X90829853Y-124384354D01*
X90704354Y-124509853D01*
X90556784Y-124608456D01*
X90392812Y-124676376D01*
X90243512Y-124706073D01*
X90218742Y-124711000D01*
X90041258Y-124711000D01*
X90016488Y-124706073D01*
X89867188Y-124676376D01*
X89703216Y-124608456D01*
X89555646Y-124509853D01*
X89430147Y-124384354D01*
X89331544Y-124236784D01*
X89263624Y-124072812D01*
X89229000Y-123898741D01*
X89229000Y-123721259D01*
X89263624Y-123547188D01*
X89331544Y-123383216D01*
X89430147Y-123235646D01*
X89555646Y-123110147D01*
X89703216Y-123011544D01*
X89867188Y-122943624D01*
X90016488Y-122913927D01*
X90041258Y-122909000D01*
X90218742Y-122909000D01*
X90243512Y-122913927D01*
G37*
G36*
X85243512Y-122913927D02*
G01*
X85392812Y-122943624D01*
X85556784Y-123011544D01*
X85704354Y-123110147D01*
X85829853Y-123235646D01*
X85928456Y-123383216D01*
X85996376Y-123547188D01*
X86031000Y-123721259D01*
X86031000Y-123898741D01*
X85996376Y-124072812D01*
X85928456Y-124236784D01*
X85829853Y-124384354D01*
X85704354Y-124509853D01*
X85556784Y-124608456D01*
X85392812Y-124676376D01*
X85243512Y-124706073D01*
X85218742Y-124711000D01*
X85041258Y-124711000D01*
X85016488Y-124706073D01*
X84867188Y-124676376D01*
X84703216Y-124608456D01*
X84555646Y-124509853D01*
X84430147Y-124384354D01*
X84331544Y-124236784D01*
X84263624Y-124072812D01*
X84229000Y-123898741D01*
X84229000Y-123721259D01*
X84263624Y-123547188D01*
X84331544Y-123383216D01*
X84430147Y-123235646D01*
X84555646Y-123110147D01*
X84703216Y-123011544D01*
X84867188Y-122943624D01*
X85016488Y-122913927D01*
X85041258Y-122909000D01*
X85218742Y-122909000D01*
X85243512Y-122913927D01*
G37*
G36*
X136965705Y-113919488D02*
G01*
X137115005Y-113949185D01*
X137278977Y-114017105D01*
X137426547Y-114115708D01*
X137552046Y-114241207D01*
X137650649Y-114388777D01*
X137718569Y-114552749D01*
X137753193Y-114726820D01*
X137753193Y-114904302D01*
X137718569Y-115078373D01*
X137650649Y-115242345D01*
X137552046Y-115389915D01*
X137426547Y-115515414D01*
X137278977Y-115614017D01*
X137115005Y-115681937D01*
X136965705Y-115711634D01*
X136940935Y-115716561D01*
X136763451Y-115716561D01*
X136738681Y-115711634D01*
X136589381Y-115681937D01*
X136425409Y-115614017D01*
X136277839Y-115515414D01*
X136152340Y-115389915D01*
X136053737Y-115242345D01*
X135985817Y-115078373D01*
X135951193Y-114904302D01*
X135951193Y-114726820D01*
X135985817Y-114552749D01*
X136053737Y-114388777D01*
X136152340Y-114241207D01*
X136277839Y-114115708D01*
X136425409Y-114017105D01*
X136589381Y-113949185D01*
X136738681Y-113919488D01*
X136763451Y-113914561D01*
X136940935Y-113914561D01*
X136965705Y-113919488D01*
G37*
G36*
X135234889Y-111525179D02*
G01*
X135346074Y-111547295D01*
X135555543Y-111634060D01*
X135744060Y-111760023D01*
X135904380Y-111920343D01*
X135928853Y-111956970D01*
X136030344Y-112108862D01*
X136031469Y-112111578D01*
X136117108Y-112318329D01*
X136161340Y-112540699D01*
X136161340Y-112767427D01*
X136117108Y-112989797D01*
X136030343Y-113199266D01*
X135904380Y-113387783D01*
X135744060Y-113548103D01*
X135555543Y-113674066D01*
X135346074Y-113760831D01*
X135234889Y-113782947D01*
X135123705Y-113805063D01*
X134896975Y-113805063D01*
X134785791Y-113782947D01*
X134674606Y-113760831D01*
X134465137Y-113674066D01*
X134276620Y-113548103D01*
X134116300Y-113387783D01*
X133990337Y-113199266D01*
X133903572Y-112989797D01*
X133859340Y-112767427D01*
X133859340Y-112540699D01*
X133903572Y-112318329D01*
X133989211Y-112111578D01*
X133990336Y-112108862D01*
X134091827Y-111956970D01*
X134116300Y-111920343D01*
X134276620Y-111760023D01*
X134465137Y-111634060D01*
X134674606Y-111547295D01*
X134785791Y-111525179D01*
X134896975Y-111503063D01*
X135123705Y-111503063D01*
X135234889Y-111525179D01*
G37*
G36*
X139435362Y-108167214D02*
G01*
X139791526Y-108314742D01*
X139808621Y-108321823D01*
X140144544Y-108546280D01*
X140430224Y-108831960D01*
X140645653Y-109154371D01*
X140654682Y-109167885D01*
X140809290Y-109541142D01*
X140888108Y-109937389D01*
X140888108Y-110341403D01*
X140809290Y-110737650D01*
X140654682Y-111110907D01*
X140654681Y-111110909D01*
X140430224Y-111446832D01*
X140144544Y-111732512D01*
X139808621Y-111956969D01*
X139808620Y-111956970D01*
X139808619Y-111956970D01*
X139435362Y-112111578D01*
X139039115Y-112190396D01*
X138635101Y-112190396D01*
X138238854Y-112111578D01*
X137865597Y-111956970D01*
X137865596Y-111956970D01*
X137865595Y-111956969D01*
X137529672Y-111732512D01*
X137243992Y-111446832D01*
X137019535Y-111110909D01*
X137019534Y-111110907D01*
X136864926Y-110737650D01*
X136786108Y-110341403D01*
X136786108Y-109937389D01*
X136864926Y-109541142D01*
X137019534Y-109167885D01*
X137028564Y-109154371D01*
X137243992Y-108831960D01*
X137529672Y-108546280D01*
X137865595Y-108321823D01*
X137882690Y-108314742D01*
X138238854Y-108167214D01*
X138635101Y-108088396D01*
X139039115Y-108088396D01*
X139435362Y-108167214D01*
G37*
G36*
X100320239Y-103779467D02*
G01*
X100634282Y-103841934D01*
X101225926Y-104087001D01*
X101758392Y-104442784D01*
X102211216Y-104895608D01*
X102566999Y-105428074D01*
X102774806Y-105929765D01*
X102812066Y-106019719D01*
X102937000Y-106647803D01*
X102937000Y-107288197D01*
X102874533Y-107602239D01*
X102812066Y-107916282D01*
X102566999Y-108507926D01*
X102211216Y-109040392D01*
X101758392Y-109493216D01*
X101225926Y-109848999D01*
X100634282Y-110094066D01*
X100320239Y-110156533D01*
X100006197Y-110219000D01*
X99365803Y-110219000D01*
X99051761Y-110156533D01*
X98737718Y-110094066D01*
X98146074Y-109848999D01*
X97613608Y-109493216D01*
X97160784Y-109040392D01*
X96805001Y-108507926D01*
X96559934Y-107916282D01*
X96497467Y-107602239D01*
X96435000Y-107288197D01*
X96435000Y-106647803D01*
X96559934Y-106019719D01*
X96597194Y-105929765D01*
X96805001Y-105428074D01*
X97160784Y-104895608D01*
X97613608Y-104442784D01*
X98146074Y-104087001D01*
X98737718Y-103841934D01*
X99051761Y-103779467D01*
X99365803Y-103717000D01*
X100006197Y-103717000D01*
X100320239Y-103779467D01*
G37*
G36*
X135377949Y-104687516D02*
G01*
X135489134Y-104709632D01*
X135618893Y-104763380D01*
X135683942Y-104790324D01*
X135698603Y-104796397D01*
X135887120Y-104922360D01*
X136047440Y-105082680D01*
X136173403Y-105271197D01*
X136260168Y-105480666D01*
X136304400Y-105703036D01*
X136304400Y-105929764D01*
X136260168Y-106152134D01*
X136173403Y-106361603D01*
X136047440Y-106550120D01*
X135887120Y-106710440D01*
X135698603Y-106836403D01*
X135698602Y-106836404D01*
X135698601Y-106836404D01*
X135637250Y-106861816D01*
X135489134Y-106923168D01*
X135377949Y-106945284D01*
X135266765Y-106967400D01*
X135040035Y-106967400D01*
X134928851Y-106945284D01*
X134817666Y-106923168D01*
X134669550Y-106861816D01*
X134608199Y-106836404D01*
X134608198Y-106836404D01*
X134608197Y-106836403D01*
X134419680Y-106710440D01*
X134259360Y-106550120D01*
X134133397Y-106361603D01*
X134046632Y-106152134D01*
X134002400Y-105929764D01*
X134002400Y-105703036D01*
X134046632Y-105480666D01*
X134133397Y-105271197D01*
X134259360Y-105082680D01*
X134419680Y-104922360D01*
X134608197Y-104796397D01*
X134622859Y-104790324D01*
X134687907Y-104763380D01*
X134817666Y-104709632D01*
X134928851Y-104687516D01*
X135040035Y-104665400D01*
X135266765Y-104665400D01*
X135377949Y-104687516D01*
G37*
G36*
X59174549Y-104591116D02*
G01*
X59285734Y-104613232D01*
X59495203Y-104699997D01*
X59683720Y-104825960D01*
X59844040Y-104986280D01*
X59891504Y-105057315D01*
X59970004Y-105174799D01*
X59980617Y-105200421D01*
X60052719Y-105374490D01*
X60056768Y-105384267D01*
X60101000Y-105606635D01*
X60101000Y-105833365D01*
X60089732Y-105890014D01*
X60056768Y-106055734D01*
X59970003Y-106265203D01*
X59844040Y-106453720D01*
X59683720Y-106614040D01*
X59495203Y-106740003D01*
X59285734Y-106826768D01*
X59237295Y-106836403D01*
X59063365Y-106871000D01*
X58836635Y-106871000D01*
X58662705Y-106836403D01*
X58614266Y-106826768D01*
X58404797Y-106740003D01*
X58216280Y-106614040D01*
X58055960Y-106453720D01*
X57929997Y-106265203D01*
X57843232Y-106055734D01*
X57810268Y-105890014D01*
X57799000Y-105833365D01*
X57799000Y-105606635D01*
X57843232Y-105384267D01*
X57847282Y-105374490D01*
X57919383Y-105200421D01*
X57929996Y-105174799D01*
X58008496Y-105057315D01*
X58055960Y-104986280D01*
X58216280Y-104825960D01*
X58404797Y-104699997D01*
X58614266Y-104613232D01*
X58725451Y-104591116D01*
X58836635Y-104569000D01*
X59063365Y-104569000D01*
X59174549Y-104591116D01*
G37*
G36*
X140935534Y-104567159D02*
G01*
X141084834Y-104596856D01*
X141248806Y-104664776D01*
X141396376Y-104763379D01*
X141521875Y-104888878D01*
X141620478Y-105036448D01*
X141688398Y-105200420D01*
X141723022Y-105374491D01*
X141723022Y-105551973D01*
X141688398Y-105726044D01*
X141620478Y-105890016D01*
X141521875Y-106037586D01*
X141396376Y-106163085D01*
X141248806Y-106261688D01*
X141084834Y-106329608D01*
X140935534Y-106359305D01*
X140910764Y-106364232D01*
X140733280Y-106364232D01*
X140708510Y-106359305D01*
X140559210Y-106329608D01*
X140395238Y-106261688D01*
X140247668Y-106163085D01*
X140122169Y-106037586D01*
X140023566Y-105890016D01*
X139955646Y-105726044D01*
X139921022Y-105551973D01*
X139921022Y-105374491D01*
X139955646Y-105200420D01*
X140023566Y-105036448D01*
X140122169Y-104888878D01*
X140247668Y-104763379D01*
X140395238Y-104664776D01*
X140559210Y-104596856D01*
X140708510Y-104567159D01*
X140733280Y-104562232D01*
X140910764Y-104562232D01*
X140935534Y-104567159D01*
G37*
G36*
X119230728Y-103685193D02*
G01*
X119341913Y-103707309D01*
X119551382Y-103794074D01*
X119739899Y-103920037D01*
X119900219Y-104080357D01*
X120026182Y-104268874D01*
X120112947Y-104478343D01*
X120130980Y-104569000D01*
X120157037Y-104699996D01*
X120157179Y-104700713D01*
X120157179Y-104927441D01*
X120112947Y-105149811D01*
X120026182Y-105359280D01*
X119900219Y-105547797D01*
X119739899Y-105708117D01*
X119551382Y-105834080D01*
X119341913Y-105920845D01*
X119230728Y-105942961D01*
X119119544Y-105965077D01*
X118892814Y-105965077D01*
X118781630Y-105942961D01*
X118670445Y-105920845D01*
X118460976Y-105834080D01*
X118272459Y-105708117D01*
X118112139Y-105547797D01*
X117986176Y-105359280D01*
X117899411Y-105149811D01*
X117855179Y-104927441D01*
X117855179Y-104700713D01*
X117855322Y-104699996D01*
X117881378Y-104569000D01*
X117899411Y-104478343D01*
X117986176Y-104268874D01*
X118112139Y-104080357D01*
X118272459Y-103920037D01*
X118460976Y-103794074D01*
X118670445Y-103707309D01*
X118781630Y-103685193D01*
X118892814Y-103663077D01*
X119119544Y-103663077D01*
X119230728Y-103685193D01*
G37*
G36*
X53675358Y-103027876D02*
G01*
X53824658Y-103057573D01*
X53988630Y-103125493D01*
X54136200Y-103224096D01*
X54261699Y-103349595D01*
X54360302Y-103497165D01*
X54428222Y-103661137D01*
X54462846Y-103835208D01*
X54462846Y-104012690D01*
X54428222Y-104186761D01*
X54360302Y-104350733D01*
X54261699Y-104498303D01*
X54136200Y-104623802D01*
X53988630Y-104722405D01*
X53824658Y-104790325D01*
X53675749Y-104819944D01*
X53650588Y-104824949D01*
X53473104Y-104824949D01*
X53447943Y-104819944D01*
X53299034Y-104790325D01*
X53135062Y-104722405D01*
X52987492Y-104623802D01*
X52861993Y-104498303D01*
X52763390Y-104350733D01*
X52695470Y-104186761D01*
X52660846Y-104012690D01*
X52660846Y-103835208D01*
X52695470Y-103661137D01*
X52763390Y-103497165D01*
X52861993Y-103349595D01*
X52987492Y-103224096D01*
X53135062Y-103125493D01*
X53299034Y-103057573D01*
X53448334Y-103027876D01*
X53473104Y-103022949D01*
X53650588Y-103022949D01*
X53675358Y-103027876D01*
G37*
G36*
X121813768Y-103019978D02*
G01*
X121963068Y-103049675D01*
X122127040Y-103117595D01*
X122274610Y-103216198D01*
X122400109Y-103341697D01*
X122498712Y-103489267D01*
X122566632Y-103653239D01*
X122601256Y-103827310D01*
X122601256Y-104004792D01*
X122566632Y-104178863D01*
X122498712Y-104342835D01*
X122400109Y-104490405D01*
X122274610Y-104615904D01*
X122127040Y-104714507D01*
X121963068Y-104782427D01*
X121813768Y-104812124D01*
X121788998Y-104817051D01*
X121611514Y-104817051D01*
X121586744Y-104812124D01*
X121437444Y-104782427D01*
X121273472Y-104714507D01*
X121125902Y-104615904D01*
X121000403Y-104490405D01*
X120901800Y-104342835D01*
X120833880Y-104178863D01*
X120799256Y-104004792D01*
X120799256Y-103827310D01*
X120833880Y-103653239D01*
X120901800Y-103489267D01*
X121000403Y-103341697D01*
X121125902Y-103216198D01*
X121273472Y-103117595D01*
X121437444Y-103049675D01*
X121586744Y-103019978D01*
X121611514Y-103015051D01*
X121788998Y-103015051D01*
X121813768Y-103019978D01*
G37*
G36*
X112944549Y-100991116D02*
G01*
X113055734Y-101013232D01*
X113265203Y-101099997D01*
X113453720Y-101225960D01*
X113614040Y-101386280D01*
X113740003Y-101574797D01*
X113826768Y-101784266D01*
X113871000Y-102006636D01*
X113871000Y-102233364D01*
X113826768Y-102455734D01*
X113740003Y-102665203D01*
X113614040Y-102853720D01*
X113453720Y-103014040D01*
X113265203Y-103140003D01*
X113055734Y-103226768D01*
X112944549Y-103248884D01*
X112833365Y-103271000D01*
X112606635Y-103271000D01*
X112495451Y-103248884D01*
X112384266Y-103226768D01*
X112174797Y-103140003D01*
X111986280Y-103014040D01*
X111825960Y-102853720D01*
X111699997Y-102665203D01*
X111613232Y-102455734D01*
X111569000Y-102233364D01*
X111569000Y-102006636D01*
X111613232Y-101784266D01*
X111699997Y-101574797D01*
X111825960Y-101386280D01*
X111986280Y-101225960D01*
X112174797Y-101099997D01*
X112384266Y-101013232D01*
X112495451Y-100991116D01*
X112606635Y-100969000D01*
X112833365Y-100969000D01*
X112944549Y-100991116D01*
G37*
G36*
X57752203Y-98359664D02*
G01*
X58106397Y-98506376D01*
X58125462Y-98514273D01*
X58461385Y-98738730D01*
X58747065Y-99024410D01*
X58966247Y-99352438D01*
X58971523Y-99360335D01*
X59126131Y-99733592D01*
X59204949Y-100129839D01*
X59204949Y-100533853D01*
X59126131Y-100930100D01*
X59055757Y-101099997D01*
X58971522Y-101303359D01*
X58747065Y-101639282D01*
X58461385Y-101924962D01*
X58125462Y-102149419D01*
X58125461Y-102149420D01*
X58125460Y-102149420D01*
X57752203Y-102304028D01*
X57355956Y-102382846D01*
X56951942Y-102382846D01*
X56555695Y-102304028D01*
X56182438Y-102149420D01*
X56182437Y-102149420D01*
X56182436Y-102149419D01*
X55846513Y-101924962D01*
X55560833Y-101639282D01*
X55336376Y-101303359D01*
X55252141Y-101099997D01*
X55181767Y-100930100D01*
X55102949Y-100533853D01*
X55102949Y-100129839D01*
X55181767Y-99733592D01*
X55336375Y-99360335D01*
X55341652Y-99352438D01*
X55560833Y-99024410D01*
X55846513Y-98738730D01*
X56182436Y-98514273D01*
X56201501Y-98506376D01*
X56555695Y-98359664D01*
X56951942Y-98280846D01*
X57355956Y-98280846D01*
X57752203Y-98359664D01*
G37*
G36*
X118706408Y-98351767D02*
G01*
X119079665Y-98506375D01*
X119079667Y-98506376D01*
X119415590Y-98730833D01*
X119701270Y-99016513D01*
X119904359Y-99320456D01*
X119925728Y-99352438D01*
X120080336Y-99725695D01*
X120159154Y-100121942D01*
X120159154Y-100525956D01*
X120080336Y-100922203D01*
X120006691Y-101099997D01*
X119925727Y-101295462D01*
X119701270Y-101631385D01*
X119415590Y-101917065D01*
X119079667Y-102141522D01*
X119079666Y-102141523D01*
X119079665Y-102141523D01*
X118706408Y-102296131D01*
X118310161Y-102374949D01*
X117906147Y-102374949D01*
X117509900Y-102296131D01*
X117136643Y-102141523D01*
X117136642Y-102141523D01*
X117136641Y-102141522D01*
X116800718Y-101917065D01*
X116515038Y-101631385D01*
X116290581Y-101295462D01*
X116209617Y-101099997D01*
X116135972Y-100922203D01*
X116057154Y-100525956D01*
X116057154Y-100121942D01*
X116135972Y-99725695D01*
X116290580Y-99352438D01*
X116311950Y-99320456D01*
X116515038Y-99016513D01*
X116800718Y-98730833D01*
X117136641Y-98506376D01*
X117136643Y-98506375D01*
X117509900Y-98351767D01*
X117906147Y-98272949D01*
X118310161Y-98272949D01*
X118706408Y-98351767D01*
G37*
G36*
X61868626Y-98304937D02*
G01*
X61979811Y-98327053D01*
X62189280Y-98413818D01*
X62377797Y-98539781D01*
X62538117Y-98700101D01*
X62664080Y-98888618D01*
X62750845Y-99098087D01*
X62795077Y-99320457D01*
X62795077Y-99547185D01*
X62750845Y-99769555D01*
X62664080Y-99979024D01*
X62538117Y-100167541D01*
X62377797Y-100327861D01*
X62189280Y-100453824D01*
X61979811Y-100540589D01*
X61868626Y-100562705D01*
X61757442Y-100584821D01*
X61530712Y-100584821D01*
X61419528Y-100562705D01*
X61308343Y-100540589D01*
X61098874Y-100453824D01*
X60910357Y-100327861D01*
X60750037Y-100167541D01*
X60624074Y-99979024D01*
X60537309Y-99769555D01*
X60493077Y-99547185D01*
X60493077Y-99320457D01*
X60537309Y-99098087D01*
X60624074Y-98888618D01*
X60750037Y-98700101D01*
X60910357Y-98539781D01*
X61098874Y-98413818D01*
X61308343Y-98327053D01*
X61419528Y-98304937D01*
X61530712Y-98282821D01*
X61757442Y-98282821D01*
X61868626Y-98304937D01*
G37*
G36*
X60859563Y-95843671D02*
G01*
X61008863Y-95873368D01*
X61172835Y-95941288D01*
X61320405Y-96039891D01*
X61445904Y-96165390D01*
X61544507Y-96312960D01*
X61612427Y-96476932D01*
X61647051Y-96651003D01*
X61647051Y-96828485D01*
X61612427Y-97002556D01*
X61544507Y-97166528D01*
X61445904Y-97314098D01*
X61320405Y-97439597D01*
X61172835Y-97538200D01*
X61008863Y-97606120D01*
X60859563Y-97635817D01*
X60834793Y-97640744D01*
X60657309Y-97640744D01*
X60632539Y-97635817D01*
X60483239Y-97606120D01*
X60319267Y-97538200D01*
X60171697Y-97439597D01*
X60046198Y-97314098D01*
X59947595Y-97166528D01*
X59879675Y-97002556D01*
X59845051Y-96828485D01*
X59845051Y-96651003D01*
X59879675Y-96476932D01*
X59947595Y-96312960D01*
X60046198Y-96165390D01*
X60171697Y-96039891D01*
X60319267Y-95941288D01*
X60483239Y-95873368D01*
X60632539Y-95843671D01*
X60657309Y-95838744D01*
X60834793Y-95838744D01*
X60859563Y-95843671D01*
G37*
G36*
X114629563Y-95835773D02*
G01*
X114778863Y-95865470D01*
X114942835Y-95933390D01*
X115090405Y-96031993D01*
X115215904Y-96157492D01*
X115314507Y-96305062D01*
X115382427Y-96469034D01*
X115417051Y-96643105D01*
X115417051Y-96820587D01*
X115382427Y-96994658D01*
X115314507Y-97158630D01*
X115215904Y-97306200D01*
X115090405Y-97431699D01*
X114942835Y-97530302D01*
X114778863Y-97598222D01*
X114629563Y-97627919D01*
X114604793Y-97632846D01*
X114427309Y-97632846D01*
X114402539Y-97627919D01*
X114253239Y-97598222D01*
X114089267Y-97530302D01*
X113941697Y-97431699D01*
X113816198Y-97306200D01*
X113717595Y-97158630D01*
X113649675Y-96994658D01*
X113615051Y-96820587D01*
X113615051Y-96643105D01*
X113649675Y-96469034D01*
X113717595Y-96305062D01*
X113816198Y-96157492D01*
X113941697Y-96031993D01*
X114089267Y-95933390D01*
X114253239Y-95865470D01*
X114402539Y-95835773D01*
X114427309Y-95830846D01*
X114604793Y-95830846D01*
X114629563Y-95835773D01*
G37*
G36*
X85263749Y-94552916D02*
G01*
X85374934Y-94575032D01*
X85584403Y-94661797D01*
X85772920Y-94787760D01*
X85933240Y-94948080D01*
X86059203Y-95136597D01*
X86059204Y-95136599D01*
X86145968Y-95346067D01*
X86190200Y-95568435D01*
X86190200Y-95795165D01*
X86176215Y-95865470D01*
X86145968Y-96017534D01*
X86059203Y-96227003D01*
X85933240Y-96415520D01*
X85772920Y-96575840D01*
X85584403Y-96701803D01*
X85374934Y-96788568D01*
X85263749Y-96810684D01*
X85152565Y-96832800D01*
X84925835Y-96832800D01*
X84814651Y-96810684D01*
X84703466Y-96788568D01*
X84493997Y-96701803D01*
X84305480Y-96575840D01*
X84145160Y-96415520D01*
X84019197Y-96227003D01*
X83932432Y-96017534D01*
X83902185Y-95865470D01*
X83888200Y-95795165D01*
X83888200Y-95568435D01*
X83932432Y-95346067D01*
X84019196Y-95136599D01*
X84019197Y-95136597D01*
X84145160Y-94948080D01*
X84305480Y-94787760D01*
X84493997Y-94661797D01*
X84703466Y-94575032D01*
X84814651Y-94552916D01*
X84925835Y-94530800D01*
X85152565Y-94530800D01*
X85263749Y-94552916D01*
G37*
G36*
X91613749Y-92012916D02*
G01*
X91724934Y-92035032D01*
X91934403Y-92121797D01*
X92122920Y-92247760D01*
X92283240Y-92408080D01*
X92409203Y-92596597D01*
X92495968Y-92806066D01*
X92540200Y-93028436D01*
X92540200Y-93255164D01*
X92495968Y-93477534D01*
X92409203Y-93687003D01*
X92283240Y-93875520D01*
X92122920Y-94035840D01*
X91934403Y-94161803D01*
X91724934Y-94248568D01*
X91613749Y-94270684D01*
X91502565Y-94292800D01*
X91275835Y-94292800D01*
X91164651Y-94270684D01*
X91053466Y-94248568D01*
X90843997Y-94161803D01*
X90655480Y-94035840D01*
X90495160Y-93875520D01*
X90369197Y-93687003D01*
X90282432Y-93477534D01*
X90238200Y-93255164D01*
X90238200Y-93028436D01*
X90282432Y-92806066D01*
X90369197Y-92596597D01*
X90495160Y-92408080D01*
X90655480Y-92247760D01*
X90843997Y-92121797D01*
X91053466Y-92035032D01*
X91164651Y-92012916D01*
X91275835Y-91990800D01*
X91502565Y-91990800D01*
X91613749Y-92012916D01*
G37*
G36*
X88177454Y-88629618D02*
G01*
X88550711Y-88784226D01*
X88550713Y-88784227D01*
X88886636Y-89008684D01*
X89172316Y-89294364D01*
X89273104Y-89445203D01*
X89396774Y-89630289D01*
X89551382Y-90003546D01*
X89630200Y-90399793D01*
X89630200Y-90803807D01*
X89551382Y-91200054D01*
X89396774Y-91573311D01*
X89396773Y-91573313D01*
X89172316Y-91909236D01*
X88886636Y-92194916D01*
X88550713Y-92419373D01*
X88550712Y-92419374D01*
X88550711Y-92419374D01*
X88177454Y-92573982D01*
X87781207Y-92652800D01*
X87377193Y-92652800D01*
X86980946Y-92573982D01*
X86607689Y-92419374D01*
X86607688Y-92419374D01*
X86607687Y-92419373D01*
X86271764Y-92194916D01*
X85986084Y-91909236D01*
X85761627Y-91573313D01*
X85761626Y-91573311D01*
X85607018Y-91200054D01*
X85528200Y-90803807D01*
X85528200Y-90399793D01*
X85607018Y-90003546D01*
X85761626Y-89630289D01*
X85885297Y-89445203D01*
X85986084Y-89294364D01*
X86271764Y-89008684D01*
X86607687Y-88784227D01*
X86607689Y-88784226D01*
X86980946Y-88629618D01*
X87377193Y-88550800D01*
X87781207Y-88550800D01*
X88177454Y-88629618D01*
G37*
G36*
X92772712Y-89705727D02*
G01*
X92922012Y-89735424D01*
X93085984Y-89803344D01*
X93233554Y-89901947D01*
X93359053Y-90027446D01*
X93457656Y-90175016D01*
X93525576Y-90338988D01*
X93560200Y-90513059D01*
X93560200Y-90690541D01*
X93525576Y-90864612D01*
X93457656Y-91028584D01*
X93359053Y-91176154D01*
X93233554Y-91301653D01*
X93085984Y-91400256D01*
X92922012Y-91468176D01*
X92772712Y-91497873D01*
X92747942Y-91502800D01*
X92570458Y-91502800D01*
X92545688Y-91497873D01*
X92396388Y-91468176D01*
X92232416Y-91400256D01*
X92084846Y-91301653D01*
X91959347Y-91176154D01*
X91860744Y-91028584D01*
X91792824Y-90864612D01*
X91758200Y-90690541D01*
X91758200Y-90513059D01*
X91792824Y-90338988D01*
X91860744Y-90175016D01*
X91959347Y-90027446D01*
X92084846Y-89901947D01*
X92232416Y-89803344D01*
X92396388Y-89735424D01*
X92545688Y-89705727D01*
X92570458Y-89700800D01*
X92747942Y-89700800D01*
X92772712Y-89705727D01*
G37*
G36*
X82612712Y-89705727D02*
G01*
X82762012Y-89735424D01*
X82925984Y-89803344D01*
X83073554Y-89901947D01*
X83199053Y-90027446D01*
X83297656Y-90175016D01*
X83365576Y-90338988D01*
X83400200Y-90513059D01*
X83400200Y-90690541D01*
X83365576Y-90864612D01*
X83297656Y-91028584D01*
X83199053Y-91176154D01*
X83073554Y-91301653D01*
X82925984Y-91400256D01*
X82762012Y-91468176D01*
X82612712Y-91497873D01*
X82587942Y-91502800D01*
X82410458Y-91502800D01*
X82385688Y-91497873D01*
X82236388Y-91468176D01*
X82072416Y-91400256D01*
X81924846Y-91301653D01*
X81799347Y-91176154D01*
X81700744Y-91028584D01*
X81632824Y-90864612D01*
X81598200Y-90690541D01*
X81598200Y-90513059D01*
X81632824Y-90338988D01*
X81700744Y-90175016D01*
X81799347Y-90027446D01*
X81924846Y-89901947D01*
X82072416Y-89803344D01*
X82236388Y-89735424D01*
X82385688Y-89705727D01*
X82410458Y-89700800D01*
X82587942Y-89700800D01*
X82612712Y-89705727D01*
G37*
G36*
X133574549Y-87771116D02*
G01*
X133685734Y-87793232D01*
X133895203Y-87879997D01*
X134083720Y-88005960D01*
X134244040Y-88166280D01*
X134370003Y-88354797D01*
X134456768Y-88564266D01*
X134501000Y-88786636D01*
X134501000Y-89013364D01*
X134456768Y-89235734D01*
X134370003Y-89445203D01*
X134244040Y-89633720D01*
X134083720Y-89794040D01*
X133895203Y-89920003D01*
X133685734Y-90006768D01*
X133581778Y-90027446D01*
X133463365Y-90051000D01*
X133236635Y-90051000D01*
X133118222Y-90027446D01*
X133014266Y-90006768D01*
X132804797Y-89920003D01*
X132616280Y-89794040D01*
X132455960Y-89633720D01*
X132329997Y-89445203D01*
X132243232Y-89235734D01*
X132199000Y-89013364D01*
X132199000Y-88786636D01*
X132243232Y-88564266D01*
X132329997Y-88354797D01*
X132455960Y-88166280D01*
X132616280Y-88005960D01*
X132804797Y-87879997D01*
X133014266Y-87793232D01*
X133125451Y-87771116D01*
X133236635Y-87749000D01*
X133463365Y-87749000D01*
X133574549Y-87771116D01*
G37*
G36*
X139924549Y-85231116D02*
G01*
X140035734Y-85253232D01*
X140245203Y-85339997D01*
X140433720Y-85465960D01*
X140594040Y-85626280D01*
X140720003Y-85814797D01*
X140806768Y-86024266D01*
X140851000Y-86246636D01*
X140851000Y-86473364D01*
X140806768Y-86695734D01*
X140720003Y-86905203D01*
X140594040Y-87093720D01*
X140433720Y-87254040D01*
X140245203Y-87380003D01*
X140035734Y-87466768D01*
X139924549Y-87488884D01*
X139813365Y-87511000D01*
X139586635Y-87511000D01*
X139475451Y-87488884D01*
X139364266Y-87466768D01*
X139154797Y-87380003D01*
X138966280Y-87254040D01*
X138805960Y-87093720D01*
X138679997Y-86905203D01*
X138593232Y-86695734D01*
X138549000Y-86473364D01*
X138549000Y-86246636D01*
X138593232Y-86024266D01*
X138679997Y-85814797D01*
X138805960Y-85626280D01*
X138966280Y-85465960D01*
X139154797Y-85339997D01*
X139364266Y-85253232D01*
X139475451Y-85231116D01*
X139586635Y-85209000D01*
X139813365Y-85209000D01*
X139924549Y-85231116D01*
G37*
G36*
X136488254Y-81847818D02*
G01*
X136861511Y-82002426D01*
X136861513Y-82002427D01*
X137197436Y-82226884D01*
X137483116Y-82512564D01*
X137694064Y-82828269D01*
X137707574Y-82848489D01*
X137862182Y-83221746D01*
X137941000Y-83617993D01*
X137941000Y-84022007D01*
X137862182Y-84418254D01*
X137707574Y-84791511D01*
X137707573Y-84791513D01*
X137483116Y-85127436D01*
X137197436Y-85413116D01*
X136861513Y-85637573D01*
X136861512Y-85637574D01*
X136861511Y-85637574D01*
X136488254Y-85792182D01*
X136092007Y-85871000D01*
X135687993Y-85871000D01*
X135291746Y-85792182D01*
X134918489Y-85637574D01*
X134918488Y-85637574D01*
X134918487Y-85637573D01*
X134582564Y-85413116D01*
X134296884Y-85127436D01*
X134072427Y-84791513D01*
X134072426Y-84791511D01*
X133917818Y-84418254D01*
X133839000Y-84022007D01*
X133839000Y-83617993D01*
X133917818Y-83221746D01*
X134072426Y-82848489D01*
X134085937Y-82828269D01*
X134296884Y-82512564D01*
X134582564Y-82226884D01*
X134918487Y-82002427D01*
X134918489Y-82002426D01*
X135291746Y-81847818D01*
X135687993Y-81769000D01*
X136092007Y-81769000D01*
X136488254Y-81847818D01*
G37*
G36*
X130923512Y-82923927D02*
G01*
X131072812Y-82953624D01*
X131236784Y-83021544D01*
X131384354Y-83120147D01*
X131509853Y-83245646D01*
X131608456Y-83393216D01*
X131676376Y-83557188D01*
X131711000Y-83731259D01*
X131711000Y-83908741D01*
X131676376Y-84082812D01*
X131608456Y-84246784D01*
X131509853Y-84394354D01*
X131384354Y-84519853D01*
X131236784Y-84618456D01*
X131072812Y-84686376D01*
X130923512Y-84716073D01*
X130898742Y-84721000D01*
X130721258Y-84721000D01*
X130696488Y-84716073D01*
X130547188Y-84686376D01*
X130383216Y-84618456D01*
X130235646Y-84519853D01*
X130110147Y-84394354D01*
X130011544Y-84246784D01*
X129943624Y-84082812D01*
X129909000Y-83908741D01*
X129909000Y-83731259D01*
X129943624Y-83557188D01*
X130011544Y-83393216D01*
X130110147Y-83245646D01*
X130235646Y-83120147D01*
X130383216Y-83021544D01*
X130547188Y-82953624D01*
X130696488Y-82923927D01*
X130721258Y-82919000D01*
X130898742Y-82919000D01*
X130923512Y-82923927D01*
G37*
G36*
X141083512Y-82923927D02*
G01*
X141232812Y-82953624D01*
X141396784Y-83021544D01*
X141544354Y-83120147D01*
X141669853Y-83245646D01*
X141768456Y-83393216D01*
X141836376Y-83557188D01*
X141871000Y-83731259D01*
X141871000Y-83908741D01*
X141836376Y-84082812D01*
X141768456Y-84246784D01*
X141669853Y-84394354D01*
X141544354Y-84519853D01*
X141396784Y-84618456D01*
X141232812Y-84686376D01*
X141083512Y-84716073D01*
X141058742Y-84721000D01*
X140881258Y-84721000D01*
X140856488Y-84716073D01*
X140707188Y-84686376D01*
X140543216Y-84618456D01*
X140395646Y-84519853D01*
X140270147Y-84394354D01*
X140171544Y-84246784D01*
X140103624Y-84082812D01*
X140069000Y-83908741D01*
X140069000Y-83731259D01*
X140103624Y-83557188D01*
X140171544Y-83393216D01*
X140270147Y-83245646D01*
X140395646Y-83120147D01*
X140543216Y-83021544D01*
X140707188Y-82953624D01*
X140856488Y-82923927D01*
X140881258Y-82919000D01*
X141058742Y-82919000D01*
X141083512Y-82923927D01*
G37*
G36*
X108551243Y-82105735D02*
G01*
X108662428Y-82127851D01*
X108871897Y-82214616D01*
X109060414Y-82340579D01*
X109220734Y-82500899D01*
X109311990Y-82637474D01*
X109346698Y-82689418D01*
X109366025Y-82736077D01*
X109428388Y-82886635D01*
X109433462Y-82898886D01*
X109476125Y-83113364D01*
X109477694Y-83121255D01*
X109477694Y-83347983D01*
X109433462Y-83570353D01*
X109394078Y-83665434D01*
X109366813Y-83731259D01*
X109346697Y-83779822D01*
X109220734Y-83968339D01*
X109060414Y-84128659D01*
X108871897Y-84254622D01*
X108662428Y-84341387D01*
X108551243Y-84363503D01*
X108440059Y-84385619D01*
X108213329Y-84385619D01*
X108102145Y-84363503D01*
X107990960Y-84341387D01*
X107781491Y-84254622D01*
X107592974Y-84128659D01*
X107432654Y-83968339D01*
X107306691Y-83779822D01*
X107286576Y-83731259D01*
X107259310Y-83665434D01*
X107219926Y-83570353D01*
X107175694Y-83347983D01*
X107175694Y-83121255D01*
X107177264Y-83113364D01*
X107219926Y-82898886D01*
X107225001Y-82886635D01*
X107287363Y-82736077D01*
X107306690Y-82689418D01*
X107341398Y-82637474D01*
X107432654Y-82500899D01*
X107592974Y-82340579D01*
X107781491Y-82214616D01*
X107990960Y-82127851D01*
X108102145Y-82105735D01*
X108213329Y-82083619D01*
X108440059Y-82083619D01*
X108551243Y-82105735D01*
G37*
G36*
X111272868Y-82539857D02*
G01*
X111422168Y-82569554D01*
X111586140Y-82637474D01*
X111733710Y-82736077D01*
X111859209Y-82861576D01*
X111957812Y-83009146D01*
X112025732Y-83173118D01*
X112060356Y-83347189D01*
X112060356Y-83524671D01*
X112025732Y-83698742D01*
X111957812Y-83862714D01*
X111859209Y-84010284D01*
X111733710Y-84135783D01*
X111586140Y-84234386D01*
X111422168Y-84302306D01*
X111272868Y-84332003D01*
X111248098Y-84336930D01*
X111070614Y-84336930D01*
X111045844Y-84332003D01*
X110896544Y-84302306D01*
X110732572Y-84234386D01*
X110585002Y-84135783D01*
X110459503Y-84010284D01*
X110360900Y-83862714D01*
X110292980Y-83698742D01*
X110258356Y-83524671D01*
X110258356Y-83347189D01*
X110292980Y-83173118D01*
X110360900Y-83009146D01*
X110459503Y-82861576D01*
X110585002Y-82736077D01*
X110732572Y-82637474D01*
X110896544Y-82569554D01*
X111045844Y-82539857D01*
X111070614Y-82534930D01*
X111248098Y-82534930D01*
X111272868Y-82539857D01*
G37*
G36*
X64208188Y-82506549D02*
G01*
X64357488Y-82536246D01*
X64521460Y-82604166D01*
X64669030Y-82702769D01*
X64794529Y-82828268D01*
X64893132Y-82975838D01*
X64961052Y-83139810D01*
X64995676Y-83313881D01*
X64995676Y-83491363D01*
X64961052Y-83665434D01*
X64893132Y-83829406D01*
X64794529Y-83976976D01*
X64669030Y-84102475D01*
X64521460Y-84201078D01*
X64357488Y-84268998D01*
X64208188Y-84298695D01*
X64183418Y-84303622D01*
X64005934Y-84303622D01*
X63981164Y-84298695D01*
X63831864Y-84268998D01*
X63667892Y-84201078D01*
X63520322Y-84102475D01*
X63394823Y-83976976D01*
X63296220Y-83829406D01*
X63228300Y-83665434D01*
X63193676Y-83491363D01*
X63193676Y-83313881D01*
X63228300Y-83139810D01*
X63296220Y-82975838D01*
X63394823Y-82828268D01*
X63520322Y-82702769D01*
X63667892Y-82604166D01*
X63831864Y-82536246D01*
X63981164Y-82506549D01*
X64005934Y-82501622D01*
X64183418Y-82501622D01*
X64208188Y-82506549D01*
G37*
G36*
X69984549Y-81871116D02*
G01*
X70095734Y-81893232D01*
X70305203Y-81979997D01*
X70493720Y-82105960D01*
X70654040Y-82266280D01*
X70780003Y-82454797D01*
X70866768Y-82664266D01*
X70871771Y-82689418D01*
X70911000Y-82886635D01*
X70911000Y-83113365D01*
X70899114Y-83173118D01*
X70866768Y-83335734D01*
X70780003Y-83545203D01*
X70654040Y-83733720D01*
X70493720Y-83894040D01*
X70305203Y-84020003D01*
X70305202Y-84020004D01*
X70305201Y-84020004D01*
X70300365Y-84022007D01*
X70095734Y-84106768D01*
X69985680Y-84128659D01*
X69873365Y-84151000D01*
X69646635Y-84151000D01*
X69534320Y-84128659D01*
X69424266Y-84106768D01*
X69219635Y-84022007D01*
X69214799Y-84020004D01*
X69214798Y-84020004D01*
X69214797Y-84020003D01*
X69026280Y-83894040D01*
X68865960Y-83733720D01*
X68739997Y-83545203D01*
X68653232Y-83335734D01*
X68620886Y-83173118D01*
X68609000Y-83113365D01*
X68609000Y-82886635D01*
X68648229Y-82689418D01*
X68653232Y-82664266D01*
X68739997Y-82454797D01*
X68865960Y-82266280D01*
X69026280Y-82105960D01*
X69214797Y-81979997D01*
X69424266Y-81893232D01*
X69535451Y-81871116D01*
X69646635Y-81849000D01*
X69873365Y-81849000D01*
X69984549Y-81871116D01*
G37*
G36*
X109813578Y-76770440D02*
G01*
X110114459Y-76895069D01*
X110186837Y-76925049D01*
X110522760Y-77149506D01*
X110808440Y-77435186D01*
X111010643Y-77737803D01*
X111032898Y-77771111D01*
X111187506Y-78144368D01*
X111266324Y-78540615D01*
X111266324Y-78944629D01*
X111187506Y-79340876D01*
X111046694Y-79680827D01*
X111032897Y-79714135D01*
X110808440Y-80050058D01*
X110522760Y-80335738D01*
X110186837Y-80560195D01*
X110186836Y-80560196D01*
X110186835Y-80560196D01*
X109813578Y-80714804D01*
X109417331Y-80793622D01*
X109013317Y-80793622D01*
X108617070Y-80714804D01*
X108243813Y-80560196D01*
X108243812Y-80560196D01*
X108243811Y-80560195D01*
X107907888Y-80335738D01*
X107622208Y-80050058D01*
X107397751Y-79714135D01*
X107383954Y-79680827D01*
X107243142Y-79340876D01*
X107164324Y-78944629D01*
X107164324Y-78540615D01*
X107243142Y-78144368D01*
X107397750Y-77771111D01*
X107420006Y-77737803D01*
X107622208Y-77435186D01*
X107907888Y-77149506D01*
X108243811Y-76925049D01*
X108316189Y-76895069D01*
X108617070Y-76770440D01*
X109013317Y-76691622D01*
X109417331Y-76691622D01*
X109813578Y-76770440D01*
G37*
G36*
X66636962Y-76737132D02*
G01*
X67010219Y-76891740D01*
X67010221Y-76891741D01*
X67255137Y-77055389D01*
X67346144Y-77116198D01*
X67631824Y-77401878D01*
X67856282Y-77737803D01*
X68010890Y-78111060D01*
X68089708Y-78507307D01*
X68089708Y-78911321D01*
X68010890Y-79307568D01*
X67934910Y-79491000D01*
X67856281Y-79680827D01*
X67631824Y-80016750D01*
X67346144Y-80302430D01*
X67010221Y-80526887D01*
X67010220Y-80526888D01*
X67010219Y-80526888D01*
X66636962Y-80681496D01*
X66240715Y-80760314D01*
X65836701Y-80760314D01*
X65440454Y-80681496D01*
X65067197Y-80526888D01*
X65067196Y-80526888D01*
X65067195Y-80526887D01*
X64731272Y-80302430D01*
X64445592Y-80016750D01*
X64221135Y-79680827D01*
X64142506Y-79491000D01*
X64066526Y-79307568D01*
X63987708Y-78911321D01*
X63987708Y-78507307D01*
X64066526Y-78111060D01*
X64221134Y-77737803D01*
X64445592Y-77401878D01*
X64731272Y-77116198D01*
X64822279Y-77055389D01*
X65067195Y-76891741D01*
X65067197Y-76891740D01*
X65440454Y-76737132D01*
X65836701Y-76658314D01*
X66240715Y-76658314D01*
X66636962Y-76737132D01*
G37*
G36*
X103774549Y-77211116D02*
G01*
X103885734Y-77233232D01*
X104095203Y-77319997D01*
X104283720Y-77445960D01*
X104444040Y-77606280D01*
X104570003Y-77794797D01*
X104656768Y-78004266D01*
X104701000Y-78226636D01*
X104701000Y-78453364D01*
X104656768Y-78675734D01*
X104570003Y-78885203D01*
X104444040Y-79073720D01*
X104283720Y-79234040D01*
X104095203Y-79360003D01*
X103885734Y-79446768D01*
X103774549Y-79468884D01*
X103663365Y-79491000D01*
X103436635Y-79491000D01*
X103325451Y-79468884D01*
X103214266Y-79446768D01*
X103004797Y-79360003D01*
X102816280Y-79234040D01*
X102655960Y-79073720D01*
X102529997Y-78885203D01*
X102443232Y-78675734D01*
X102399000Y-78453364D01*
X102399000Y-78226636D01*
X102443232Y-78004266D01*
X102529997Y-77794797D01*
X102655960Y-77606280D01*
X102816280Y-77445960D01*
X103004797Y-77319997D01*
X103214266Y-77233232D01*
X103325451Y-77211116D01*
X103436635Y-77189000D01*
X103663365Y-77189000D01*
X103774549Y-77211116D01*
G37*
G36*
X70067935Y-75032465D02*
G01*
X70179120Y-75054581D01*
X70388589Y-75141346D01*
X70577106Y-75267309D01*
X70737426Y-75427629D01*
X70863389Y-75616146D01*
X70950154Y-75825615D01*
X70994386Y-76047985D01*
X70994386Y-76274713D01*
X70950154Y-76497083D01*
X70863389Y-76706552D01*
X70737426Y-76895069D01*
X70577106Y-77055389D01*
X70388589Y-77181352D01*
X70179120Y-77268117D01*
X70067935Y-77290233D01*
X69956751Y-77312349D01*
X69730021Y-77312349D01*
X69618837Y-77290233D01*
X69507652Y-77268117D01*
X69298183Y-77181352D01*
X69109666Y-77055389D01*
X68949346Y-76895069D01*
X68823383Y-76706552D01*
X68736618Y-76497083D01*
X68692386Y-76274713D01*
X68692386Y-76047985D01*
X68736618Y-75825615D01*
X68823383Y-75616146D01*
X68949346Y-75427629D01*
X69109666Y-75267309D01*
X69298183Y-75141346D01*
X69507652Y-75054581D01*
X69618837Y-75032465D01*
X69730021Y-75010349D01*
X69956751Y-75010349D01*
X70067935Y-75032465D01*
G37*
G36*
X107384804Y-73153241D02*
G01*
X107534104Y-73182938D01*
X107698076Y-73250858D01*
X107845646Y-73349461D01*
X107971145Y-73474960D01*
X108069748Y-73622530D01*
X108137668Y-73786502D01*
X108172292Y-73960573D01*
X108172292Y-74138055D01*
X108137668Y-74312126D01*
X108069748Y-74476098D01*
X107971145Y-74623668D01*
X107845646Y-74749167D01*
X107698076Y-74847770D01*
X107534104Y-74915690D01*
X107384804Y-74945387D01*
X107360034Y-74950314D01*
X107182550Y-74950314D01*
X107157780Y-74945387D01*
X107008480Y-74915690D01*
X106844508Y-74847770D01*
X106696938Y-74749167D01*
X106571439Y-74623668D01*
X106472836Y-74476098D01*
X106404916Y-74312126D01*
X106370292Y-74138055D01*
X106370292Y-73960573D01*
X106404916Y-73786502D01*
X106472836Y-73622530D01*
X106571439Y-73474960D01*
X106696938Y-73349461D01*
X106844508Y-73250858D01*
X107008480Y-73182938D01*
X107157780Y-73153241D01*
X107182550Y-73148314D01*
X107360034Y-73148314D01*
X107384804Y-73153241D01*
G37*
G36*
X68096252Y-73119933D02*
G01*
X68245552Y-73149630D01*
X68409524Y-73217550D01*
X68557094Y-73316153D01*
X68682593Y-73441652D01*
X68781196Y-73589222D01*
X68849116Y-73753194D01*
X68883740Y-73927265D01*
X68883740Y-74104747D01*
X68849116Y-74278818D01*
X68781196Y-74442790D01*
X68682593Y-74590360D01*
X68557094Y-74715859D01*
X68409524Y-74814462D01*
X68245552Y-74882382D01*
X68096252Y-74912079D01*
X68071482Y-74917006D01*
X67893998Y-74917006D01*
X67869228Y-74912079D01*
X67719928Y-74882382D01*
X67555956Y-74814462D01*
X67408386Y-74715859D01*
X67282887Y-74590360D01*
X67184284Y-74442790D01*
X67116364Y-74278818D01*
X67081740Y-74104747D01*
X67081740Y-73927265D01*
X67116364Y-73753194D01*
X67184284Y-73589222D01*
X67282887Y-73441652D01*
X67408386Y-73316153D01*
X67555956Y-73217550D01*
X67719928Y-73149630D01*
X67869228Y-73119933D01*
X67893998Y-73115006D01*
X68071482Y-73115006D01*
X68096252Y-73119933D01*
G37*
G36*
X89646752Y-70156391D02*
G01*
X89757937Y-70178507D01*
X89967406Y-70265272D01*
X90155923Y-70391235D01*
X90316243Y-70551555D01*
X90442206Y-70740072D01*
X90528971Y-70949541D01*
X90573203Y-71171911D01*
X90573203Y-71398639D01*
X90528971Y-71621009D01*
X90442206Y-71830478D01*
X90316243Y-72018995D01*
X90155923Y-72179315D01*
X89967406Y-72305278D01*
X89757937Y-72392043D01*
X89646752Y-72414159D01*
X89535568Y-72436275D01*
X89308838Y-72436275D01*
X89197654Y-72414159D01*
X89086469Y-72392043D01*
X88877000Y-72305278D01*
X88688483Y-72179315D01*
X88528163Y-72018995D01*
X88402200Y-71830478D01*
X88315435Y-71621009D01*
X88271203Y-71398639D01*
X88271203Y-71171911D01*
X88315435Y-70949541D01*
X88402200Y-70740072D01*
X88528163Y-70551555D01*
X88688483Y-70391235D01*
X88877000Y-70265272D01*
X89086469Y-70178507D01*
X89197654Y-70156391D01*
X89308838Y-70134275D01*
X89535568Y-70134275D01*
X89646752Y-70156391D01*
G37*
G36*
X130091018Y-70215196D02*
G01*
X130245890Y-70279346D01*
X130385271Y-70372478D01*
X130503805Y-70491012D01*
X130596937Y-70630393D01*
X130661087Y-70785265D01*
X130693790Y-70949677D01*
X130693790Y-71117309D01*
X130661087Y-71281721D01*
X130596937Y-71436593D01*
X130503805Y-71575974D01*
X130385271Y-71694508D01*
X130245890Y-71787640D01*
X130091018Y-71851790D01*
X129926606Y-71884493D01*
X129758974Y-71884493D01*
X129594562Y-71851790D01*
X129439690Y-71787640D01*
X129300309Y-71694508D01*
X129181775Y-71575974D01*
X129088643Y-71436593D01*
X129024493Y-71281721D01*
X128991790Y-71117309D01*
X128991790Y-70949677D01*
X129024493Y-70785265D01*
X129088643Y-70630393D01*
X129181775Y-70491012D01*
X129300309Y-70372478D01*
X129439690Y-70279346D01*
X129594562Y-70215196D01*
X129758974Y-70182493D01*
X129926606Y-70182493D01*
X130091018Y-70215196D01*
G37*
G36*
X127788997Y-69141745D02*
G01*
X127943869Y-69205895D01*
X128083250Y-69299027D01*
X128201784Y-69417561D01*
X128294916Y-69556942D01*
X128359066Y-69711814D01*
X128391769Y-69876226D01*
X128391769Y-70043858D01*
X128359066Y-70208270D01*
X128294916Y-70363142D01*
X128201784Y-70502523D01*
X128083250Y-70621057D01*
X127943869Y-70714189D01*
X127788997Y-70778339D01*
X127624585Y-70811042D01*
X127456953Y-70811042D01*
X127292541Y-70778339D01*
X127137669Y-70714189D01*
X126998288Y-70621057D01*
X126879754Y-70502523D01*
X126786622Y-70363142D01*
X126722472Y-70208270D01*
X126689769Y-70043858D01*
X126689769Y-69876226D01*
X126722472Y-69711814D01*
X126786622Y-69556942D01*
X126879754Y-69417561D01*
X126998288Y-69299027D01*
X127137669Y-69205895D01*
X127292541Y-69141745D01*
X127456953Y-69109042D01*
X127624585Y-69109042D01*
X127788997Y-69141745D01*
G37*
G36*
X84122661Y-68638363D02*
G01*
X84281393Y-68669936D01*
X84445365Y-68737856D01*
X84592935Y-68836459D01*
X84718434Y-68961958D01*
X84817037Y-69109528D01*
X84884957Y-69273500D01*
X84919581Y-69447571D01*
X84919581Y-69625053D01*
X84884957Y-69799124D01*
X84817037Y-69963096D01*
X84718434Y-70110666D01*
X84592935Y-70236165D01*
X84445365Y-70334768D01*
X84281393Y-70402688D01*
X84132093Y-70432385D01*
X84107323Y-70437312D01*
X83929839Y-70437312D01*
X83905069Y-70432385D01*
X83755769Y-70402688D01*
X83591797Y-70334768D01*
X83444227Y-70236165D01*
X83318728Y-70110666D01*
X83220125Y-69963096D01*
X83152205Y-69799124D01*
X83117581Y-69625053D01*
X83117581Y-69447571D01*
X83152205Y-69273500D01*
X83220125Y-69109528D01*
X83318728Y-68961958D01*
X83444227Y-68836459D01*
X83591797Y-68737856D01*
X83755769Y-68669936D01*
X83914501Y-68638363D01*
X83929839Y-68635312D01*
X84107323Y-68635312D01*
X84122661Y-68638363D01*
G37*
G36*
X125486975Y-68068295D02*
G01*
X125641847Y-68132445D01*
X125781228Y-68225577D01*
X125899762Y-68344111D01*
X125992894Y-68483492D01*
X126057044Y-68638364D01*
X126089747Y-68802776D01*
X126089747Y-68970408D01*
X126057044Y-69134820D01*
X125992894Y-69289692D01*
X125899762Y-69429073D01*
X125781228Y-69547607D01*
X125641847Y-69640739D01*
X125486975Y-69704889D01*
X125322563Y-69737592D01*
X125154931Y-69737592D01*
X124990519Y-69704889D01*
X124835647Y-69640739D01*
X124696266Y-69547607D01*
X124577732Y-69429073D01*
X124484600Y-69289692D01*
X124420450Y-69134820D01*
X124387747Y-68970408D01*
X124387747Y-68802776D01*
X124420450Y-68638364D01*
X124484600Y-68483492D01*
X124577732Y-68344111D01*
X124696266Y-68225577D01*
X124835647Y-68132445D01*
X124990519Y-68068295D01*
X125154931Y-68035592D01*
X125322563Y-68035592D01*
X125486975Y-68068295D01*
G37*
G36*
X131164469Y-67913174D02*
G01*
X131319341Y-67977324D01*
X131458722Y-68070456D01*
X131577256Y-68188990D01*
X131670388Y-68328371D01*
X131734538Y-68483243D01*
X131767241Y-68647655D01*
X131767241Y-68815287D01*
X131734538Y-68979699D01*
X131670388Y-69134571D01*
X131577256Y-69273952D01*
X131458722Y-69392486D01*
X131319341Y-69485618D01*
X131164469Y-69549768D01*
X131000057Y-69582471D01*
X130832425Y-69582471D01*
X130668013Y-69549768D01*
X130513141Y-69485618D01*
X130373760Y-69392486D01*
X130255226Y-69273952D01*
X130162094Y-69134571D01*
X130097944Y-68979699D01*
X130065241Y-68815287D01*
X130065241Y-68647655D01*
X130097944Y-68483243D01*
X130162094Y-68328371D01*
X130255226Y-68188990D01*
X130373760Y-68070456D01*
X130513141Y-67977324D01*
X130668013Y-67913174D01*
X130832425Y-67880471D01*
X131000057Y-67880471D01*
X131164469Y-67913174D01*
G37*
G36*
X123184953Y-66994845D02*
G01*
X123339825Y-67058995D01*
X123479206Y-67152127D01*
X123597740Y-67270661D01*
X123690872Y-67410042D01*
X123755022Y-67564914D01*
X123787725Y-67729326D01*
X123787725Y-67896958D01*
X123755022Y-68061370D01*
X123690872Y-68216242D01*
X123597740Y-68355623D01*
X123479206Y-68474157D01*
X123339825Y-68567289D01*
X123184953Y-68631439D01*
X123020541Y-68664142D01*
X122852909Y-68664142D01*
X122688497Y-68631439D01*
X122533625Y-68567289D01*
X122394244Y-68474157D01*
X122275710Y-68355623D01*
X122182578Y-68216242D01*
X122118428Y-68061370D01*
X122085725Y-67896958D01*
X122085725Y-67729326D01*
X122118428Y-67564914D01*
X122182578Y-67410042D01*
X122275710Y-67270661D01*
X122394244Y-67152127D01*
X122533625Y-67058995D01*
X122688497Y-66994845D01*
X122852909Y-66962142D01*
X123020541Y-66962142D01*
X123184953Y-66994845D01*
G37*
G36*
X88177454Y-63940818D02*
G01*
X88550711Y-64095426D01*
X88550713Y-64095427D01*
X88886636Y-64319884D01*
X89172316Y-64605564D01*
X89377133Y-64912093D01*
X89396774Y-64941489D01*
X89551382Y-65314746D01*
X89630200Y-65710993D01*
X89630200Y-66115007D01*
X89551382Y-66511254D01*
X89396774Y-66884511D01*
X89396773Y-66884513D01*
X89172316Y-67220436D01*
X88886636Y-67506116D01*
X88550713Y-67730573D01*
X88550712Y-67730574D01*
X88550711Y-67730574D01*
X88177454Y-67885182D01*
X87781207Y-67964000D01*
X87377193Y-67964000D01*
X86980946Y-67885182D01*
X86607689Y-67730574D01*
X86607688Y-67730574D01*
X86607687Y-67730573D01*
X86271764Y-67506116D01*
X85986084Y-67220436D01*
X85761627Y-66884513D01*
X85761626Y-66884511D01*
X85607018Y-66511254D01*
X85528200Y-66115007D01*
X85528200Y-65710993D01*
X85607018Y-65314746D01*
X85761626Y-64941489D01*
X85781268Y-64912093D01*
X85986084Y-64605564D01*
X86271764Y-64319884D01*
X86607687Y-64095427D01*
X86607689Y-64095426D01*
X86980946Y-63940818D01*
X87377193Y-63862000D01*
X87781207Y-63862000D01*
X88177454Y-63940818D01*
G37*
G36*
X120882931Y-65921394D02*
G01*
X121037803Y-65985544D01*
X121177184Y-66078676D01*
X121295718Y-66197210D01*
X121388850Y-66336591D01*
X121453000Y-66491463D01*
X121485703Y-66655875D01*
X121485703Y-66823507D01*
X121453000Y-66987919D01*
X121388850Y-67142791D01*
X121295718Y-67282172D01*
X121177184Y-67400706D01*
X121037803Y-67493838D01*
X120882931Y-67557988D01*
X120718519Y-67590691D01*
X120550887Y-67590691D01*
X120386475Y-67557988D01*
X120231603Y-67493838D01*
X120092222Y-67400706D01*
X119973688Y-67282172D01*
X119880556Y-67142791D01*
X119816406Y-66987919D01*
X119783703Y-66823507D01*
X119783703Y-66655875D01*
X119816406Y-66491463D01*
X119880556Y-66336591D01*
X119973688Y-66197210D01*
X120092222Y-66078676D01*
X120231603Y-65985544D01*
X120386475Y-65921394D01*
X120550887Y-65888691D01*
X120718519Y-65888691D01*
X120882931Y-65921394D01*
G37*
G36*
X132237919Y-65611152D02*
G01*
X132392791Y-65675302D01*
X132532172Y-65768434D01*
X132650706Y-65886968D01*
X132743838Y-66026349D01*
X132807988Y-66181221D01*
X132840691Y-66345633D01*
X132840691Y-66513265D01*
X132807988Y-66677677D01*
X132743838Y-66832549D01*
X132650706Y-66971930D01*
X132532172Y-67090464D01*
X132392791Y-67183596D01*
X132237919Y-67247746D01*
X132073507Y-67280449D01*
X131905875Y-67280449D01*
X131741463Y-67247746D01*
X131586591Y-67183596D01*
X131447210Y-67090464D01*
X131328676Y-66971930D01*
X131235544Y-66832549D01*
X131171394Y-66677677D01*
X131138691Y-66513265D01*
X131138691Y-66345633D01*
X131171394Y-66181221D01*
X131235544Y-66026349D01*
X131328676Y-65886968D01*
X131447210Y-65768434D01*
X131586591Y-65675302D01*
X131741463Y-65611152D01*
X131905875Y-65578449D01*
X132073507Y-65578449D01*
X132237919Y-65611152D01*
G37*
G36*
X54723512Y-65143927D02*
G01*
X54872812Y-65173624D01*
X55036784Y-65241544D01*
X55184354Y-65340147D01*
X55309853Y-65465646D01*
X55408456Y-65613216D01*
X55476376Y-65777188D01*
X55511000Y-65951259D01*
X55511000Y-66128741D01*
X55476376Y-66302812D01*
X55408456Y-66466784D01*
X55309853Y-66614354D01*
X55184354Y-66739853D01*
X55036784Y-66838456D01*
X54872812Y-66906376D01*
X54723512Y-66936073D01*
X54698742Y-66941000D01*
X54521258Y-66941000D01*
X54496488Y-66936073D01*
X54347188Y-66906376D01*
X54183216Y-66838456D01*
X54035646Y-66739853D01*
X53910147Y-66614354D01*
X53811544Y-66466784D01*
X53743624Y-66302812D01*
X53709000Y-66128741D01*
X53709000Y-65951259D01*
X53743624Y-65777188D01*
X53811544Y-65613216D01*
X53910147Y-65465646D01*
X54035646Y-65340147D01*
X54183216Y-65241544D01*
X54347188Y-65173624D01*
X54496488Y-65143927D01*
X54521258Y-65139000D01*
X54698742Y-65139000D01*
X54723512Y-65143927D01*
G37*
G36*
X118580910Y-64847944D02*
G01*
X118735782Y-64912094D01*
X118875163Y-65005226D01*
X118993697Y-65123760D01*
X119086829Y-65263141D01*
X119150979Y-65418013D01*
X119183682Y-65582425D01*
X119183682Y-65750057D01*
X119150979Y-65914469D01*
X119086829Y-66069341D01*
X118993697Y-66208722D01*
X118875163Y-66327256D01*
X118735782Y-66420388D01*
X118580910Y-66484538D01*
X118416498Y-66517241D01*
X118248866Y-66517241D01*
X118084454Y-66484538D01*
X117929582Y-66420388D01*
X117790201Y-66327256D01*
X117671667Y-66208722D01*
X117578535Y-66069341D01*
X117514385Y-65914469D01*
X117481682Y-65750057D01*
X117481682Y-65582425D01*
X117514385Y-65418013D01*
X117578535Y-65263141D01*
X117671667Y-65123760D01*
X117790201Y-65005226D01*
X117929582Y-64912094D01*
X118084454Y-64847944D01*
X118248866Y-64815241D01*
X118416498Y-64815241D01*
X118580910Y-64847944D01*
G37*
G36*
X92244153Y-63838643D02*
G01*
X92397055Y-63869057D01*
X92606524Y-63955822D01*
X92795041Y-64081785D01*
X92955361Y-64242105D01*
X93061531Y-64401000D01*
X93081325Y-64430624D01*
X93168089Y-64640092D01*
X93212321Y-64862460D01*
X93212321Y-65089190D01*
X93205444Y-65123761D01*
X93168089Y-65311559D01*
X93081324Y-65521028D01*
X92955361Y-65709545D01*
X92795041Y-65869865D01*
X92606524Y-65995828D01*
X92397055Y-66082593D01*
X92285870Y-66104709D01*
X92174686Y-66126825D01*
X91947956Y-66126825D01*
X91836772Y-66104709D01*
X91725587Y-66082593D01*
X91516118Y-65995828D01*
X91327601Y-65869865D01*
X91167281Y-65709545D01*
X91041318Y-65521028D01*
X90954553Y-65311559D01*
X90917198Y-65123761D01*
X90910321Y-65089190D01*
X90910321Y-64862460D01*
X90954553Y-64640092D01*
X91041317Y-64430624D01*
X91061111Y-64401000D01*
X91167281Y-64242105D01*
X91327601Y-64081785D01*
X91516118Y-63955822D01*
X91725587Y-63869057D01*
X91878489Y-63838643D01*
X91947956Y-63824825D01*
X92174686Y-63824825D01*
X92244153Y-63838643D01*
G37*
G36*
X116278888Y-63774494D02*
G01*
X116433760Y-63838644D01*
X116573141Y-63931776D01*
X116691675Y-64050310D01*
X116784807Y-64189691D01*
X116848957Y-64344563D01*
X116881660Y-64508975D01*
X116881660Y-64676607D01*
X116848957Y-64841019D01*
X116784807Y-64995891D01*
X116691675Y-65135272D01*
X116573141Y-65253806D01*
X116433760Y-65346938D01*
X116278888Y-65411088D01*
X116114476Y-65443791D01*
X115946844Y-65443791D01*
X115782432Y-65411088D01*
X115627560Y-65346938D01*
X115488179Y-65253806D01*
X115369645Y-65135272D01*
X115276513Y-64995891D01*
X115212363Y-64841019D01*
X115179660Y-64676607D01*
X115179660Y-64508975D01*
X115212363Y-64344563D01*
X115276513Y-64189691D01*
X115369645Y-64050310D01*
X115488179Y-63931776D01*
X115627560Y-63838644D01*
X115782432Y-63774494D01*
X115946844Y-63741791D01*
X116114476Y-63741791D01*
X116278888Y-63774494D01*
G37*
G36*
X133311370Y-63309131D02*
G01*
X133466242Y-63373281D01*
X133605623Y-63466413D01*
X133724157Y-63584947D01*
X133817289Y-63724328D01*
X133881439Y-63879200D01*
X133914142Y-64043612D01*
X133914142Y-64211244D01*
X133881439Y-64375656D01*
X133817289Y-64530528D01*
X133724157Y-64669909D01*
X133605623Y-64788443D01*
X133466242Y-64881575D01*
X133311370Y-64945725D01*
X133146958Y-64978428D01*
X132979326Y-64978428D01*
X132814914Y-64945725D01*
X132660042Y-64881575D01*
X132520661Y-64788443D01*
X132402127Y-64669909D01*
X132308995Y-64530528D01*
X132244845Y-64375656D01*
X132212142Y-64211244D01*
X132212142Y-64043612D01*
X132244845Y-63879200D01*
X132308995Y-63724328D01*
X132402127Y-63584947D01*
X132520661Y-63466413D01*
X132660042Y-63373281D01*
X132814914Y-63309131D01*
X132979326Y-63276428D01*
X133146958Y-63276428D01*
X133311370Y-63309131D01*
G37*
G36*
X54723512Y-62603927D02*
G01*
X54872812Y-62633624D01*
X55036784Y-62701544D01*
X55184354Y-62800147D01*
X55309853Y-62925646D01*
X55408456Y-63073216D01*
X55476376Y-63237188D01*
X55511000Y-63411259D01*
X55511000Y-63588741D01*
X55476376Y-63762812D01*
X55408456Y-63926784D01*
X55309853Y-64074354D01*
X55184354Y-64199853D01*
X55036784Y-64298456D01*
X54872812Y-64366376D01*
X54723512Y-64396073D01*
X54698742Y-64401000D01*
X54521258Y-64401000D01*
X54496488Y-64396073D01*
X54347188Y-64366376D01*
X54183216Y-64298456D01*
X54035646Y-64199853D01*
X53910147Y-64074354D01*
X53811544Y-63926784D01*
X53743624Y-63762812D01*
X53709000Y-63588741D01*
X53709000Y-63411259D01*
X53743624Y-63237188D01*
X53811544Y-63073216D01*
X53910147Y-62925646D01*
X54035646Y-62800147D01*
X54183216Y-62701544D01*
X54347188Y-62633624D01*
X54496488Y-62603927D01*
X54521258Y-62599000D01*
X54698742Y-62599000D01*
X54723512Y-62603927D01*
G37*
G36*
X113976866Y-62701043D02*
G01*
X114131738Y-62765193D01*
X114271119Y-62858325D01*
X114389653Y-62976859D01*
X114482785Y-63116240D01*
X114546935Y-63271112D01*
X114579638Y-63435524D01*
X114579638Y-63603156D01*
X114546935Y-63767568D01*
X114482785Y-63922440D01*
X114389653Y-64061821D01*
X114271119Y-64180355D01*
X114131738Y-64273487D01*
X113976866Y-64337637D01*
X113812454Y-64370340D01*
X113644822Y-64370340D01*
X113480410Y-64337637D01*
X113325538Y-64273487D01*
X113186157Y-64180355D01*
X113067623Y-64061821D01*
X112974491Y-63922440D01*
X112910341Y-63767568D01*
X112877638Y-63603156D01*
X112877638Y-63435524D01*
X112910341Y-63271112D01*
X112974491Y-63116240D01*
X113067623Y-62976859D01*
X113186157Y-62858325D01*
X113325538Y-62765193D01*
X113480410Y-62701043D01*
X113644822Y-62668340D01*
X113812454Y-62668340D01*
X113976866Y-62701043D01*
G37*
G36*
X61976600Y-63733200D02*
G01*
X60324600Y-63733200D01*
X60324600Y-62331200D01*
X61976600Y-62331200D01*
X61976600Y-63733200D01*
G37*
G36*
X69926600Y-63733200D02*
G01*
X68274600Y-63733200D01*
X68274600Y-62331200D01*
X69926600Y-62331200D01*
X69926600Y-63733200D01*
G37*
G36*
X111674844Y-61627593D02*
G01*
X111829716Y-61691743D01*
X111969097Y-61784875D01*
X112087631Y-61903409D01*
X112180763Y-62042790D01*
X112244913Y-62197662D01*
X112277616Y-62362074D01*
X112277616Y-62529706D01*
X112244913Y-62694118D01*
X112180763Y-62848990D01*
X112087631Y-62988371D01*
X111969097Y-63106905D01*
X111829716Y-63200037D01*
X111674844Y-63264187D01*
X111510432Y-63296890D01*
X111342800Y-63296890D01*
X111178388Y-63264187D01*
X111023516Y-63200037D01*
X110884135Y-63106905D01*
X110765601Y-62988371D01*
X110672469Y-62848990D01*
X110608319Y-62694118D01*
X110575616Y-62529706D01*
X110575616Y-62362074D01*
X110608319Y-62197662D01*
X110672469Y-62042790D01*
X110765601Y-61903409D01*
X110884135Y-61784875D01*
X111023516Y-61691743D01*
X111178388Y-61627593D01*
X111342800Y-61594890D01*
X111510432Y-61594890D01*
X111674844Y-61627593D01*
G37*
G36*
X91253331Y-61393615D02*
G01*
X91402631Y-61423312D01*
X91566603Y-61491232D01*
X91714173Y-61589835D01*
X91839672Y-61715334D01*
X91938275Y-61862904D01*
X92006195Y-62026876D01*
X92026028Y-62126586D01*
X92040166Y-62197661D01*
X92040819Y-62200947D01*
X92040819Y-62378429D01*
X92006195Y-62552500D01*
X91938275Y-62716472D01*
X91839672Y-62864042D01*
X91714173Y-62989541D01*
X91566603Y-63088144D01*
X91402631Y-63156064D01*
X91253331Y-63185761D01*
X91228561Y-63190688D01*
X91051077Y-63190688D01*
X91026307Y-63185761D01*
X90877007Y-63156064D01*
X90713035Y-63088144D01*
X90565465Y-62989541D01*
X90439966Y-62864042D01*
X90341363Y-62716472D01*
X90273443Y-62552500D01*
X90238819Y-62378429D01*
X90238819Y-62200947D01*
X90239473Y-62197661D01*
X90253610Y-62126586D01*
X90273443Y-62026876D01*
X90341363Y-61862904D01*
X90439966Y-61715334D01*
X90565465Y-61589835D01*
X90713035Y-61491232D01*
X90877007Y-61423312D01*
X91026307Y-61393615D01*
X91051077Y-61388688D01*
X91228561Y-61388688D01*
X91253331Y-61393615D01*
G37*
G36*
X134384820Y-61007109D02*
G01*
X134539692Y-61071259D01*
X134679073Y-61164391D01*
X134797607Y-61282925D01*
X134890739Y-61422306D01*
X134954889Y-61577178D01*
X134987592Y-61741590D01*
X134987592Y-61909222D01*
X134954889Y-62073634D01*
X134890739Y-62228506D01*
X134797607Y-62367887D01*
X134679073Y-62486421D01*
X134539692Y-62579553D01*
X134384820Y-62643703D01*
X134220408Y-62676406D01*
X134052776Y-62676406D01*
X133888364Y-62643703D01*
X133733492Y-62579553D01*
X133594111Y-62486421D01*
X133475577Y-62367887D01*
X133382445Y-62228506D01*
X133318295Y-62073634D01*
X133285592Y-61909222D01*
X133285592Y-61741590D01*
X133318295Y-61577178D01*
X133382445Y-61422306D01*
X133475577Y-61282925D01*
X133594111Y-61164391D01*
X133733492Y-61071259D01*
X133888364Y-61007109D01*
X134052776Y-60974406D01*
X134220408Y-60974406D01*
X134384820Y-61007109D01*
G37*
G36*
X109372822Y-60554142D02*
G01*
X109527694Y-60618292D01*
X109667075Y-60711424D01*
X109785609Y-60829958D01*
X109878741Y-60969339D01*
X109942891Y-61124211D01*
X109975594Y-61288623D01*
X109975594Y-61456255D01*
X109942891Y-61620667D01*
X109878741Y-61775539D01*
X109785609Y-61914920D01*
X109667075Y-62033454D01*
X109527694Y-62126586D01*
X109372822Y-62190736D01*
X109208410Y-62223439D01*
X109040778Y-62223439D01*
X108876366Y-62190736D01*
X108721494Y-62126586D01*
X108582113Y-62033454D01*
X108463579Y-61914920D01*
X108370447Y-61775539D01*
X108306297Y-61620667D01*
X108273594Y-61456255D01*
X108273594Y-61288623D01*
X108306297Y-61124211D01*
X108370447Y-60969339D01*
X108463579Y-60829958D01*
X108582113Y-60711424D01*
X108721494Y-60618292D01*
X108876366Y-60554142D01*
X109040778Y-60521439D01*
X109208410Y-60521439D01*
X109372822Y-60554142D01*
G37*
G36*
X54723512Y-60063927D02*
G01*
X54872812Y-60093624D01*
X55036784Y-60161544D01*
X55184354Y-60260147D01*
X55309853Y-60385646D01*
X55408456Y-60533216D01*
X55476376Y-60697188D01*
X55511000Y-60871259D01*
X55511000Y-61048741D01*
X55476376Y-61222812D01*
X55408456Y-61386784D01*
X55309853Y-61534354D01*
X55184354Y-61659853D01*
X55036784Y-61758456D01*
X54872812Y-61826376D01*
X54723512Y-61856073D01*
X54698742Y-61861000D01*
X54521258Y-61861000D01*
X54496488Y-61856073D01*
X54347188Y-61826376D01*
X54183216Y-61758456D01*
X54035646Y-61659853D01*
X53910147Y-61534354D01*
X53811544Y-61386784D01*
X53743624Y-61222812D01*
X53709000Y-61048741D01*
X53709000Y-60871259D01*
X53743624Y-60697188D01*
X53811544Y-60533216D01*
X53910147Y-60385646D01*
X54035646Y-60260147D01*
X54183216Y-60161544D01*
X54347188Y-60093624D01*
X54496488Y-60063927D01*
X54521258Y-60059000D01*
X54698742Y-60059000D01*
X54723512Y-60063927D01*
G37*
G36*
X107070801Y-59480692D02*
G01*
X107225673Y-59544842D01*
X107365054Y-59637974D01*
X107483588Y-59756508D01*
X107576720Y-59895889D01*
X107640870Y-60050761D01*
X107673573Y-60215173D01*
X107673573Y-60382805D01*
X107640870Y-60547217D01*
X107576720Y-60702089D01*
X107483588Y-60841470D01*
X107365054Y-60960004D01*
X107225673Y-61053136D01*
X107070801Y-61117286D01*
X106906389Y-61149989D01*
X106738757Y-61149989D01*
X106574345Y-61117286D01*
X106419473Y-61053136D01*
X106280092Y-60960004D01*
X106161558Y-60841470D01*
X106068426Y-60702089D01*
X106004276Y-60547217D01*
X105971573Y-60382805D01*
X105971573Y-60215173D01*
X106004276Y-60050761D01*
X106068426Y-59895889D01*
X106161558Y-59756508D01*
X106280092Y-59637974D01*
X106419473Y-59544842D01*
X106574345Y-59480692D01*
X106738757Y-59447989D01*
X106906389Y-59447989D01*
X107070801Y-59480692D01*
G37*
G36*
X74123674Y-59121265D02*
G01*
X74161367Y-59132699D01*
X74196103Y-59151266D01*
X74226548Y-59176252D01*
X74251534Y-59206697D01*
X74270101Y-59241433D01*
X74281535Y-59279126D01*
X74286000Y-59324461D01*
X74286000Y-60411139D01*
X74281535Y-60456474D01*
X74270101Y-60494167D01*
X74251534Y-60528903D01*
X74226548Y-60559348D01*
X74196103Y-60584334D01*
X74161367Y-60602901D01*
X74123674Y-60614335D01*
X74078339Y-60618800D01*
X73241661Y-60618800D01*
X73196326Y-60614335D01*
X73158633Y-60602901D01*
X73123897Y-60584334D01*
X73093452Y-60559348D01*
X73068466Y-60528903D01*
X73049899Y-60494167D01*
X73038465Y-60456474D01*
X73034000Y-60411139D01*
X73034000Y-59324461D01*
X73038465Y-59279126D01*
X73049899Y-59241433D01*
X73068466Y-59206697D01*
X73093452Y-59176252D01*
X73123897Y-59151266D01*
X73158633Y-59132699D01*
X73196326Y-59121265D01*
X73241661Y-59116800D01*
X74078339Y-59116800D01*
X74123674Y-59121265D01*
G37*
G36*
X76173674Y-59121265D02*
G01*
X76211367Y-59132699D01*
X76246103Y-59151266D01*
X76276548Y-59176252D01*
X76301534Y-59206697D01*
X76320101Y-59241433D01*
X76331535Y-59279126D01*
X76336000Y-59324461D01*
X76336000Y-60411139D01*
X76331535Y-60456474D01*
X76320101Y-60494167D01*
X76301534Y-60528903D01*
X76276548Y-60559348D01*
X76246103Y-60584334D01*
X76211367Y-60602901D01*
X76173674Y-60614335D01*
X76128339Y-60618800D01*
X75291661Y-60618800D01*
X75246326Y-60614335D01*
X75208633Y-60602901D01*
X75173897Y-60584334D01*
X75143452Y-60559348D01*
X75118466Y-60528903D01*
X75099899Y-60494167D01*
X75088465Y-60456474D01*
X75084000Y-60411139D01*
X75084000Y-59324461D01*
X75088465Y-59279126D01*
X75099899Y-59241433D01*
X75118466Y-59206697D01*
X75143452Y-59176252D01*
X75173897Y-59151266D01*
X75208633Y-59132699D01*
X75246326Y-59121265D01*
X75291661Y-59116800D01*
X76128339Y-59116800D01*
X76173674Y-59121265D01*
G37*
G36*
X135458270Y-58705087D02*
G01*
X135613142Y-58769237D01*
X135752523Y-58862369D01*
X135871057Y-58980903D01*
X135964189Y-59120284D01*
X136028339Y-59275156D01*
X136061042Y-59439568D01*
X136061042Y-59607200D01*
X136028339Y-59771612D01*
X135964189Y-59926484D01*
X135871057Y-60065865D01*
X135752523Y-60184399D01*
X135613142Y-60277531D01*
X135458270Y-60341681D01*
X135293858Y-60374384D01*
X135126226Y-60374384D01*
X134961814Y-60341681D01*
X134806942Y-60277531D01*
X134667561Y-60184399D01*
X134549027Y-60065865D01*
X134455895Y-59926484D01*
X134391745Y-59771612D01*
X134359042Y-59607200D01*
X134359042Y-59439568D01*
X134391745Y-59275156D01*
X134455895Y-59120284D01*
X134549027Y-58980903D01*
X134667561Y-58862369D01*
X134806942Y-58769237D01*
X134961814Y-58705087D01*
X135126226Y-58672384D01*
X135293858Y-58672384D01*
X135458270Y-58705087D01*
G37*
G36*
X104768779Y-58407242D02*
G01*
X104923651Y-58471392D01*
X105063032Y-58564524D01*
X105181566Y-58683058D01*
X105274698Y-58822439D01*
X105338848Y-58977311D01*
X105371551Y-59141723D01*
X105371551Y-59309355D01*
X105338848Y-59473767D01*
X105274698Y-59628639D01*
X105181566Y-59768020D01*
X105063032Y-59886554D01*
X104923651Y-59979686D01*
X104768779Y-60043836D01*
X104604367Y-60076539D01*
X104436735Y-60076539D01*
X104272323Y-60043836D01*
X104117451Y-59979686D01*
X103978070Y-59886554D01*
X103859536Y-59768020D01*
X103766404Y-59628639D01*
X103702254Y-59473767D01*
X103669551Y-59309355D01*
X103669551Y-59141723D01*
X103702254Y-58977311D01*
X103766404Y-58822439D01*
X103859536Y-58683058D01*
X103978070Y-58564524D01*
X104117451Y-58471392D01*
X104272323Y-58407242D01*
X104436735Y-58374539D01*
X104604367Y-58374539D01*
X104768779Y-58407242D01*
G37*
G36*
X54723512Y-57523927D02*
G01*
X54872812Y-57553624D01*
X55036784Y-57621544D01*
X55184354Y-57720147D01*
X55309853Y-57845646D01*
X55408456Y-57993216D01*
X55476376Y-58157188D01*
X55511000Y-58331259D01*
X55511000Y-58508741D01*
X55476376Y-58682812D01*
X55408456Y-58846784D01*
X55309853Y-58994354D01*
X55184354Y-59119853D01*
X55036784Y-59218456D01*
X54872812Y-59286376D01*
X54723512Y-59316073D01*
X54698742Y-59321000D01*
X54521258Y-59321000D01*
X54496488Y-59316073D01*
X54347188Y-59286376D01*
X54183216Y-59218456D01*
X54035646Y-59119853D01*
X53910147Y-58994354D01*
X53811544Y-58846784D01*
X53743624Y-58682812D01*
X53709000Y-58508741D01*
X53709000Y-58331259D01*
X53743624Y-58157188D01*
X53811544Y-57993216D01*
X53910147Y-57845646D01*
X54035646Y-57720147D01*
X54183216Y-57621544D01*
X54347188Y-57553624D01*
X54496488Y-57523927D01*
X54521258Y-57519000D01*
X54698742Y-57519000D01*
X54723512Y-57523927D01*
G37*
G36*
X69926600Y-59233200D02*
G01*
X68274600Y-59233200D01*
X68274600Y-57831200D01*
X69926600Y-57831200D01*
X69926600Y-59233200D01*
G37*
G36*
X61976600Y-59233200D02*
G01*
X60324600Y-59233200D01*
X60324600Y-57831200D01*
X61976600Y-57831200D01*
X61976600Y-59233200D01*
G37*
G36*
X102466757Y-57333791D02*
G01*
X102621629Y-57397941D01*
X102761010Y-57491073D01*
X102879544Y-57609607D01*
X102972676Y-57748988D01*
X103036826Y-57903860D01*
X103069529Y-58068272D01*
X103069529Y-58235904D01*
X103036826Y-58400316D01*
X102972676Y-58555188D01*
X102879544Y-58694569D01*
X102761010Y-58813103D01*
X102621629Y-58906235D01*
X102466757Y-58970385D01*
X102302345Y-59003088D01*
X102134713Y-59003088D01*
X101970301Y-58970385D01*
X101815429Y-58906235D01*
X101676048Y-58813103D01*
X101557514Y-58694569D01*
X101464382Y-58555188D01*
X101400232Y-58400316D01*
X101367529Y-58235904D01*
X101367529Y-58068272D01*
X101400232Y-57903860D01*
X101464382Y-57748988D01*
X101557514Y-57609607D01*
X101676048Y-57491073D01*
X101815429Y-57397941D01*
X101970301Y-57333791D01*
X102134713Y-57301088D01*
X102302345Y-57301088D01*
X102466757Y-57333791D01*
G37*
G36*
X101047423Y-56667018D02*
G01*
X100328127Y-58209554D01*
X98785591Y-57490258D01*
X99504887Y-55947722D01*
X101047423Y-56667018D01*
G37*
G36*
X136531721Y-56403065D02*
G01*
X136686593Y-56467215D01*
X136825974Y-56560347D01*
X136944508Y-56678881D01*
X137037640Y-56818262D01*
X137101790Y-56973134D01*
X137134493Y-57137546D01*
X137134493Y-57305178D01*
X137101790Y-57469590D01*
X137037640Y-57624462D01*
X136944508Y-57763843D01*
X136825974Y-57882377D01*
X136686593Y-57975509D01*
X136531721Y-58039659D01*
X136367309Y-58072362D01*
X136199677Y-58072362D01*
X136035265Y-58039659D01*
X135880393Y-57975509D01*
X135741012Y-57882377D01*
X135622478Y-57763843D01*
X135529346Y-57624462D01*
X135465196Y-57469590D01*
X135432493Y-57305178D01*
X135432493Y-57137546D01*
X135465196Y-56973134D01*
X135529346Y-56818262D01*
X135622478Y-56678881D01*
X135741012Y-56560347D01*
X135880393Y-56467215D01*
X136035265Y-56403065D01*
X136199677Y-56370362D01*
X136367309Y-56370362D01*
X136531721Y-56403065D01*
G37*
G36*
X76148274Y-55743065D02*
G01*
X76185967Y-55754499D01*
X76220703Y-55773066D01*
X76251148Y-55798052D01*
X76276134Y-55828497D01*
X76294701Y-55863233D01*
X76306135Y-55900926D01*
X76310600Y-55946261D01*
X76310600Y-57032939D01*
X76306135Y-57078274D01*
X76294701Y-57115967D01*
X76276134Y-57150703D01*
X76251148Y-57181148D01*
X76220703Y-57206134D01*
X76185967Y-57224701D01*
X76148274Y-57236135D01*
X76102939Y-57240600D01*
X75266261Y-57240600D01*
X75220926Y-57236135D01*
X75183233Y-57224701D01*
X75148497Y-57206134D01*
X75118052Y-57181148D01*
X75093066Y-57150703D01*
X75074499Y-57115967D01*
X75063065Y-57078274D01*
X75058600Y-57032939D01*
X75058600Y-55946261D01*
X75063065Y-55900926D01*
X75074499Y-55863233D01*
X75093066Y-55828497D01*
X75118052Y-55798052D01*
X75148497Y-55773066D01*
X75183233Y-55754499D01*
X75220926Y-55743065D01*
X75266261Y-55738600D01*
X76102939Y-55738600D01*
X76148274Y-55743065D01*
G37*
G36*
X74098274Y-55743065D02*
G01*
X74135967Y-55754499D01*
X74170703Y-55773066D01*
X74201148Y-55798052D01*
X74226134Y-55828497D01*
X74244701Y-55863233D01*
X74256135Y-55900926D01*
X74260600Y-55946261D01*
X74260600Y-57032939D01*
X74256135Y-57078274D01*
X74244701Y-57115967D01*
X74226134Y-57150703D01*
X74201148Y-57181148D01*
X74170703Y-57206134D01*
X74135967Y-57224701D01*
X74098274Y-57236135D01*
X74052939Y-57240600D01*
X73216261Y-57240600D01*
X73170926Y-57236135D01*
X73133233Y-57224701D01*
X73098497Y-57206134D01*
X73068052Y-57181148D01*
X73043066Y-57150703D01*
X73024499Y-57115967D01*
X73013065Y-57078274D01*
X73008600Y-57032939D01*
X73008600Y-55946261D01*
X73013065Y-55900926D01*
X73024499Y-55863233D01*
X73043066Y-55828497D01*
X73068052Y-55798052D01*
X73098497Y-55773066D01*
X73133233Y-55754499D01*
X73170926Y-55743065D01*
X73216261Y-55738600D01*
X74052939Y-55738600D01*
X74098274Y-55743065D01*
G37*
G36*
X134229699Y-55329615D02*
G01*
X134384571Y-55393765D01*
X134523952Y-55486897D01*
X134642486Y-55605431D01*
X134735618Y-55744812D01*
X134799768Y-55899684D01*
X134832471Y-56064096D01*
X134832471Y-56231728D01*
X134799768Y-56396140D01*
X134735618Y-56551012D01*
X134642486Y-56690393D01*
X134523952Y-56808927D01*
X134384571Y-56902059D01*
X134229699Y-56966209D01*
X134065287Y-56998912D01*
X133897655Y-56998912D01*
X133733243Y-56966209D01*
X133578371Y-56902059D01*
X133438990Y-56808927D01*
X133320456Y-56690393D01*
X133227324Y-56551012D01*
X133163174Y-56396140D01*
X133130471Y-56231728D01*
X133130471Y-56064096D01*
X133163174Y-55899684D01*
X133227324Y-55744812D01*
X133320456Y-55605431D01*
X133438990Y-55486897D01*
X133578371Y-55393765D01*
X133733243Y-55329615D01*
X133897655Y-55296912D01*
X134065287Y-55296912D01*
X134229699Y-55329615D01*
G37*
G36*
X55511000Y-56781000D02*
G01*
X53709000Y-56781000D01*
X53709000Y-54979000D01*
X55511000Y-54979000D01*
X55511000Y-56781000D01*
G37*
G36*
X131927677Y-54256164D02*
G01*
X132082549Y-54320314D01*
X132221930Y-54413446D01*
X132340464Y-54531980D01*
X132433596Y-54671361D01*
X132497746Y-54826233D01*
X132530449Y-54990645D01*
X132530449Y-55158277D01*
X132497746Y-55322689D01*
X132433596Y-55477561D01*
X132340464Y-55616942D01*
X132221930Y-55735476D01*
X132082549Y-55828608D01*
X131927677Y-55892758D01*
X131763265Y-55925461D01*
X131595633Y-55925461D01*
X131431221Y-55892758D01*
X131276349Y-55828608D01*
X131136968Y-55735476D01*
X131018434Y-55616942D01*
X130925302Y-55477561D01*
X130861152Y-55322689D01*
X130828449Y-55158277D01*
X130828449Y-54990645D01*
X130861152Y-54826233D01*
X130925302Y-54671361D01*
X131018434Y-54531980D01*
X131136968Y-54413446D01*
X131276349Y-54320314D01*
X131431221Y-54256164D01*
X131595633Y-54223461D01*
X131763265Y-54223461D01*
X131927677Y-54256164D01*
G37*
G36*
X129625655Y-53182714D02*
G01*
X129780527Y-53246864D01*
X129919908Y-53339996D01*
X130038442Y-53458530D01*
X130131574Y-53597911D01*
X130195724Y-53752783D01*
X130228427Y-53917195D01*
X130228427Y-54084827D01*
X130195724Y-54249239D01*
X130131574Y-54404111D01*
X130038442Y-54543492D01*
X129919908Y-54662026D01*
X129780527Y-54755158D01*
X129625655Y-54819308D01*
X129461243Y-54852011D01*
X129293611Y-54852011D01*
X129129199Y-54819308D01*
X128974327Y-54755158D01*
X128834946Y-54662026D01*
X128716412Y-54543492D01*
X128623280Y-54404111D01*
X128559130Y-54249239D01*
X128526427Y-54084827D01*
X128526427Y-53917195D01*
X128559130Y-53752783D01*
X128623280Y-53597911D01*
X128716412Y-53458530D01*
X128834946Y-53339996D01*
X128974327Y-53246864D01*
X129129199Y-53182714D01*
X129293611Y-53150011D01*
X129461243Y-53150011D01*
X129625655Y-53182714D01*
G37*
G36*
X61914201Y-54487600D02*
G01*
X60262201Y-54487600D01*
X60262201Y-53085600D01*
X61914201Y-53085600D01*
X61914201Y-54487600D01*
G37*
G36*
X69864201Y-54487600D02*
G01*
X68212201Y-54487600D01*
X68212201Y-53085600D01*
X69864201Y-53085600D01*
X69864201Y-54487600D01*
G37*
G36*
X127323634Y-52109264D02*
G01*
X127478506Y-52173414D01*
X127617887Y-52266546D01*
X127736421Y-52385080D01*
X127829553Y-52524461D01*
X127893703Y-52679333D01*
X127926406Y-52843745D01*
X127926406Y-53011377D01*
X127893703Y-53175789D01*
X127829553Y-53330661D01*
X127736421Y-53470042D01*
X127617887Y-53588576D01*
X127478506Y-53681708D01*
X127323634Y-53745858D01*
X127159222Y-53778561D01*
X126991590Y-53778561D01*
X126827178Y-53745858D01*
X126672306Y-53681708D01*
X126532925Y-53588576D01*
X126414391Y-53470042D01*
X126321259Y-53330661D01*
X126257109Y-53175789D01*
X126224406Y-53011377D01*
X126224406Y-52843745D01*
X126257109Y-52679333D01*
X126321259Y-52524461D01*
X126414391Y-52385080D01*
X126532925Y-52266546D01*
X126672306Y-52173414D01*
X126827178Y-52109264D01*
X126991590Y-52076561D01*
X127159222Y-52076561D01*
X127323634Y-52109264D01*
G37*
G36*
X78907000Y-53315200D02*
G01*
X78065000Y-53315200D01*
X78065000Y-50813200D01*
X78907000Y-50813200D01*
X78907000Y-53315200D01*
G37*
G36*
X76367000Y-53315200D02*
G01*
X75525000Y-53315200D01*
X75525000Y-50813200D01*
X76367000Y-50813200D01*
X76367000Y-53315200D01*
G37*
G36*
X80177000Y-53315200D02*
G01*
X79335000Y-53315200D01*
X79335000Y-50813200D01*
X80177000Y-50813200D01*
X80177000Y-53315200D01*
G37*
G36*
X81447000Y-53315200D02*
G01*
X80605000Y-53315200D01*
X80605000Y-50813200D01*
X81447000Y-50813200D01*
X81447000Y-53315200D01*
G37*
G36*
X77637000Y-53315200D02*
G01*
X76795000Y-53315200D01*
X76795000Y-50813200D01*
X77637000Y-50813200D01*
X77637000Y-53315200D01*
G37*
G36*
X125021612Y-51035813D02*
G01*
X125176484Y-51099963D01*
X125315865Y-51193095D01*
X125434399Y-51311629D01*
X125527531Y-51451010D01*
X125591681Y-51605882D01*
X125624384Y-51770294D01*
X125624384Y-51937926D01*
X125591681Y-52102338D01*
X125527531Y-52257210D01*
X125434399Y-52396591D01*
X125315865Y-52515125D01*
X125176484Y-52608257D01*
X125021612Y-52672407D01*
X124857200Y-52705110D01*
X124689568Y-52705110D01*
X124525156Y-52672407D01*
X124370284Y-52608257D01*
X124230903Y-52515125D01*
X124112369Y-52396591D01*
X124019237Y-52257210D01*
X123955087Y-52102338D01*
X123922384Y-51937926D01*
X123922384Y-51770294D01*
X123955087Y-51605882D01*
X124019237Y-51451010D01*
X124112369Y-51311629D01*
X124230903Y-51193095D01*
X124370284Y-51099963D01*
X124525156Y-51035813D01*
X124689568Y-51003110D01*
X124857200Y-51003110D01*
X125021612Y-51035813D01*
G37*
G36*
X135118239Y-45613467D02*
G01*
X135432282Y-45675934D01*
X136023926Y-45921001D01*
X136392921Y-46167556D01*
X136556391Y-46276783D01*
X137009217Y-46729609D01*
X137024388Y-46752314D01*
X137364999Y-47262074D01*
X137610066Y-47853718D01*
X137646072Y-48034732D01*
X137735000Y-48481803D01*
X137735000Y-49122197D01*
X137700672Y-49294774D01*
X137610066Y-49750282D01*
X137364999Y-50341926D01*
X137134058Y-50687553D01*
X137009217Y-50874391D01*
X136556391Y-51327217D01*
X136450477Y-51397986D01*
X136023926Y-51682999D01*
X135432282Y-51928066D01*
X135382717Y-51937925D01*
X134804197Y-52053000D01*
X134163803Y-52053000D01*
X133585283Y-51937925D01*
X133535718Y-51928066D01*
X132944074Y-51682999D01*
X132517523Y-51397986D01*
X132411609Y-51327217D01*
X131958783Y-50874391D01*
X131833942Y-50687553D01*
X131603001Y-50341926D01*
X131357934Y-49750282D01*
X131267328Y-49294774D01*
X131233000Y-49122197D01*
X131233000Y-48481803D01*
X131321928Y-48034732D01*
X131357934Y-47853718D01*
X131603001Y-47262074D01*
X131943612Y-46752314D01*
X131958783Y-46729609D01*
X132411609Y-46276783D01*
X132575079Y-46167556D01*
X132944074Y-45921001D01*
X133535718Y-45675934D01*
X133849761Y-45613467D01*
X134163803Y-45551000D01*
X134804197Y-45551000D01*
X135118239Y-45613467D01*
G37*
G36*
X117042096Y-50117484D02*
G01*
X117196968Y-50181634D01*
X117336349Y-50274766D01*
X117454883Y-50393300D01*
X117548015Y-50532681D01*
X117612165Y-50687553D01*
X117644868Y-50851965D01*
X117644868Y-51019597D01*
X117612165Y-51184009D01*
X117548015Y-51338881D01*
X117454883Y-51478262D01*
X117336349Y-51596796D01*
X117196968Y-51689928D01*
X117042096Y-51754078D01*
X116877684Y-51786781D01*
X116710052Y-51786781D01*
X116545640Y-51754078D01*
X116390768Y-51689928D01*
X116251387Y-51596796D01*
X116132853Y-51478262D01*
X116039721Y-51338881D01*
X115975571Y-51184009D01*
X115942868Y-51019597D01*
X115942868Y-50851965D01*
X115975571Y-50687553D01*
X116039721Y-50532681D01*
X116132853Y-50393300D01*
X116251387Y-50274766D01*
X116390768Y-50181634D01*
X116545640Y-50117484D01*
X116710052Y-50084781D01*
X116877684Y-50084781D01*
X117042096Y-50117484D01*
G37*
G36*
X122719590Y-49962363D02*
G01*
X122874462Y-50026513D01*
X123013843Y-50119645D01*
X123132377Y-50238179D01*
X123225509Y-50377560D01*
X123289659Y-50532432D01*
X123322362Y-50696844D01*
X123322362Y-50864476D01*
X123289659Y-51028888D01*
X123225509Y-51183760D01*
X123132377Y-51323141D01*
X123013843Y-51441675D01*
X122874462Y-51534807D01*
X122719590Y-51598957D01*
X122555178Y-51631660D01*
X122387546Y-51631660D01*
X122223134Y-51598957D01*
X122068262Y-51534807D01*
X121928881Y-51441675D01*
X121810347Y-51323141D01*
X121717215Y-51183760D01*
X121653065Y-51028888D01*
X121620362Y-50864476D01*
X121620362Y-50696844D01*
X121653065Y-50532432D01*
X121717215Y-50377560D01*
X121810347Y-50238179D01*
X121928881Y-50119645D01*
X122068262Y-50026513D01*
X122223134Y-49962363D01*
X122387546Y-49929660D01*
X122555178Y-49929660D01*
X122719590Y-49962363D01*
G37*
G36*
X114740074Y-49044033D02*
G01*
X114894946Y-49108183D01*
X115034327Y-49201315D01*
X115152861Y-49319849D01*
X115245993Y-49459230D01*
X115310143Y-49614102D01*
X115342846Y-49778514D01*
X115342846Y-49946146D01*
X115310143Y-50110558D01*
X115245993Y-50265430D01*
X115152861Y-50404811D01*
X115034327Y-50523345D01*
X114894946Y-50616477D01*
X114740074Y-50680627D01*
X114575662Y-50713330D01*
X114408030Y-50713330D01*
X114243618Y-50680627D01*
X114088746Y-50616477D01*
X113949365Y-50523345D01*
X113830831Y-50404811D01*
X113737699Y-50265430D01*
X113673549Y-50110558D01*
X113640846Y-49946146D01*
X113640846Y-49778514D01*
X113673549Y-49614102D01*
X113737699Y-49459230D01*
X113830831Y-49319849D01*
X113949365Y-49201315D01*
X114088746Y-49108183D01*
X114243618Y-49044033D01*
X114408030Y-49011330D01*
X114575662Y-49011330D01*
X114740074Y-49044033D01*
G37*
G36*
X120417568Y-48888912D02*
G01*
X120572440Y-48953062D01*
X120711821Y-49046194D01*
X120830355Y-49164728D01*
X120923487Y-49304109D01*
X120987637Y-49458981D01*
X121020340Y-49623393D01*
X121020340Y-49791025D01*
X120987637Y-49955437D01*
X120923487Y-50110309D01*
X120830355Y-50249690D01*
X120711821Y-50368224D01*
X120572440Y-50461356D01*
X120417568Y-50525506D01*
X120253156Y-50558209D01*
X120085524Y-50558209D01*
X119921112Y-50525506D01*
X119766240Y-50461356D01*
X119626859Y-50368224D01*
X119508325Y-50249690D01*
X119415193Y-50110309D01*
X119351043Y-49955437D01*
X119318340Y-49791025D01*
X119318340Y-49623393D01*
X119351043Y-49458981D01*
X119415193Y-49304109D01*
X119508325Y-49164728D01*
X119626859Y-49046194D01*
X119766240Y-48953062D01*
X119921112Y-48888912D01*
X120085524Y-48856209D01*
X120253156Y-48856209D01*
X120417568Y-48888912D01*
G37*
G36*
X54803624Y-43571399D02*
G01*
X55168282Y-43643934D01*
X55759926Y-43889001D01*
X56292392Y-44244784D01*
X56745216Y-44697608D01*
X57100999Y-45230074D01*
X57346066Y-45821718D01*
X57371782Y-45951000D01*
X57471000Y-46449803D01*
X57471000Y-47090197D01*
X57441899Y-47236496D01*
X57346066Y-47718282D01*
X57100999Y-48309926D01*
X56878325Y-48643180D01*
X56745217Y-48842391D01*
X56292391Y-49295217D01*
X56186477Y-49365986D01*
X55759926Y-49650999D01*
X55168282Y-49896066D01*
X54869804Y-49955437D01*
X54540197Y-50021000D01*
X53899803Y-50021000D01*
X53570196Y-49955437D01*
X53271718Y-49896066D01*
X52680074Y-49650999D01*
X52253523Y-49365986D01*
X52147609Y-49295217D01*
X51694783Y-48842391D01*
X51561675Y-48643180D01*
X51339001Y-48309926D01*
X51093934Y-47718282D01*
X50998101Y-47236496D01*
X50969000Y-47090197D01*
X50969000Y-46449803D01*
X51068218Y-45951000D01*
X51093934Y-45821718D01*
X51339001Y-45230074D01*
X51694784Y-44697608D01*
X52147608Y-44244784D01*
X52680074Y-43889001D01*
X53271718Y-43643934D01*
X53636376Y-43571399D01*
X53899803Y-43519000D01*
X54540197Y-43519000D01*
X54803624Y-43571399D01*
G37*
G36*
X69864201Y-49987600D02*
G01*
X68212201Y-49987600D01*
X68212201Y-48585600D01*
X69864201Y-48585600D01*
X69864201Y-49987600D01*
G37*
G36*
X61914201Y-49987600D02*
G01*
X60262201Y-49987600D01*
X60262201Y-48585600D01*
X61914201Y-48585600D01*
X61914201Y-49987600D01*
G37*
G36*
X112438053Y-47970583D02*
G01*
X112592925Y-48034733D01*
X112732306Y-48127865D01*
X112850840Y-48246399D01*
X112943972Y-48385780D01*
X113008122Y-48540652D01*
X113040825Y-48705064D01*
X113040825Y-48872696D01*
X113008122Y-49037108D01*
X112943972Y-49191980D01*
X112850840Y-49331361D01*
X112732306Y-49449895D01*
X112592925Y-49543027D01*
X112438053Y-49607177D01*
X112273641Y-49639880D01*
X112106009Y-49639880D01*
X111941597Y-49607177D01*
X111786725Y-49543027D01*
X111647344Y-49449895D01*
X111528810Y-49331361D01*
X111435678Y-49191980D01*
X111371528Y-49037108D01*
X111338825Y-48872696D01*
X111338825Y-48705064D01*
X111371528Y-48540652D01*
X111435678Y-48385780D01*
X111528810Y-48246399D01*
X111647344Y-48127865D01*
X111786725Y-48034733D01*
X111941597Y-47970583D01*
X112106009Y-47937880D01*
X112273641Y-47937880D01*
X112438053Y-47970583D01*
G37*
G36*
X118115546Y-47815462D02*
G01*
X118270418Y-47879612D01*
X118409799Y-47972744D01*
X118528333Y-48091278D01*
X118621465Y-48230659D01*
X118685615Y-48385531D01*
X118718318Y-48549943D01*
X118718318Y-48717575D01*
X118685615Y-48881987D01*
X118621465Y-49036859D01*
X118528333Y-49176240D01*
X118409799Y-49294774D01*
X118270418Y-49387906D01*
X118115546Y-49452056D01*
X117951134Y-49484759D01*
X117783502Y-49484759D01*
X117619090Y-49452056D01*
X117464218Y-49387906D01*
X117324837Y-49294774D01*
X117206303Y-49176240D01*
X117113171Y-49036859D01*
X117049021Y-48881987D01*
X117016318Y-48717575D01*
X117016318Y-48549943D01*
X117049021Y-48385531D01*
X117113171Y-48230659D01*
X117206303Y-48091278D01*
X117324837Y-47972744D01*
X117464218Y-47879612D01*
X117619090Y-47815462D01*
X117783502Y-47782759D01*
X117951134Y-47782759D01*
X118115546Y-47815462D01*
G37*
G36*
X77637000Y-49415200D02*
G01*
X76795000Y-49415200D01*
X76795000Y-46913200D01*
X77637000Y-46913200D01*
X77637000Y-49415200D01*
G37*
G36*
X78907000Y-49415200D02*
G01*
X78065000Y-49415200D01*
X78065000Y-46913200D01*
X78907000Y-46913200D01*
X78907000Y-49415200D01*
G37*
G36*
X80177000Y-49415200D02*
G01*
X79335000Y-49415200D01*
X79335000Y-46913200D01*
X80177000Y-46913200D01*
X80177000Y-49415200D01*
G37*
G36*
X81447000Y-49415200D02*
G01*
X80605000Y-49415200D01*
X80605000Y-46913200D01*
X81447000Y-46913200D01*
X81447000Y-49415200D01*
G37*
G36*
X76367000Y-49415200D02*
G01*
X75525000Y-49415200D01*
X75525000Y-46913200D01*
X76367000Y-46913200D01*
X76367000Y-49415200D01*
G37*
G36*
X85428299Y-47611445D02*
G01*
X85465795Y-47622820D01*
X85500354Y-47641292D01*
X85530647Y-47666153D01*
X85555508Y-47696446D01*
X85573980Y-47731005D01*
X85585355Y-47768501D01*
X85589800Y-47813638D01*
X85589800Y-48452362D01*
X85585355Y-48497499D01*
X85573980Y-48534995D01*
X85555508Y-48569554D01*
X85530647Y-48599847D01*
X85500354Y-48624708D01*
X85465795Y-48643180D01*
X85428299Y-48654555D01*
X85383162Y-48659000D01*
X84644438Y-48659000D01*
X84599301Y-48654555D01*
X84561805Y-48643180D01*
X84527246Y-48624708D01*
X84496953Y-48599847D01*
X84472092Y-48569554D01*
X84453620Y-48534995D01*
X84442245Y-48497499D01*
X84437800Y-48452362D01*
X84437800Y-47813638D01*
X84442245Y-47768501D01*
X84453620Y-47731005D01*
X84472092Y-47696446D01*
X84496953Y-47666153D01*
X84527246Y-47641292D01*
X84561805Y-47622820D01*
X84599301Y-47611445D01*
X84644438Y-47607000D01*
X85383162Y-47607000D01*
X85428299Y-47611445D01*
G37*
G36*
X83678299Y-47611445D02*
G01*
X83715795Y-47622820D01*
X83750354Y-47641292D01*
X83780647Y-47666153D01*
X83805508Y-47696446D01*
X83823980Y-47731005D01*
X83835355Y-47768501D01*
X83839800Y-47813638D01*
X83839800Y-48452362D01*
X83835355Y-48497499D01*
X83823980Y-48534995D01*
X83805508Y-48569554D01*
X83780647Y-48599847D01*
X83750354Y-48624708D01*
X83715795Y-48643180D01*
X83678299Y-48654555D01*
X83633162Y-48659000D01*
X82894438Y-48659000D01*
X82849301Y-48654555D01*
X82811805Y-48643180D01*
X82777246Y-48624708D01*
X82746953Y-48599847D01*
X82722092Y-48569554D01*
X82703620Y-48534995D01*
X82692245Y-48497499D01*
X82687800Y-48452362D01*
X82687800Y-47813638D01*
X82692245Y-47768501D01*
X82703620Y-47731005D01*
X82722092Y-47696446D01*
X82746953Y-47666153D01*
X82777246Y-47641292D01*
X82811805Y-47622820D01*
X82849301Y-47611445D01*
X82894438Y-47607000D01*
X83633162Y-47607000D01*
X83678299Y-47611445D01*
G37*
G36*
X115813525Y-46742012D02*
G01*
X115968397Y-46806162D01*
X116107778Y-46899294D01*
X116226312Y-47017828D01*
X116319444Y-47157209D01*
X116383594Y-47312081D01*
X116416297Y-47476493D01*
X116416297Y-47644125D01*
X116383594Y-47808537D01*
X116319444Y-47963409D01*
X116226312Y-48102790D01*
X116107778Y-48221324D01*
X115968397Y-48314456D01*
X115813525Y-48378606D01*
X115649113Y-48411309D01*
X115481481Y-48411309D01*
X115317069Y-48378606D01*
X115162197Y-48314456D01*
X115022816Y-48221324D01*
X114904282Y-48102790D01*
X114811150Y-47963409D01*
X114747000Y-47808537D01*
X114714297Y-47644125D01*
X114714297Y-47476493D01*
X114747000Y-47312081D01*
X114811150Y-47157209D01*
X114904282Y-47017828D01*
X115022816Y-46899294D01*
X115162197Y-46806162D01*
X115317069Y-46742012D01*
X115481481Y-46709309D01*
X115649113Y-46709309D01*
X115813525Y-46742012D01*
G37*
G36*
X107834009Y-45823682D02*
G01*
X107988881Y-45887832D01*
X108128262Y-45980964D01*
X108246796Y-46099498D01*
X108339928Y-46238879D01*
X108404078Y-46393751D01*
X108436781Y-46558163D01*
X108436781Y-46725795D01*
X108404078Y-46890207D01*
X108339928Y-47045079D01*
X108246796Y-47184460D01*
X108128262Y-47302994D01*
X107988881Y-47396126D01*
X107834009Y-47460276D01*
X107669597Y-47492979D01*
X107501965Y-47492979D01*
X107337553Y-47460276D01*
X107182681Y-47396126D01*
X107043300Y-47302994D01*
X106924766Y-47184460D01*
X106831634Y-47045079D01*
X106767484Y-46890207D01*
X106734781Y-46725795D01*
X106734781Y-46558163D01*
X106767484Y-46393751D01*
X106831634Y-46238879D01*
X106924766Y-46099498D01*
X107043300Y-45980964D01*
X107182681Y-45887832D01*
X107337553Y-45823682D01*
X107501965Y-45790979D01*
X107669597Y-45790979D01*
X107834009Y-45823682D01*
G37*
G36*
X113511503Y-45668561D02*
G01*
X113666375Y-45732711D01*
X113805756Y-45825843D01*
X113924290Y-45944377D01*
X114017422Y-46083758D01*
X114081572Y-46238630D01*
X114114275Y-46403042D01*
X114114275Y-46570674D01*
X114081572Y-46735086D01*
X114017422Y-46889958D01*
X113924290Y-47029339D01*
X113805756Y-47147873D01*
X113666375Y-47241005D01*
X113511503Y-47305155D01*
X113347091Y-47337858D01*
X113179459Y-47337858D01*
X113015047Y-47305155D01*
X112860175Y-47241005D01*
X112720794Y-47147873D01*
X112602260Y-47029339D01*
X112509128Y-46889958D01*
X112444978Y-46735086D01*
X112412275Y-46570674D01*
X112412275Y-46403042D01*
X112444978Y-46238630D01*
X112509128Y-46083758D01*
X112602260Y-45944377D01*
X112720794Y-45825843D01*
X112860175Y-45732711D01*
X113015047Y-45668561D01*
X113179459Y-45635858D01*
X113347091Y-45635858D01*
X113511503Y-45668561D01*
G37*
G36*
X111209481Y-44595111D02*
G01*
X111364353Y-44659261D01*
X111503734Y-44752393D01*
X111622268Y-44870927D01*
X111715400Y-45010308D01*
X111779550Y-45165180D01*
X111812253Y-45329592D01*
X111812253Y-45497224D01*
X111779550Y-45661636D01*
X111715400Y-45816508D01*
X111622268Y-45955889D01*
X111503734Y-46074423D01*
X111364353Y-46167555D01*
X111209481Y-46231705D01*
X111045069Y-46264408D01*
X110877437Y-46264408D01*
X110713025Y-46231705D01*
X110558153Y-46167555D01*
X110418772Y-46074423D01*
X110300238Y-45955889D01*
X110207106Y-45816508D01*
X110142956Y-45661636D01*
X110110253Y-45497224D01*
X110110253Y-45329592D01*
X110142956Y-45165180D01*
X110207106Y-45010308D01*
X110300238Y-44870927D01*
X110418772Y-44752393D01*
X110558153Y-44659261D01*
X110713025Y-44595111D01*
X110877437Y-44562408D01*
X111045069Y-44562408D01*
X111209481Y-44595111D01*
G37*
G36*
X108907459Y-43521661D02*
G01*
X109062331Y-43585811D01*
X109201712Y-43678943D01*
X109320246Y-43797477D01*
X109413378Y-43936858D01*
X109477528Y-44091730D01*
X109510231Y-44256142D01*
X109510231Y-44423774D01*
X109477528Y-44588186D01*
X109413378Y-44743058D01*
X109320246Y-44882439D01*
X109201712Y-45000973D01*
X109062331Y-45094105D01*
X108907459Y-45158255D01*
X108743047Y-45190958D01*
X108575415Y-45190958D01*
X108411003Y-45158255D01*
X108256131Y-45094105D01*
X108116750Y-45000973D01*
X107998216Y-44882439D01*
X107905084Y-44743058D01*
X107840934Y-44588186D01*
X107808231Y-44423774D01*
X107808231Y-44256142D01*
X107840934Y-44091730D01*
X107905084Y-43936858D01*
X107998216Y-43797477D01*
X108116750Y-43678943D01*
X108256131Y-43585811D01*
X108411003Y-43521661D01*
X108575415Y-43488958D01*
X108743047Y-43488958D01*
X108907459Y-43521661D01*
G37*
G36*
X106605438Y-42448210D02*
G01*
X106760310Y-42512360D01*
X106899691Y-42605492D01*
X107018225Y-42724026D01*
X107111357Y-42863407D01*
X107175507Y-43018279D01*
X107208210Y-43182691D01*
X107208210Y-43350323D01*
X107175507Y-43514735D01*
X107111357Y-43669607D01*
X107018225Y-43808988D01*
X106899691Y-43927522D01*
X106760310Y-44020654D01*
X106605438Y-44084804D01*
X106441026Y-44117507D01*
X106273394Y-44117507D01*
X106108982Y-44084804D01*
X105954110Y-44020654D01*
X105814729Y-43927522D01*
X105696195Y-43808988D01*
X105603063Y-43669607D01*
X105538913Y-43514735D01*
X105506210Y-43350323D01*
X105506210Y-43182691D01*
X105538913Y-43018279D01*
X105603063Y-42863407D01*
X105696195Y-42724026D01*
X105814729Y-42605492D01*
X105954110Y-42512360D01*
X106108982Y-42448210D01*
X106273394Y-42415507D01*
X106441026Y-42415507D01*
X106605438Y-42448210D01*
G37*
G36*
X76879552Y-41514331D02*
G01*
X76961627Y-41548328D01*
X76961629Y-41548329D01*
X76998813Y-41573175D01*
X77035495Y-41597685D01*
X77098315Y-41660505D01*
X77147672Y-41734373D01*
X77181669Y-41816448D01*
X77199000Y-41903579D01*
X77199000Y-41992421D01*
X77181669Y-42079552D01*
X77147672Y-42161627D01*
X77098399Y-42235370D01*
X77098314Y-42235496D01*
X77035496Y-42298314D01*
X76961629Y-42347671D01*
X76961628Y-42347672D01*
X76961627Y-42347672D01*
X76879552Y-42381669D01*
X76792421Y-42399000D01*
X76703579Y-42399000D01*
X76616448Y-42381669D01*
X76534373Y-42347672D01*
X76534372Y-42347672D01*
X76534371Y-42347671D01*
X76460504Y-42298314D01*
X76444951Y-42282761D01*
X76426010Y-42267217D01*
X76404399Y-42255666D01*
X76380950Y-42248553D01*
X76356564Y-42246151D01*
X76332178Y-42248553D01*
X76308729Y-42255666D01*
X76287118Y-42267217D01*
X76268176Y-42282762D01*
X76252631Y-42301704D01*
X76241080Y-42323315D01*
X76233967Y-42346764D01*
X76231565Y-42371150D01*
X76233967Y-42395536D01*
X76241080Y-42418985D01*
X76242796Y-42422614D01*
X76287772Y-42570879D01*
X76299000Y-42684882D01*
X76299000Y-43311118D01*
X76287772Y-43425121D01*
X76243398Y-43571402D01*
X76171345Y-43706204D01*
X76171343Y-43706206D01*
X76171342Y-43706208D01*
X76074369Y-43824369D01*
X75959062Y-43919000D01*
X75956204Y-43921345D01*
X75821402Y-43993398D01*
X75675121Y-44037772D01*
X75523000Y-44052754D01*
X75370880Y-44037772D01*
X75224599Y-43993398D01*
X75089797Y-43921345D01*
X75086940Y-43919000D01*
X74971632Y-43824369D01*
X74874659Y-43706208D01*
X74874657Y-43706206D01*
X74802601Y-43571400D01*
X74758228Y-43425121D01*
X74747000Y-43311118D01*
X74747000Y-42684883D01*
X74758228Y-42570880D01*
X74802602Y-42424599D01*
X74874657Y-42289794D01*
X74971628Y-42171633D01*
X75044937Y-42111470D01*
X75089792Y-42074658D01*
X75089793Y-42074657D01*
X75089796Y-42074655D01*
X75224598Y-42002602D01*
X75370879Y-41958228D01*
X75523000Y-41943246D01*
X75675120Y-41958228D01*
X75821401Y-42002602D01*
X75956206Y-42074657D01*
X76074370Y-42171631D01*
X76101288Y-42204430D01*
X76118615Y-42221757D01*
X76138989Y-42235370D01*
X76161628Y-42244748D01*
X76185661Y-42249528D01*
X76210165Y-42249528D01*
X76234199Y-42244748D01*
X76256837Y-42235370D01*
X76277212Y-42221756D01*
X76294539Y-42204429D01*
X76308152Y-42184055D01*
X76317530Y-42161416D01*
X76322310Y-42137383D01*
X76322310Y-42112879D01*
X76317530Y-42088845D01*
X76314490Y-42080351D01*
X76297000Y-41992421D01*
X76297000Y-41903579D01*
X76314331Y-41816448D01*
X76348328Y-41734373D01*
X76397685Y-41660505D01*
X76460505Y-41597685D01*
X76497187Y-41573175D01*
X76534371Y-41548329D01*
X76534373Y-41548328D01*
X76616448Y-41514331D01*
X76703579Y-41497000D01*
X76792421Y-41497000D01*
X76879552Y-41514331D01*
G37*
G36*
X81879552Y-41514331D02*
G01*
X81961627Y-41548328D01*
X81961629Y-41548329D01*
X81998813Y-41573175D01*
X82035495Y-41597685D01*
X82098315Y-41660505D01*
X82147672Y-41734373D01*
X82181669Y-41816448D01*
X82199000Y-41903579D01*
X82199000Y-41992421D01*
X82181193Y-42081944D01*
X82175489Y-42100748D01*
X82173088Y-42125134D01*
X82175490Y-42149521D01*
X82182604Y-42172969D01*
X82194156Y-42194580D01*
X82209701Y-42213521D01*
X82228643Y-42229066D01*
X82250254Y-42240617D01*
X82273703Y-42247730D01*
X82298089Y-42250131D01*
X82322476Y-42247729D01*
X82345924Y-42240615D01*
X82367535Y-42229063D01*
X82394713Y-42204430D01*
X82421629Y-42171632D01*
X82503642Y-42104326D01*
X82539792Y-42074658D01*
X82539793Y-42074657D01*
X82539796Y-42074655D01*
X82674598Y-42002602D01*
X82820879Y-41958228D01*
X82973000Y-41943246D01*
X83125120Y-41958228D01*
X83271401Y-42002602D01*
X83406206Y-42074657D01*
X83524367Y-42171628D01*
X83543203Y-42194580D01*
X83615573Y-42282762D01*
X83621345Y-42289796D01*
X83693398Y-42424598D01*
X83737772Y-42570879D01*
X83749000Y-42684882D01*
X83749000Y-43311118D01*
X83737772Y-43425121D01*
X83693398Y-43571402D01*
X83621345Y-43706204D01*
X83621343Y-43706206D01*
X83621342Y-43706208D01*
X83524369Y-43824369D01*
X83409062Y-43919000D01*
X83406204Y-43921345D01*
X83271402Y-43993398D01*
X83125121Y-44037772D01*
X82973000Y-44052754D01*
X82820880Y-44037772D01*
X82674599Y-43993398D01*
X82539797Y-43921345D01*
X82536940Y-43919000D01*
X82421632Y-43824369D01*
X82324659Y-43706208D01*
X82324657Y-43706206D01*
X82252601Y-43571400D01*
X82208228Y-43425121D01*
X82197000Y-43311118D01*
X82197000Y-42684883D01*
X82208228Y-42570880D01*
X82254403Y-42418661D01*
X82259053Y-42407436D01*
X82263834Y-42383403D01*
X82263834Y-42358899D01*
X82259054Y-42334866D01*
X82249677Y-42312227D01*
X82236064Y-42291852D01*
X82218737Y-42274525D01*
X82198363Y-42260911D01*
X82175724Y-42251533D01*
X82151691Y-42246752D01*
X82127187Y-42246752D01*
X82103154Y-42251532D01*
X82080515Y-42260909D01*
X82060140Y-42274522D01*
X82051049Y-42282761D01*
X82035496Y-42298314D01*
X81961629Y-42347671D01*
X81961628Y-42347672D01*
X81961627Y-42347672D01*
X81879552Y-42381669D01*
X81792421Y-42399000D01*
X81703579Y-42399000D01*
X81616448Y-42381669D01*
X81534373Y-42347672D01*
X81534372Y-42347672D01*
X81534371Y-42347671D01*
X81460504Y-42298314D01*
X81397686Y-42235496D01*
X81397602Y-42235370D01*
X81348328Y-42161627D01*
X81314331Y-42079552D01*
X81297000Y-41992421D01*
X81297000Y-41903579D01*
X81314331Y-41816448D01*
X81348328Y-41734373D01*
X81397685Y-41660505D01*
X81460505Y-41597685D01*
X81497187Y-41573175D01*
X81534371Y-41548329D01*
X81534373Y-41548328D01*
X81616448Y-41514331D01*
X81703579Y-41497000D01*
X81792421Y-41497000D01*
X81879552Y-41514331D01*
G37*
G36*
X75495714Y-38256058D02*
G01*
X75613721Y-38291855D01*
X75722468Y-38349981D01*
X75817790Y-38428210D01*
X75896019Y-38523532D01*
X75954145Y-38632278D01*
X75989942Y-38750285D01*
X75999000Y-38842254D01*
X75999000Y-39553746D01*
X75989942Y-39645715D01*
X75954145Y-39763722D01*
X75896019Y-39872468D01*
X75817790Y-39967790D01*
X75722468Y-40046019D01*
X75613722Y-40104145D01*
X75495715Y-40139942D01*
X75373000Y-40152028D01*
X75250286Y-40139942D01*
X75132279Y-40104145D01*
X75023533Y-40046019D01*
X74928211Y-39967790D01*
X74849982Y-39872468D01*
X74791855Y-39763721D01*
X74756058Y-39645715D01*
X74747000Y-39553746D01*
X74747000Y-38842255D01*
X74756058Y-38750286D01*
X74791855Y-38632279D01*
X74849981Y-38523532D01*
X74928210Y-38428210D01*
X75023532Y-38349981D01*
X75132278Y-38291855D01*
X75250285Y-38256058D01*
X75373000Y-38243972D01*
X75495714Y-38256058D01*
G37*
G36*
X83245714Y-38256058D02*
G01*
X83363721Y-38291855D01*
X83472468Y-38349981D01*
X83567790Y-38428210D01*
X83646019Y-38523532D01*
X83704145Y-38632278D01*
X83739942Y-38750285D01*
X83749000Y-38842254D01*
X83749000Y-39553746D01*
X83739942Y-39645715D01*
X83704145Y-39763722D01*
X83646019Y-39872468D01*
X83567790Y-39967790D01*
X83472468Y-40046019D01*
X83363722Y-40104145D01*
X83245715Y-40139942D01*
X83123000Y-40152028D01*
X83000286Y-40139942D01*
X82882279Y-40104145D01*
X82773533Y-40046019D01*
X82678211Y-39967790D01*
X82599982Y-39872468D01*
X82541855Y-39763721D01*
X82506058Y-39645715D01*
X82497000Y-39553746D01*
X82497000Y-38842255D01*
X82506058Y-38750286D01*
X82541855Y-38632279D01*
X82599981Y-38523532D01*
X82678210Y-38428210D01*
X82773532Y-38349981D01*
X82882278Y-38291855D01*
X83000285Y-38256058D01*
X83123000Y-38243972D01*
X83245714Y-38256058D01*
G37*
M02*
