G04 #@! TF.GenerationSoftware,KiCad,Pcbnew,(5.1.5)-3*
G04 #@! TF.CreationDate,2021-10-20T23:00:28+02:00*
G04 #@! TF.ProjectId,WFP_v2_0,5746505f-7632-45f3-902e-6b696361645f,v 0.2*
G04 #@! TF.SameCoordinates,Original*
G04 #@! TF.FileFunction,Legend,Bot*
G04 #@! TF.FilePolarity,Positive*
%FSLAX46Y46*%
G04 Gerber Fmt 4.6, Leading zero omitted, Abs format (unit mm)*
G04 Created by KiCad (PCBNEW (5.1.5)-3) date 2021-10-20 23:00:28*
%MOMM*%
%LPD*%
G04 APERTURE LIST*
%ADD10C,0.150000*%
%ADD11C,0.120000*%
G04 APERTURE END LIST*
D10*
X131974288Y-150973961D02*
X132394740Y-150750403D01*
X131925268Y-149867455D01*
X131679972Y-151130451D02*
X131366991Y-150541820D01*
X131210501Y-150247504D02*
X131274902Y-150267193D01*
X131255212Y-150331594D01*
X131190812Y-150311905D01*
X131210501Y-150247504D01*
X131255212Y-150331594D01*
X130858759Y-151513166D02*
X130965205Y-151510500D01*
X131133386Y-151421077D01*
X131195120Y-151334320D01*
X131214810Y-151269919D01*
X131212143Y-151163473D01*
X131078008Y-150911202D01*
X130991252Y-150849468D01*
X130926851Y-150829779D01*
X130820405Y-150832445D01*
X130652224Y-150921868D01*
X130590490Y-151008625D01*
X130143992Y-151893215D02*
X130250438Y-151890548D01*
X130418619Y-151801125D01*
X130480353Y-151714368D01*
X130477687Y-151607922D01*
X130298840Y-151271561D01*
X130212084Y-151209827D01*
X130105638Y-151212493D01*
X129937457Y-151301917D01*
X129875723Y-151388673D01*
X129878389Y-151495119D01*
X129923101Y-151579210D01*
X130388264Y-151439742D01*
X129432916Y-151570186D02*
X129745897Y-152158818D01*
X129477627Y-151654276D02*
X129413226Y-151634587D01*
X129306780Y-151637253D01*
X129180645Y-151704321D01*
X129118911Y-151791077D01*
X129121577Y-151897523D01*
X129367491Y-152360020D01*
X128966729Y-152519177D02*
X128904994Y-152605934D01*
X128736814Y-152695357D01*
X128630368Y-152698023D01*
X128543611Y-152636289D01*
X128521255Y-152594244D01*
X128518589Y-152487798D01*
X128580323Y-152401041D01*
X128706459Y-152333973D01*
X128768193Y-152247217D01*
X128765527Y-152140771D01*
X128743171Y-152098726D01*
X128656414Y-152036991D01*
X128549968Y-152039658D01*
X128423833Y-152106725D01*
X128362098Y-152193482D01*
X127873556Y-153100427D02*
X127980002Y-153097761D01*
X128148182Y-153008338D01*
X128209917Y-152921581D01*
X128207250Y-152815135D01*
X128028404Y-152478774D01*
X127941647Y-152417040D01*
X127835201Y-152419706D01*
X127667021Y-152509129D01*
X127605286Y-152595886D01*
X127607953Y-152702332D01*
X127652664Y-152786422D01*
X128117827Y-152646954D01*
X127097054Y-153567232D02*
X126627582Y-152684285D01*
X127074698Y-153525187D02*
X127181144Y-153522521D01*
X127349325Y-153433098D01*
X127411059Y-153346341D01*
X127430749Y-153281940D01*
X127428082Y-153175494D01*
X127293947Y-152923223D01*
X127207191Y-152861489D01*
X127142790Y-152841800D01*
X127036344Y-152844466D01*
X126868163Y-152933889D01*
X126806429Y-153020646D01*
X125312494Y-153761053D02*
X125625475Y-154349685D01*
X125690900Y-153559851D02*
X125936813Y-154022348D01*
X125939480Y-154128794D01*
X125877745Y-154215550D01*
X125751610Y-154282618D01*
X125645164Y-154285284D01*
X125580763Y-154265595D01*
X124892042Y-153984611D02*
X125205023Y-154573243D01*
X124936754Y-154068701D02*
X124872353Y-154049012D01*
X124765907Y-154051679D01*
X124639772Y-154118746D01*
X124578037Y-154205503D01*
X124580704Y-154311949D01*
X124826617Y-154774445D01*
X124027760Y-155199205D02*
X123558288Y-154316257D01*
X124005404Y-155157160D02*
X124111850Y-155154493D01*
X124280031Y-155065070D01*
X124341765Y-154978314D01*
X124361455Y-154913913D01*
X124358788Y-154807467D01*
X124224653Y-154555196D01*
X124137897Y-154493461D01*
X124073496Y-154473772D01*
X123967050Y-154476439D01*
X123798869Y-154565862D01*
X123737135Y-154652618D01*
X123248592Y-155559564D02*
X123355038Y-155556898D01*
X123523219Y-155467474D01*
X123584953Y-155380718D01*
X123582287Y-155274272D01*
X123403440Y-154937911D01*
X123316683Y-154876176D01*
X123210237Y-154878843D01*
X123042057Y-154968266D01*
X122980323Y-155055023D01*
X122982989Y-155161469D01*
X123027701Y-155245559D01*
X123492863Y-155106091D01*
X122850497Y-155825167D02*
X122537515Y-155236535D01*
X122626939Y-155404716D02*
X122540182Y-155342981D01*
X122475781Y-155323292D01*
X122369335Y-155325959D01*
X122285245Y-155370670D01*
X121081935Y-156657664D02*
X121146336Y-156677354D01*
X121294827Y-156652331D01*
X121378917Y-156607620D01*
X121482697Y-156498507D01*
X121522075Y-156369705D01*
X121519409Y-156263259D01*
X121472031Y-156072723D01*
X121404964Y-155946588D01*
X121273495Y-155800763D01*
X121186739Y-155739029D01*
X121057937Y-155699650D01*
X120909446Y-155724672D01*
X120825355Y-155769384D01*
X120721576Y-155878496D01*
X120701886Y-155942897D01*
X120502327Y-156480460D02*
X120208011Y-156636951D01*
X120327789Y-157166514D02*
X120748240Y-156942957D01*
X120278769Y-156060009D01*
X119858318Y-156283567D01*
X119444842Y-157635986D02*
X119515600Y-157059044D01*
X119949383Y-157367717D02*
X119479911Y-156484769D01*
X119143550Y-156663615D01*
X119081816Y-156750372D01*
X119062127Y-156814773D01*
X119064793Y-156921219D01*
X119131860Y-157047354D01*
X119218617Y-157109089D01*
X119283018Y-157128778D01*
X119389464Y-157126112D01*
X119725825Y-156947265D01*
X119066435Y-157837188D02*
X118596964Y-156954240D01*
X118561894Y-158105458D01*
X118092422Y-157222510D01*
X116831069Y-157893184D02*
X116662888Y-157982607D01*
X116601154Y-158069363D01*
X116561775Y-158198165D01*
X116609153Y-158388702D01*
X116765644Y-158683017D01*
X116897112Y-158828842D01*
X117025914Y-158868221D01*
X117132360Y-158865554D01*
X117300540Y-158776131D01*
X117362275Y-158689375D01*
X117401653Y-158560573D01*
X117354275Y-158370036D01*
X117197785Y-158075721D01*
X117066317Y-157929896D01*
X116937515Y-157890517D01*
X116831069Y-157893184D01*
X116543728Y-159178535D02*
X116074256Y-158295588D01*
X116297814Y-158716039D02*
X115793273Y-158984309D01*
X116039187Y-159446805D02*
X115569715Y-158563857D01*
X115198284Y-159893921D02*
X115618735Y-159670363D01*
X115149264Y-158787415D01*
D11*
X72999600Y-47066200D02*
X72821800Y-46736000D01*
X72999600Y-45694600D02*
X72999600Y-47066200D01*
X73380600Y-45694600D02*
X72999600Y-45694600D01*
X79498000Y-46456000D02*
X78548000Y-46456000D01*
X78598000Y-49556000D02*
X79898000Y-49556000D01*
X79798000Y-46756000D02*
G75*
G03X79798000Y-46756000I-100000J0D01*
G01*
X81235733Y-66419000D02*
X81578267Y-66419000D01*
X81235733Y-67439000D02*
X81578267Y-67439000D01*
X78174667Y-66419000D02*
X77832133Y-66419000D01*
X78174667Y-67439000D02*
X77832133Y-67439000D01*
X73532129Y-51471320D02*
X73289920Y-51713529D01*
X72810880Y-50750071D02*
X72568671Y-50992280D01*
X83923402Y-61476247D02*
X84165611Y-61234038D01*
X83202153Y-60754998D02*
X83444362Y-60512789D01*
X63066200Y-51566867D02*
X63066200Y-51224333D01*
X64086200Y-51566867D02*
X64086200Y-51224333D01*
X75001333Y-47957200D02*
X75343867Y-47957200D01*
X75001333Y-46937200D02*
X75343867Y-46937200D01*
X61893267Y-42674000D02*
X61550733Y-42674000D01*
X61893267Y-41654000D02*
X61550733Y-41654000D01*
X61992252Y-43994000D02*
X61469748Y-43994000D01*
X61992252Y-45414000D02*
X61469748Y-45414000D01*
X91190867Y-143482600D02*
X90848333Y-143482600D01*
X91190867Y-144502600D02*
X90848333Y-144502600D01*
X84018333Y-143482600D02*
X84360867Y-143482600D01*
X84018333Y-144502600D02*
X84360867Y-144502600D01*
X82227267Y-113692400D02*
X81884733Y-113692400D01*
X82227267Y-112672400D02*
X81884733Y-112672400D01*
X101023267Y-90803000D02*
X100680733Y-90803000D01*
X101023267Y-91823000D02*
X100680733Y-91823000D01*
X110167267Y-135735600D02*
X109824733Y-135735600D01*
X110167267Y-136755600D02*
X109824733Y-136755600D01*
X67474200Y-53416600D02*
X65774200Y-53416600D01*
X65774200Y-53416600D02*
X65774200Y-50266600D01*
X67474200Y-53416600D02*
X67474200Y-50266600D01*
X75318467Y-45210000D02*
X74975933Y-45210000D01*
X75318467Y-46230000D02*
X74975933Y-46230000D01*
X83802067Y-46230000D02*
X83459533Y-46230000D01*
X83802067Y-45210000D02*
X83459533Y-45210000D01*
D10*
X75098000Y-41798000D02*
X75098000Y-40398000D01*
X75098000Y-37998000D02*
X75098000Y-37848000D01*
X75098000Y-37848000D02*
X75398000Y-37848000D01*
X75398000Y-37848000D02*
X75398000Y-37398000D01*
X83098000Y-37398000D02*
X83098000Y-37848000D01*
X83098000Y-37848000D02*
X83398000Y-37848000D01*
X83398000Y-37848000D02*
X83398000Y-37998000D01*
X83398000Y-40398000D02*
X83398000Y-41798000D01*
X78173000Y-43973000D02*
X77448000Y-43973000D01*
X77448000Y-43973000D02*
X77448000Y-43548000D01*
X77448000Y-43548000D02*
X76448000Y-43548000D01*
X81048000Y-43548000D02*
X82048000Y-43548000D01*
D11*
X109128411Y-48027504D02*
X109273173Y-47717063D01*
X110052845Y-48458575D02*
X110197607Y-48148134D01*
X127899244Y-50681836D02*
X128209685Y-50826598D01*
X128330315Y-49757402D02*
X128640756Y-49902164D01*
X64768000Y-62034267D02*
X64768000Y-61691733D01*
X65788000Y-62034267D02*
X65788000Y-61691733D01*
X66292000Y-62034267D02*
X66292000Y-61691733D01*
X67312000Y-62034267D02*
X67312000Y-61691733D01*
X83456933Y-47957200D02*
X83799467Y-47957200D01*
X83456933Y-46937200D02*
X83799467Y-46937200D01*
X83802067Y-48715200D02*
X83459533Y-48715200D01*
X83802067Y-49735200D02*
X83459533Y-49735200D01*
X61066962Y-102905389D02*
X60824753Y-103147598D01*
X61788211Y-103626638D02*
X61546002Y-103868847D01*
X133549314Y-108557396D02*
X133418232Y-108873857D01*
X134491672Y-108947733D02*
X134360590Y-109264194D01*
X88523867Y-95197200D02*
X88181333Y-95197200D01*
X88523867Y-96217200D02*
X88181333Y-96217200D01*
X115292402Y-103979353D02*
X115534611Y-104221562D01*
X114571153Y-104700602D02*
X114813362Y-104942811D01*
X123899200Y-131830867D02*
X123899200Y-131488333D01*
X124919200Y-131830867D02*
X124919200Y-131488333D01*
X84358267Y-141831600D02*
X84015733Y-141831600D01*
X84358267Y-142851600D02*
X84015733Y-142851600D01*
X91190867Y-142851600D02*
X90848333Y-142851600D01*
X91190867Y-141831600D02*
X90848333Y-141831600D01*
X84018333Y-141226000D02*
X84360867Y-141226000D01*
X84018333Y-140206000D02*
X84360867Y-140206000D01*
X91190867Y-141200600D02*
X90848333Y-141200600D01*
X91190867Y-140180600D02*
X90848333Y-140180600D01*
X70692062Y-79475275D02*
X70558223Y-79790579D01*
X71630977Y-79873821D02*
X71497138Y-80189125D01*
X136683933Y-88390000D02*
X137026467Y-88390000D01*
X136683933Y-89410000D02*
X137026467Y-89410000D01*
X90848333Y-122150600D02*
X91190867Y-122150600D01*
X90848333Y-121130600D02*
X91190867Y-121130600D01*
X91631781Y-68339886D02*
X91391696Y-68584199D01*
X92359296Y-69054813D02*
X92119211Y-69299126D01*
X105206038Y-81028201D02*
X105337120Y-81344662D01*
X104263680Y-81418538D02*
X104394762Y-81734999D01*
X59478000Y-59456000D02*
G75*
G03X59478000Y-59456000I-100000J0D01*
G01*
X58278000Y-62256000D02*
X59578000Y-62256000D01*
X59178000Y-59156000D02*
X58228000Y-59156000D01*
X74876000Y-52570000D02*
X74876000Y-52270000D01*
X74876000Y-52270000D02*
X75176000Y-52270000D01*
X74876000Y-59190000D02*
X74876000Y-59490000D01*
X74876000Y-59490000D02*
X75176000Y-59490000D01*
X82096000Y-52570000D02*
X82096000Y-52270000D01*
X82096000Y-52270000D02*
X81796000Y-52270000D01*
X82096000Y-59190000D02*
X82096000Y-59490000D01*
X82096000Y-59490000D02*
X81796000Y-59490000D01*
X81796000Y-59490000D02*
X81796000Y-60805000D01*
X66416000Y-46844000D02*
X66416000Y-45584000D01*
X66416000Y-40024000D02*
X66416000Y-41284000D01*
X70176000Y-46844000D02*
X66416000Y-46844000D01*
X72426000Y-40024000D02*
X66416000Y-40024000D01*
X80010000Y-103261000D02*
X81960000Y-103261000D01*
X80010000Y-103261000D02*
X78060000Y-103261000D01*
X80010000Y-112131000D02*
X81960000Y-112131000D01*
X80010000Y-112131000D02*
X76560000Y-112131000D01*
X98806000Y-81417000D02*
X100756000Y-81417000D01*
X98806000Y-81417000D02*
X96856000Y-81417000D01*
X98806000Y-90287000D02*
X100756000Y-90287000D01*
X98806000Y-90287000D02*
X95356000Y-90287000D01*
X107950000Y-135245000D02*
X104500000Y-135245000D01*
X107950000Y-135245000D02*
X109900000Y-135245000D01*
X107950000Y-126375000D02*
X106000000Y-126375000D01*
X107950000Y-126375000D02*
X109900000Y-126375000D01*
X79005000Y-63030600D02*
X80355000Y-63030600D01*
X79015000Y-65940600D02*
X80365000Y-65940600D01*
X67312000Y-57829267D02*
X67312000Y-57486733D01*
X66292000Y-57829267D02*
X66292000Y-57486733D01*
X132325164Y-58608044D02*
X132180402Y-58918485D01*
X133249598Y-59039115D02*
X133104836Y-59349556D01*
D10*
X80009904Y-44918380D02*
X80009904Y-45727904D01*
X79962285Y-45823142D01*
X79914666Y-45870761D01*
X79819428Y-45918380D01*
X79628952Y-45918380D01*
X79533714Y-45870761D01*
X79486095Y-45823142D01*
X79438476Y-45727904D01*
X79438476Y-44918380D01*
X78486095Y-44918380D02*
X78962285Y-44918380D01*
X79009904Y-45394571D01*
X78962285Y-45346952D01*
X78867047Y-45299333D01*
X78628952Y-45299333D01*
X78533714Y-45346952D01*
X78486095Y-45394571D01*
X78438476Y-45489809D01*
X78438476Y-45727904D01*
X78486095Y-45823142D01*
X78533714Y-45870761D01*
X78628952Y-45918380D01*
X78867047Y-45918380D01*
X78962285Y-45870761D01*
X79009904Y-45823142D01*
X81700666Y-68683142D02*
X81748285Y-68730761D01*
X81891142Y-68778380D01*
X81986380Y-68778380D01*
X82129238Y-68730761D01*
X82224476Y-68635523D01*
X82272095Y-68540285D01*
X82319714Y-68349809D01*
X82319714Y-68206952D01*
X82272095Y-68016476D01*
X82224476Y-67921238D01*
X82129238Y-67826000D01*
X81986380Y-67778380D01*
X81891142Y-67778380D01*
X81748285Y-67826000D01*
X81700666Y-67873619D01*
X80748285Y-68778380D02*
X81319714Y-68778380D01*
X81034000Y-68778380D02*
X81034000Y-67778380D01*
X81129238Y-67921238D01*
X81224476Y-68016476D01*
X81319714Y-68064095D01*
X78144666Y-68683142D02*
X78192285Y-68730761D01*
X78335142Y-68778380D01*
X78430380Y-68778380D01*
X78573238Y-68730761D01*
X78668476Y-68635523D01*
X78716095Y-68540285D01*
X78763714Y-68349809D01*
X78763714Y-68206952D01*
X78716095Y-68016476D01*
X78668476Y-67921238D01*
X78573238Y-67826000D01*
X78430380Y-67778380D01*
X78335142Y-67778380D01*
X78192285Y-67826000D01*
X78144666Y-67873619D01*
X77763714Y-67873619D02*
X77716095Y-67826000D01*
X77620857Y-67778380D01*
X77382761Y-67778380D01*
X77287523Y-67826000D01*
X77239904Y-67873619D01*
X77192285Y-67968857D01*
X77192285Y-68064095D01*
X77239904Y-68206952D01*
X77811333Y-68778380D01*
X77192285Y-68778380D01*
X72409626Y-50355324D02*
X72476969Y-50355324D01*
X72611656Y-50287980D01*
X72679000Y-50220637D01*
X72746343Y-50085949D01*
X72746343Y-49951262D01*
X72712672Y-49850247D01*
X72611656Y-49681888D01*
X72510641Y-49580873D01*
X72342282Y-49479858D01*
X72241267Y-49446186D01*
X72106580Y-49446186D01*
X71971893Y-49513530D01*
X71904549Y-49580873D01*
X71837206Y-49715560D01*
X71837206Y-49782904D01*
X71534160Y-49951262D02*
X71096427Y-50388995D01*
X71601504Y-50422667D01*
X71500488Y-50523682D01*
X71466817Y-50624698D01*
X71466817Y-50692041D01*
X71500488Y-50793056D01*
X71668847Y-50961415D01*
X71769862Y-50995087D01*
X71837206Y-50995087D01*
X71938221Y-50961415D01*
X72140252Y-50759385D01*
X72173924Y-50658369D01*
X72173924Y-50591026D01*
X85065434Y-62140368D02*
X85132777Y-62140368D01*
X85267464Y-62073024D01*
X85334808Y-62005681D01*
X85402151Y-61870993D01*
X85402151Y-61736306D01*
X85368480Y-61635291D01*
X85267464Y-61466932D01*
X85166449Y-61365917D01*
X84998090Y-61264902D01*
X84897075Y-61231230D01*
X84762388Y-61231230D01*
X84627701Y-61298574D01*
X84560357Y-61365917D01*
X84493014Y-61500604D01*
X84493014Y-61567948D01*
X84055281Y-62342398D02*
X84526686Y-62813803D01*
X83954266Y-61904665D02*
X84627701Y-62241383D01*
X84189968Y-62679116D01*
X65363342Y-51228933D02*
X65410961Y-51181314D01*
X65458580Y-51038457D01*
X65458580Y-50943219D01*
X65410961Y-50800361D01*
X65315723Y-50705123D01*
X65220485Y-50657504D01*
X65030009Y-50609885D01*
X64887152Y-50609885D01*
X64696676Y-50657504D01*
X64601438Y-50705123D01*
X64506200Y-50800361D01*
X64458580Y-50943219D01*
X64458580Y-51038457D01*
X64506200Y-51181314D01*
X64553819Y-51228933D01*
X64458580Y-52133695D02*
X64458580Y-51657504D01*
X64934771Y-51609885D01*
X64887152Y-51657504D01*
X64839533Y-51752742D01*
X64839533Y-51990838D01*
X64887152Y-52086076D01*
X64934771Y-52133695D01*
X65030009Y-52181314D01*
X65268104Y-52181314D01*
X65363342Y-52133695D01*
X65410961Y-52086076D01*
X65458580Y-51990838D01*
X65458580Y-51752742D01*
X65410961Y-51657504D01*
X65363342Y-51609885D01*
X75426866Y-49277542D02*
X75474485Y-49325161D01*
X75617342Y-49372780D01*
X75712580Y-49372780D01*
X75855438Y-49325161D01*
X75950676Y-49229923D01*
X75998295Y-49134685D01*
X76045914Y-48944209D01*
X76045914Y-48801352D01*
X75998295Y-48610876D01*
X75950676Y-48515638D01*
X75855438Y-48420400D01*
X75712580Y-48372780D01*
X75617342Y-48372780D01*
X75474485Y-48420400D01*
X75426866Y-48468019D01*
X74569723Y-48372780D02*
X74760200Y-48372780D01*
X74855438Y-48420400D01*
X74903057Y-48468019D01*
X74998295Y-48610876D01*
X75045914Y-48801352D01*
X75045914Y-49182304D01*
X74998295Y-49277542D01*
X74950676Y-49325161D01*
X74855438Y-49372780D01*
X74664961Y-49372780D01*
X74569723Y-49325161D01*
X74522104Y-49277542D01*
X74474485Y-49182304D01*
X74474485Y-48944209D01*
X74522104Y-48848971D01*
X74569723Y-48801352D01*
X74664961Y-48753733D01*
X74855438Y-48753733D01*
X74950676Y-48801352D01*
X74998295Y-48848971D01*
X75045914Y-48944209D01*
X58981666Y-42521142D02*
X59029285Y-42568761D01*
X59172142Y-42616380D01*
X59267380Y-42616380D01*
X59410238Y-42568761D01*
X59505476Y-42473523D01*
X59553095Y-42378285D01*
X59600714Y-42187809D01*
X59600714Y-42044952D01*
X59553095Y-41854476D01*
X59505476Y-41759238D01*
X59410238Y-41664000D01*
X59267380Y-41616380D01*
X59172142Y-41616380D01*
X59029285Y-41664000D01*
X58981666Y-41711619D01*
X58648333Y-41616380D02*
X57981666Y-41616380D01*
X58410238Y-42616380D01*
X58840666Y-45061142D02*
X58888285Y-45108761D01*
X59031142Y-45156380D01*
X59126380Y-45156380D01*
X59269238Y-45108761D01*
X59364476Y-45013523D01*
X59412095Y-44918285D01*
X59459714Y-44727809D01*
X59459714Y-44584952D01*
X59412095Y-44394476D01*
X59364476Y-44299238D01*
X59269238Y-44204000D01*
X59126380Y-44156380D01*
X59031142Y-44156380D01*
X58888285Y-44204000D01*
X58840666Y-44251619D01*
X58269238Y-44584952D02*
X58364476Y-44537333D01*
X58412095Y-44489714D01*
X58459714Y-44394476D01*
X58459714Y-44346857D01*
X58412095Y-44251619D01*
X58364476Y-44204000D01*
X58269238Y-44156380D01*
X58078761Y-44156380D01*
X57983523Y-44204000D01*
X57935904Y-44251619D01*
X57888285Y-44346857D01*
X57888285Y-44394476D01*
X57935904Y-44489714D01*
X57983523Y-44537333D01*
X58078761Y-44584952D01*
X58269238Y-44584952D01*
X58364476Y-44632571D01*
X58412095Y-44680190D01*
X58459714Y-44775428D01*
X58459714Y-44965904D01*
X58412095Y-45061142D01*
X58364476Y-45108761D01*
X58269238Y-45156380D01*
X58078761Y-45156380D01*
X57983523Y-45108761D01*
X57935904Y-45061142D01*
X57888285Y-44965904D01*
X57888285Y-44775428D01*
X57935904Y-44680190D01*
X57983523Y-44632571D01*
X58078761Y-44584952D01*
X94019666Y-144349742D02*
X94067285Y-144397361D01*
X94210142Y-144444980D01*
X94305380Y-144444980D01*
X94448238Y-144397361D01*
X94543476Y-144302123D01*
X94591095Y-144206885D01*
X94638714Y-144016409D01*
X94638714Y-143873552D01*
X94591095Y-143683076D01*
X94543476Y-143587838D01*
X94448238Y-143492600D01*
X94305380Y-143444980D01*
X94210142Y-143444980D01*
X94067285Y-143492600D01*
X94019666Y-143540219D01*
X93543476Y-144444980D02*
X93353000Y-144444980D01*
X93257761Y-144397361D01*
X93210142Y-144349742D01*
X93114904Y-144206885D01*
X93067285Y-144016409D01*
X93067285Y-143635457D01*
X93114904Y-143540219D01*
X93162523Y-143492600D01*
X93257761Y-143444980D01*
X93448238Y-143444980D01*
X93543476Y-143492600D01*
X93591095Y-143540219D01*
X93638714Y-143635457D01*
X93638714Y-143873552D01*
X93591095Y-143968790D01*
X93543476Y-144016409D01*
X93448238Y-144064028D01*
X93257761Y-144064028D01*
X93162523Y-144016409D01*
X93114904Y-143968790D01*
X93067285Y-143873552D01*
X81745057Y-144349742D02*
X81792676Y-144397361D01*
X81935533Y-144444980D01*
X82030771Y-144444980D01*
X82173628Y-144397361D01*
X82268866Y-144302123D01*
X82316485Y-144206885D01*
X82364104Y-144016409D01*
X82364104Y-143873552D01*
X82316485Y-143683076D01*
X82268866Y-143587838D01*
X82173628Y-143492600D01*
X82030771Y-143444980D01*
X81935533Y-143444980D01*
X81792676Y-143492600D01*
X81745057Y-143540219D01*
X80792676Y-144444980D02*
X81364104Y-144444980D01*
X81078390Y-144444980D02*
X81078390Y-143444980D01*
X81173628Y-143587838D01*
X81268866Y-143683076D01*
X81364104Y-143730695D01*
X80173628Y-143444980D02*
X80078390Y-143444980D01*
X79983152Y-143492600D01*
X79935533Y-143540219D01*
X79887914Y-143635457D01*
X79840295Y-143825933D01*
X79840295Y-144064028D01*
X79887914Y-144254504D01*
X79935533Y-144349742D01*
X79983152Y-144397361D01*
X80078390Y-144444980D01*
X80173628Y-144444980D01*
X80268866Y-144397361D01*
X80316485Y-144349742D01*
X80364104Y-144254504D01*
X80411723Y-144064028D01*
X80411723Y-143825933D01*
X80364104Y-143635457D01*
X80316485Y-143540219D01*
X80268866Y-143492600D01*
X80173628Y-143444980D01*
X85887857Y-113539542D02*
X85935476Y-113587161D01*
X86078333Y-113634780D01*
X86173571Y-113634780D01*
X86316428Y-113587161D01*
X86411666Y-113491923D01*
X86459285Y-113396685D01*
X86506904Y-113206209D01*
X86506904Y-113063352D01*
X86459285Y-112872876D01*
X86411666Y-112777638D01*
X86316428Y-112682400D01*
X86173571Y-112634780D01*
X86078333Y-112634780D01*
X85935476Y-112682400D01*
X85887857Y-112730019D01*
X84935476Y-113634780D02*
X85506904Y-113634780D01*
X85221190Y-113634780D02*
X85221190Y-112634780D01*
X85316428Y-112777638D01*
X85411666Y-112872876D01*
X85506904Y-112920495D01*
X83983095Y-113634780D02*
X84554523Y-113634780D01*
X84268809Y-113634780D02*
X84268809Y-112634780D01*
X84364047Y-112777638D01*
X84459285Y-112872876D01*
X84554523Y-112920495D01*
X104658457Y-91644742D02*
X104706076Y-91692361D01*
X104848933Y-91739980D01*
X104944171Y-91739980D01*
X105087028Y-91692361D01*
X105182266Y-91597123D01*
X105229885Y-91501885D01*
X105277504Y-91311409D01*
X105277504Y-91168552D01*
X105229885Y-90978076D01*
X105182266Y-90882838D01*
X105087028Y-90787600D01*
X104944171Y-90739980D01*
X104848933Y-90739980D01*
X104706076Y-90787600D01*
X104658457Y-90835219D01*
X103706076Y-91739980D02*
X104277504Y-91739980D01*
X103991790Y-91739980D02*
X103991790Y-90739980D01*
X104087028Y-90882838D01*
X104182266Y-90978076D01*
X104277504Y-91025695D01*
X103325123Y-90835219D02*
X103277504Y-90787600D01*
X103182266Y-90739980D01*
X102944171Y-90739980D01*
X102848933Y-90787600D01*
X102801314Y-90835219D01*
X102753695Y-90930457D01*
X102753695Y-91025695D01*
X102801314Y-91168552D01*
X103372742Y-91739980D01*
X102753695Y-91739980D01*
X113825257Y-136602742D02*
X113872876Y-136650361D01*
X114015733Y-136697980D01*
X114110971Y-136697980D01*
X114253828Y-136650361D01*
X114349066Y-136555123D01*
X114396685Y-136459885D01*
X114444304Y-136269409D01*
X114444304Y-136126552D01*
X114396685Y-135936076D01*
X114349066Y-135840838D01*
X114253828Y-135745600D01*
X114110971Y-135697980D01*
X114015733Y-135697980D01*
X113872876Y-135745600D01*
X113825257Y-135793219D01*
X112872876Y-136697980D02*
X113444304Y-136697980D01*
X113158590Y-136697980D02*
X113158590Y-135697980D01*
X113253828Y-135840838D01*
X113349066Y-135936076D01*
X113444304Y-135983695D01*
X112539542Y-135697980D02*
X111920495Y-135697980D01*
X112253828Y-136078933D01*
X112110971Y-136078933D01*
X112015733Y-136126552D01*
X111968114Y-136174171D01*
X111920495Y-136269409D01*
X111920495Y-136507504D01*
X111968114Y-136602742D01*
X112015733Y-136650361D01*
X112110971Y-136697980D01*
X112396685Y-136697980D01*
X112491923Y-136650361D01*
X112539542Y-136602742D01*
X68926580Y-50778504D02*
X67926580Y-50778504D01*
X67926580Y-51016600D01*
X67974200Y-51159457D01*
X68069438Y-51254695D01*
X68164676Y-51302314D01*
X68355152Y-51349933D01*
X68498009Y-51349933D01*
X68688485Y-51302314D01*
X68783723Y-51254695D01*
X68878961Y-51159457D01*
X68926580Y-51016600D01*
X68926580Y-50778504D01*
X68926580Y-52302314D02*
X68926580Y-51730885D01*
X68926580Y-52016600D02*
X67926580Y-52016600D01*
X68069438Y-51921361D01*
X68164676Y-51826123D01*
X68212295Y-51730885D01*
X72766133Y-47909171D02*
X73099466Y-47909171D01*
X73099466Y-48432980D02*
X73099466Y-47432980D01*
X72623276Y-47432980D01*
X71908990Y-47909171D02*
X71766133Y-47956790D01*
X71718514Y-48004409D01*
X71670895Y-48099647D01*
X71670895Y-48242504D01*
X71718514Y-48337742D01*
X71766133Y-48385361D01*
X71861371Y-48432980D01*
X72242323Y-48432980D01*
X72242323Y-47432980D01*
X71908990Y-47432980D01*
X71813752Y-47480600D01*
X71766133Y-47528219D01*
X71718514Y-47623457D01*
X71718514Y-47718695D01*
X71766133Y-47813933D01*
X71813752Y-47861552D01*
X71908990Y-47909171D01*
X72242323Y-47909171D01*
X70718514Y-48432980D02*
X71289942Y-48432980D01*
X71004228Y-48432980D02*
X71004228Y-47432980D01*
X71099466Y-47575838D01*
X71194704Y-47671076D01*
X71289942Y-47718695D01*
X87853733Y-45648571D02*
X88187066Y-45648571D01*
X88187066Y-46172380D02*
X88187066Y-45172380D01*
X87710876Y-45172380D01*
X86996590Y-45648571D02*
X86853733Y-45696190D01*
X86806114Y-45743809D01*
X86758495Y-45839047D01*
X86758495Y-45981904D01*
X86806114Y-46077142D01*
X86853733Y-46124761D01*
X86948971Y-46172380D01*
X87329923Y-46172380D01*
X87329923Y-45172380D01*
X86996590Y-45172380D01*
X86901352Y-45220000D01*
X86853733Y-45267619D01*
X86806114Y-45362857D01*
X86806114Y-45458095D01*
X86853733Y-45553333D01*
X86901352Y-45600952D01*
X86996590Y-45648571D01*
X87329923Y-45648571D01*
X86377542Y-45267619D02*
X86329923Y-45220000D01*
X86234685Y-45172380D01*
X85996590Y-45172380D01*
X85901352Y-45220000D01*
X85853733Y-45267619D01*
X85806114Y-45362857D01*
X85806114Y-45458095D01*
X85853733Y-45600952D01*
X86425161Y-46172380D01*
X85806114Y-46172380D01*
X79657533Y-39939980D02*
X79657533Y-40654266D01*
X79705152Y-40797123D01*
X79800390Y-40892361D01*
X79943247Y-40939980D01*
X80038485Y-40939980D01*
X79276580Y-39939980D02*
X78657533Y-39939980D01*
X78990866Y-40320933D01*
X78848009Y-40320933D01*
X78752771Y-40368552D01*
X78705152Y-40416171D01*
X78657533Y-40511409D01*
X78657533Y-40749504D01*
X78705152Y-40844742D01*
X78752771Y-40892361D01*
X78848009Y-40939980D01*
X79133723Y-40939980D01*
X79228961Y-40892361D01*
X79276580Y-40844742D01*
X107922432Y-49316133D02*
X107631730Y-48812783D01*
X108163928Y-48798242D02*
X107257621Y-48375624D01*
X107096623Y-48720884D01*
X107099531Y-48827324D01*
X107122564Y-48890606D01*
X107188755Y-48974013D01*
X107318227Y-49034387D01*
X107424667Y-49031479D01*
X107487949Y-49008446D01*
X107571356Y-48942256D01*
X107732353Y-48596996D01*
X107519939Y-50179283D02*
X107761435Y-49661393D01*
X107640687Y-49920338D02*
X106734379Y-49497720D01*
X106904101Y-49471779D01*
X107030665Y-49425713D01*
X107114072Y-49359523D01*
X125689866Y-49502432D02*
X126193216Y-49211730D01*
X126207757Y-49743928D02*
X126630375Y-48837621D01*
X126285115Y-48676623D01*
X126178675Y-48679531D01*
X126115393Y-48702564D01*
X126031986Y-48768755D01*
X125971612Y-48898227D01*
X125974520Y-49004667D01*
X125997553Y-49067949D01*
X126063743Y-49151356D01*
X126409003Y-49312353D01*
X125726975Y-48521442D02*
X125703942Y-48458160D01*
X125637752Y-48374753D01*
X125421964Y-48274130D01*
X125315525Y-48277038D01*
X125252242Y-48300071D01*
X125168836Y-48366261D01*
X125128586Y-48452576D01*
X125111370Y-48602173D01*
X125387764Y-49361560D01*
X124826716Y-49099939D01*
X65730380Y-64349333D02*
X65254190Y-64016000D01*
X65730380Y-63777904D02*
X64730380Y-63777904D01*
X64730380Y-64158857D01*
X64778000Y-64254095D01*
X64825619Y-64301714D01*
X64920857Y-64349333D01*
X65063714Y-64349333D01*
X65158952Y-64301714D01*
X65206571Y-64254095D01*
X65254190Y-64158857D01*
X65254190Y-63777904D01*
X65063714Y-65206476D02*
X65730380Y-65206476D01*
X64682761Y-64968380D02*
X65397047Y-64730285D01*
X65397047Y-65349333D01*
X67508380Y-64349333D02*
X67032190Y-64016000D01*
X67508380Y-63777904D02*
X66508380Y-63777904D01*
X66508380Y-64158857D01*
X66556000Y-64254095D01*
X66603619Y-64301714D01*
X66698857Y-64349333D01*
X66841714Y-64349333D01*
X66936952Y-64301714D01*
X66984571Y-64254095D01*
X67032190Y-64158857D01*
X67032190Y-63777904D01*
X66508380Y-65254095D02*
X66508380Y-64777904D01*
X66984571Y-64730285D01*
X66936952Y-64777904D01*
X66889333Y-64873142D01*
X66889333Y-65111238D01*
X66936952Y-65206476D01*
X66984571Y-65254095D01*
X67079809Y-65301714D01*
X67317904Y-65301714D01*
X67413142Y-65254095D01*
X67460761Y-65206476D01*
X67508380Y-65111238D01*
X67508380Y-64873142D01*
X67460761Y-64777904D01*
X67413142Y-64730285D01*
X86704466Y-47899580D02*
X87037800Y-47423390D01*
X87275895Y-47899580D02*
X87275895Y-46899580D01*
X86894942Y-46899580D01*
X86799704Y-46947200D01*
X86752085Y-46994819D01*
X86704466Y-47090057D01*
X86704466Y-47232914D01*
X86752085Y-47328152D01*
X86799704Y-47375771D01*
X86894942Y-47423390D01*
X87275895Y-47423390D01*
X85847323Y-46899580D02*
X86037800Y-46899580D01*
X86133038Y-46947200D01*
X86180657Y-46994819D01*
X86275895Y-47137676D01*
X86323514Y-47328152D01*
X86323514Y-47709104D01*
X86275895Y-47804342D01*
X86228276Y-47851961D01*
X86133038Y-47899580D01*
X85942561Y-47899580D01*
X85847323Y-47851961D01*
X85799704Y-47804342D01*
X85752085Y-47709104D01*
X85752085Y-47471009D01*
X85799704Y-47375771D01*
X85847323Y-47328152D01*
X85942561Y-47280533D01*
X86133038Y-47280533D01*
X86228276Y-47328152D01*
X86275895Y-47375771D01*
X86323514Y-47471009D01*
X86704466Y-49677580D02*
X87037800Y-49201390D01*
X87275895Y-49677580D02*
X87275895Y-48677580D01*
X86894942Y-48677580D01*
X86799704Y-48725200D01*
X86752085Y-48772819D01*
X86704466Y-48868057D01*
X86704466Y-49010914D01*
X86752085Y-49106152D01*
X86799704Y-49153771D01*
X86894942Y-49201390D01*
X87275895Y-49201390D01*
X86371133Y-48677580D02*
X85704466Y-48677580D01*
X86133038Y-49677580D01*
X62921732Y-104850030D02*
X62820717Y-104277610D01*
X63325793Y-104445969D02*
X62618687Y-103738862D01*
X62349312Y-104008236D01*
X62315641Y-104109251D01*
X62315641Y-104176595D01*
X62349312Y-104277610D01*
X62450328Y-104378625D01*
X62551343Y-104412297D01*
X62618687Y-104412297D01*
X62719702Y-104378625D01*
X62989076Y-104109251D01*
X62113610Y-104850030D02*
X62147282Y-104749015D01*
X62147282Y-104681671D01*
X62113610Y-104580656D01*
X62079938Y-104546984D01*
X61978923Y-104513312D01*
X61911580Y-104513312D01*
X61810564Y-104546984D01*
X61675877Y-104681671D01*
X61642206Y-104782687D01*
X61642206Y-104850030D01*
X61675877Y-104951045D01*
X61709549Y-104984717D01*
X61810564Y-105018389D01*
X61877908Y-105018389D01*
X61978923Y-104984717D01*
X62113610Y-104850030D01*
X62214625Y-104816358D01*
X62281969Y-104816358D01*
X62382984Y-104850030D01*
X62517671Y-104984717D01*
X62551343Y-105085732D01*
X62551343Y-105153076D01*
X62517671Y-105254091D01*
X62382984Y-105388778D01*
X62281969Y-105422450D01*
X62214625Y-105422450D01*
X62113610Y-105388778D01*
X61978923Y-105254091D01*
X61945251Y-105153076D01*
X61945251Y-105085732D01*
X61978923Y-104984717D01*
X133115530Y-108382696D02*
X132803148Y-107892506D01*
X133334206Y-107854765D02*
X132410326Y-107472082D01*
X132264542Y-107824036D01*
X132272090Y-107930247D01*
X132297862Y-107992465D01*
X132367627Y-108072905D01*
X132499610Y-108127574D01*
X132605821Y-108120026D01*
X132668039Y-108094255D01*
X132748479Y-108024489D01*
X132894263Y-107672535D01*
X132933299Y-108822639D02*
X132860407Y-108998616D01*
X132779967Y-109068381D01*
X132717750Y-109094153D01*
X132549321Y-109127472D01*
X132355121Y-109098574D01*
X132003167Y-108952790D01*
X131933401Y-108872350D01*
X131907630Y-108810133D01*
X131900082Y-108703921D01*
X131972974Y-108527944D01*
X132053414Y-108458178D01*
X132115631Y-108432407D01*
X132221843Y-108424859D01*
X132441814Y-108515974D01*
X132511580Y-108596414D01*
X132537351Y-108658632D01*
X132544899Y-108764843D01*
X132472007Y-108940820D01*
X132391567Y-109010586D01*
X132329350Y-109036357D01*
X132223138Y-109043905D01*
X88995457Y-97734380D02*
X89328790Y-97258190D01*
X89566885Y-97734380D02*
X89566885Y-96734380D01*
X89185933Y-96734380D01*
X89090695Y-96782000D01*
X89043076Y-96829619D01*
X88995457Y-96924857D01*
X88995457Y-97067714D01*
X89043076Y-97162952D01*
X89090695Y-97210571D01*
X89185933Y-97258190D01*
X89566885Y-97258190D01*
X88043076Y-97734380D02*
X88614504Y-97734380D01*
X88328790Y-97734380D02*
X88328790Y-96734380D01*
X88424028Y-96877238D01*
X88519266Y-96972476D01*
X88614504Y-97020095D01*
X87424028Y-96734380D02*
X87328790Y-96734380D01*
X87233552Y-96782000D01*
X87185933Y-96829619D01*
X87138314Y-96924857D01*
X87090695Y-97115333D01*
X87090695Y-97353428D01*
X87138314Y-97543904D01*
X87185933Y-97639142D01*
X87233552Y-97686761D01*
X87328790Y-97734380D01*
X87424028Y-97734380D01*
X87519266Y-97686761D01*
X87566885Y-97639142D01*
X87614504Y-97543904D01*
X87662123Y-97353428D01*
X87662123Y-97115333D01*
X87614504Y-96924857D01*
X87566885Y-96829619D01*
X87519266Y-96782000D01*
X87424028Y-96734380D01*
X113926687Y-106438450D02*
X114499106Y-106337435D01*
X114330748Y-106842511D02*
X115037854Y-106135404D01*
X114768480Y-105866030D01*
X114667465Y-105832358D01*
X114600122Y-105832358D01*
X114499106Y-105866030D01*
X114398091Y-105967045D01*
X114364419Y-106068061D01*
X114364419Y-106135404D01*
X114398091Y-106236419D01*
X114667465Y-106505793D01*
X113253251Y-105765015D02*
X113657312Y-106169076D01*
X113455282Y-105967045D02*
X114162389Y-105259938D01*
X114128717Y-105428297D01*
X114128717Y-105562984D01*
X114162389Y-105664000D01*
X112579816Y-105091580D02*
X112983877Y-105495641D01*
X112781847Y-105293610D02*
X113488954Y-104586503D01*
X113455282Y-104754862D01*
X113455282Y-104889549D01*
X113488954Y-104990564D01*
X123388380Y-131183142D02*
X122912190Y-130849809D01*
X123388380Y-130611714D02*
X122388380Y-130611714D01*
X122388380Y-130992666D01*
X122436000Y-131087904D01*
X122483619Y-131135523D01*
X122578857Y-131183142D01*
X122721714Y-131183142D01*
X122816952Y-131135523D01*
X122864571Y-131087904D01*
X122912190Y-130992666D01*
X122912190Y-130611714D01*
X123388380Y-132135523D02*
X123388380Y-131564095D01*
X123388380Y-131849809D02*
X122388380Y-131849809D01*
X122531238Y-131754571D01*
X122626476Y-131659333D01*
X122674095Y-131564095D01*
X122483619Y-132516476D02*
X122436000Y-132564095D01*
X122388380Y-132659333D01*
X122388380Y-132897428D01*
X122436000Y-132992666D01*
X122483619Y-133040285D01*
X122578857Y-133087904D01*
X122674095Y-133087904D01*
X122816952Y-133040285D01*
X123388380Y-132468857D01*
X123388380Y-133087904D01*
X81770457Y-142844780D02*
X82103790Y-142368590D01*
X82341885Y-142844780D02*
X82341885Y-141844780D01*
X81960933Y-141844780D01*
X81865695Y-141892400D01*
X81818076Y-141940019D01*
X81770457Y-142035257D01*
X81770457Y-142178114D01*
X81818076Y-142273352D01*
X81865695Y-142320971D01*
X81960933Y-142368590D01*
X82341885Y-142368590D01*
X80818076Y-142844780D02*
X81389504Y-142844780D01*
X81103790Y-142844780D02*
X81103790Y-141844780D01*
X81199028Y-141987638D01*
X81294266Y-142082876D01*
X81389504Y-142130495D01*
X80484742Y-141844780D02*
X79865695Y-141844780D01*
X80199028Y-142225733D01*
X80056171Y-142225733D01*
X79960933Y-142273352D01*
X79913314Y-142320971D01*
X79865695Y-142416209D01*
X79865695Y-142654304D01*
X79913314Y-142749542D01*
X79960933Y-142797161D01*
X80056171Y-142844780D01*
X80341885Y-142844780D01*
X80437123Y-142797161D01*
X80484742Y-142749542D01*
X94927657Y-142793980D02*
X95260990Y-142317790D01*
X95499085Y-142793980D02*
X95499085Y-141793980D01*
X95118133Y-141793980D01*
X95022895Y-141841600D01*
X94975276Y-141889219D01*
X94927657Y-141984457D01*
X94927657Y-142127314D01*
X94975276Y-142222552D01*
X95022895Y-142270171D01*
X95118133Y-142317790D01*
X95499085Y-142317790D01*
X93975276Y-142793980D02*
X94546704Y-142793980D01*
X94260990Y-142793980D02*
X94260990Y-141793980D01*
X94356228Y-141936838D01*
X94451466Y-142032076D01*
X94546704Y-142079695D01*
X93118133Y-142127314D02*
X93118133Y-142793980D01*
X93356228Y-141746361D02*
X93594323Y-142460647D01*
X92975276Y-142460647D01*
X81745057Y-141168380D02*
X82078390Y-140692190D01*
X82316485Y-141168380D02*
X82316485Y-140168380D01*
X81935533Y-140168380D01*
X81840295Y-140216000D01*
X81792676Y-140263619D01*
X81745057Y-140358857D01*
X81745057Y-140501714D01*
X81792676Y-140596952D01*
X81840295Y-140644571D01*
X81935533Y-140692190D01*
X82316485Y-140692190D01*
X80792676Y-141168380D02*
X81364104Y-141168380D01*
X81078390Y-141168380D02*
X81078390Y-140168380D01*
X81173628Y-140311238D01*
X81268866Y-140406476D01*
X81364104Y-140454095D01*
X79887914Y-140168380D02*
X80364104Y-140168380D01*
X80411723Y-140644571D01*
X80364104Y-140596952D01*
X80268866Y-140549333D01*
X80030771Y-140549333D01*
X79935533Y-140596952D01*
X79887914Y-140644571D01*
X79840295Y-140739809D01*
X79840295Y-140977904D01*
X79887914Y-141073142D01*
X79935533Y-141120761D01*
X80030771Y-141168380D01*
X80268866Y-141168380D01*
X80364104Y-141120761D01*
X80411723Y-141073142D01*
X94953057Y-141142980D02*
X95286390Y-140666790D01*
X95524485Y-141142980D02*
X95524485Y-140142980D01*
X95143533Y-140142980D01*
X95048295Y-140190600D01*
X95000676Y-140238219D01*
X94953057Y-140333457D01*
X94953057Y-140476314D01*
X95000676Y-140571552D01*
X95048295Y-140619171D01*
X95143533Y-140666790D01*
X95524485Y-140666790D01*
X94000676Y-141142980D02*
X94572104Y-141142980D01*
X94286390Y-141142980D02*
X94286390Y-140142980D01*
X94381628Y-140285838D01*
X94476866Y-140381076D01*
X94572104Y-140428695D01*
X93143533Y-140142980D02*
X93334009Y-140142980D01*
X93429247Y-140190600D01*
X93476866Y-140238219D01*
X93572104Y-140381076D01*
X93619723Y-140571552D01*
X93619723Y-140952504D01*
X93572104Y-141047742D01*
X93524485Y-141095361D01*
X93429247Y-141142980D01*
X93238771Y-141142980D01*
X93143533Y-141095361D01*
X93095914Y-141047742D01*
X93048295Y-140952504D01*
X93048295Y-140714409D01*
X93095914Y-140619171D01*
X93143533Y-140571552D01*
X93238771Y-140523933D01*
X93429247Y-140523933D01*
X93524485Y-140571552D01*
X93572104Y-140619171D01*
X93619723Y-140714409D01*
X73565603Y-80103006D02*
X73257511Y-79610108D01*
X73788878Y-79577003D02*
X72868373Y-79186272D01*
X72719523Y-79536940D01*
X72726144Y-79643214D01*
X72751371Y-79705653D01*
X72820432Y-79786700D01*
X72951933Y-79842518D01*
X73058206Y-79835897D01*
X73120646Y-79810670D01*
X73201692Y-79741609D01*
X73350542Y-79390940D01*
X73193478Y-80979677D02*
X73416753Y-80453674D01*
X73305115Y-80716676D02*
X72384610Y-80325944D01*
X72553324Y-80294096D01*
X72678203Y-80243641D01*
X72759249Y-80174581D01*
X72142729Y-80895781D02*
X71882242Y-81509451D01*
X72970203Y-81505680D01*
X137498057Y-90782380D02*
X137831390Y-90306190D01*
X138069485Y-90782380D02*
X138069485Y-89782380D01*
X137688533Y-89782380D01*
X137593295Y-89830000D01*
X137545676Y-89877619D01*
X137498057Y-89972857D01*
X137498057Y-90115714D01*
X137545676Y-90210952D01*
X137593295Y-90258571D01*
X137688533Y-90306190D01*
X138069485Y-90306190D01*
X136545676Y-90782380D02*
X137117104Y-90782380D01*
X136831390Y-90782380D02*
X136831390Y-89782380D01*
X136926628Y-89925238D01*
X137021866Y-90020476D01*
X137117104Y-90068095D01*
X135974247Y-90210952D02*
X136069485Y-90163333D01*
X136117104Y-90115714D01*
X136164723Y-90020476D01*
X136164723Y-89972857D01*
X136117104Y-89877619D01*
X136069485Y-89830000D01*
X135974247Y-89782380D01*
X135783771Y-89782380D01*
X135688533Y-89830000D01*
X135640914Y-89877619D01*
X135593295Y-89972857D01*
X135593295Y-90020476D01*
X135640914Y-90115714D01*
X135688533Y-90163333D01*
X135783771Y-90210952D01*
X135974247Y-90210952D01*
X136069485Y-90258571D01*
X136117104Y-90306190D01*
X136164723Y-90401428D01*
X136164723Y-90591904D01*
X136117104Y-90687142D01*
X136069485Y-90734761D01*
X135974247Y-90782380D01*
X135783771Y-90782380D01*
X135688533Y-90734761D01*
X135640914Y-90687142D01*
X135593295Y-90591904D01*
X135593295Y-90401428D01*
X135640914Y-90306190D01*
X135688533Y-90258571D01*
X135783771Y-90210952D01*
X91574857Y-120594380D02*
X91908190Y-120118190D01*
X92146285Y-120594380D02*
X92146285Y-119594380D01*
X91765333Y-119594380D01*
X91670095Y-119642000D01*
X91622476Y-119689619D01*
X91574857Y-119784857D01*
X91574857Y-119927714D01*
X91622476Y-120022952D01*
X91670095Y-120070571D01*
X91765333Y-120118190D01*
X92146285Y-120118190D01*
X90622476Y-120594380D02*
X91193904Y-120594380D01*
X90908190Y-120594380D02*
X90908190Y-119594380D01*
X91003428Y-119737238D01*
X91098666Y-119832476D01*
X91193904Y-119880095D01*
X90146285Y-120594380D02*
X89955809Y-120594380D01*
X89860571Y-120546761D01*
X89812952Y-120499142D01*
X89717714Y-120356285D01*
X89670095Y-120165809D01*
X89670095Y-119784857D01*
X89717714Y-119689619D01*
X89765333Y-119642000D01*
X89860571Y-119594380D01*
X90051047Y-119594380D01*
X90146285Y-119642000D01*
X90193904Y-119689619D01*
X90241523Y-119784857D01*
X90241523Y-120022952D01*
X90193904Y-120118190D01*
X90146285Y-120165809D01*
X90051047Y-120213428D01*
X89860571Y-120213428D01*
X89765333Y-120165809D01*
X89717714Y-120118190D01*
X89670095Y-120022952D01*
X93991245Y-69962558D02*
X93885238Y-69391042D01*
X94391765Y-69554987D02*
X93678514Y-68854077D01*
X93411501Y-69125792D01*
X93378712Y-69227097D01*
X93379300Y-69294438D01*
X93413852Y-69395156D01*
X93515745Y-69495286D01*
X93617050Y-69528074D01*
X93684391Y-69527487D01*
X93785108Y-69492935D01*
X94052121Y-69221220D01*
X93078910Y-69600117D02*
X93011569Y-69600704D01*
X92910852Y-69635256D01*
X92743968Y-69805078D01*
X92711179Y-69906383D01*
X92711767Y-69973724D01*
X92746319Y-70074442D01*
X92814248Y-70141195D01*
X92949517Y-70207361D01*
X93757609Y-70200309D01*
X93323712Y-70641844D01*
X92176566Y-70382471D02*
X92109812Y-70450400D01*
X92077023Y-70551705D01*
X92077611Y-70619046D01*
X92112163Y-70719764D01*
X92214644Y-70887234D01*
X92384465Y-71054118D01*
X92553699Y-71153660D01*
X92655004Y-71186449D01*
X92722345Y-71185861D01*
X92823063Y-71151309D01*
X92889816Y-71083380D01*
X92922605Y-70982075D01*
X92922017Y-70914734D01*
X92887465Y-70814017D01*
X92784985Y-70646546D01*
X92615163Y-70479663D01*
X92445929Y-70380121D01*
X92344624Y-70347332D01*
X92277283Y-70347919D01*
X92176566Y-70382471D01*
X103307317Y-82695878D02*
X103874821Y-82821607D01*
X103525993Y-83223809D02*
X104449873Y-82841125D01*
X104304088Y-82489171D01*
X104223648Y-82419406D01*
X104161431Y-82393635D01*
X104055219Y-82386086D01*
X103923236Y-82440755D01*
X103853471Y-82521196D01*
X103827700Y-82583413D01*
X103820151Y-82689625D01*
X103965936Y-83041579D01*
X103997424Y-81997686D02*
X104023195Y-81935469D01*
X104030743Y-81829257D01*
X103939628Y-81609286D01*
X103859188Y-81539521D01*
X103796970Y-81513749D01*
X103690759Y-81506201D01*
X103602770Y-81542647D01*
X103489011Y-81641310D01*
X103179756Y-82387918D01*
X102942856Y-81815992D01*
X102578396Y-80936107D02*
X102797072Y-81464038D01*
X102687734Y-81200073D02*
X103611614Y-80817389D01*
X103516077Y-80960047D01*
X103464534Y-81084482D01*
X103456986Y-81190693D01*
X59689904Y-57758380D02*
X59689904Y-58567904D01*
X59642285Y-58663142D01*
X59594666Y-58710761D01*
X59499428Y-58758380D01*
X59308952Y-58758380D01*
X59213714Y-58710761D01*
X59166095Y-58663142D01*
X59118476Y-58567904D01*
X59118476Y-57758380D01*
X58118476Y-58758380D02*
X58689904Y-58758380D01*
X58404190Y-58758380D02*
X58404190Y-57758380D01*
X58499428Y-57901238D01*
X58594666Y-57996476D01*
X58689904Y-58044095D01*
X73620380Y-59944095D02*
X74429904Y-59944095D01*
X74525142Y-59991714D01*
X74572761Y-60039333D01*
X74620380Y-60134571D01*
X74620380Y-60325047D01*
X74572761Y-60420285D01*
X74525142Y-60467904D01*
X74429904Y-60515523D01*
X73620380Y-60515523D01*
X73620380Y-60896476D02*
X73620380Y-61515523D01*
X74001333Y-61182190D01*
X74001333Y-61325047D01*
X74048952Y-61420285D01*
X74096571Y-61467904D01*
X74191809Y-61515523D01*
X74429904Y-61515523D01*
X74525142Y-61467904D01*
X74572761Y-61420285D01*
X74620380Y-61325047D01*
X74620380Y-61039333D01*
X74572761Y-60944095D01*
X74525142Y-60896476D01*
X69087904Y-47458380D02*
X69087904Y-48267904D01*
X69040285Y-48363142D01*
X68992666Y-48410761D01*
X68897428Y-48458380D01*
X68706952Y-48458380D01*
X68611714Y-48410761D01*
X68564095Y-48363142D01*
X68516476Y-48267904D01*
X68516476Y-47458380D01*
X67611714Y-47791714D02*
X67611714Y-48458380D01*
X67849809Y-47410761D02*
X68087904Y-48125047D01*
X67468857Y-48125047D01*
X78054104Y-112406180D02*
X78054104Y-113215704D01*
X78006485Y-113310942D01*
X77958866Y-113358561D01*
X77863628Y-113406180D01*
X77673152Y-113406180D01*
X77577914Y-113358561D01*
X77530295Y-113310942D01*
X77482676Y-113215704D01*
X77482676Y-112406180D01*
X76577914Y-112406180D02*
X76768390Y-112406180D01*
X76863628Y-112453800D01*
X76911247Y-112501419D01*
X77006485Y-112644276D01*
X77054104Y-112834752D01*
X77054104Y-113215704D01*
X77006485Y-113310942D01*
X76958866Y-113358561D01*
X76863628Y-113406180D01*
X76673152Y-113406180D01*
X76577914Y-113358561D01*
X76530295Y-113310942D01*
X76482676Y-113215704D01*
X76482676Y-112977609D01*
X76530295Y-112882371D01*
X76577914Y-112834752D01*
X76673152Y-112787133D01*
X76863628Y-112787133D01*
X76958866Y-112834752D01*
X77006485Y-112882371D01*
X77054104Y-112977609D01*
X97002504Y-90587580D02*
X97002504Y-91397104D01*
X96954885Y-91492342D01*
X96907266Y-91539961D01*
X96812028Y-91587580D01*
X96621552Y-91587580D01*
X96526314Y-91539961D01*
X96478695Y-91492342D01*
X96431076Y-91397104D01*
X96431076Y-90587580D01*
X96050123Y-90587580D02*
X95383457Y-90587580D01*
X95812028Y-91587580D01*
X106095704Y-135596380D02*
X106095704Y-136405904D01*
X106048085Y-136501142D01*
X106000466Y-136548761D01*
X105905228Y-136596380D01*
X105714752Y-136596380D01*
X105619514Y-136548761D01*
X105571895Y-136501142D01*
X105524276Y-136405904D01*
X105524276Y-135596380D01*
X104905228Y-136024952D02*
X105000466Y-135977333D01*
X105048085Y-135929714D01*
X105095704Y-135834476D01*
X105095704Y-135786857D01*
X105048085Y-135691619D01*
X105000466Y-135644000D01*
X104905228Y-135596380D01*
X104714752Y-135596380D01*
X104619514Y-135644000D01*
X104571895Y-135691619D01*
X104524276Y-135786857D01*
X104524276Y-135834476D01*
X104571895Y-135929714D01*
X104619514Y-135977333D01*
X104714752Y-136024952D01*
X104905228Y-136024952D01*
X105000466Y-136072571D01*
X105048085Y-136120190D01*
X105095704Y-136215428D01*
X105095704Y-136405904D01*
X105048085Y-136501142D01*
X105000466Y-136548761D01*
X104905228Y-136596380D01*
X104714752Y-136596380D01*
X104619514Y-136548761D01*
X104571895Y-136501142D01*
X104524276Y-136405904D01*
X104524276Y-136215428D01*
X104571895Y-136120190D01*
X104619514Y-136072571D01*
X104714752Y-136024952D01*
X77184190Y-64492190D02*
X77184190Y-64968380D01*
X77517523Y-63968380D02*
X77184190Y-64492190D01*
X76850857Y-63968380D01*
X75993714Y-64968380D02*
X76565142Y-64968380D01*
X76279428Y-64968380D02*
X76279428Y-63968380D01*
X76374666Y-64111238D01*
X76469904Y-64206476D01*
X76565142Y-64254095D01*
X68684380Y-57015142D02*
X68208190Y-56681809D01*
X68684380Y-56443714D02*
X67684380Y-56443714D01*
X67684380Y-56824666D01*
X67732000Y-56919904D01*
X67779619Y-56967523D01*
X67874857Y-57015142D01*
X68017714Y-57015142D01*
X68112952Y-56967523D01*
X68160571Y-56919904D01*
X68208190Y-56824666D01*
X68208190Y-56443714D01*
X67779619Y-57396095D02*
X67732000Y-57443714D01*
X67684380Y-57538952D01*
X67684380Y-57777047D01*
X67732000Y-57872285D01*
X67779619Y-57919904D01*
X67874857Y-57967523D01*
X67970095Y-57967523D01*
X68112952Y-57919904D01*
X68684380Y-57348476D01*
X68684380Y-57967523D01*
X67779619Y-58348476D02*
X67732000Y-58396095D01*
X67684380Y-58491333D01*
X67684380Y-58729428D01*
X67732000Y-58824666D01*
X67779619Y-58872285D01*
X67874857Y-58919904D01*
X67970095Y-58919904D01*
X68112952Y-58872285D01*
X68684380Y-58300857D01*
X68684380Y-58919904D01*
X132100659Y-57983014D02*
X131809957Y-57479664D01*
X132342155Y-57465123D02*
X131435847Y-57042505D01*
X131274850Y-57387765D01*
X131277758Y-57494205D01*
X131300791Y-57557487D01*
X131366981Y-57640894D01*
X131496454Y-57701268D01*
X131602894Y-57698360D01*
X131666176Y-57675327D01*
X131749583Y-57609137D01*
X131910580Y-57263877D01*
X131119669Y-57945905D02*
X131056387Y-57968938D01*
X130972980Y-58035128D01*
X130872356Y-58250915D01*
X130875265Y-58357355D01*
X130898297Y-58420637D01*
X130964488Y-58504044D01*
X131050803Y-58544294D01*
X131200400Y-58561510D01*
X131959786Y-58285116D01*
X131698165Y-58846164D01*
X130650985Y-58725648D02*
X130389364Y-59286696D01*
X130875497Y-59145591D01*
X130815123Y-59275063D01*
X130818031Y-59381503D01*
X130841064Y-59444785D01*
X130907254Y-59528192D01*
X131123042Y-59628815D01*
X131229482Y-59625907D01*
X131292764Y-59602874D01*
X131376171Y-59536684D01*
X131496919Y-59277739D01*
X131494011Y-59171299D01*
X131470978Y-59108017D01*
M02*
