G04 #@! TF.GenerationSoftware,KiCad,Pcbnew,(5.1.5)-3*
G04 #@! TF.CreationDate,2021-10-20T23:00:28+02:00*
G04 #@! TF.ProjectId,WFP_v2_0,5746505f-7632-45f3-902e-6b696361645f,v 0.2*
G04 #@! TF.SameCoordinates,Original*
G04 #@! TF.FileFunction,OtherDrawing,Comment*
%FSLAX46Y46*%
G04 Gerber Fmt 4.6, Leading zero omitted, Abs format (unit mm)*
G04 Created by KiCad (PCBNEW (5.1.5)-3) date 2021-10-20 23:00:28*
%MOMM*%
%LPD*%
G04 APERTURE LIST*
%ADD10C,0.120000*%
%ADD11C,0.150000*%
%ADD12C,0.080000*%
G04 APERTURE END LIST*
D10*
X114858990Y-130810000D02*
G75*
G03X114858990Y-130810000I-27228990J0D01*
G01*
D11*
X101049072Y-65795450D02*
X87696750Y-79382871D01*
X87696750Y-79382871D02*
X74109329Y-66030550D01*
X74109329Y-66030550D02*
X87461650Y-52443129D01*
X87461650Y-52443129D02*
X101049072Y-65795450D01*
X60883815Y-66264302D02*
X78483720Y-73554421D01*
X53593696Y-83864207D02*
X60883815Y-66264302D01*
X71193601Y-91154326D02*
X53593696Y-83864207D01*
X78483720Y-73554421D02*
X71193601Y-91154326D01*
X70624333Y-100331846D02*
X57153949Y-113802231D01*
X57153949Y-113802231D02*
X43683565Y-100331846D01*
X43683565Y-100331846D02*
X57153949Y-86861462D01*
X57153949Y-86861462D02*
X70624333Y-100331846D01*
X97104200Y-81076800D02*
X97104200Y-100126800D01*
X78054200Y-81076800D02*
X97104200Y-81076800D01*
X78054200Y-100126800D02*
X78054200Y-81076800D01*
X97104200Y-100126800D02*
X78054200Y-100126800D01*
X145415000Y-93345000D02*
X126365000Y-93345000D01*
X126365000Y-93345000D02*
X126365000Y-74295000D01*
X126365000Y-74295000D02*
X145415000Y-74295000D01*
X145415000Y-74295000D02*
X145415000Y-93345000D01*
X131578538Y-100323949D02*
X118108154Y-113794333D01*
X118108154Y-86853565D02*
X131578538Y-100323949D01*
X104637769Y-100323949D02*
X118108154Y-86853565D01*
X118108154Y-113794333D02*
X104637769Y-100323949D01*
X126347585Y-115185491D02*
X133791013Y-97649874D01*
X133791013Y-97649874D02*
X151326630Y-105093302D01*
X151326630Y-105093302D02*
X143883202Y-122628919D01*
X143883202Y-122628919D02*
X126347585Y-115185491D01*
X120015000Y-140335000D02*
X120015000Y-121285000D01*
X120015000Y-121285000D02*
X139065000Y-121285000D01*
X139065000Y-121285000D02*
X139065000Y-140335000D01*
X139065000Y-140335000D02*
X120015000Y-140335000D01*
X121660336Y-83897515D02*
X104060431Y-91187634D01*
X114370217Y-66297610D02*
X121660336Y-83897515D01*
X96770312Y-73587729D02*
X114370217Y-66297610D01*
X104060431Y-91187634D02*
X96770312Y-73587729D01*
D12*
X77533714Y-37624190D02*
X77533714Y-37124190D01*
X77724190Y-37124190D01*
X77771809Y-37148000D01*
X77795619Y-37171809D01*
X77819428Y-37219428D01*
X77819428Y-37290857D01*
X77795619Y-37338476D01*
X77771809Y-37362285D01*
X77724190Y-37386095D01*
X77533714Y-37386095D01*
X78319428Y-37576571D02*
X78295619Y-37600380D01*
X78224190Y-37624190D01*
X78176571Y-37624190D01*
X78105142Y-37600380D01*
X78057523Y-37552761D01*
X78033714Y-37505142D01*
X78009904Y-37409904D01*
X78009904Y-37338476D01*
X78033714Y-37243238D01*
X78057523Y-37195619D01*
X78105142Y-37148000D01*
X78176571Y-37124190D01*
X78224190Y-37124190D01*
X78295619Y-37148000D01*
X78319428Y-37171809D01*
X78700380Y-37362285D02*
X78771809Y-37386095D01*
X78795619Y-37409904D01*
X78819428Y-37457523D01*
X78819428Y-37528952D01*
X78795619Y-37576571D01*
X78771809Y-37600380D01*
X78724190Y-37624190D01*
X78533714Y-37624190D01*
X78533714Y-37124190D01*
X78700380Y-37124190D01*
X78748000Y-37148000D01*
X78771809Y-37171809D01*
X78795619Y-37219428D01*
X78795619Y-37267047D01*
X78771809Y-37314666D01*
X78748000Y-37338476D01*
X78700380Y-37362285D01*
X78533714Y-37362285D01*
X79414666Y-37362285D02*
X79581333Y-37362285D01*
X79652761Y-37624190D02*
X79414666Y-37624190D01*
X79414666Y-37124190D01*
X79652761Y-37124190D01*
X80081333Y-37624190D02*
X80081333Y-37124190D01*
X80081333Y-37600380D02*
X80033714Y-37624190D01*
X79938476Y-37624190D01*
X79890857Y-37600380D01*
X79867047Y-37576571D01*
X79843238Y-37528952D01*
X79843238Y-37386095D01*
X79867047Y-37338476D01*
X79890857Y-37314666D01*
X79938476Y-37290857D01*
X80033714Y-37290857D01*
X80081333Y-37314666D01*
X80533714Y-37290857D02*
X80533714Y-37695619D01*
X80509904Y-37743238D01*
X80486095Y-37767047D01*
X80438476Y-37790857D01*
X80367047Y-37790857D01*
X80319428Y-37767047D01*
X80533714Y-37600380D02*
X80486095Y-37624190D01*
X80390857Y-37624190D01*
X80343238Y-37600380D01*
X80319428Y-37576571D01*
X80295619Y-37528952D01*
X80295619Y-37386095D01*
X80319428Y-37338476D01*
X80343238Y-37314666D01*
X80390857Y-37290857D01*
X80486095Y-37290857D01*
X80533714Y-37314666D01*
X80962285Y-37600380D02*
X80914666Y-37624190D01*
X80819428Y-37624190D01*
X80771809Y-37600380D01*
X80748000Y-37552761D01*
X80748000Y-37362285D01*
X80771809Y-37314666D01*
X80819428Y-37290857D01*
X80914666Y-37290857D01*
X80962285Y-37314666D01*
X80986095Y-37362285D01*
X80986095Y-37409904D01*
X80748000Y-37457523D01*
M02*
