G04 #@! TF.GenerationSoftware,KiCad,Pcbnew,(5.1.5)-3*
G04 #@! TF.CreationDate,2021-10-20T23:00:29+02:00*
G04 #@! TF.ProjectId,WFP_v2_0,5746505f-7632-45f3-902e-6b696361645f,v 0.2*
G04 #@! TF.SameCoordinates,Original*
G04 #@! TF.FileFunction,Other,User*
%FSLAX46Y46*%
G04 Gerber Fmt 4.6, Leading zero omitted, Abs format (unit mm)*
G04 Created by KiCad (PCBNEW (5.1.5)-3) date 2021-10-20 23:00:29*
%MOMM*%
%LPD*%
G04 APERTURE LIST*
%ADD10C,0.050000*%
G04 APERTURE END LIST*
D10*
X87497748Y-56579546D02*
X96912654Y-65831548D01*
X78245746Y-65994452D02*
X87497748Y-56579546D01*
X87660652Y-75246454D02*
X78245746Y-65994452D01*
X96912654Y-65831548D02*
X87660652Y-75246454D01*
X74662023Y-75137420D02*
X69610602Y-87332630D01*
X69610602Y-87332630D02*
X57415392Y-82281208D01*
X57415392Y-82281208D02*
X62466814Y-70085999D01*
X62466814Y-70085999D02*
X74662023Y-75137420D01*
X57153949Y-90998037D02*
X66487758Y-100331846D01*
X47820139Y-100331846D02*
X57153949Y-90998037D01*
X57153949Y-109665656D02*
X47820139Y-100331846D01*
X66487758Y-100331846D02*
X57153949Y-109665656D01*
X94179200Y-97201800D02*
X80979200Y-97201800D01*
X80979200Y-97201800D02*
X80979200Y-84001800D01*
X80979200Y-84001800D02*
X94179200Y-84001800D01*
X94179200Y-84001800D02*
X94179200Y-97201800D01*
X142490000Y-77220000D02*
X142490000Y-90420000D01*
X129290000Y-77220000D02*
X142490000Y-77220000D01*
X129290000Y-90420000D02*
X129290000Y-77220000D01*
X142490000Y-90420000D02*
X129290000Y-90420000D01*
X76535000Y-58917800D02*
X76535000Y-60817800D01*
X76535000Y-60817800D02*
X72835000Y-60817800D01*
X72835000Y-60817800D02*
X72835000Y-58917800D01*
X72835000Y-58917800D02*
X76535000Y-58917800D01*
X57670000Y-46770000D02*
G75*
G03X57670000Y-46770000I-3450000J0D01*
G01*
X103136000Y-106968000D02*
G75*
G03X103136000Y-106968000I-3450000J0D01*
G01*
X137934000Y-48802000D02*
G75*
G03X137934000Y-48802000I-3450000J0D01*
G01*
X52590000Y-130590000D02*
G75*
G03X52590000Y-130590000I-3450000J0D01*
G01*
X104409000Y-166912000D02*
G75*
G03X104409000Y-166912000I-3450000J0D01*
G01*
X146570000Y-145576000D02*
G75*
G03X146570000Y-145576000I-3450000J0D01*
G01*
X52810000Y-54080000D02*
X52810000Y-67830000D01*
X52810000Y-67830000D02*
X56410000Y-67830000D01*
X56410000Y-67830000D02*
X56410000Y-54080000D01*
X56410000Y-54080000D02*
X52810000Y-54080000D01*
X74786000Y-54414200D02*
X82186000Y-54414200D01*
X82186000Y-54414200D02*
X82186000Y-45814200D01*
X82186000Y-45814200D02*
X74786000Y-45814200D01*
X74786000Y-45814200D02*
X74786000Y-54414200D01*
X82488800Y-47403000D02*
X85788800Y-47403000D01*
X82488800Y-48863000D02*
X82488800Y-47403000D01*
X85788800Y-48863000D02*
X82488800Y-48863000D01*
X85788800Y-47403000D02*
X85788800Y-48863000D01*
X60063201Y-47836600D02*
X60063201Y-55236600D01*
X70063201Y-47836600D02*
X60063201Y-47836600D01*
X70063201Y-55236600D02*
X70063201Y-47836600D01*
X60063201Y-55236600D02*
X70063201Y-55236600D01*
X60125600Y-64482200D02*
X70125600Y-64482200D01*
X70125600Y-64482200D02*
X70125600Y-57082200D01*
X70125600Y-57082200D02*
X60125600Y-57082200D01*
X60125600Y-57082200D02*
X60125600Y-64482200D01*
X118108154Y-109657758D02*
X108774344Y-100323949D01*
X108774344Y-100323949D02*
X118108154Y-90990139D01*
X118108154Y-90990139D02*
X127441963Y-100323949D01*
X127441963Y-100323949D02*
X118108154Y-109657758D01*
X142333614Y-118793554D02*
X130182950Y-113635903D01*
X147491265Y-106642890D02*
X142333614Y-118793554D01*
X135340601Y-101485239D02*
X147491265Y-106642890D01*
X130182950Y-113635903D02*
X135340601Y-101485239D01*
X136140000Y-137410000D02*
X122940000Y-137410000D01*
X136140000Y-124210000D02*
X136140000Y-137410000D01*
X122940000Y-124210000D02*
X136140000Y-124210000D01*
X122940000Y-137410000D02*
X122940000Y-124210000D01*
X105643430Y-87365938D02*
X100592008Y-75170728D01*
X100592008Y-75170728D02*
X112787218Y-70119307D01*
X112787218Y-70119307D02*
X117838640Y-82314516D01*
X117838640Y-82314516D02*
X105643430Y-87365938D01*
X76509600Y-55539600D02*
X76509600Y-57439600D01*
X76509600Y-57439600D02*
X72809600Y-57439600D01*
X72809600Y-57439600D02*
X72809600Y-55539600D01*
X72809600Y-55539600D02*
X76509600Y-55539600D01*
M02*
