M48
; DRILL file {KiCad (5.1.5)-3} date 20/10/2021 19:23:11
; FORMAT={-:-/ absolute / metric / decimal}
; #@! TF.CreationDate,2021-10-20T19:23:11+02:00
; #@! TF.GenerationSoftware,Kicad,Pcbnew,(5.1.5)-3
; #@! TF.FileFunction,NonPlated,1,4,NPTH
FMAT,2
METRIC
T1C0.800
T2C1.700
T3C2.000
T4C4.000
%
G90
G05
T1
X76.748Y-41.948
X81.748Y-41.948
T2
X130.81Y-83.82
X140.97Y-83.82
X82.499Y-90.602
X92.659Y-90.602
X136.852Y-114.816
X140.822Y-105.463
X114.516Y-96.732
X121.7Y-103.916
X53.562Y-103.924
X60.746Y-96.74
X84.019Y-69.536
X91.14Y-62.29
X129.54Y-125.73
X129.54Y-135.89
X107.271Y-74.049
X111.159Y-83.436
X64.095Y-83.403
X67.983Y-74.016
T4
X135.89Y-83.82
X87.579Y-90.602
X138.837Y-110.139
X118.108Y-100.324
X57.154Y-100.332
X87.579Y-65.913
X129.54Y-130.81
X109.215Y-78.743
X66.039Y-78.709
T3
G00X82.03Y-130.31
M15
G01X82.03Y-131.31
M16
G05
G00X93.23Y-130.31
M15
G01X93.23Y-131.31
M16
G05
T0
M30
